<?xml version="1.0" encoding="utf-8"?>
<!-- Generator: Adobe Illustrator 15.1.0, SVG Export Plug-In . SVG Version: 6.00 Build 0)  -->
<!DOCTYPE svg PUBLIC "-//W3C//DTD SVG 1.1//EN" "http://www.w3.org/Graphics/SVG/1.1/DTD/svg11.dtd">
<svg version="1.1" id="Layer_1" xmlns="http://www.w3.org/2000/svg" xmlns:xlink="http://www.w3.org/1999/xlink" x="0px" y="0px"
	 width="1567px" height="450px" viewBox="0 0 1567 450" enable-background="new 0 0 1567 450" xml:space="preserve">
<rect x="-10.37" y="-8.398" fill="#FFFFFF" width="1585.421" height="467.976"/>
<path fill="#F5F5FF" d="M-64.823,560.083c58.471-12.54,122.368-51.91,171.629-83.656C144.85,451.908,75.711,310.046,120,305.5
	c52,36,362,111.106,627.436,32.784c79.178-26.638,157.692-64.187,242.704-65.123c81.848-0.901,172.029,18.11,246.339,50.201
	c76.084,32.856,317.06,58.198,398.229,47.18c0,0-179.712,149.13-191.854,148.366C1430.711,518.145-64.823,560.083-64.823,560.083z"
	/>
<g>
	<path fill="#F5F5FF" d="M1587.035,300.117c61.628,113.71,126.884,365.593,63.094,400.166
		c-63.777,34.564-232.448-161.27-294.074-274.979c-61.628-113.708-24.965-169.506,38.805-204.065
		C1458.648,186.669,1525.407,186.408,1587.035,300.117z"/>
</g>
<g>
	<path fill="#F5F5FF" d="M1409.244,221.346c-41.104,14.104-100.514,72.713-145.793,53.001
		c-58.803-25.586,8.825-110.819,51.877-77.198c-33.24-76.399,92.388-143.87,107.591-53.309c17.54-45.236,94.492-78.297,84.062-6.613
		C1501.583,174.318,1439.818,208.747,1409.244,221.346"/>
</g>
<g>
	<path fill="#F5F5FF" d="M154.499,376.796C140.265,505.347,50.205,749.463-21.911,741.479
		c-72.102-7.982-98.954-265.043-84.719-393.593c14.232-128.549,76.172-153.471,148.263-145.489
		C113.747,210.384,168.731,248.246,154.499,376.796z"/>
</g>
<g>
	<path fill="#F5F5FF" d="M53.388,210.689c-41.807-11.859-124.034,2.398-149.983-39.618c-33.708-54.555,70.455-85.994,86.642-33.822
		c16.271-81.713,157.944-65.482,118.78,17.577c40.208-27.153,122.273-10.419,72.821,42.513
		C156.058,224.727,85.688,217.779,53.388,210.689"/>
</g>
<rect x="917.63" y="-614.999" fill="#F5F5FF" width="1585.421" height="467.976"/>
</svg>
