<?xml version="1.0" encoding="utf-8"?>
<!-- Generator: Adobe Illustrator 15.1.0, SVG Export Plug-In . SVG Version: 6.00 Build 0)  -->
<!DOCTYPE svg PUBLIC "-//W3C//DTD SVG 1.1//EN" "http://www.w3.org/Graphics/SVG/1.1/DTD/svg11.dtd">
<svg version="1.1" id="Layer_1" xmlns="http://www.w3.org/2000/svg" xmlns:xlink="http://www.w3.org/1999/xlink" x="0px" y="0px"
	 width="1567px" height="450px" viewBox="0 0 1567 450" enable-background="new 0 0 1567 450" xml:space="preserve">
<rect x="-10.37" y="-8.398" fill="#F5F5FF" width="1585.421" height="467.976"/>
<path fill="#FFFFFF" d="M-64.823,548.084c58.471-12.54-41.306-80.258,7.956-112.004c38.044-24.519-20.29-112.448,23.999-116.994
	c52.139,3.144,506.869,85.521,780.304,7.199c79.178-26.638,157.692-64.187,242.704-65.123
	c81.848-0.901,172.029,18.11,246.339,50.201c76.084,32.856,317.06,58.198,398.229,47.18c0,0-179.712,149.13-191.854,148.366
	C1430.711,506.146-64.823,548.084-64.823,548.084z"/>
<g>
	<path fill="#FFFFFF" d="M1413.05,236.77c-36.784,12.622-89.948,65.07-130.468,47.43c-52.621-22.896,7.897-99.169,46.424-69.082
		c-29.746-68.368,82.676-128.747,96.281-47.706c15.696-40.48,84.56-70.066,75.225-5.917
		C1495.682,194.686,1440.41,225.496,1413.05,236.77"/>
</g>
<g>
	<path fill="#FFFFFF" d="M268.215,404.763c-12.448,112.424-91.21,325.915-154.279,318.932
		c-63.057-6.98-86.54-231.792-74.091-344.215c12.447-112.423,66.616-134.218,129.663-127.238
		C232.576,259.228,280.662,292.339,268.215,404.763z"/>
</g>
<g>
	<path fill="#FFFFFF" d="M179.789,259.494c-36.562-10.371-108.474,2.097-131.167-34.647c-29.479-47.711,61.616-75.206,75.772-29.58
		c14.23-71.461,138.13-57.267,103.879,15.373c35.164-23.747,106.934-9.112,63.685,37.179
		C269.579,271.771,208.037,265.694,179.789,259.494"/>
</g>
<path fill="#FFFFFF" d="M1586,9.287c48.707,169.509-18.714,88.01-301.359,90c-58.734,0.414-186.158-4.362-242.641-0.514
	c-87.156,5.938-211.118,31.139-286.661,48.211c-81.483,18.415-177.339,49.812-314.63,30.288C286,168.795-38.681,27.295-190,205.961
	c0,0,260-311.666,272-309.666S1561.081-77.436,1586,9.287z"/>
<g id="_x34_CPdk7_1_">
	<g>
		<g>
			<path fill-rule="evenodd" clip-rule="evenodd" fill="#F5F5FF" d="M1050.525,364.778c1.983-0.304,3.785-1.382,5.688-2.068"/>
			<path fill-rule="evenodd" clip-rule="evenodd" fill="#F5F5FF" d="M977.621,364.778c-1.266-0.361-2.574-0.718-3.62-1.551"/>
			<path fill-rule="evenodd" clip-rule="evenodd" fill="#F5F5FF" d="M1014.85,111.938c0.146,0.024,0.292,0.049,0.437,0.074
				c0.224,0.243,0.576,0.864,1.114,1.477"/>
		</g>
	</g>
</g>
<g>
	<path fill="#F5F5FF" d="M-254.391,161.39c-19.571,130.413,55.054,372.405-61.404,466.717
		c-151.206,122.5-286.006-178.898-135.215-247.738c-252.227-17.465-258.009-450.145,7.092-364.296
		c-97.232-110.55-78.516-364.013,99.879-235.581C-251.732-153.048-245.505,61.439-254.391,161.39"/>
</g>
<g id="XMLID_1_">
	<g>
		<path fill="#FFFFFF" d="M1001.699,257.887c-23.255,0.597-53.742,1.493-81.821,9.179c0.027-0.634,0.063-1.286,0.108-1.929
			c2.2-32.85,23.327-57.489,41.187-75.358c9.749-9.74,19.733-18.231,29.953-28.08c9.388-9.034,20.856-20.974,22.938-35.104
			c0.706-4.816-0.108-8.355-0.941-12.166l0.706-0.235l0.235-0.706c10.156,9.333,23.255,22.332,23.399,43.531
			c0.1,14.203-8.301,24.911-7.486,38.38c0.525,8.663,5.44,15.95,11.233,18.249c11.642,4.617,25.437-4.083,21.997-14.972
			c3.412,0.235,6.001,2.915,8.889,4.68c20.494,12.492,42.337,33.393,40.853,67.909c-9.532-3.078-45.849-9.695-59.011-9.695
			l-0.009,0.01c-7.215-6.047-15.407-11.08-23.02-15.634c-6.436-3.855-13.551-7.947-18.72-12.165
			c-5.992-4.906-13.252-12.221-11.233-22.938c-5.612,4.87-12.827,12.628-11.233,26.215
			C990.729,245.558,996.612,251.785,1001.699,257.887z"/>
		<path fill="#F5F5FF" d="M1112.949,271.266l-59.011-9.695C1067.101,261.57,1103.417,268.188,1112.949,271.266z"/>
		<path fill="#F5F5FF" d="M919.878,267.065l81.821-9.179c5.621,6.743,10.274,13.343,6.282,22.693
			c-5.477,12.836-27.591,8.744-29.953-3.738c-0.797-4.191,0.452-7.333,0.933-11.234c-11.542,8.247-26.062,22.576-23.871,43.993
			c1.503,14.628,11.343,22.947,21.064,30.424l-0.706,0.235l-0.235,0.697C944.889,330.9,917.923,308.903,919.878,267.065z"/>
		<path fill="#F5F5FF" d="M1001.699,257.887l-81.821,9.179C947.957,259.38,978.444,258.483,1001.699,257.887z"/>
		<path fill="#F5F5FF" d="M1053.938,261.57l59.011,9.695c-0.027,0.76-0.073,1.529-0.127,2.299
			c-1.349,18.811-11.18,32.633-21.997,43.061c-11.351,10.926-24.702,19.118-41.187,23.87l0.227-0.706l-0.697-0.235
			c14.42-9.885,28.369-21.146,25.273-44.464c-1.892-14.266-10.22-24.92-20.512-33.51L1053.938,261.57z"/>
	</g>
	<g>
	</g>
</g>
<g id="XMLID_2_">
	<g>
		<path fill="#FFFFFF" d="M1600.622,369.981c43.509,111.628,75.134,269.825,27.992,295.374
			c-57.076,30.936-208.016-144.317-263.167-246.074c-55.143-101.748-22.336-151.683,34.73-182.61
			c57.084-30.936,116.826-31.168,171.978,70.589C1581.758,324.979,1591.458,346.446,1600.622,369.981z"/>
	</g>
	<g>
	</g>
</g>
</svg>
