<?xml version="1.0" encoding="utf-8"?>
<!-- Generator: Adobe Illustrator 15.1.0, SVG Export Plug-In . SVG Version: 6.00 Build 0)  -->
<!DOCTYPE svg PUBLIC "-//W3C//DTD SVG 1.1//EN" "http://www.w3.org/Graphics/SVG/1.1/DTD/svg11.dtd">
<svg version="1.1" id="Layer_1" xmlns="http://www.w3.org/2000/svg" xmlns:xlink="http://www.w3.org/1999/xlink" x="0px" y="0px"
	 width="1567px" height="450px" viewBox="0 0 1567 450" enable-background="new 0 0 1567 450" xml:space="preserve">
<rect x="-10.37" y="-8.398" fill="#F5F5FF" width="1585.421" height="467.976"/>
<g>
	<path fill="#FFFFFF" d="M1542.305,427.077c-14.779,93.422-88.889,268.681-141.299,260.39
		c-52.397-8.289-63.252-196.988-48.472-290.409c14.777-93.421,60.874-109.516,113.265-101.227
		C1518.207,304.123,1557.083,333.655,1542.305,427.077z"/>
</g>
<g>
	<path fill="#FFFFFF" d="M1474.104,302.289c-30.136-10.089-90.689-2.476-108.214-34.054c-22.764-41.001,54.399-60.417,64.445-21.754
		c14.671-59.138,117.611-42.452,86.171,16.888c30.298-18.465,89.676-3.443,51.746,33.538
		C1548.627,316.043,1497.458,308.568,1474.104,302.289"/>
</g>
<g>
	<path fill="#FFFFFF" d="M-142.876,97.919C-229.907,2.245-353.502-226.727-299.831-275.55
		c53.662-48.814,264.269,101.005,351.298,196.678c87.03,95.672,64.774,158.619,11.12,207.425
		C8.915,177.375-55.845,193.592-142.876,97.919z"/>
</g>
<g>
	<path fill="#FFFFFF" d="M48.593,131.89c36.54-23.523,80.21-94.639,128.889-86.326c63.215,10.782,17.931,109.714-31.912,87.363
		c50.545,66.234-55.304,161.789-91.722,77.49c-6.214,48.118-73.028,98.621-80.042,26.523
		C-29.821,199.634,21.919,151.434,48.593,131.89"/>
</g>
<g>
	<path fill="#FFFFFF" d="M737.66-155.227c53.053,117.954,99.512,373.973,33.342,403.735
		c-66.158,29.757-219.892-178.01-272.944-295.963c-53.054-117.953-12.367-170.888,53.782-200.64
		C618.01-277.854,684.606-273.18,737.66-155.227z"/>
</g>
<g>
	<path fill="#FF9900" d="M566.178-246.925c-42.035,11.027-105.613,65.084-149.312,42.079
		c-56.751-29.862,16.992-109.864,57.441-73.152c-27.502-78.648,102.77-136.647,111.237-45.21
		c20.836-43.816,100.021-71.098,84.322-0.382C661.74-286.998,597.6-257.229,566.178-246.925"/>
</g>
<g>
	<path fill="#FFFFFF" d="M413.193,208.41c-30.429,66.694-122.147,182.178-159.561,165.11
		c-37.407-17.066-6.343-160.225,24.085-226.917c30.427-66.691,68.189-69.142,105.59-52.077
		C420.721,111.596,443.621,141.718,413.193,208.41z"/>
</g>
<g>
	<path fill="#FFFFFF" d="M388.169,101.072c-20.41-13.789-67.206-20.673-73.737-47.891c-8.488-35.342,53.161-33.823,52.638-2.867
		c23.231-41.115,96.635-7.287,60.84,30.497c26.457-7.499,67.678,16.043,31.679,35.785
		C440.961,126.811,404.304,110.609,388.169,101.072"/>
</g>
<g>
	<path fill="#FFFFFF" d="M895.813,388.839c46.695-97.54,185.116-265.375,239.834-239.182
		c54.708,26.189,4.995,236.494-41.699,334.032c-46.692,97.538-102.455,100.124-157.155,73.937
		C882.076,531.429,849.12,486.377,895.813,388.839z"/>
</g>
<g>
	<path fill="#FFFFFF" d="M929.801,547.837c29.729,20.894,98.562,32.32,107.454,72.643c11.558,52.358-79.329,48.439-77.716,2.796
		c-35.382,60.009-142.727,8.118-88.904-46.637c-39.227,10.341-99.384-25.504-45.75-53.643
		C852.637,508.437,906.264,533.331,929.801,547.837"/>
</g>
<g>
	<path fill="#FFFFFF" d="M579.438,289.078c62.051,17.234,174.86,80.941,165.193,115.75c-9.666,34.803-138.15,27.527-200.2,10.293
		c-62.049-17.232-69.365-49.66-59.7-84.458C494.4,295.854,517.389,271.845,579.438,289.078z"/>
</g>
<g>
	<path fill="#FFFFFF" d="M489.744,325.545c-9.159,19.605-8.699,61.155-31.418,70.562c-29.499,12.223-36.654-41.477-9.723-45.278
		c-38.867-14.505-19.605-82.845,18.099-56.981c-10.144-21.925,4.617-60.927,26.695-32.404
		C504.82,276.201,495.801,310.234,489.744,325.545"/>
</g>
<g>
	<path fill="#FFFFFF" d="M310.223,715.776c94.14,209.303,176.579,663.593,59.163,716.405
		c-117.394,52.802-390.186-315.868-484.324-525.169c-94.141-209.301-21.944-303.231,95.433-356.025
		C97.912,498.181,216.083,506.476,310.223,715.776z"/>
</g>
<g>
	<path fill="#FFFFFF" d="M5.938,553.063c-74.588,19.567-187.404,115.488-264.944,74.667
		c-100.702-52.989,30.151-194.947,101.925-129.803c-48.8-139.557,182.359-242.475,197.383-80.225
		c36.972-77.747,177.482-126.158,149.624-0.676C175.509,481.956,61.695,534.78,5.938,553.063"/>
</g>
<path fill="#FFFFFF" d="M1548.84-289.726c-134.215,170.21-478.732,437.559-574.22,362.265
	c-95.468-75.276,94.247-464.687,228.462-634.895c134.212-170.209,244.4-150.741,339.854-75.473
	C1638.42-562.533,1683.054-459.935,1548.84-289.726z"/>
<path fill="#FFFFFF" d="M1552.305-615.611c-48.947-53.933-178.534-106.555-178.188-189.32
	c0.425-107.476,176.443-59.84,153.211,28.71c95.587-101.79,282.689,46.9,153.35,130.307c81.26-2.971,183.141,93.587,65.88,125.026
	C1685.88-504.623,1591.955-576.892,1552.305-615.611"/>
<g>
	<path fill="#FFFFFF" d="M1339.935,60.653c46.548-29.467,151.712-64.458,168.242-38.345
		c16.526,26.107-61.837,103.432-108.384,132.897c-46.548,29.468-71.316,15.494-87.842-10.61
		C1295.422,118.483,1293.387,90.12,1339.935,60.653z"/>
</g>
<g>
	<path fill="#FFFFFF" d="M1311.582,138.479c7.178,17.062,33.798,40.62,26.725,60.431c-9.179,25.727-47.35-0.557-34.301-19.822
		c-31.511,16.328-63.805-35.116-25.756-44.187c-19.73-6.15-35.997-37.9-5.232-35.533
		C1288.936,100.593,1305.347,125.85,1311.582,138.479"/>
</g>
<g>
	<path fill="#F5F5FF" d="M2455.498,764.908c86.323,159.273,177.727,512.088,88.376,560.514
		c-89.333,48.416-325.592-225.889-411.911-385.162c-86.322-159.271-34.969-237.428,54.353-285.836
		C2275.666,606,2369.175,605.635,2455.498,764.908z"/>
</g>
<g>
	<path fill="#F5F5FF" d="M2206.465,654.572c-57.575,19.755-140.789,101.85-204.212,74.238
		c-82.365-35.838,12.36-155.225,72.664-108.131c-46.561-107.014,129.407-201.521,150.702-74.67
		c24.569-63.363,132.356-109.672,117.747-9.264C2335.805,588.701,2249.291,636.926,2206.465,654.572"/>
</g>
</svg>
