<?xml version="1.0" encoding="utf-8"?>
<!-- Generator: Adobe Illustrator 15.1.0, SVG Export Plug-In . SVG Version: 6.00 Build 0)  -->
<!DOCTYPE svg PUBLIC "-//W3C//DTD SVG 1.1//EN" "http://www.w3.org/Graphics/SVG/1.1/DTD/svg11.dtd">
<svg version="1.1" id="Layer_1" xmlns="http://www.w3.org/2000/svg" xmlns:xlink="http://www.w3.org/1999/xlink" x="0px" y="0px"
	 width="1567px" height="450px" viewBox="0 0 1567 450" enable-background="new 0 0 1567 450" xml:space="preserve">
<rect x="-10.37" y="-8.398" fill="#FFFFFF" width="1585.421" height="467.976"/>
<g>
	<path fill="#FF9900" d="M566.178-246.925c-42.035,11.027-105.613,65.084-149.312,42.079
		c-56.751-29.862,16.992-109.864,57.44-73.152c-27.502-78.648,102.771-136.647,111.237-45.21
		c20.836-43.816,100.021-71.098,84.322-0.382C661.74-286.998,597.6-257.229,566.178-246.925"/>
</g>
<g>
	<path fill="#FFFFFF" d="M929.801,547.837c29.729,20.894,98.562,32.32,107.454,72.644c11.558,52.357-79.329,48.438-77.716,2.796
		c-35.382,60.009-142.727,8.118-88.904-46.638c-39.227,10.342-99.384-25.504-45.75-53.643
		C852.637,508.438,906.264,533.331,929.801,547.837"/>
</g>
<g>
	<path fill="#FFFFFF" d="M579.438,289.078c62.052,17.234,174.86,80.941,165.193,115.75c-9.666,34.803-138.15,27.527-200.2,10.293
		c-62.049-17.232-69.364-49.66-59.7-84.458C494.4,295.854,517.389,271.845,579.438,289.078z"/>
</g>
<g>
	<path fill="#FFFFFF" d="M489.744,325.545c-9.159,19.605-8.699,61.155-31.418,70.562c-29.499,12.223-36.654-41.478-9.723-45.278
		c-38.867-14.505-19.605-82.845,18.099-56.981c-10.145-21.925,4.617-60.927,26.694-32.404
		C504.82,276.201,495.801,310.234,489.744,325.545"/>
</g>
<g>
	<path fill="#F5F5FF" d="M627.583,140.711C1020,133.98,1789.501,310.909,1793.279,531.049
		c3.779,220.1-759.598,400.058-1152.009,406.789c-392.413,6.735-491.312-170.085-495.087-390.152
		C142.414,327.546,235.172,147.447,627.583,140.711z"/>
</g>
<g>
	<path fill="#F5F5FF" d="M166.609,509.103c-19.571,130.413,55.054,372.405-61.404,466.717
		c-151.206,122.5-286.006-178.897-135.215-247.737c-252.227-17.466-258.009-450.146,7.092-364.297
		c-97.232-110.55-78.515-364.013,99.879-235.581C169.267,194.665,175.495,409.152,166.609,509.103"/>
</g>
<path fill="#FFFFFF" d="M1552.305-615.611c-48.946-53.933-178.533-106.555-178.188-189.32
	c0.425-107.476,176.443-59.84,153.211,28.71c95.587-101.79,282.689,46.899,153.35,130.307
	c81.261-2.971,183.142,93.587,65.881,125.026C1685.88-504.623,1591.955-576.892,1552.305-615.611"/>
<g>
	<path fill="#F5F5FF" d="M2455.498,764.908c86.323,159.272,177.727,512.088,88.376,560.514
		c-89.333,48.416-325.592-225.889-411.911-385.162c-86.322-159.271-34.969-237.428,54.354-285.836
		C2275.666,606,2369.175,605.635,2455.498,764.908z"/>
</g>
<g>
	<path fill="#F5F5FF" d="M2206.465,654.572c-57.574,19.755-140.789,101.85-204.212,74.238
		c-82.364-35.839,12.36-155.226,72.664-108.132c-46.562-107.014,129.407-201.521,150.702-74.67
		c24.568-63.362,132.355-109.672,117.747-9.264C2335.805,588.701,2249.291,636.926,2206.465,654.572"/>
</g>
</svg>
