<?xml version="1.0" encoding="utf-8"?>
<!-- Generator: Adobe Illustrator 15.1.0, SVG Export Plug-In . SVG Version: 6.00 Build 0)  -->
<!DOCTYPE svg PUBLIC "-//W3C//DTD SVG 1.1//EN" "http://www.w3.org/Graphics/SVG/1.1/DTD/svg11.dtd">
<svg version="1.1" id="Layer_1" xmlns="http://www.w3.org/2000/svg" xmlns:xlink="http://www.w3.org/1999/xlink" x="0px" y="0px"
	 width="1567px" height="450px" viewBox="0 0 1567 450" enable-background="new 0 0 1567 450" xml:space="preserve">
<rect x="-10.37" y="-8.398" fill="#FFFFFF" width="1585.421" height="467.976"/>
<g>
	<path fill="#FF9900" d="M566.178-246.925c-42.035,11.027-105.613,65.084-149.312,42.079
		c-56.751-29.862,16.992-109.864,57.439-73.152c-27.502-78.648,102.771-136.647,111.237-45.21
		c20.836-43.816,100.021-71.098,84.322-0.382C661.74-286.998,597.6-257.229,566.178-246.925"/>
</g>
<g>
	<path fill="#FFFFFF" d="M929.801,547.837c29.729,20.894,98.562,32.32,107.454,72.644c11.558,52.357-79.329,48.438-77.716,2.797
		c-35.382,60.009-142.727,8.117-88.904-46.639c-39.227,10.342-99.384-25.504-45.75-53.643
		C852.637,508.438,906.264,533.331,929.801,547.837"/>
</g>
<g>
	<path fill="#FFFFFF" d="M579.438,289.078c62.053,17.234,174.86,80.941,165.193,115.75c-9.666,34.803-138.15,27.527-200.2,10.293
		c-62.049-17.232-69.363-49.66-59.7-84.458C494.4,295.854,517.389,271.845,579.438,289.078z"/>
</g>
<g>
	<path fill="#FFFFFF" d="M489.744,325.545c-9.159,19.605-8.699,61.155-31.418,70.562c-29.499,12.223-36.654-41.479-9.723-45.278
		c-38.867-14.505-19.605-82.845,18.099-56.981c-10.146-21.925,4.617-60.927,26.694-32.404
		C504.82,276.201,495.801,310.234,489.744,325.545"/>
</g>
<g>
	<path fill="#F5F5FF" d="M627.583,140.711C1020,133.98,1789.501,310.909,1793.279,531.049
		c3.779,220.101-759.599,400.059-1152.01,406.789c-392.413,6.735-491.312-170.085-495.086-390.152
		C142.414,327.546,235.172,147.447,627.583,140.711z"/>
</g>
<g>
	<path fill="#F5F5FF" d="M166.609,509.104c-19.571,130.412,55.054,372.404-61.404,466.717
		C-46.001,1098.32-180.801,796.923-30.01,728.083c-252.227-17.466-258.009-450.146,7.092-364.297
		c-97.232-110.55-78.515-364.013,99.879-235.581C169.267,194.665,175.495,409.152,166.609,509.104"/>
</g>
<path fill="#FFFFFF" d="M1552.305-615.611c-48.945-53.933-178.532-106.555-178.188-189.32
	c0.425-107.476,176.443-59.84,153.211,28.71c95.587-101.79,282.689,46.898,153.35,130.307
	c81.262-2.971,183.143,93.587,65.881,125.026C1685.88-504.623,1591.955-576.892,1552.305-615.611"/>
<g>
	<path fill="#F5F5FF" d="M2455.498,764.908c86.323,159.271,177.727,512.088,88.376,560.514
		c-89.333,48.416-325.592-225.889-411.911-385.162c-86.322-159.271-34.969-237.428,54.354-285.836
		C2275.666,606,2369.175,605.635,2455.498,764.908z"/>
</g>
<g>
	<path fill="#F5F5FF" d="M2206.465,654.572c-57.574,19.755-140.789,101.85-204.212,74.238
		c-82.364-35.84,12.36-155.227,72.664-108.133c-46.562-107.014,129.407-201.521,150.702-74.67
		c24.568-63.361,132.354-109.672,117.747-9.264C2335.805,588.701,2249.291,636.926,2206.465,654.572"/>
</g>
<g>
	<g>
	</g>
</g>
<g id="XMLID_1_">
	<g>
		<path fill="#FFFFFF" d="M1336.46,244c0.12,8.82,1.55,20.3-0.75,27.3c-2.62,7.92-14.29,12.33-23.91,17.931
			c-19.78,11.52-32.109,19.199-52.3,30.63c-7.83,4.439-18.66,12.8-27.64,13.449c-10.19,0.74-16.221-5.579-23.16-9.71
			c-7.07-4.21-13.51-6.1-19.42-12.699c7.479-0.61,10.6-6.351,15.68-5.98c9.47,0.69,16.22,13.17,24.66,13.45
			c5.479,0.18,17.18-8.851,23.91-12.7c16.21-9.29,28-15.85,45.569-26.15c4.41-2.59,21.011-10.17,22.41-13.449
			c1.94-4.54,0-18.66,0-26.15L1336.46,244z"/>
		<path fill="#F5F5FF" d="M1335.71,155.5c4.35,13.46,0.74,42.03,0.74,58.28c0,8.82,0,18.63,0,29.13c0,0.359,0,0.72,0.01,1.09
			l-14.95-4.08c0-19.87,0-32.34,0-52.29c0-7.25,2.17-20.08,0-26.15c-1.85-5.19-17.189-11.18-22.41-14.2
			c-20.609-11.87-36.399-21-57.529-32.87c-3.13-1.76-8.66-6.65-11.2-6.72c-5.8-0.16-17.51,10.23-23.16,13.45
			c-19.77,11.24-36.72,20.66-57.53,32.87c-2.91,1.71-10.41,4.86-11.21,6.72c-1.95,4.58,0,18.64,0,26.15c0,2.85,0,5.63,0,8.37
			l-15.68-2.5c-0.74-14.25-1.41-28.29,1.49-37.25c2.12-6.53,14.39-12.85,23.16-17.93c18.52-10.72,33.979-19.74,51.55-29.88
			c7.33-4.24,21.71-15.11,29.88-14.94c10.54,0.21,20.66,8.47,29.14,13.44c18.7,10.99,33.99,19.98,53.79,31.38
			C1320.79,142.75,1333.32,148.12,1335.71,155.5z"/>
		<path fill="#F5F5FF" d="M1299.1,221.25c1.631,3.23,2.28,7.66,2.221,12l-17.971-4.06h-0.01c-4.32-6.71-20.729-7.32-32.05-8.69
			c-12.49-1.51-26.42-4.19-32.13-10.46c-12.13-13.34-2.771-32.32,6.72-38.1c5.95-3.62,13.93-4.5,21.67-5.23
			c17.391-1.64,37.681,1.22,45.57,14.19c1.99,3.28,6.31,13.66,4.479,16.44c-1.569,2.39-13.09,2.58-14.939,1.49
			c-3.15-1.84-3.51-11.37-7.47-14.19c-15.011-10.71-42.381-2.38-44.08,5.23c-3.521,15.75,24.59,15.27,35.859,17.18
			C1280.22,209.29,1294.19,211.52,1299.1,221.25z"/>
		<path fill="#FFFFFF" d="M1283.35,229.19l17.971,4.06c-0.061,4.56-0.91,9.03-2.221,11.9c-12.25,26.729-77.859,22.81-86.659-2.98
			c-1.051-3.06-2.671-10.22-1.5-11.96c1.39-2.06,13.149-2.09,14.199-1.49c2.37,1.351,2.24,7.431,2.98,8.96
			c3.81,7.801,15.22,10.971,26.899,11.21c15.511,0.311,33.351-3.37,29.141-17.93C1283.98,230.33,1283.7,229.74,1283.35,229.19z"/>
		<path fill="#F5F5FF" d="M1201.23,169.7c3.289,3.29,0.75,24.23,0.75,29.88c0,3.23,0,6.47,0,9.67l-15.69-3.5
			c0-12.24,0-24.41,0-36.05C1190.18,169.3,1198.86,167.33,1201.23,169.7z"/>
		<path fill="#FFFFFF" d="M1201.98,229.46c0,36.71,6.109,76.18-33.62,68.74c-10.15-1.9-40.521-16.76-44.08-26.9
			c-4.04-11.52-0.75-43.59-0.75-58.27c0-6.44-0.38-13.38-0.74-20.28l15.68,2.5c0,14.8,0,28.27,0,43.93c0,7.851-2.17,19.23,0,25.4
			c1.84,5.21,12.23,8.7,16.44,11.21c8.6,5.11,25.28,13.97,30.63,0.74c2.65-6.54,0.75-18.351,0.75-26.15c0-14.43,0-29.58,0-44.63
			l15.69,3.5C1201.98,216.54,1201.98,223.56,1201.98,229.46z"/>
	</g>
	<g>
	</g>
</g>
</svg>
