<?xml version="1.0" encoding="utf-8"?>
<!-- Generator: Adobe Illustrator 15.1.0, SVG Export Plug-In . SVG Version: 6.00 Build 0)  -->
<!DOCTYPE svg PUBLIC "-//W3C//DTD SVG 1.1//EN" "http://www.w3.org/Graphics/SVG/1.1/DTD/svg11.dtd">
<svg version="1.1" id="Layer_1" xmlns="http://www.w3.org/2000/svg" xmlns:xlink="http://www.w3.org/1999/xlink" x="0px" y="0px"
	 width="1567px" height="450px" viewBox="0 0 1567 450" enable-background="new 0 0 1567 450" xml:space="preserve">
<rect x="-10.37" y="-8.398" fill="#FFFFFF" width="1585.421" height="467.976"/>
<g>
	<path fill="#FF9900" d="M566.178-246.925c-42.035,11.027-105.613,65.084-149.312,42.079
		c-56.751-29.862,16.992-109.864,57.439-73.152c-27.502-78.648,102.771-136.647,111.237-45.21
		c20.836-43.816,100.021-71.098,84.322-0.382C661.74-286.998,597.6-257.229,566.178-246.925"/>
</g>
<g>
	<path fill="#FFFFFF" d="M929.801,547.837c29.729,20.894,98.562,32.32,107.454,72.644c11.558,52.357-79.329,48.438-77.716,2.797
		c-35.382,60.009-142.727,8.117-88.904-46.639c-39.227,10.342-99.384-25.504-45.75-53.643
		C852.637,508.438,906.264,533.331,929.801,547.837"/>
</g>
<g>
	<path fill="#FFFFFF" d="M579.438,289.078c62.053,17.234,174.86,80.941,165.193,115.75c-9.666,34.803-138.15,27.527-200.2,10.293
		c-62.049-17.232-69.363-49.66-59.7-84.458C494.4,295.854,517.389,271.845,579.438,289.078z"/>
</g>
<g>
	<path fill="#FFFFFF" d="M489.744,325.545c-9.159,19.605-8.699,61.155-31.418,70.562c-29.499,12.223-36.654-41.479-9.723-45.278
		c-38.867-14.505-19.605-82.845,18.099-56.981c-10.146-21.925,4.617-60.927,26.694-32.404
		C504.82,276.201,495.801,310.234,489.744,325.545"/>
</g>
<g>
	<path fill="#F5F5FF" d="M627.583,140.711C1020,133.98,1789.501,310.909,1793.279,531.049
		c3.779,220.101-759.599,400.059-1152.01,406.789c-392.413,6.735-491.312-170.085-495.086-390.152
		C142.414,327.546,235.172,147.447,627.583,140.711z"/>
</g>
<g>
	<path fill="#F5F5FF" d="M166.609,509.104c-19.571,130.412,55.054,372.404-61.404,466.717
		C-46.001,1098.32-180.801,796.923-30.01,728.083c-252.227-17.466-258.009-450.146,7.092-364.297
		c-97.232-110.55-78.515-364.013,99.879-235.581C169.267,194.665,175.495,409.152,166.609,509.104"/>
</g>
<path fill="#FFFFFF" d="M1552.305-615.611c-48.945-53.933-178.532-106.555-178.188-189.32
	c0.425-107.476,176.443-59.84,153.211,28.71c95.587-101.79,282.689,46.898,153.35,130.307
	c81.262-2.971,183.143,93.587,65.881,125.026C1685.88-504.623,1591.955-576.892,1552.305-615.611"/>
<g>
	<path fill="#F5F5FF" d="M2455.498,764.908c86.323,159.271,177.727,512.088,88.376,560.514
		c-89.333,48.416-325.592-225.889-411.911-385.162c-86.322-159.271-34.969-237.428,54.354-285.836
		C2275.666,606,2369.175,605.635,2455.498,764.908z"/>
</g>
<g>
	<path fill="#F5F5FF" d="M2206.465,654.572c-57.574,19.755-140.789,101.85-204.212,74.238
		c-82.364-35.84,12.36-155.227,72.664-108.133c-46.562-107.014,129.407-201.521,150.702-74.67
		c24.568-63.361,132.354-109.672,117.747-9.264C2335.805,588.701,2249.291,636.926,2206.465,654.572"/>
</g>
<g id="fU5y1M_9_">
	<g>
		<g>
		</g>
	</g>
</g>
<g id="XMLID_1_">
	<g>
		<path fill="#FFFFFF" d="M1100.722,189.243l-14.659-2.89C1086.702,186.353,1098.072,188.693,1100.722,189.243z"/>
		<path fill="#F5F5FF" d="M1101.262,189.353l-0.12-0.03c-0.029,0-0.06-0.01-0.09-0.01l-0.08-0.02c-0.05-0.01-0.109-0.03-0.18-0.04
			l-0.07-0.01c-2.649-0.55-14.02-2.89-14.659-2.89h-0.03c8.96-8.27,21.84-14.31,34.109-18.81c2.99-1.1,12.9-3.69,13.431-4.68
			c0.47-0.85-1.37-7.97-1.75-9.93c-5.351-27.51-6.24-70.92,30.37-67.17c15.46,1.58,30.529,11.61,41.479,20.44
			c2.97,2.41,8.771,9.82,10.51,9.93c1.71,0.12,9.261-7.37,11.681-9.34c11.1-9.06,23.33-19.21,42.06-21.03
			c32.271-3.14,35.91,36.82,29.79,68.34c-0.37,1.88-2.7,7.3-2.34,8.18c0.92,2.25,12.32,4.81,16.36,6.43
			c14.619,5.85,31.489,14.29,39.13,28.03c11.09,19.95-6.95,36.81-21.86,45.92l-16.82-4.73c10.71-4.65,19.931-9.91,25.83-17.24
			c8.54-10.61,3.16-20.33-5.26-27.45c-11.54-9.76-26.16-15.27-39.13-18.69c-0.67-0.18-0.89,0.4-1.17,0.58
			c-2.37,1.48-5.16,12.9-7.01,17.52c-2.301,5.74-6.471,13.21-6.42,16.94c0.04,4.2,5.77,12.97,7.59,17.53
			c0.489,1.22,0.96,2.699,1.43,4.279l-13.56-3.41c-0.811-2.029-1.721-3.6-3.061-4.379c-0.47,1.1-0.96,2.18-1.479,3.24l-11.11-2.8
			c3.41-5.14,6.91-11.05,6.75-15.04c-0.21-5.16-10.12-18.46-12.27-22.2c-2.421-4.22-9.23-19.63-13.431-21.61
			c-3.74-1.76-22.899-0.61-26.29-0.58c-6.09,0.04-20.33-1.37-24.529,0.58c-3.98,1.85-11.57,18.43-13.431,21.61
			c-1.58,2.69-6.319,9.73-9.42,15.64l-20.46-4.23h-0.01c-1.25-2.37-2.38-4.44-2.82-5.57c-2.22-5.72-3.59-16.13-7.6-18.1
			c-0.51-0.26-1.11,0.58-1.16,0.58c-6.23-0.41-14.46,4.49-19.87,7.01C1109.772,184.243,1104.912,187.002,1101.262,189.353z
			 M1286.612,148.263c3.51-21.43,4.279-53.7-18.69-50.82c-15.64,1.97-25.359,10.34-35.63,18.69c-1.94,1.58-9.35,7.15-9.35,8.77
			c0.01,1.86,9.649,11.29,12.27,14.6c3.41,4.32,8.17,12.74,12.26,14.6c4.36,1.99,12.46,1.36,18.7,2.34c4.26,0.67,16,4.83,18.101,3.5
			C1285.252,159.323,1285.922,152.482,1286.612,148.263z M1276.682,183.893c0.881-2.33,5.73-10.54,4.091-12.85
			c-1.9-2.65-22.681-2.44-25.12-4.09c5.069,9.93,10.92,19.07,16.359,28.62C1273.912,192.183,1274.822,188.812,1276.682,183.893z
			 M1231.122,152.353c-5.22-6.43-11.14-13.93-16.36-19.28c-0.58-0.59-1.67,1.67-1.75,1.76c-4.16,4.53-10.84,11.4-14.6,18.1
			C1209.122,152.542,1221.382,153.713,1231.122,152.353z M1200.162,131.913c1.81-2.13,6.53-6.1,6.43-7.6
			c-0.05-0.62-6.75-5.94-8.77-7.59c-8.51-7-23.34-16.48-32.12-18.69c-17.99-4.54-24.08,8.22-25.12,22.78
			c-0.98,13.75,1.64,27.31,4.09,39.13c5.771-0.75,11.391-2.43,18.11-3.5c6.08-0.97,14.28,0.02,19.27-2.34
			c5.29-2.49,7.91-10.52,11.681-15.18C1195.392,136.863,1197.742,134.743,1200.162,131.913z M1157.522,195.573
			c4.93-10.07,10.739-19.24,16.359-28.62c-9.25,0.69-17.2,2.66-25.71,4.09C1150.692,179.823,1153.342,188.473,1157.522,195.573z"/>
		<path fill="#FFFFFF" d="M1101.142,189.323l0.12,0.03c-1.56,1.01-2.899,1.94-3.899,2.72c-4.391,3.41-10.771,10.56-11.101,16.35
			c-0.89,15.58,21.931,26.47,33.88,31.55c2.07,0.88,14.54,6.72,16.351,5.84c1.63-0.8,1.56-5.43,2.92-9.35
			c2.47-7.101,4.41-11.4,7.01-17.52c0.69-1.63,4.021-6.6,4.09-8.76c0.09-2.6-2.54-7.76-4.76-11.96l20.46,4.23
			c-1.68,3.19-2.88,6.06-2.85,7.73c0.05,2.7,4.3,8.78,5.84,11.68c2.399,4.48,4.51,7.78,6.43,11.1c3.141,5.42,9.04,18.8,14.021,21.02
			c3.08,1.391,9.21,0.41,13.43,0.59c7.04,0.29,29.84,2.721,36.8-0.59c2.37-1.12,4.88-7.109,7.01-10.51
			c2.24-3.58,4.23-7.23,6.421-11.1c1.119-1.971,3.3-4.98,5.52-8.32l11.11,2.8c-4.311,8.91-9.96,16.49-14.29,25.38
			c4.67,0.21,7.689-0.89,12.85-1.75c1.93-0.319,12-1.01,12.85-2.34c1.311-2.04-2.899-9.2-4.09-12.26
			c-1.12-2.91-1.899-5.68-2.779-7.891l13.56,3.41c1.71,5.811,3.37,12.99,5.58,13.82c1.34,0.51,9.45-3.54,12.26-4.67
			c2.15-0.86,4.25-1.73,6.3-2.62l16.82,4.73c-1.939,1.189-3.83,2.239-5.59,3.149c-3.41,1.75-8.01,3.67-13.44,5.84
			c-4.479,1.79-13.26,3.271-14.02,4.67c-0.49,0.91,2.64,14.32,2.92,16.36c3.729,26.74,1,62.8-29.2,61.33
			c-17.08-0.84-31.64-11.08-43.229-20.45c-2.9-2.35-9.5-9.85-11.091-9.93c-2.38-0.11-9.18,7.47-12.27,9.93
			c-11.97,9.55-42.97,30.601-61.91,15.19c-13.49-10.971-14.42-39.48-9.939-62.5c0.33-1.67,2.739-7.86,2.34-8.761
			c-0.61-1.39-9.351-3.619-12.271-4.68c-12.359-4.47-23.68-10.229-32.12-17.52c-7.85-6.78-19.21-21.47-12.27-36.8
			c2.05-4.51,5.21-8.54,9.12-12.14h0.03l14.659,2.89l0.07,0.01c0.07,0.01,0.13,0.03,0.18,0.04l0.08,0.02
			C1101.082,189.312,1101.112,189.323,1101.142,189.323z M1288.952,296.043c0.96-13.46-1.561-25.78-4.101-36.801
			c-5.909,1.511-11.71,2.23-19.85,3.511c-6.54,1.02-15.1,0.88-18.11,2.33c-1.409,0.68-4.989,6.46-5.84,7.6
			c-4.64,6.24-6.979,9.53-11.68,15.18c-1.38,1.65-6.12,4.771-5.85,7.601c0.09,0.91,6.52,6.3,8.77,8.17
			c8.83,7.37,23.56,15.88,32.71,18.109C1283.302,326.213,1287.972,309.652,1288.952,296.043z M1231.122,266.253
			c-10.91,0-21.81,0-32.71,0c2.32,3.859,4.189,6.95,8.18,11.68c2,2.39,7.12,8.89,8.76,8.76c0.301-0.02,3.521-4.01,4.091-4.67
			C1224.202,276.453,1228.162,271.732,1231.122,266.253z M1195.492,304.803c2.75-2.15,11.12-6.94,11.1-9.93
			c-0.02-1.9-9.31-10.881-12.27-14.601c-1.61-2.02-3.311-4.229-5.84-7.59c-5.86-7.78-5.061-6.979-15.771-8.18
			c-6.42-0.73-26.09-5.601-28.04-4.09c-0.09,0.069-0.56,1.06-0.58,1.17c-3.67,15.529-8.04,51.609,6.42,59.569
			c9.54,5.261,26.37-3.439,33.29-7.59C1187.712,311.223,1190.932,308.362,1195.492,304.803z M1173.882,252.812
			c-5.67-9.71-11.21-19.55-16.939-29.2c-3.03,8.27-6.87,15.72-8.771,25.12C1156.472,250.362,1164.912,251.853,1173.882,252.812z"/>
		<path fill="#F5F5FF" d="M1239.292,206.093c0.56,4.9-0.02,9.16-1.42,12.77l-48.17-11.18h-0.01c0.739-13.25,9.93-21.09,21.569-22.62
			C1225.862,183.133,1237.812,192.963,1239.292,206.093z"/>
		<path fill="#FFFFFF" d="M1189.702,207.683l48.17,11.18c-8.62,22.31-48.62,20-48.22-9.85c0.01-0.45,0.02-0.89,0.04-1.33H1189.702z"
			/>
	</g>
	<g>
	</g>
</g>
</svg>
