<?xml version="1.0" encoding="utf-8"?>
<!-- Generator: Adobe Illustrator 15.1.0, SVG Export Plug-In . SVG Version: 6.00 Build 0)  -->
<!DOCTYPE svg PUBLIC "-//W3C//DTD SVG 1.1//EN" "http://www.w3.org/Graphics/SVG/1.1/DTD/svg11.dtd">
<svg version="1.1" id="Layer_1" xmlns="http://www.w3.org/2000/svg" xmlns:xlink="http://www.w3.org/1999/xlink" x="0px" y="0px"
	 width="1567px" height="450px" viewBox="0 0 1567 450" enable-background="new 0 0 1567 450" xml:space="preserve">
<rect x="-10.37" y="-8.398" fill="#F5F5FF" width="1585.421" height="467.976"/>
<g>
	<path fill="#FF9900" d="M529.049-136.253c-39.328,9.249-98.812,54.591-139.696,35.295c-53.096-25.048,15.898-92.152,53.741-61.359
		c-25.731-65.968,96.153-114.617,104.074-37.921c19.494-36.752,93.581-59.635,78.892-0.32
		C618.458-169.865,558.448-144.896,529.049-136.253"/>
</g>
<g>
	<path fill="#FFFFFF" d="M929.801,547.837c29.729,20.894,98.562,32.32,107.454,72.644c11.558,52.357-79.329,48.438-77.716,2.797
		c-35.382,60.009-142.727,8.117-88.904-46.639c-39.227,10.342-99.384-25.504-45.75-53.643
		C852.637,508.438,906.264,533.331,929.801,547.837"/>
</g>
<g>
	<path fill="#FFFFFF" d="M557.576,161.353c26.557,6.613,74.837,31.056,70.699,44.412c-4.137,13.354-59.125,10.562-85.681,3.95
		c-26.556-6.612-29.686-19.054-25.55-32.406C521.182,163.953,531.021,154.741,557.576,161.353z"/>
</g>
<g>
	<path fill="#FFFFFF" d="M519.189,175.346c-3.92,7.521-3.723,23.464-13.446,27.073c-12.625,4.689-15.688-15.915-4.162-17.373
		c-16.634-5.565-8.391-31.787,7.746-21.863c-4.342-8.413,1.976-23.377,11.425-12.433
		C525.642,156.412,521.782,169.471,519.189,175.346"/>
</g>
<g>
	<path fill="#F5F5FF" d="M627.583,782.396c392.417-6.731,1161.918,170.198,1165.696,390.338
		c3.779,220.101-759.599,400.059-1152.01,406.789c-392.413,6.735-491.312-170.085-495.086-390.152
		C142.414,969.23,235.172,789.132,627.583,782.396z"/>
</g>
<g>
	<path fill="#F5F5FF" d="M166.609,1150.788c-19.571,130.412,55.054,372.404-61.404,466.717
		c-151.206,122.5-286.006-178.897-135.215-247.737c-252.227-17.466-258.009-450.146,7.092-364.297
		c-97.232-110.55-78.515-364.014,99.879-235.581C169.267,836.35,175.495,1050.837,166.609,1150.788"/>
</g>
<path fill="#FFFFFF" d="M1552.305-615.611c-48.945-53.933-178.532-106.555-178.188-189.32
	c0.425-107.476,176.443-59.84,153.211,28.71c95.587-101.79,282.689,46.898,153.35,130.307
	c81.262-2.971,183.143,93.587,65.881,125.026C1685.88-504.623,1591.955-576.892,1552.305-615.611"/>
<g>
	<path fill="#F5F5FF" d="M2455.498,764.908c86.323,159.271,177.727,512.088,88.376,560.514
		c-89.333,48.416-325.592-225.889-411.911-385.162c-86.322-159.271-34.969-237.428,54.354-285.836
		C2275.666,606,2369.175,605.635,2455.498,764.908z"/>
</g>
<g>
	<path fill="#F5F5FF" d="M2206.465,654.572c-57.574,19.755-140.789,101.85-204.212,74.238
		c-82.364-35.84,12.36-155.227,72.664-108.133c-46.562-107.014,129.407-201.521,150.702-74.67
		c24.568-63.361,132.354-109.672,117.747-9.264C2335.805,588.701,2249.291,636.926,2206.465,654.572"/>
</g>
<path fill="#FFFFFF" d="M-10.37-8.398c467.079,63.493,1584.984,237.449,1584.984,237.449L1562.829-3.373
	C1562.829-3.373,475.891-17.481-10.37-8.398z"/>
<g>
	<path fill="#FFFFFF" d="M1343.469,246.031c-53.932,24.089-172.247,47.701-187.32,20.579
		c-15.068-27.118,78.813-94.703,132.742-118.79c53.928-24.088,79.315-7.982,94.385,19.131
		C1398.347,194.076,1397.396,221.944,1343.469,246.031z"/>
</g>
<g>
	<path fill="#FFFFFF" d="M1382.994,172.956c-5.907-17.36-32.241-43-22.337-61.615c12.856-24.176,51.454,5.278,35.109,22.764
		c36.103-12.775,65.499,40.631,23.093,45.675c20.78,7.971,34.937,40.566,1.729,35.181
		C1403.407,212.174,1388.369,185.899,1382.994,172.956"/>
</g>
<g>
	<path fill="#FFFFFF" d="M631.402,125.416C588.196,87.765,524.182-4.513,547.74-26.241c23.555-21.724,125.767,35.328,168.969,72.979
		c43.204,37.649,34.655,64.458,11.104,86.181C704.252,154.645,674.604,163.065,631.402,125.416z"/>
</g>
<g>
	<path fill="#FFFFFF" d="M721.401,134.667c16.317-10.743,34.588-41.507,57.46-39.29c29.703,2.874,11.475,45.275-12.339,37.236
		c25.396,26.313-21.087,68.86-40.432,34.654c-1.511,20.219-31.134,42.983-36.457,13.108
		C686.878,164.917,709.557,143.499,721.401,134.667"/>
</g>
<g>
	<path fill="#FFFFFF" d="M921.759,270.287c5,16.765,5.706,51.666-4.783,54.182c-10.487,2.514-28.198-28.312-33.197-45.075
		c-5.002-16.762,2.28-22.894,12.766-25.408C907.034,251.471,916.758,253.525,921.759,270.287z"/>
</g>
<g>
	<path fill="#FFFFFF" d="M898.635,254.449c-6.474,0.554-17.165,6.342-23.066,2.354c-7.664-5.178,5.152-14.182,10.243-8.448
		c-2.171-11.007,18.466-15.88,17.519-3.589c4.131-5.354,16.481-7.259,12.462,1.767C913.713,251.203,903.524,253.763,898.635,254.449
		"/>
</g>
<g>
	<path fill="#FFFFFF" d="M1100.518,131.809c-8.547,30.642-41.79,86.757-60.964,82.459c-19.169-4.299-17.008-67.384-8.461-98.023
		c8.546-30.641,26.177-34.638,45.344-30.342C1095.608,90.203,1109.064,101.169,1100.518,131.809z"/>
</g>
<g>
	<path fill="#FFFFFF" d="M1079.305,88.297c-10.851-4.242-33.566-3.49-39.032-14.508c-7.102-14.308,22.165-18.498,24.624-5.341
		c7.383-19.24,45.027-10.663,31.418,8.151c11.847-5.252,33.384,1.49,18.098,12.676C1106.504,95.063,1087.765,91.072,1079.305,88.297
		"/>
</g>
<g>
	<path fill="#FFFFFF" d="M1165.429,179.084c-12.773,5.706-40.799,11.299-44.369,4.875c-3.569-6.423,18.668-22.433,31.442-28.138
		c12.773-5.705,18.787-1.891,22.356,4.531C1178.428,166.777,1178.203,173.379,1165.429,179.084z"/>
</g>
<g>
	<path fill="#FFFFFF" d="M1174.791,161.775c-1.398-4.113-7.636-10.186-5.29-14.595c3.045-5.727,12.188,1.25,8.315,5.393
		c8.553-3.027,15.516,9.624,5.471,10.819c4.923,1.888,8.274,9.608,0.41,8.333C1179.627,171.064,1176.065,164.84,1174.791,161.775"/>
</g>
<g>
	<path fill="#FFFFFF" d="M1463.706,159.561c26.835-60.971,110.722-163.885,147.187-145.207
		c36.459,18.675,11.689,151.875-15.148,212.84c-26.832,60.968-62.947,60.712-99.4,42.043
		C1459.878,250.554,1436.871,220.525,1463.706,159.561z"/>
</g>
<g>
	<path fill="#FFFFFF" d="M1492.03,262.069c20.049,14.421,65.152,24.11,72.366,50.28c9.373,33.983-49.782,28.354-50.362-0.869
		c-20.832,37.279-92.386,0.314-59.395-32.965c-25.101,5.291-65.441-19.766-31.62-35.977
		C1440.52,234.151,1476.228,251.958,1492.03,262.069"/>
</g>
<g>
	<path fill="#FFFFFF" d="M1242.579,348.474c-26.659-4.483-76.29-24.811-73.486-38.217c2.805-13.405,56.982-14.814,83.64-10.331
		c26.659,4.48,30.895,16.444,28.092,29.847C1278.021,343.18,1269.237,352.953,1242.579,348.474z"/>
</g>
<g>
	<path fill="#FFFFFF" d="M1278.904,331.86c3.14-7.671,1.452-23.289,10.646-27.56c11.94-5.551,16.874,14.421,5.71,16.719
		c16.831,4.204,11.209,30.535-5.545,22.021c5.047,7.922,0.256,23.07-10.034,13.051
		C1274.354,350.91,1276.915,337.815,1278.904,331.86"/>
</g>
<g>
	<path fill="#FFFFFF" d="M1101.146,297.079c-21.213,22.188-74.618,56.298-88.501,45.63c-13.881-10.666,17.018-62.072,38.229-84.258
		c21.211-22.187,37.646-18.956,51.525-8.293C1116.281,260.827,1122.356,274.893,1101.146,297.079z"/>
</g>
<g>
	<path fill="#FFFFFF" d="M1103.669,253.203c-7.022-7.535-26.168-15.337-25.607-26.483c0.726-14.474,26.878-7.087,22.843,4.712
		c14.987-13.183,42.184,7.877,22.239,18.398c12.227,0.047,26.939,13.614,9.128,17.202
		C1123.056,268.889,1109.389,258.637,1103.669,253.203"/>
</g>
<g>
	<path fill="#FFFFFF" d="M1121.312,325.243c6.43-7.512,23.043-19.385,27.743-16.151c4.698,3.233-4.295,20.35-10.726,27.86
		c-6.429,7.512-11.809,6.724-16.508,3.491C1117.121,337.21,1114.882,332.755,1121.312,325.243z"/>
</g>
<g>
	<path fill="#FFFFFF" d="M1121.351,339.479c2.42,2.327,8.767,4.551,8.803,8.166c0.048,4.695-8.558,2.715-7.482-1.166
		c-4.592,4.501-13.802-1.886-7.555-5.604c-3.957,0.178-8.981-3.982-3.289-5.422C1114.773,334.707,1119.395,337.811,1121.351,339.479
		"/>
</g>
<g>
	<path fill="#FFFFFF" d="M1353.311,277.235c12.052-0.43,35.811,3.966,36.078,10.026c0.269,6.059-23.056,11.487-35.105,11.916
		c-12.049,0.43-15.209-4.377-15.478-10.436C1338.537,282.682,1341.263,277.664,1353.311,277.235z"/>
</g>
<g>
	<path fill="#FFFFFF" d="M1339.407,287.667c-0.512,3.603,1.948,10.222-1.564,12.892c-4.56,3.466-8.909-4.751-4.325-6.74
		c-7.759-0.323-8.236-12.236-0.033-10.037c-3.063-2.982-2.664-9.975,2.904-6.549
		C1339.271,279.006,1339.611,284.908,1339.407,287.667"/>
</g>
<g>
	<path fill="#FFFFFF" d="M946.077,8.55c71.136-46.697,235.257-106.981,264.477-71.207c29.213,35.768-87.541,154.053-158.672,200.746
		c-71.133,46.696-112.189,29.097-141.401-6.665C881.266,95.647,874.946,55.244,946.077,8.55z"/>
</g>
<g>
	<path fill="#FFFFFF" d="M909.231,122.703c13.305,23.727,58.357,54.866,49.209,83.909c-11.871,37.718-75.662,3.794-56.912-25.045
		c-48.543,26.428-105.671-44.078-45.905-60.754c-32.169-6.887-61.575-50.759-12.198-50.353
		C868.974,70.668,897.909,105.228,909.231,122.703"/>
</g>
<g>
	<path fill="#FFFFFF" d="M751.826,320.722c-37.947-20.651-100.131-78.103-86.343-97.941c13.786-19.836,98.326,5.454,136.269,26.103
		c37.945,20.651,36.034,41.775,22.251,61.61C810.212,330.331,789.77,341.37,751.826,320.722z"/>
</g>
<g>
	<path fill="#FFFFFF" d="M819.568,312.827c10.254-10.571,18.675-36.196,35.869-38.302c22.326-2.736,15.839,31.446-2.999,29.419
		c22.988,15.216-4.27,54.12-24.093,32.107c2.19,15.126-15.892,36.719-24.688,15.602
		C799.105,340.729,812.294,321.261,819.568,312.827"/>
</g>
<g>
	<path fill="#FFFFFF" d="M405.144,194.01c5.233-7.116,19.294-18.737,23.746-16.106c4.453,2.631-2.391,18.519-7.624,25.634
		c-5.232,7.116-10.12,6.72-14.571,4.089C402.243,204.996,399.911,201.125,405.144,194.01z"/>
</g>
<g>
	<path fill="#FFFFFF" d="M406.203,206.788c2.339,1.95,8.198,3.58,8.49,6.823c0.382,4.212-7.488,2.932-6.801-0.614
		c-3.799,4.307-12.528-0.896-7.186-4.594c-3.541,0.387-8.352-3.056-3.344-4.678C399.953,202.886,404.327,205.403,406.203,206.788"/>
</g>
<g>
	<path fill="#FFFFFF" d="M573.482,292.095c-12.081,17.69-45.227,46.981-56.294,40.905c-11.066-6.074,4.135-45.215,16.215-62.903
		c12.081-17.689,24.004-17.082,35.069-11.009C579.541,265.165,585.562,274.408,573.482,292.095z"/>
</g>
<g>
	<path fill="#FFFFFF" d="M569.745,261.094c-5.866-4.572-20.263-8.108-21.269-15.976c-1.31-10.218,17.946-7.679,16.599,0.997
		c8.849-10.75,30.551,1.265,17.895,10.65c8.574-1.201,20.588,6.824,8.556,11.134C585.299,270.13,574.435,264.325,569.745,261.094"/>
</g>
<g>
	<path fill="#FFFFFF" d="M949.25,331.23c5.016-4.557,16.752-11.241,19.006-8.679c2.253,2.562-5.834,13.4-10.849,17.955
		c-5.014,4.557-8.065,3.591-10.317,1.031C944.837,338.975,944.235,335.786,949.25,331.23z"/>
</g>
<g>
	<path fill="#FFFFFF" d="M946.967,340.848c1.055,1.767,4.443,3.779,3.879,6.223c-0.732,3.175-5.496,1.146-4.231-1.389
		c-3.44,2.67-7.849-2.384-3.556-4.392c-2.366-0.199-4.66-3.412-1.065-3.928C943.854,337.096,946.082,339.563,946.967,340.848"/>
</g>
<g>
	<path fill="#FFFFFF" d="M1036.004,350.41c5.675-1.885,17.772-3.101,18.952-0.247c1.179,2.854-9.007,8.696-14.681,10.581
		c-5.675,1.886-8.017,0.031-9.195-2.821C1029.901,355.069,1030.329,352.296,1036.004,350.41z"/>
</g>
<g>
	<path fill="#FFFFFF" d="M1031.18,357.326c0.383,1.791,2.703,4.604,1.491,6.368c-1.574,2.29-5.074-1.024-3.232-2.611
		c-3.758,0.927-6.053-4.689-1.758-4.784c-1.979-0.996-3.001-4.388,0.251-3.529C1029.613,353.214,1030.799,355.982,1031.18,357.326"
		/>
</g>
<g>
	<path fill="#FFFFFF" d="M999.31,246.554c-4.924,5.15-17.319,13.067-20.542,10.591c-3.223-2.475,3.949-14.407,8.873-19.557
		c4.923-5.15,8.737-4.399,11.959-1.925C1002.822,238.14,1004.233,241.404,999.31,246.554z"/>
</g>
<g>
	<path fill="#FFFFFF" d="M999.895,236.369c-1.63-1.748-6.073-3.56-5.943-6.147c0.169-3.358,6.239-1.645,5.303,1.095
		c3.479-3.061,9.791,1.828,5.161,4.271c2.839,0.011,6.253,3.16,2.12,3.993C1004.395,240.011,1001.223,237.631,999.895,236.369"/>
</g>
<g>
	<path fill="#FFFFFF" d="M1310.244,127.812c50.198,18.527,138.203,76.499,126.611,101.745
		c-11.591,25.241-118.392,8.196-168.587-10.329c-50.198-18.525-53.057-43.516-41.471-68.754
		C1238.394,125.23,1260.047,109.287,1310.244,127.812z"/>
</g>
<g>
	<path fill="#FFFFFF" d="M1231.51,147.087c-9.639,13.882-13.433,45.099-33.392,50.111c-25.918,6.511-26.505-34.428-3.584-34.851
		c-31.067-14.387-8.074-63.926,20.879-41.122c-6.286-17.364,9.991-45.297,25.6-21.905
		C1249.09,111.423,1238.118,136.146,1231.51,147.087"/>
</g>
<g>
	<path fill="#FFFFFF" d="M1308.233,209.899c8.964,27.571,11.568,85.295-5.683,89.804c-17.248,4.507-47.822-45.911-56.784-73.48
		c-8.964-27.569,2.833-37.956,20.078-42.463C1283.098,179.252,1299.271,182.331,1308.233,209.899z"/>
</g>
<g>
	<path fill="#FFFFFF" d="M1269.323,184.458c-10.689,1.131-28.14,11.061-38.067,4.657c-12.895-8.313,7.94-23.635,16.601-14.316
		c-4.046-18.141,29.897-26.885,28.835-6.518c6.614-8.994,26.974-12.555,20.694,2.512
		C1294.137,178.588,1277.384,183.16,1269.323,184.458"/>
</g>
<g>
	<path fill="#FFFFFF" d="M654.158,323.314c-0.51,7.225-5.411,21.105-9.93,20.85c-4.519-0.257-6.947-14.555-6.437-21.778
		c0.511-7.223,4.3-8.779,8.818-8.521C651.129,314.12,654.668,316.093,654.158,323.314z"/>
</g>
<g>
	<path fill="#FFFFFF" d="M647.367,314.297c-2.642-0.554-7.727,0.459-9.468-1.82c-2.262-2.961,4.141-4.993,5.303-2.119
		c0.776-4.609,9.656-4.074,7.458,0.671c2.427-1.624,7.592-0.904,4.664,2.184C653.809,314.811,649.401,314.607,647.367,314.297"/>
</g>
<g>
	<path fill="#FFFFFF" d="M531.596,83.174c-30.063,24.421-101.956,59.043-117.236,43.925c-15.276-15.116,31.846-74.253,61.908-98.67
		c30.062-24.419,49.79-18.125,65.065-3.01C556.611,40.538,561.657,58.756,531.596,83.174z"/>
</g>
<g>
	<path fill="#FFFFFF" d="M542.37,29.354c-7.355-10.287-29.632-22.607-26.996-36.291c3.422-17.77,34.423-4.979,27.381,9.023
		c20.805-14.176,50.71,15.642,24.248,25.835c15.088,1.773,30.887,20.589,8.269,22.52C563.569,51.442,548.483,36.867,542.37,29.354"
		/>
</g>
<g>
	<path fill="#FFFFFF" d="M374.826-56.258c78.223-39.024,252.038-81.25,276.456-41.911C675.695-58.837,541.464,47.168,463.244,86.189
		c-78.219,39.023-117.115,16.661-141.528-22.666C297.302,24.183,296.607-17.236,374.826-56.258z"/>
</g>
<g>
	<path fill="#FFFFFF" d="M321.683,54.597c10.077,25.407,51.096,61.861,37.802,90.09c-17.254,36.662-76.763-4.711-53.826-31.654
		c-52.616,21.152-100.279-56.328-37.723-66.387c-31.443-10.568-54.915-58.085-5.224-52.108
		C288.425-2.37,312.727,35.714,321.683,54.597"/>
</g>
<g>
	<path fill="#FFFFFF" d="M586.756,43.134c36.749-7.331,112.462-5.686,117.048,12.796c4.587,18.478-63.692,46.795-100.438,54.125
		c-36.747,7.332-49.439-5.862-54.025-24.337C544.756,67.235,550.011,50.464,586.756,43.134z"/>
</g>
<g>
	<path fill="#FFFFFF" d="M550.52,82.114c0.668,11.324,12.333,30.426,3.202,40.378c-11.855,12.927-30.317-10.143-17.468-18.541
		c-24.039,2.876-32.9-33.478-6.338-30.813c-11.263-7.637-14.376-29.315,4.857-21.568C544.725,55.578,549.434,73.54,550.52,82.114"/>
</g>
<g>
	<path fill="#FFFFFF" d="M827.475,193.05c-18.015,6.348-56.617,10.92-60.588,1.86c-3.972-9.058,28.191-28.316,46.206-34.664
		c18.011-6.348,25.631-0.555,29.602,8.501C846.665,177.808,845.486,186.703,827.475,193.05z"/>
</g>
<g>
	<path fill="#FFFFFF" d="M842.415,170.663c-1.345-5.705-8.968-14.573-5.214-20.281c4.872-7.412,16.3,2.987,10.521,8.17
		c11.953-3.177,19.686,14.655,5.955,15.199c6.4,3.075,9.907,13.862-0.55,11.301C847.717,183.727,843.729,174.941,842.415,170.663"/>
</g>
<g>
	<path fill="#FFFFFF" d="M404.277,284.133c-6.761-0.448-19.718-4.263-19.437-7.663c0.281-3.399,13.696-5.097,20.455-4.647
		c6.761,0.45,8.183,3.316,7.902,6.715C412.916,281.938,411.037,284.584,404.277,284.133z"/>
</g>
<g>
	<path fill="#FFFFFF" d="M412.786,279.104c0.541-1.983-0.361-5.82,1.79-7.109c2.794-1.677,4.639,3.161,1.936,4.01
		c4.311,0.625,3.729,7.306-0.695,5.607c1.5,1.843,0.777,5.725-2.088,3.492C412.245,283.949,412.475,280.633,412.786,279.104"/>
</g>
<g>
	<path fill="#FFFFFF" d="M456.405,377.375c0.673,3.168,0.276,9.643-1.706,9.981c-1.981,0.338-4.796-5.588-5.469-8.755
		c-0.673-3.168,0.769-4.215,2.75-4.554C453.962,373.71,455.732,374.209,456.405,377.375z"/>
</g>
<g>
	<path fill="#FFFFFF" d="M452.361,374.159c-1.208,0.024-3.277,0.967-4.31,0.156c-1.342-1.053,1.169-2.565,2.026-1.441
		c-0.236-2.064,3.661-2.718,3.3-0.451c0.846-0.942,3.164-1.145,2.283,0.479C455.204,373.742,453.276,374.092,452.361,374.159"/>
</g>
<g>
	<path fill="#FFFFFF" d="M1095.97,162.977c4.338,13.343,5.598,41.277-2.75,43.459c-8.348,2.181-23.143-22.218-27.479-35.56
		c-4.339-13.341,1.37-18.368,9.716-20.549C1083.805,148.146,1091.633,149.635,1095.97,162.977z"/>
</g>
<g>
	<path fill="#FFFFFF" d="M1077.139,150.665c-5.172,0.547-13.617,5.353-18.421,2.253c-6.241-4.023,3.843-11.438,8.032-6.928
		c-1.957-8.779,14.47-13.01,13.956-3.154c3.2-4.353,13.053-6.076,10.014,1.215C1089.148,147.824,1081.04,150.036,1077.139,150.665"
		/>
</g>
<g>
	<path fill="#FFFFFF" d="M702.07,354.505c-16.982,5.736-53.234,9.562-56.823,1.022c-3.59-8.538,26.845-26.209,43.825-31.945
		c16.98-5.735,24.038-0.213,27.625,8.324C720.286,340.446,719.048,348.77,702.07,354.505z"/>
</g>
<g>
	<path fill="#FFFFFF" d="M716.408,333.698c-1.176-5.365-8.189-13.77-4.586-19.074c4.677-6.889,15.235,2.994,9.742,7.783
		c11.25-2.834,18.232,13.973,5.356,14.319c5.952,2.959,9.08,13.113-0.682,10.583C721.183,346.006,717.575,337.723,716.408,333.698"
		/>
</g>
<g>
	<path fill="#FFFFFF" d="M558.872,357.444c-3.075-1.151-8.455-4.737-7.733-6.283c0.721-1.547,7.27-0.468,10.344,0.686
		c3.075,1.153,3.241,2.687,2.521,4.233C563.282,357.625,561.946,358.598,558.872,357.444z"/>
</g>
<g>
	<path fill="#FFFFFF" d="M563.712,356.286c0.596-0.85,0.842-2.765,2.069-3.065c1.593-0.392,1.613,2.12,0.207,2.14
		c1.9,0.894,0.472,3.927-1.298,2.519c0.379,1.067-0.631,2.776-1.58,1.337C562.62,358.47,563.303,356.955,563.712,356.286"/>
</g>
<g>
	<path fill="#FFFFFF" d="M297.993,357.985c-2.059,1.033-6.636,2.158-7.283,1.123c-0.646-1.035,2.882-3.838,4.939-4.872
		c2.059-1.033,3.085-0.446,3.732,0.588C300.029,355.86,300.051,356.951,297.993,357.985z"/>
</g>
<g>
	<path fill="#FFFFFF" d="M299.384,355.06c-0.268-0.669-1.352-1.627-1.004-2.372c0.452-0.967,2.023,0.12,1.421,0.831
		c1.384-0.562,2.647,1.478,1,1.747c0.83,0.277,1.452,1.527,0.142,1.373C300.266,356.559,299.622,355.557,299.384,355.06"/>
</g>
<g>
	<path fill="#FFFFFF" d="M179.263,254.64c0.966,0.697,2.476,2.479,2.039,2.965c-0.437,0.485-2.653-0.508-3.62-1.205
		c-0.966-0.698-0.848-1.262-0.412-1.748C177.708,254.165,178.297,253.941,179.263,254.64z"/>
</g>
<g>
	<path fill="#FFFFFF" d="M177.398,254.604c-0.312,0.249-0.62,0.91-1.094,0.904c-0.615-0.008-0.332-0.908,0.173-0.784
		c-0.577-0.496,0.285-1.448,0.755-0.78c-0.012-0.417,0.546-0.935,0.719-0.331C178.042,253.926,177.623,254.403,177.398,254.604"/>
</g>
<g>
	<path fill="#FFFFFF" d="M665.819,108.492c-15.521,15.904-54.417,40.215-64.369,32.41c-9.949-7.804,12.815-44.771,28.335-60.674
		c15.52-15.903,27.377-13.459,37.327-5.656C677.061,82.378,681.338,92.589,665.819,108.492z"/>
</g>
<g>
	<path fill="#FFFFFF" d="M668.004,76.782c-5.016-5.495-18.796-11.263-18.298-19.318c0.643-10.461,19.493-4.947,16.478,3.558
		c10.945-9.435,30.438,5.973,15.93,13.449c8.84,0.115,19.368,10.023,6.459,12.5C681.894,88.252,672.095,80.749,668.004,76.782"/>
</g>
<g>
	<path fill="#FFFFFF" d="M236.765,85.397c-35.905,8.317-110.5,8.965-115.704-9.091c-5.203-18.053,60.957-47.974,96.858-56.291
		c35.902-8.317,48.888,4.29,54.092,22.34C277.213,60.413,272.665,77.081,236.765,85.397z"/>
</g>
<g>
	<path fill="#FFFFFF" d="M270.984,45.938c-1.079-11.127-13.274-29.583-4.656-39.654c11.188-13.081,30.223,9.078,17.888,17.729
		c23.556-3.551,33.634,31.971,7.386,30.145c11.373,7.181,15.244,28.428-3.978,21.376C277.678,71.888,272.374,54.346,270.984,45.938"
		/>
</g>
<g>
	<path fill="#FFFFFF" d="M901.355,411.669c3.484,1.352,9.558,5.505,8.712,7.257c-0.846,1.753-8.291,0.441-11.775-0.911
		c-3.484-1.352-3.649-3.103-2.805-4.854C896.334,411.407,897.87,410.317,901.355,411.669z"/>
</g>
<g>
	<path fill="#FFFFFF" d="M895.822,412.929c-0.692,0.96-1.003,3.139-2.406,3.466c-1.82,0.427-1.805-2.437-0.201-2.44
		c-2.153-1.041-0.476-4.479,1.519-2.853c-0.416-1.222,0.762-3.156,1.82-1.504C897.102,410.454,896.299,412.17,895.822,412.929"/>
</g>
<g>
	<path fill="#FFFFFF" d="M364.854,410.024c1.513-1.164,5.094-2.779,5.822-2.019c0.729,0.76-1.672,3.608-3.184,4.772
		c-1.513,1.164-2.472,0.832-3.2,0.072C363.563,412.089,363.342,411.188,364.854,410.024z"/>
</g>
<g>
	<path fill="#FFFFFF" d="M364.247,412.656c0.347,0.513,1.422,1.145,1.272,1.812c-0.194,0.87-1.697,0.204-1.331-0.475
		c-1.042,0.672-2.468-0.828-1.153-1.298c-0.738-0.104-1.486-1.046-0.373-1.115C363.237,411.545,363.957,412.279,364.247,412.656"/>
</g>
<g>
	<path fill="#FFFFFF" d="M63.264-52.147C129.11-33.103,250.833,33.469,242.917,67.508C235,101.542,100.436,90.155,34.596,71.113
		c-65.842-19.041-75.501-51.286-67.588-85.316C-25.071-48.242-2.574-71.186,63.264-52.147z"/>
</g>
<g>
	<path fill="#FFFFFF" d="M-28.079-53.426c-8.335,19.048-5.264,60.074-28.386,68.616c-30.026,11.1-40.851-42.139-12.978-45.007
		c-41.472-15.588-25.635-82.41,15.334-55.649c-11.958-21.972,1.017-59.983,25.837-31.107
		C-15.423-101.635-22.712-68.34-28.079-53.426"/>
</g>
<g>
	<path fill="#FFFFFF" d="M798.934,34.02c19.345,23.835,46.466,81.106,34.137,93.537c-12.327,12.429-59.439-24.689-78.78-48.522
		c-19.343-23.833-14.071-39.731-1.747-52.159C764.873,14.445,779.591,10.188,798.934,34.02z"/>
</g>
<g>
	<path fill="#FFFFFF" d="M755.724,25.999c-8.359,6.019-18.507,24.031-29.494,22.073c-14.268-2.54-3.65-27.556,7.548-22.069
		c-11.194-16.526,13.119-40.858,21.049-19.749c1.584-12.124,16.895-25.013,18.214-6.892
		C773.723,8.738,761.833,21.008,755.724,25.999"/>
</g>
<g>
	<path fill="#FFFFFF" d="M252.954,244.619c-1.046,8.771-7.554,25.812-12.725,25.717c-5.171-0.096-7.046-17.293-6-26.062
		c1.046-8.771,5.494-10.834,10.664-10.738C250.064,233.629,254.001,235.85,252.954,244.619z"/>
</g>
<g>
	<path fill="#FFFFFF" d="M245.735,234.021c-2.996-0.543-8.897,0.926-10.75-1.752c-2.408-3.477,5.071-6.242,6.221-2.818
		c1.183-5.619,11.342-5.394,8.517,0.457c2.89-2.082,8.773-1.457,5.215,2.424C253.096,234.338,248.05,234.303,245.735,234.021"/>
</g>
<g>
	<path fill="#FFFFFF" d="M209.294,165.773c6.104-2.942,19.258-6.009,20.689-2.911c1.431,3.097-9.406,11.185-15.508,14.125
		c-6.105,2.94-8.755,1.146-10.186-1.949C202.859,171.94,203.19,168.711,209.294,165.773z"/>
</g>
<g>
	<path fill="#FFFFFF" d="M204.369,174.342c0.507,1.992,3.182,4.887,1.946,7.068c-1.604,2.836-5.594-0.465-3.661-2.535
		c-4.059,1.58-6.845-4.519-2.158-5.222c-2.213-0.865-3.498-4.599,0.096-4.068C202.452,169.859,203.886,172.858,204.369,174.342"/>
</g>
<g>
	<path fill="#FFFFFF" d="M117.985,110.329c-2.147-2.424-4.993-8.254-3.435-9.525c1.557-1.271,6.927,2.499,9.074,4.923
		c2.146,2.425,1.408,4.046-0.148,5.317C121.917,112.314,120.13,112.752,117.985,110.329z"/>
</g>
<g>
	<path fill="#FFFFFF" d="M123.089,111.134c1.039-0.617,2.375-2.456,3.673-2.26c1.686,0.255,0.247,2.809-1.053,2.253
		c1.223,1.68-1.846,4.169-2.649,2.019c-0.271,1.237-2.188,2.555-2.222,0.708C120.821,112.898,122.325,111.644,123.089,111.134"/>
</g>
<g>
	<path fill="#FFFFFF" d="M194.335,100.662c-4.777-16.214-6.845-49.572,1.563-51.542c8.407-1.97,24.105,28.195,28.882,44.409
		c4.778,16.212-0.873,21.769-9.277,23.739C207.095,119.237,199.113,116.875,194.335,100.662z"/>
</g>
<g>
	<path fill="#FFFFFF" d="M213.787,116.738c5.232-0.263,13.663-5.351,18.624-1.299c6.444,5.26-3.575,13.331-7.953,7.646
		c2.234,10.601-14.312,14.404-14.068,2.707c-3.124,4.942-13.071,6.253-10.193-2.201
		C201.684,119.218,209.846,117.193,213.787,116.738"/>
</g>
<g>
	<path fill="#FFFFFF" d="M477.163,97.251c8.255,10.619,19.445,36.041,13.743,41.47c-5.702,5.432-26.139-11.187-34.391-21.805
		c-8.254-10.618-5.646-17.612,0.056-23.043C462.272,88.442,468.911,86.632,477.163,97.251z"/>
</g>
<g>
	<path fill="#FFFFFF" d="M458.003,93.501c-3.827,2.617-8.646,10.523-13.518,9.607c-6.329-1.189-1.188-12.188,3.722-9.71
		c-4.733-7.353,6.51-17.982,9.713-8.621c0.9-5.348,7.94-10.968,8.24-2.957C466.314,85.964,460.812,91.326,458.003,93.501"/>
</g>
<g>
	<path fill="#FFFFFF" d="M880.83,345.817c2.215,2.362,5.228,8.106,3.707,9.423c-1.521,1.314-6.996-2.299-9.211-4.66
		c-2.216-2.361-1.523-4.004-0.005-5.319C876.842,343.946,878.615,343.457,880.83,345.817z"/>
</g>
<g>
	<path fill="#FFFFFF" d="M875.705,345.159c-1.021,0.646-2.304,2.523-3.607,2.364c-1.693-0.206-0.327-2.8,0.988-2.282
		c-1.271-1.645,1.726-4.22,2.589-2.094c0.236-1.244,2.115-2.617,2.201-0.772C877.921,343.331,876.453,344.628,875.705,345.159"/>
</g>
<g>
	<path fill="#FFFFFF" d="M828.275,225.215c-0.984-3.353-1.317-10.556,0.522-11.321c1.84-0.764,5.156,5.202,6.142,8.554
		c0.985,3.351-0.266,4.788-2.106,5.553C830.992,228.765,829.26,228.566,828.275,225.215z"/>
</g>
<g>
	<path fill="#FFFFFF" d="M832.461,227.953c1.142-0.265,2.998-1.71,4.066-1.022c1.387,0.894-0.827,3.055-1.763,1.986
		c0.45,2.227-3.171,3.714-3.077,1.149c-0.698,1.204-2.871,1.885-2.216-0.075C829.813,228.975,831.6,228.209,832.461,227.953"/>
</g>
<g>
	<path fill="#FFFFFF" d="M110.78,57.64C90.5,90.181,36.128,145.558,19.012,136.111C1.9,126.666,28.525,55.973,48.803,23.435
		C69.081-9.104,87.907-9.392,105.018,0.051C122.133,9.499,131.056,25.103,110.78,57.64z"/>
</g>
<g>
	<path fill="#FFFFFF" d="M106.9-30.897c-8.983-7.388-31.533-11.983-32.608-25.729c-1.401-17.852,28.903-15.569,26.202-0.13
		c14.707-19.948,48.261-1.246,27.617,16.729c13.647-3.089,32.131,9.684,12.808,18.645C130.92-16.743,114.11-25.737,106.9-30.897"/>
</g>
<g>
	<path fill="#FFFFFF" d="M15.256,91.958c-16.779,2.046-50.023-1.399-50.584-10.016C-35.889,73.325-3.553,62.8,13.225,60.754
		c16.777-2.048,21.33,4.439,21.891,13.054C35.676,82.425,32.034,89.91,15.256,91.958z"/>
</g>
<g>
	<path fill="#FFFFFF" d="M34.312,41.077c0.601-5.204-3.031-14.357,1.781-18.584c6.248-5.491,12.561,5.719,6.234,9.103
		c10.823-0.461,11.856,16.485,0.357,14.322c4.361,3.894,4.018,13.92-3.847,9.692C34.768,53.423,34.112,45.039,34.312,41.077"/>
</g>
<g>
	<path fill="#FFFFFF" d="M1385.616,352.69c2.628,1.928,6.738,7.12,5.557,8.78c-1.181,1.658-7.207-0.845-9.834-2.771
		c-2.628-1.927-2.312-3.742-1.131-5.4C1381.389,351.64,1382.989,350.766,1385.616,352.69z"/>
</g>
<g>
	<path fill="#FFFFFF" d="M1380.555,353.114c-0.845,0.874-1.678,3.053-2.963,3.169c-1.67,0.151-0.909-2.773,0.464-2.526
		c-1.568-1.401,0.764-4.653,2.044-2.68c-0.037-1.312,1.476-3.107,1.949-1.251C1382.294,350.785,1381.16,352.415,1380.555,353.114"/>
</g>
</svg>
