<?xml version="1.0" encoding="utf-8"?>
<!-- Generator: Adobe Illustrator 15.1.0, SVG Export Plug-In . SVG Version: 6.00 Build 0)  -->
<!DOCTYPE svg PUBLIC "-//W3C//DTD SVG 1.1//EN" "http://www.w3.org/Graphics/SVG/1.1/DTD/svg11.dtd">
<svg version="1.1" id="Layer_1" xmlns="http://www.w3.org/2000/svg" xmlns:xlink="http://www.w3.org/1999/xlink" x="0px" y="0px"
	 width="1567px" height="450px" viewBox="0 0 1567 450" enable-background="new 0 0 1567 450" xml:space="preserve">
<rect x="-13.72" y="-8.118" fill="#F5F5FF" width="1585.421" height="467.976"/>
<g>
	<path fill="#FF9900" d="M1032.282-135.973c-29.399-8.643-89.409-33.612-97.012-64.305c-14.688-59.315,59.398-36.432,78.893,0.32
		c7.921-76.696,129.805-28.047,104.074,37.921c37.843-30.793,106.837,36.311,53.74,61.359
		C1131.094-81.382,1071.61-126.724,1032.282-135.973"/>
</g>
<g>
	<path fill="#FFFFFF" d="M631.53,548.117c23.537-14.506,77.164-39.399,104.916-24.841c53.634,28.139-6.523,63.984-45.75,53.643
		c53.822,54.756-53.522,106.648-88.904,46.64c1.613,45.641-89.273,49.56-77.716-2.798
		C532.968,580.438,601.801,569.011,631.53,548.117"/>
</g>
<g>
	<path fill="#FFFFFF" d="M1044.287,177.589c4.136,13.352,1.006,25.794-25.55,32.406c-26.557,6.612-81.544,9.404-85.682-3.95
		c-4.138-13.356,44.143-37.799,70.699-44.412C1030.31,155.021,1040.149,164.233,1044.287,177.589z"/>
</g>
<g>
	<path fill="#FFFFFF" d="M1042.142,175.626c-2.593-5.875-6.452-18.934-1.562-24.596c9.449-10.944,15.767,4.02,11.425,12.433
		c16.137-9.924,24.38,16.298,7.746,21.863c11.526,1.458,8.463,22.062-4.162,17.373
		C1045.865,199.09,1046.062,183.147,1042.142,175.626"/>
</g>
<g>
	<path fill="#F5F5FF" d="M627.583,782.396c392.417-6.731,1161.918,170.197,1165.696,390.338
		c3.779,220.101-759.6,400.059-1152.01,406.789c-392.414,6.734-491.312-170.086-495.086-390.152
		C142.414,969.23,235.172,789.132,627.583,782.396z"/>
</g>
<g>
	<path fill="#F5F5FF" d="M166.609,1150.788c-19.571,130.412,55.054,372.403-61.404,466.717
		c-151.206,122.5-286.006-178.896-135.215-247.737c-252.227-17.466-258.009-450.146,7.092-364.297
		c-97.232-110.55-78.515-364.014,99.879-235.58C169.267,836.35,175.495,1050.837,166.609,1150.788"/>
</g>
<path fill="#FFFFFF" d="M1552.305-615.611c-48.944-53.933-178.531-106.555-178.188-189.32
	c0.425-107.476,176.443-59.84,153.211,28.71c95.587-101.79,282.689,46.897,153.35,130.307
	c81.263-2.971,183.144,93.587,65.881,125.026C1685.88-504.623,1591.955-576.892,1552.305-615.611"/>
<g>
	<path fill="#F5F5FF" d="M2455.498,764.908c86.323,159.271,177.727,512.088,88.376,560.514
		c-89.333,48.416-325.592-225.889-411.911-385.162c-86.322-159.271-34.969-237.428,54.354-285.836
		C2275.666,606,2369.175,605.635,2455.498,764.908z"/>
</g>
<g>
	<path fill="#F5F5FF" d="M2206.465,654.572c-57.574,19.755-140.789,101.85-204.212,74.238
		c-82.364-35.841,12.36-155.228,72.664-108.134c-46.562-107.014,129.407-201.521,150.702-74.67
		c24.568-63.36,132.354-109.672,117.747-9.264C2335.805,588.701,2249.291,636.926,2206.465,654.572"/>
</g>
<path fill="#FFFFFF" d="M-1.498-3.093l-11.785,232.424c0,0,1117.905-173.956,1584.984-237.449
	C1085.44-17.201-1.498-3.093-1.498-3.093z"/>
<g>
	<path fill="#FFFFFF" d="M178.056,167.231c15.069-27.113,40.457-43.219,94.385-19.131c53.929,24.087,147.81,91.672,132.742,118.789
		c-15.073,27.123-133.389,3.511-187.32-20.578C163.935,222.224,162.984,194.356,178.056,167.231z"/>
</g>
<g>
	<path fill="#FFFFFF" d="M178.337,173.236c-5.375,12.943-20.413,39.218-37.594,42.005c-33.208,5.385-19.051-27.21,1.729-35.181
		c-42.405-5.044-13.01-58.45,23.094-45.675c-16.346-17.486,22.253-46.94,35.108-22.764
		C210.578,130.236,184.244,155.876,178.337,173.236"/>
</g>
<g>
	<path fill="#FFFFFF" d="M833.519,133.199c-23.552-21.723-32.101-48.532,11.104-86.181c43.202-37.651,145.414-94.703,168.969-72.979
		c23.559,21.729-40.456,114.006-83.662,151.657C886.728,163.345,857.079,154.925,833.519,133.199z"/>
</g>
<g>
	<path fill="#FFFFFF" d="M839.93,134.947c11.845,8.832,34.523,30.25,31.769,45.708c-5.323,29.875-34.946,7.111-36.457-13.108
		c-19.346,34.206-65.828-8.341-40.432-34.654c-23.814,8.039-42.043-34.362-12.34-37.236
		C805.342,93.44,823.613,124.204,839.93,134.947"/>
</g>
<g>
	<path fill="#FFFFFF" d="M664.786,254.267c10.486,2.514,17.768,8.646,12.766,25.408c-4.999,16.763-22.71,47.588-33.196,45.074
		c-10.489-2.516-9.783-37.417-4.783-54.182C644.573,253.806,654.297,251.751,664.786,254.267z"/>
</g>
<g>
	<path fill="#FFFFFF" d="M662.696,254.729c-4.889-0.687-15.078-3.246-17.158-7.916c-4.02-9.026,8.331-7.121,12.462-1.768
		c-0.947-12.291,19.69-7.418,17.519,3.59c5.092-5.734,17.907,3.27,10.243,8.447C679.861,261.071,669.17,255.283,662.696,254.729"/>
</g>
<g>
	<path fill="#FFFFFF" d="M484.895,86.183c19.167-4.296,36.798-0.299,45.344,30.342c8.547,30.639,10.708,93.724-8.461,98.023
		c-19.174,4.298-52.417-51.817-60.964-82.459C452.267,101.449,465.723,90.483,484.895,86.183z"/>
</g>
<g>
	<path fill="#FFFFFF" d="M482.026,88.577c-8.46,2.775-27.199,6.766-35.108,0.978c-15.286-11.186,6.251-17.928,18.098-12.676
		c-13.608-18.814,24.035-27.391,31.418-8.151c2.459-13.157,31.727-8.967,24.624,5.341C515.592,85.087,492.877,84.335,482.026,88.577
		"/>
</g>
<g>
	<path fill="#FFFFFF" d="M386.474,160.632c3.568-6.422,9.582-10.236,22.355-4.531c12.774,5.705,35.011,21.715,31.442,28.138
		c-3.57,6.424-31.597,0.831-44.369-4.875C383.128,173.659,382.903,167.057,386.474,160.632z"/>
</g>
<g>
	<path fill="#FFFFFF" d="M386.54,162.055c-1.273,3.065-4.836,9.289-8.906,9.95c-7.863,1.275-4.513-6.445,0.41-8.333
		c-10.045-1.195-3.082-13.846,5.471-10.819c-3.873-4.144,5.271-11.12,8.315-5.394C394.176,151.869,387.938,157.942,386.54,162.055"
		/>
</g>
<g>
	<path fill="#FFFFFF" d="M64.986,269.518c-36.453,18.669-72.568,18.925-99.4-42.044C-61.251,166.509-86.021,33.31-49.562,14.634
		C-13.097-4.044,70.79,98.87,97.625,159.841C124.46,220.805,101.453,250.834,64.986,269.518z"/>
</g>
<g>
	<path fill="#FFFFFF" d="M69.301,262.349c15.802-10.11,51.511-27.918,69.012-19.53c33.82,16.211-6.52,41.269-31.62,35.978
		c32.99,33.278-38.563,70.243-59.396,32.965c-0.58,29.223-59.735,34.852-50.362,0.869C4.149,286.459,49.252,276.771,69.301,262.349"
		/>
</g>
<g>
	<path fill="#FFFFFF" d="M280.506,330.054c-2.803-13.403,1.433-25.367,28.092-29.848c26.658-4.482,80.835-3.074,83.641,10.331
		c2.804,13.406-46.827,33.734-73.486,38.218C292.094,353.233,283.31,343.46,280.506,330.054z"/>
</g>
<g>
	<path fill="#FFFFFF" d="M282.427,332.14c1.989,5.955,4.551,19.051-0.776,24.231c-10.29,10.019-15.081-5.129-10.034-13.051
		c-16.754,8.514-22.376-17.817-5.545-22.021c-11.164-2.299-6.23-22.271,5.71-16.72C280.975,308.852,279.287,324.47,282.427,332.14"
		/>
</g>
<g>
	<path fill="#FFFFFF" d="M458.932,250.438c13.88-10.663,30.314-13.895,51.525,8.293c21.211,22.186,52.11,73.592,38.229,84.258
		c-13.884,10.668-67.288-23.441-88.502-45.63C438.976,275.173,445.05,261.107,458.932,250.438z"/>
</g>
<g>
	<path fill="#FFFFFF" d="M457.662,253.483c-5.72,5.434-19.387,15.686-28.603,13.829c-17.812-3.589-3.1-17.155,9.128-17.202
		c-19.945-10.521,7.252-31.581,22.238-18.398c-4.034-11.799,22.117-19.186,22.844-4.712
		C483.83,238.146,464.685,245.948,457.662,253.483"/>
</g>
<g>
	<path fill="#FFFFFF" d="M439.51,340.724c-4.699,3.232-10.079,4.021-16.508-3.491c-6.431-7.511-15.424-24.627-10.726-27.86
		c4.699-3.234,21.312,8.639,27.742,16.151C446.449,333.035,444.21,337.49,439.51,340.724z"/>
</g>
<g>
	<path fill="#FFFFFF" d="M439.98,339.759c1.956-1.668,6.577-4.771,9.522-4.025c5.692,1.439,0.668,5.6-3.289,5.422
		c6.247,3.718-2.963,10.105-7.555,5.604c1.076,3.881-7.53,5.861-7.482,1.166C431.213,344.311,437.56,342.087,439.98,339.759"/>
</g>
<g>
	<path fill="#FFFFFF" d="M222.525,289.021c-0.27,6.059-3.43,10.866-15.479,10.436c-12.049-0.429-35.374-5.856-35.104-11.916
		c0.267-6.06,24.025-10.456,36.078-10.026C220.068,277.944,222.794,282.962,222.525,289.021z"/>
</g>
<g>
	<path fill="#FFFFFF" d="M221.924,287.947c-0.204-2.759,0.136-8.661,3.019-10.435c5.567-3.426,5.967,3.567,2.903,6.55
		c8.203-2.199,7.727,9.714-0.032,10.036c4.584,1.99,0.234,10.207-4.325,6.74C219.976,298.169,222.437,291.55,221.924,287.947"/>
</g>
<g>
	<path fill="#FFFFFF" d="M650.851,131.704c-29.213,35.762-70.269,53.361-141.401,6.665
		C438.318,91.676,321.564-26.609,350.777-62.377c29.22-35.774,193.341,24.51,264.477,71.207
		C686.385,55.524,680.065,95.927,650.851,131.704z"/>
</g>
<g>
	<path fill="#FFFFFF" d="M652.101,122.983c11.321-17.475,40.257-52.035,65.806-52.243c49.377-0.406,19.971,43.466-12.198,50.353
		c59.766,16.676,2.638,87.182-45.905,60.754c18.75,28.839-45.041,62.763-56.911,25.045
		C593.743,177.849,638.795,146.71,652.101,122.983"/>
</g>
<g>
	<path fill="#FFFFFF" d="M737.328,310.774c-13.783-19.835-15.694-40.959,22.251-61.61c37.943-20.649,122.483-45.939,136.269-26.103
		c13.788,19.838-48.396,77.29-86.343,97.94C771.562,341.65,751.119,330.611,737.328,310.774z"/>
</g>
<g>
	<path fill="#FFFFFF" d="M741.763,313.107c7.274,8.434,20.463,27.901,15.911,38.825c-8.796,21.117-26.878-0.476-24.688-15.602
		c-19.823,22.014-47.081-16.891-24.093-32.107c-18.839,2.027-25.325-32.154-3-29.418
		C723.088,276.911,731.509,302.536,741.763,313.107"/>
</g>
<g>
	<path fill="#FFFFFF" d="M1154.636,207.907c-4.451,2.631-9.339,3.027-14.57-4.089c-5.233-7.115-12.077-23.003-7.624-25.634
		c4.452-2.631,18.513,8.99,23.745,16.105C1161.42,201.405,1159.088,205.276,1154.636,207.907z"/>
</g>
<g>
	<path fill="#FFFFFF" d="M1155.128,207.068c1.876-1.385,6.25-3.902,8.841-3.063c5.009,1.622,0.197,5.065-3.344,4.678
		c5.342,3.698-3.387,8.901-7.186,4.594c0.687,3.546-7.184,4.826-6.802,0.614C1146.93,210.648,1152.789,209.019,1155.128,207.068"/>
</g>
<g>
	<path fill="#FFFFFF" d="M992.859,259.368c11.064-6.072,22.987-6.68,35.068,11.009c12.08,17.688,27.281,56.829,16.216,62.903
		c-11.067,6.076-44.214-23.215-56.295-40.905C975.769,274.688,981.79,265.445,992.859,259.368z"/>
</g>
<g>
	<path fill="#FFFFFF" d="M991.586,261.374c-4.689,3.231-15.554,9.036-21.781,6.805c-12.031-4.31-0.018-12.334,8.557-11.133
		c-12.656-9.386,9.046-21.4,17.895-10.65c-1.347-8.676,17.909-11.215,16.6-0.997C1011.849,253.267,997.452,256.802,991.586,261.374"
		/>
</g>
<g>
	<path fill="#FFFFFF" d="M614.241,341.817c-2.252,2.561-5.303,3.525-10.317-1.031c-5.015-4.555-13.102-15.393-10.849-17.955
		c2.254-2.562,13.99,4.122,19.006,8.68C617.096,336.066,616.494,339.255,614.241,341.817z"/>
</g>
<g>
	<path fill="#FFFFFF" d="M614.364,341.128c0.885-1.285,3.113-3.752,4.973-3.486c3.596,0.517,1.301,3.729-1.064,3.929
		c4.293,2.008-0.116,7.062-3.557,4.392c1.266,2.535-3.499,4.564-4.23,1.39C609.921,344.907,613.31,342.896,614.364,341.128"/>
</g>
<g>
	<path fill="#FFFFFF" d="M530.251,358.203c-1.178,2.853-3.52,4.707-9.195,2.821c-5.674-1.885-15.859-7.727-14.681-10.581
		c1.18-2.854,13.277-1.638,18.952,0.247C531.002,352.576,531.43,355.349,530.251,358.203z"/>
</g>
<g>
	<path fill="#FFFFFF" d="M530.151,357.606c0.381-1.344,1.566-4.112,3.248-4.557c3.252-0.858,2.229,2.533,0.251,3.529
		c4.295,0.096,2,5.711-1.759,4.784c1.843,1.587-1.657,4.901-3.231,2.61C527.448,362.21,529.768,359.397,530.151,357.606"/>
</g>
<g>
	<path fill="#FFFFFF" d="M561.731,235.943c3.222-2.474,7.035-3.226,11.959,1.925s12.096,17.082,8.873,19.557
		c-3.224,2.477-15.618-5.44-20.543-10.591C557.099,241.685,558.509,238.421,561.731,235.943z"/>
</g>
<g>
	<path fill="#FFFFFF" d="M561.437,236.649c-1.328,1.262-4.5,3.642-6.642,3.212c-4.133-0.833-0.719-3.981,2.12-3.993
		c-4.63-2.443,1.682-7.332,5.161-4.271c-0.937-2.739,5.134-4.452,5.303-1.094C567.509,233.089,563.066,234.901,561.437,236.649"/>
</g>
<g>
	<path fill="#FFFFFF" d="M334.534,150.754c11.586,25.238,8.727,50.229-41.471,68.754c-50.195,18.525-156.996,35.57-168.588,10.329
		c-11.592-25.246,76.413-83.218,126.611-101.745C301.284,109.567,322.937,125.51,334.534,150.754z"/>
</g>
<g>
	<path fill="#FFFFFF" d="M329.821,147.367c-6.608-10.941-17.58-35.664-9.503-47.767c15.608-23.392,31.886,4.541,25.6,21.905
		c28.953-22.804,51.946,26.735,20.879,41.122c22.921,0.423,22.334,41.362-3.584,34.851
		C343.254,192.466,339.46,161.249,329.821,147.367"/>
</g>
<g>
	<path fill="#FFFFFF" d="M295.487,184.04c17.245,4.507,29.042,14.895,20.078,42.463c-8.963,27.569-39.536,77.987-56.784,73.48
		c-17.251-4.51-14.647-62.233-5.684-89.804C262.06,182.611,278.233,179.532,295.487,184.04z"/>
</g>
<g>
	<path fill="#FFFFFF" d="M292.008,184.738c-8.061-1.298-24.813-5.87-28.062-13.665c-6.28-15.067,14.08-11.506,20.694-2.512
		c-1.062-20.367,32.881-11.623,28.834,6.518c8.661-9.319,29.496,6.003,16.602,14.316
		C320.148,195.799,302.697,185.869,292.008,184.738"/>
</g>
<g>
	<path fill="#FFFFFF" d="M914.722,314.146c4.519-0.258,8.308,1.298,8.818,8.521c0.51,7.224-1.918,21.521-6.438,21.778
		c-4.519,0.255-9.42-13.625-9.93-20.85C906.663,316.373,910.202,314.4,914.722,314.146z"/>
</g>
<g>
	<path fill="#FFFFFF" d="M913.964,314.577c-2.034,0.311-6.441,0.514-7.957-1.084c-2.928-3.088,2.237-3.808,4.664-2.184
		c-2.198-4.745,6.683-5.28,7.458-0.672c1.162-2.873,7.565-0.842,5.303,2.119C921.691,315.036,916.606,314.023,913.964,314.577"/>
</g>
<g>
	<path fill="#FFFFFF" d="M1019.998,25.699c15.275-15.115,35.003-21.409,65.065,3.01c30.062,24.417,77.184,83.554,61.907,98.67
		c-15.279,15.118-87.173-19.504-117.235-43.925C999.674,59.036,1004.72,40.818,1019.998,25.699z"/>
</g>
<g>
	<path fill="#FFFFFF" d="M1018.961,29.634c-6.113,7.513-21.199,22.088-32.901,21.087c-22.618-1.931-6.819-20.747,8.269-22.52
		c-26.462-10.193,3.443-40.011,24.248-25.835c-7.042-14.002,23.959-26.793,27.381-9.023
		C1048.593,7.027,1026.316,19.347,1018.961,29.634"/>
</g>
<g>
	<path fill="#FFFFFF" d="M1239.615,63.803c-24.413,39.327-63.31,61.689-141.528,22.666
		c-78.22-39.021-212.451-145.026-188.038-184.358c24.418-39.339,198.233,2.887,276.456,41.911
		C1264.725-16.956,1264.029,24.463,1239.615,63.803z"/>
</g>
<g>
	<path fill="#FFFFFF" d="M1239.648,54.877c8.956-18.883,33.258-56.967,58.971-60.059c49.691-5.977,26.219,41.54-5.225,52.108
		c62.557,10.059,14.894,87.539-37.723,66.387c22.938,26.943-36.572,68.316-53.826,31.654
		C1188.552,116.738,1229.571,80.284,1239.648,54.877"/>
</g>
<g>
	<path fill="#FFFFFF" d="M1011.99,85.998c-4.586,18.475-17.278,31.669-54.025,24.337c-36.746-7.33-105.024-35.647-100.438-54.125
		c4.586-18.482,80.299-20.127,117.048-12.796C1011.32,50.744,1016.575,67.515,1011.99,85.998z"/>
</g>
<g>
	<path fill="#FFFFFF" d="M1010.812,82.395c1.086-8.574,5.795-26.536,15.746-30.544c19.233-7.747,16.12,13.931,4.857,21.568
		c26.562-2.665,17.701,33.689-6.338,30.813c12.849,8.398-5.613,31.468-17.468,18.541
		C998.478,112.82,1010.143,93.718,1010.812,82.395"/>
</g>
<g>
	<path fill="#FFFFFF" d="M718.636,169.027c3.972-9.056,11.592-14.849,29.603-8.501c18.015,6.348,50.178,25.606,46.206,34.664
		c-3.971,9.06-42.573,4.488-60.588-1.86C715.845,186.983,714.666,178.088,718.636,169.027z"/>
</g>
<g>
	<path fill="#FFFFFF" d="M718.916,170.943c-1.313,4.278-5.302,13.064-10.712,14.389c-10.457,2.562-6.95-8.226-0.55-11.301
		c-13.731-0.544-5.998-18.376,5.955-15.199c-5.779-5.183,5.648-15.582,10.521-8.17C727.884,156.37,720.261,165.238,718.916,170.943"
		/>
</g>
<g>
	<path fill="#FFFFFF" d="M1148.134,278.818c-0.281-3.399,1.142-6.265,7.902-6.715c6.759-0.45,20.174,1.248,20.455,4.646
		c0.281,3.4-12.676,7.216-19.438,7.663C1150.294,284.864,1148.415,282.218,1148.134,278.818z"/>
</g>
<g>
	<path fill="#FFFFFF" d="M1148.545,279.384c0.312,1.529,0.541,4.846-0.942,6c-2.865,2.233-3.589-1.648-2.089-3.491
		c-4.424,1.698-5.006-4.982-0.694-5.607c-2.703-0.849-0.858-5.687,1.936-4.01C1148.906,273.564,1148.004,277.401,1148.545,279.384"
		/>
</g>
<g>
	<path fill="#FFFFFF" d="M1109.351,374.327c1.981,0.339,3.424,1.387,2.75,4.555c-0.673,3.166-3.487,9.092-5.469,8.754
		s-2.379-6.812-1.706-9.98C1105.599,374.489,1107.369,373.99,1109.351,374.327z"/>
</g>
<g>
	<path fill="#FFFFFF" d="M1108.97,374.439c-0.915-0.067-2.843-0.417-3.299-1.257c-0.881-1.624,1.438-1.422,2.283-0.479
		c-0.361-2.267,3.536-1.612,3.3,0.451c0.857-1.124,3.368,0.388,2.026,1.44C1112.247,375.406,1110.178,374.464,1108.97,374.439"/>
</g>
<g>
	<path fill="#FFFFFF" d="M485.874,150.607c8.346,2.181,14.055,7.208,9.716,20.549c-4.336,13.342-19.131,37.741-27.479,35.56
		c-8.349-2.182-7.088-30.116-2.75-43.459C469.698,149.915,477.526,148.426,485.874,150.607z"/>
</g>
<g>
	<path fill="#FFFFFF" d="M484.192,150.945c-3.901-0.629-12.01-2.841-13.581-6.614c-3.039-7.291,6.813-5.568,10.014-1.215
		c-0.514-9.856,15.913-5.625,13.956,3.154c4.189-4.51,14.273,2.905,8.032,6.928C497.809,156.298,489.364,151.492,484.192,150.945"/>
</g>
<g>
	<path fill="#FFFFFF" d="M844.634,332.187c3.587-8.537,10.646-14.059,27.625-8.324c16.98,5.736,47.415,23.407,43.825,31.945
		c-3.589,8.539-39.841,4.714-56.823-1.022C842.283,349.05,841.045,340.727,844.634,332.187z"/>
</g>
<g>
	<path fill="#FFFFFF" d="M844.923,333.979c-1.167,4.024-4.774,12.308-9.83,13.61c-9.762,2.53-6.634-7.623-0.682-10.582
		c-12.876-0.347-5.895-17.153,5.355-14.319c-5.492-4.789,5.065-14.673,9.742-7.783C853.112,320.208,846.099,328.613,844.923,333.979
		"/>
</g>
<g>
	<path fill="#FFFFFF" d="M997.327,356.36c-0.72-1.546-0.554-3.08,2.521-4.232c3.074-1.154,9.623-2.233,10.345-0.687
		c0.722,1.546-4.658,5.132-7.733,6.282C999.385,358.878,998.049,357.905,997.327,356.36z"/>
</g>
<g>
	<path fill="#FFFFFF" d="M997.619,356.566c0.409,0.669,1.092,2.184,0.602,2.931c-0.948,1.439-1.959-0.27-1.579-1.337
		c-1.771,1.408-3.198-1.625-1.299-2.519c-1.405-0.021-1.386-2.532,0.207-2.141C996.777,353.802,997.023,355.716,997.619,356.566"/>
</g>
<g>
	<path fill="#FFFFFF" d="M1261.95,355.104c0.647-1.034,1.673-1.621,3.731-0.588c2.058,1.033,5.586,3.837,4.939,4.871
		c-0.646,1.035-5.225-0.09-7.283-1.123C1261.28,357.231,1261.303,356.14,1261.95,355.104z"/>
</g>
<g>
	<path fill="#FFFFFF" d="M1261.947,355.341c-0.238,0.496-0.883,1.498-1.559,1.578c-1.311,0.154-0.688-1.096,0.142-1.373
		c-1.647-0.269-0.384-2.309,1-1.746c-0.603-0.711,0.969-1.799,1.421-0.832C1263.299,353.714,1262.215,354.671,1261.947,355.341"/>
</g>
<g>
	<path fill="#FFFFFF" d="M1384.061,254.933c0.437,0.486,0.555,1.05-0.412,1.748c-0.967,0.697-3.183,1.689-3.619,1.205
		c-0.438-0.486,1.072-2.269,2.039-2.965C1383.034,254.222,1383.623,254.445,1384.061,254.933z"/>
</g>
<g>
	<path fill="#FFFFFF" d="M1383.934,254.884c-0.226-0.201-0.645-0.678-0.554-0.99c0.173-0.604,0.731-0.086,0.72,0.33
		c0.469-0.668,1.332,0.285,0.754,0.781c0.506-0.125,0.789,0.775,0.174,0.783C1384.553,255.794,1384.245,255.134,1383.934,254.884"/>
</g>
<g>
	<path fill="#FFFFFF" d="M894.219,74.853c9.95-7.803,21.808-10.247,37.327,5.656c15.521,15.903,38.284,52.87,28.335,60.674
		c-9.952,7.805-48.848-16.506-64.369-32.41C879.993,92.869,884.271,82.658,894.219,74.853z"/>
</g>
<g>
	<path fill="#FFFFFF" d="M893.327,77.062c-4.091,3.967-13.89,11.47-20.569,10.188c-12.909-2.477-2.381-12.385,6.459-12.5
		c-14.508-7.476,4.985-22.884,15.931-13.449c-3.016-8.505,15.835-14.019,16.478-3.558C912.123,65.799,898.343,71.567,893.327,77.062
		"/>
</g>
<g>
	<path fill="#FFFFFF" d="M1289.32,42.635c5.203-18.05,18.189-30.657,54.092-22.34c35.9,8.317,102.061,38.238,96.857,56.291
		c-5.203,18.056-79.799,17.408-115.703,9.091C1288.666,77.361,1284.118,60.693,1289.32,42.635z"/>
</g>
<g>
	<path fill="#FFFFFF" d="M1290.348,46.218c-1.391,8.408-6.694,25.95-16.641,29.596c-19.222,7.052-15.352-14.195-3.979-21.376
		c-26.247,1.826-16.169-33.696,7.387-30.146c-12.335-8.65,6.699-30.81,17.888-17.729
		C1303.621,16.635,1291.426,35.091,1290.348,46.218"/>
</g>
<g>
	<path fill="#FFFFFF" d="M665.844,413.441c0.845,1.751,0.68,3.502-2.805,4.854c-3.483,1.353-10.929,2.664-11.774,0.911
		c-0.847-1.752,5.228-5.904,8.711-7.257C663.461,410.598,664.997,411.688,665.844,413.441z"/>
</g>
<g>
	<path fill="#FFFFFF" d="M665.509,413.209c-0.477-0.759-1.279-2.475-0.731-3.331c1.058-1.651,2.235,0.282,1.819,1.504
		c1.995-1.626,3.672,1.812,1.52,2.854c1.604,0.003,1.619,2.867-0.201,2.439C666.512,416.349,666.201,414.169,665.509,413.209"/>
</g>
<g>
	<path fill="#FFFFFF" d="M1197.039,413.129c-0.728,0.761-1.687,1.093-3.2-0.071c-1.512-1.164-3.913-4.013-3.184-4.772
		c0.728-0.76,4.309,0.855,5.822,2.019C1197.989,411.468,1197.769,412.369,1197.039,413.129z"/>
</g>
<g>
	<path fill="#FFFFFF" d="M1197.084,412.937c0.29-0.377,1.01-1.111,1.585-1.076c1.113,0.069,0.365,1.011-0.373,1.115
		c1.315,0.47-0.111,1.97-1.152,1.298c0.365,0.679-1.138,1.345-1.332,0.475C1195.662,414.081,1196.737,413.449,1197.084,412.937"/>
</g>
<g>
	<path fill="#FFFFFF" d="M1594.323-13.923c7.913,34.03-1.746,66.275-67.589,85.316c-65.84,19.042-200.403,30.429-208.32-3.605
		c-7.916-34.039,113.807-100.611,179.652-119.655C1563.905-70.906,1586.402-47.962,1594.323-13.923z"/>
</g>
<g>
	<path fill="#FFFFFF" d="M1589.41-53.146c-5.367-14.914-12.656-48.209,0.193-63.147c24.819-28.876,37.795,9.135,25.836,31.107
		c40.97-26.761,56.807,40.061,15.334,55.649c27.873,2.868,17.049,56.107-12.978,45.007
		C1594.674,6.928,1597.745-34.098,1589.41-53.146"/>
</g>
<g>
	<path fill="#FFFFFF" d="M808.787,27.156c12.324,12.428,17.596,28.326-1.747,52.159c-19.341,23.833-66.453,60.951-78.78,48.522
		c-12.329-12.431,14.792-69.702,34.138-93.537C781.74,10.468,796.458,14.725,808.787,27.156z"/>
</g>
<g>
	<path fill="#FFFFFF" d="M805.607,26.279c-6.109-4.991-17.999-17.261-17.317-26.637c1.319-18.121,16.63-5.232,18.214,6.892
		c7.931-21.109,32.243,3.223,21.049,19.749c11.198-5.487,21.816,19.529,7.548,22.069C824.114,50.311,813.966,32.298,805.607,26.279"
		/>
</g>
<g>
	<path fill="#FFFFFF" d="M1316.438,233.816c5.17-0.097,9.619,1.967,10.664,10.737c1.047,8.77-0.828,25.967-6,26.062
		c-5.17,0.096-11.679-16.945-12.725-25.717C1307.33,236.13,1311.268,233.909,1316.438,233.816z"/>
</g>
<g>
	<path fill="#FFFFFF" d="M1315.596,234.302c-2.314,0.281-7.361,0.316-9.203-1.689c-3.558-3.881,2.326-4.506,5.215-2.424
		c-2.824-5.851,7.334-6.076,8.518-0.457c1.15-3.424,8.629-0.659,6.221,2.818C1324.493,235.228,1318.592,233.759,1315.596,234.302"/>
</g>
<g>
	<path fill="#FFFFFF" d="M1357.042,175.318c-1.431,3.095-4.081,4.889-10.187,1.949c-6.102-2.94-16.938-11.028-15.508-14.125
		c1.432-3.098,14.586-0.031,20.689,2.911C1358.141,168.991,1358.473,172.22,1357.042,175.318z"/>
</g>
<g>
	<path fill="#FFFFFF" d="M1356.962,174.622c0.483-1.484,1.917-4.483,3.777-4.757c3.594-0.531,2.309,3.203,0.096,4.068
		c4.687,0.703,1.901,6.802-2.157,5.222c1.932,2.07-2.058,5.371-3.662,2.535C1353.78,179.509,1356.455,176.614,1356.962,174.622"/>
</g>
<g>
	<path fill="#FFFFFF" d="M1437.855,111.324c-1.557-1.271-2.295-2.892-0.148-5.317c2.146-2.424,7.518-6.194,9.074-4.923
		c1.558,1.271-1.288,7.102-3.436,9.525C1441.201,113.032,1439.414,112.594,1437.855,111.324z"/>
</g>
<g>
	<path fill="#FFFFFF" d="M1438.242,111.414c0.764,0.51,2.268,1.764,2.251,2.72c-0.034,1.847-1.951,0.529-2.222-0.708
		c-0.803,2.15-3.873-0.339-2.649-2.019c-1.3,0.556-2.739-1.998-1.054-2.253C1435.867,108.958,1437.203,110.797,1438.242,111.414"/>
</g>
<g>
	<path fill="#FFFFFF" d="M1345.828,117.548c-8.404-1.97-14.055-7.527-9.277-23.739c4.777-16.214,20.475-46.379,28.883-44.409
		c8.407,1.97,6.34,35.328,1.562,51.542C1362.219,117.155,1354.236,119.518,1345.828,117.548z"/>
</g>
<g>
	<path fill="#FFFFFF" d="M1347.544,117.019c3.94,0.455,12.103,2.479,13.59,6.853c2.878,8.454-7.069,7.143-10.192,2.201
		c0.244,11.697-16.303,7.894-14.068-2.707c-4.378,5.685-14.396-2.386-7.953-7.646
		C1333.881,111.667,1342.312,116.755,1347.544,117.019"/>
</g>
<g>
	<path fill="#FFFFFF" d="M1104.76,94.153c5.702,5.431,8.311,12.425,0.057,23.043c-8.252,10.618-28.689,27.237-34.392,21.805
		c-5.702-5.429,5.488-30.851,13.743-41.47C1092.42,86.912,1099.06,88.722,1104.76,94.153z"/>
</g>
<g>
	<path fill="#FFFFFF" d="M1103.328,93.781c-2.81-2.175-8.312-7.537-8.157-11.681c0.3-8.011,7.34-2.391,8.24,2.957
		c3.203-9.361,14.446,1.268,9.713,8.621c4.91-2.478,10.051,8.521,3.722,9.71C1111.974,104.304,1107.155,96.398,1103.328,93.781"/>
</g>
<g>
	<path fill="#FFFFFF" d="M686.01,345.541c1.519,1.315,2.211,2.958-0.005,5.319c-2.215,2.361-7.689,5.974-9.211,4.66
		c-1.521-1.317,1.492-7.062,3.707-9.424C682.716,343.737,684.489,344.227,686.01,345.541z"/>
</g>
<g>
	<path fill="#FFFFFF" d="M685.626,345.439c-0.748-0.531-2.216-1.828-2.171-2.784c0.086-1.845,1.965-0.472,2.201,0.771
		c0.862-2.125,3.86,0.449,2.589,2.095c1.314-0.519,2.681,2.075,0.988,2.282C687.93,347.962,686.647,346.085,685.626,345.439"/>
</g>
<g>
	<path fill="#FFFFFF" d="M728.498,228.281c-1.84-0.765-3.091-2.202-2.106-5.553c0.986-3.353,4.303-9.318,6.143-8.554
		c1.839,0.765,1.506,7.968,0.521,11.321C732.071,228.847,730.339,229.046,728.498,228.281z"/>
</g>
<g>
	<path fill="#FFFFFF" d="M728.87,228.233c0.861,0.256,2.648,1.021,2.99,2.038c0.654,1.96-1.519,1.278-2.217,0.075
		c0.095,2.564-3.526,1.078-3.076-1.149c-0.937,1.069-3.15-1.092-1.764-1.985C725.872,226.523,727.728,227.968,728.87,228.233"/>
</g>
<g>
	<path fill="#FFFFFF" d="M1456.312,0.331c17.111-9.443,35.938-9.155,56.215,23.384c20.279,32.538,46.904,103.231,29.791,112.676
		c-17.115,9.447-71.487-45.93-91.768-78.471C1430.275,25.383,1439.198,9.779,1456.312,0.331z"/>
</g>
<g>
	<path fill="#FFFFFF" d="M1454.432-30.617c-7.211,5.16-24.021,14.154-34.02,9.515c-19.323-8.961-0.839-21.734,12.809-18.645
		c-20.645-17.975,12.909-36.677,27.616-16.729c-2.7-15.439,27.603-17.722,26.202,0.13
		C1485.964-42.6,1463.414-38.005,1454.432-30.617"/>
</g>
<g>
	<path fill="#FFFFFF" d="M1526.215,74.088c0.561-8.615,5.114-15.102,21.891-13.054c16.779,2.046,49.115,12.571,48.554,21.188
		c-0.562,8.617-33.806,12.062-50.584,10.016C1529.297,90.19,1525.655,82.705,1526.215,74.088z"/>
</g>
<g>
	<path fill="#FFFFFF" d="M1527.02,41.357c0.199,3.962-0.457,12.346-4.525,14.533c-7.865,4.228-8.208-5.798-3.848-9.692
		c-11.498,2.163-10.465-14.783,0.357-14.322c-6.326-3.384-0.014-14.594,6.234-9.103C1530.05,27,1526.418,36.153,1527.02,41.357"/>
</g>
<g>
	<path fill="#FFFFFF" d="M181.123,353.579c1.181,1.658,1.497,3.473-1.131,5.4c-2.627,1.926-8.653,4.429-9.834,2.771
		c-1.181-1.659,2.929-6.852,5.557-8.78C178.342,351.046,179.942,351.921,181.123,353.579z"/>
</g>
<g>
	<path fill="#FFFFFF" d="M180.776,353.395c-0.605-0.699-1.739-2.329-1.494-3.288c0.473-1.856,1.986-0.061,1.949,1.251
		c1.279-1.974,3.611,1.278,2.044,2.68c1.373-0.247,2.134,2.677,0.464,2.526C182.454,356.447,181.621,354.269,180.776,353.395"/>
</g>
</svg>
