<?xml version="1.0" encoding="utf-8"?>
<!-- Generator: Adobe Illustrator 15.1.0, SVG Export Plug-In . SVG Version: 6.00 Build 0)  -->
<!DOCTYPE svg PUBLIC "-//W3C//DTD SVG 1.1//EN" "http://www.w3.org/Graphics/SVG/1.1/DTD/svg11.dtd">
<svg version="1.1" id="Layer_1" xmlns="http://www.w3.org/2000/svg" xmlns:xlink="http://www.w3.org/1999/xlink" x="0px" y="0px"
	 width="1567px" height="450px" viewBox="0 0 1567 450" enable-background="new 0 0 1567 450" xml:space="preserve">
<rect x="-10.37" y="-8.398" fill="#F5F5FF" width="1585.421" height="467.976"/>
<g>
	<path fill="#FF9900" d="M566.178-246.925c-42.035,11.027-105.611,65.084-149.312,42.079
		c-56.751-29.862,16.992-109.864,57.438-73.152c-27.502-78.648,102.771-136.647,111.237-45.21
		c20.836-43.816,100.021-71.098,84.322-0.382C661.74-286.998,597.6-257.229,566.178-246.925"/>
</g>
<g>
	<path fill="#FFFFFF" d="M929.801,547.837c29.729,20.894,98.562,32.32,107.454,72.644c11.558,52.357-79.329,48.438-77.716,2.799
		c-35.382,60.009-142.727,8.115-88.904-46.641c-39.227,10.342-99.384-25.504-45.75-53.643
		C852.637,508.438,906.264,533.331,929.801,547.837"/>
</g>
<g>
	<path fill="#FFFFFF" d="M-213.392,109.69c113.532-1.947,336.16,49.241,337.253,112.931
		c1.093,63.678-219.763,115.743-333.293,117.689c-113.53,1.947-142.144-49.207-143.235-112.877
		C-353.759,163.745-326.922,111.639-213.392,109.69z"/>
</g>
<g>
	<path fill="#FFFFFF" d="M-346.759,213.525c-5.662,37.731,15.928,107.743-17.765,135.028c-43.746,35.441-82.745-51.758-39.12-71.674
		c-72.973-5.053-74.646-130.233,2.052-105.396c-28.131-31.983-22.716-105.314,28.896-68.157
		C-345.99,122.554-344.188,184.608-346.759,213.525"/>
</g>
<path fill="#FFFFFF" d="M1552.305-615.611c-48.943-53.933-178.53-106.555-178.188-189.32c0.425-107.476,176.443-59.84,153.211,28.71
	c95.587-101.79,282.689,46.896,153.35,130.307c81.264-2.971,183.145,93.587,65.881,125.026
	C1685.88-504.623,1591.955-576.892,1552.305-615.611"/>
<g>
	<path fill="#F5F5FF" d="M2455.498,764.908c86.323,159.271,177.727,512.088,88.376,560.514
		c-89.333,48.416-325.592-225.889-411.911-385.162c-86.322-159.271-34.969-237.428,54.354-285.836
		C2275.666,606,2369.175,605.635,2455.498,764.908z"/>
</g>
<g>
	<path fill="#F5F5FF" d="M2206.465,654.572c-57.574,19.755-140.789,101.85-204.212,74.236
		c-82.364-35.84,12.36-155.227,72.664-108.133c-46.562-107.014,129.407-201.521,150.702-74.67
		c24.568-63.359,132.354-109.672,117.747-9.264C2335.805,588.701,2249.291,636.926,2206.465,654.572"/>
</g>
<g>
	<path fill="#FFFFFF" d="M569.621,340.311c-113.532,1.946-336.16-49.242-337.254-112.934
		c-1.093-63.677,219.764-115.741,333.294-117.688c113.53-1.949,142.144,49.207,143.235,112.877
		C709.987,286.255,683.15,338.359,569.621,340.311z"/>
</g>
<g>
	<path fill="#FFFFFF" d="M702.987,236.475c5.662-37.729-15.931-107.743,17.765-135.026c43.746-35.441,82.746,51.758,39.12,71.674
		c72.973,5.053,74.646,130.231-2.052,105.396c28.131,31.981,22.715,105.313-28.896,68.155
		C702.219,327.443,700.416,265.393,702.987,236.475"/>
</g>
<g>
	<path fill="#FFFFFF" d="M1166.307,109.689c113.531-1.947,336.16,49.242,337.254,112.932
		c1.094,63.678-219.764,115.742-333.293,117.688c-113.53,1.949-142.146-49.207-143.235-112.875
		C1025.939,163.744,1052.777,111.639,1166.307,109.689z"/>
</g>
<g>
	<path fill="#FFFFFF" d="M1032.939,213.525c-5.661,37.73,15.93,107.743-17.765,135.027c-43.746,35.441-82.746-51.758-39.12-71.674
		c-72.974-5.053-74.646-130.232,2.053-105.396c-28.131-31.982-22.716-105.314,28.896-68.156
		C1033.709,122.555,1035.512,184.607,1032.939,213.525"/>
</g>
<g>
	<path fill="#F5F5FF" d="M1983.759,340.311c-113.532,1.947-336.16-49.242-337.254-112.933
		c-1.093-63.677,219.765-115.741,333.294-117.688c113.53-1.949,142.146,49.207,143.235,112.877
		C2124.125,286.256,2097.288,338.361,1983.759,340.311z"/>
</g>
<g>
	<path fill="#F5F5FF" d="M2117.125,236.475c5.662-37.729-15.929-107.742,17.765-135.025c43.746-35.441,82.746,51.758,39.12,71.674
		c72.975,5.053,74.646,130.23-2.052,105.396c28.131,31.981,22.715,105.313-28.896,68.155
		C2116.355,327.445,2114.554,265.393,2117.125,236.475"/>
</g>
<g id="Uf0Dc2_1_">
	<g>
		<path fill-rule="evenodd" clip-rule="evenodd" fill="#FFFFFF" d="M160.152,191.084c0.25,0,0.501,0,0.751,0
			c7.132,17.833,14.242,35.679,21.399,53.485c-1.496-4.193-2.977-8.661-4.564-12.829c-0.538-1.414-1.129-2.794-1.642-4.174
			c-0.023-0.063,0.147-0.401,0.223-0.585c1.1-2.667,2.317-5.539,3.367-8.07c3.444-8.305,6.875-16.476,10.324-24.794
			c0.12-0.29,0.369-1.009,0.473-1.058c0.218-0.103,0.949,0,1.336,0c6.914,0,13.632,0,20.453,0c0,22.197,0,44.394,0,66.592
			c-5.092,0-10.254,0-15.389,0c-0.325,0-0.883,0.071-1.03,0c-0.092-0.045-0.234-0.502-0.306-0.668
			c-0.118-0.272-0.195-0.498-0.278-0.696c-0.181-0.429-0.52-0.919-0.584-1.362c-0.083-0.566,0-1.252,0-1.893
			c0-9.361,0.001-19.183,0-28.384c0-0.229,0.357-0.717,0.529-1.003c0.562-0.934,1.145-1.897,1.642-2.782
			c5.001-8.907,9.675-18.096,14.108-27.271c-4.58,8.593-9.281,17.041-13.886,25.686c-4.401,8.26-9.053,16.55-13.469,24.851
			c-0.148,0.277-0.343,0.733-0.473,0.778c-0.318,0.11-1.173,0-1.67,0c-3.5,0-6.687,0-10.185,0c-0.334,0-1.465,0.104-1.697,0
			c-0.097-0.043-0.308-0.56-0.445-0.807c-9.445-16.968-18.924-34.035-28.329-50.842c4.916,9.77,10.213,19.562,15.528,29.024
			c0.187,0.333,0.416,0.667,0.5,0.946c0.058,0.188-0.277,0.908-0.389,1.225c-0.149,0.421-0.301,0.837-0.417,1.169
			c-4.101,11.69-9.771,21.755-15.64,31.473c3.474-4.873,6.675-9.97,9.545-15.527c2.764-5.352,5.187-10.961,6.901-17.365
			c0.025-0.092,0.184-0.609,0.195-0.611c0.07-0.019,0.097,0.143,0.111,0.167c0.202,0.324,0.665,0.964,0.724,1.279
			c0.096,0.517,0,1.22,0,1.864c0,8.753,0,17.406,0,26.103c0,0.73,0.112,1.763-0.111,2.198c-0.413,0.809-1.712,1.215-2.671,1.504
			c-3.375,1.013-7.006,1.175-11.131,1.391c-1.419,0-2.839,0-4.258,0c0-22.344,0-44.692,0-67.037
			C146.348,192.232,153.294,191.701,160.152,191.084z M199.473,253.307c2.848-6.414,5.163-13.314,7.152-20.564
			c2.562-9.343,4.509-19.404,5.287-30.499c0.027-0.387,0.112-0.943,0.056-1.113c-0.01-0.03-0.024-0.021-0.028,0.027
			c-0.916,11.207-3.217,21.253-5.927,30.944c-1.339,4.786-2.779,9.496-4.397,14.054c-1.594,4.49-3.272,9.169-5.398,13.106
			c-0.011,0.03-0.033,0.067,0,0.028C197.593,257.523,198.536,255.419,199.473,253.307z"/>
		<g>
		</g>
	</g>
</g>
<g id="Uf0Dc2_2_">
	<g>
		<path fill-rule="evenodd" clip-rule="evenodd" fill="#FFFFFF" d="M851.152,191.084c0.25,0,0.501,0,0.752,0
			c7.131,17.833,14.242,35.679,21.398,53.485c-1.496-4.193-2.977-8.661-4.563-12.829c-0.538-1.414-1.129-2.794-1.642-4.174
			c-0.023-0.063,0.146-0.401,0.223-0.585c1.101-2.667,2.318-5.539,3.367-8.07c3.443-8.305,6.875-16.476,10.324-24.794
			c0.12-0.289,0.369-1.009,0.473-1.058c0.219-0.103,0.949,0,1.336,0c6.914,0,13.633,0,20.453,0c0,22.197,0,44.394,0,66.592
			c-5.092,0-10.254,0-15.389,0c-0.324,0-0.883,0.071-1.029,0c-0.092-0.045-0.234-0.502-0.307-0.668
			c-0.117-0.272-0.194-0.498-0.277-0.696c-0.182-0.429-0.52-0.919-0.584-1.362c-0.084-0.566,0-1.252,0-1.893
			c0-9.361,0-19.183,0-28.384c0-0.229,0.356-0.717,0.528-1.003c0.562-0.934,1.145-1.897,1.642-2.782
			c5.002-8.907,9.675-18.096,14.108-27.271c-4.579,8.593-9.28,17.041-13.886,25.686c-4.4,8.26-9.053,16.55-13.469,24.851
			c-0.148,0.277-0.343,0.733-0.473,0.778c-0.318,0.11-1.174,0-1.67,0c-3.5,0-6.688,0-10.186,0c-0.334,0-1.465,0.104-1.697,0
			c-0.097-0.043-0.308-0.56-0.445-0.807c-9.445-16.968-18.924-34.035-28.328-50.842c4.916,9.77,10.213,19.562,15.527,29.024
			c0.188,0.333,0.416,0.667,0.501,0.946c0.058,0.188-0.277,0.908-0.39,1.225c-0.148,0.421-0.301,0.837-0.417,1.169
			c-4.101,11.69-9.771,21.755-15.64,31.473c3.475-4.873,6.676-9.97,9.545-15.527c2.764-5.352,5.187-10.961,6.901-17.365
			c0.024-0.092,0.184-0.609,0.194-0.611c0.07-0.019,0.098,0.143,0.111,0.167c0.202,0.324,0.666,0.964,0.725,1.279
			c0.096,0.517,0,1.22,0,1.864c0,8.753,0,17.406,0,26.103c0,0.73,0.111,1.763-0.111,2.198c-0.414,0.809-1.713,1.215-2.672,1.504
			c-3.375,1.013-7.006,1.175-11.131,1.391c-1.42,0-2.839,0-4.258,0c0-22.344,0-44.692,0-67.037
			C837.348,192.232,844.294,191.701,851.152,191.084z M890.473,253.307c2.849-6.414,5.163-13.314,7.152-20.564
			c2.562-9.343,4.51-19.404,5.287-30.499c0.027-0.387,0.112-0.943,0.056-1.113c-0.011-0.03-0.024-0.021-0.028,0.027
			c-0.916,11.207-3.217,21.253-5.927,30.944c-1.339,4.786-2.778,9.496-4.397,14.054c-1.594,4.49-3.271,9.169-5.398,13.106
			c-0.01,0.03-0.033,0.067,0,0.028C888.593,257.523,889.535,255.419,890.473,253.307z"/>
		<g>
		</g>
	</g>
</g>
<g id="Uf0Dc2_3_">
	<g>
		<path fill-rule="evenodd" clip-rule="evenodd" fill="#FFFFFF" d="M1546.152,191.084c0.25,0,0.501,0,0.752,0
			c7.131,17.833,14.242,35.679,21.398,53.485c-1.496-4.193-2.977-8.661-4.563-12.829c-0.538-1.414-1.129-2.794-1.642-4.174
			c-0.023-0.063,0.146-0.401,0.223-0.585c1.101-2.667,2.318-5.539,3.367-8.07c3.443-8.305,6.875-16.476,10.324-24.794
			c0.12-0.289,0.369-1.009,0.473-1.058c0.219-0.103,0.949,0,1.336,0c6.914,0,13.633,0,20.453,0c0,22.197,0,44.394,0,66.592
			c-5.092,0-10.254,0-15.389,0c-0.324,0-0.883,0.071-1.029,0c-0.092-0.045-0.234-0.502-0.307-0.668
			c-0.117-0.272-0.194-0.498-0.277-0.696c-0.182-0.429-0.52-0.919-0.584-1.362c-0.084-0.566,0-1.252,0-1.893
			c0-9.361,0-19.183,0-28.384c0-0.229,0.356-0.717,0.528-1.003c0.562-0.934,1.145-1.897,1.642-2.782
			c5.002-8.907,9.675-18.096,14.108-27.271c-4.579,8.593-9.28,17.041-13.886,25.686c-4.4,8.26-9.053,16.55-13.469,24.851
			c-0.148,0.277-0.343,0.733-0.473,0.778c-0.318,0.11-1.174,0-1.67,0c-3.5,0-6.688,0-10.186,0c-0.334,0-1.465,0.104-1.697,0
			c-0.097-0.043-0.308-0.56-0.445-0.807c-9.445-16.968-18.924-34.035-28.328-50.842c4.916,9.77,10.213,19.562,15.527,29.024
			c0.188,0.333,0.416,0.667,0.501,0.946c0.058,0.188-0.277,0.908-0.39,1.225c-0.148,0.421-0.301,0.837-0.417,1.169
			c-4.101,11.69-9.771,21.755-15.64,31.473c3.475-4.873,6.676-9.97,9.545-15.527c2.764-5.352,5.187-10.961,6.901-17.365
			c0.024-0.092,0.184-0.609,0.194-0.611c0.07-0.019,0.098,0.143,0.111,0.167c0.202,0.324,0.666,0.964,0.725,1.279
			c0.096,0.517,0,1.22,0,1.864c0,8.753,0,17.406,0,26.103c0,0.73,0.111,1.763-0.111,2.198c-0.414,0.809-1.713,1.215-2.672,1.504
			c-3.375,1.013-7.006,1.175-11.131,1.391c-1.42,0-2.839,0-4.258,0c0-22.344,0-44.692,0-67.037
			C1532.348,192.232,1539.294,191.701,1546.152,191.084z M1585.473,253.307c2.849-6.414,5.163-13.314,7.152-20.564
			c2.562-9.343,4.51-19.404,5.287-30.499c0.027-0.387,0.112-0.943,0.056-1.113c-0.011-0.03-0.024-0.021-0.028,0.027
			c-0.916,11.207-3.217,21.253-5.927,30.944c-1.339,4.786-2.778,9.496-4.397,14.054c-1.594,4.49-3.271,9.169-5.398,13.106
			c-0.01,0.03-0.033,0.067,0,0.028C1583.593,257.523,1584.535,255.419,1585.473,253.307z"/>
		<g>
		</g>
	</g>
</g>
</svg>
