<?xml version="1.0" encoding="utf-8"?>
<!-- Generator: Adobe Illustrator 15.1.0, SVG Export Plug-In . SVG Version: 6.00 Build 0)  -->
<!DOCTYPE svg PUBLIC "-//W3C//DTD SVG 1.1//EN" "http://www.w3.org/Graphics/SVG/1.1/DTD/svg11.dtd">
<svg version="1.1" id="Layer_1" xmlns="http://www.w3.org/2000/svg" xmlns:xlink="http://www.w3.org/1999/xlink" x="0px" y="0px"
	 width="1567px" height="450px" viewBox="0 0 1567 450" enable-background="new 0 0 1567 450" xml:space="preserve">
<rect x="-10.37" y="-8.398" fill="#FFFFFF" width="1585.421" height="467.976"/>
<g>
	<path fill="#FF9900" d="M566.178-246.925c-42.035,11.027-105.612,65.084-149.312,42.079
		c-56.751-29.862,16.992-109.864,57.438-73.152c-27.502-78.648,102.771-136.647,111.237-45.21
		c20.836-43.816,100.021-71.098,84.322-0.382C661.74-286.998,597.6-257.229,566.178-246.925"/>
</g>
<g>
	<path fill="#FFFFFF" d="M929.801,547.837c29.729,20.894,98.562,32.32,107.454,72.644c11.558,52.357-79.329,48.438-77.716,2.798
		c-35.382,60.009-142.727,8.116-88.904-46.64c-39.227,10.342-99.384-25.504-45.75-53.643
		C852.637,508.438,906.264,533.331,929.801,547.837"/>
</g>
<g>
	<path fill="#F5F5FF" d="M-213.392,109.69c113.532-1.947,336.16,49.241,337.253,112.931
		c1.093,63.678-219.763,115.743-333.293,117.689c-113.53,1.948-142.144-49.207-143.235-112.877
		C-353.759,163.745-326.922,111.639-213.392,109.69z"/>
</g>
<g>
	<path fill="#F5F5FF" d="M-346.759,213.525c-5.662,37.731,15.928,107.743-17.765,135.028c-43.746,35.441-82.745-51.758-39.12-71.674
		c-72.973-5.053-74.646-130.233,2.052-105.396c-28.131-31.983-22.716-105.314,28.896-68.157
		C-345.99,122.554-344.188,184.608-346.759,213.525"/>
</g>
<path fill="#FFFFFF" d="M1552.305-615.611c-48.944-53.933-178.531-106.555-178.188-189.32
	c0.425-107.476,176.443-59.84,153.211,28.71c95.587-101.79,282.689,46.897,153.35,130.307
	c81.263-2.971,183.144,93.587,65.881,125.026C1685.88-504.623,1591.955-576.892,1552.305-615.611"/>
<g>
	<path fill="#F5F5FF" d="M2455.498,764.908c86.323,159.271,177.727,512.088,88.376,560.514
		c-89.333,48.416-325.592-225.889-411.911-385.162c-86.322-159.271-34.969-237.428,54.354-285.836
		C2275.666,606,2369.175,605.635,2455.498,764.908z"/>
</g>
<g>
	<path fill="#F5F5FF" d="M2206.465,654.572c-57.574,19.755-140.789,101.85-204.212,74.237
		c-82.364-35.84,12.36-155.227,72.664-108.133c-46.562-107.014,129.407-201.521,150.702-74.67
		c24.568-63.36,132.354-109.672,117.747-9.264C2335.805,588.701,2249.291,636.926,2206.465,654.572"/>
</g>
<g>
	<path fill="#F5F5FF" d="M569.621,340.311c-113.532,1.946-336.16-49.242-337.254-112.934
		c-1.093-63.677,219.764-115.741,333.294-117.688c113.53-1.949,142.144,49.207,143.235,112.877
		C709.987,286.255,683.15,338.359,569.621,340.311z"/>
</g>
<g>
	<path fill="#F5F5FF" d="M702.987,236.475c5.662-37.73-15.93-107.743,17.765-135.027c43.746-35.441,82.746,51.758,39.12,71.674
		c72.973,5.053,74.646,130.232-2.052,105.396c28.131,31.981,22.715,105.313-28.896,68.155
		C702.219,327.443,700.416,265.393,702.987,236.475"/>
</g>
<g>
	<path fill="#F5F5FF" d="M1166.307,109.689c113.531-1.947,336.16,49.242,337.254,112.932
		c1.093,63.678-219.764,115.742-333.294,117.688c-113.53,1.949-142.145-49.207-143.235-112.875
		C1025.94,163.744,1052.777,111.639,1166.307,109.689z"/>
</g>
<g>
	<path fill="#F5F5FF" d="M1032.94,213.525c-5.662,37.73,15.929,107.743-17.765,135.027c-43.746,35.441-82.746-51.758-39.12-71.674
		c-72.974-5.053-74.646-130.232,2.052-105.396c-28.13-31.982-22.715-105.314,28.896-68.156
		C1033.709,122.555,1035.512,184.607,1032.94,213.525"/>
</g>
<g>
	<path fill="#F5F5FF" d="M1983.759,340.311c-113.532,1.947-336.16-49.242-337.254-112.933
		c-1.093-63.677,219.764-115.741,333.294-117.688c113.53-1.949,142.145,49.207,143.235,112.877
		C2124.125,286.256,2097.288,338.361,1983.759,340.311z"/>
</g>
<g>
	<path fill="#F5F5FF" d="M2117.125,236.475c5.662-37.729-15.929-107.742,17.765-135.026c43.746-35.441,82.746,51.758,39.12,71.674
		c72.974,5.053,74.646,130.231-2.052,105.396c28.131,31.982,22.715,105.314-28.896,68.156
		C2116.355,327.445,2114.554,265.393,2117.125,236.475"/>
</g>
<g id="u1EUYo_1_">
	<g>
		<path fill-rule="evenodd" clip-rule="evenodd" fill="#F5F5FF" d="M144.69,180.178c6.475,0,12.949,0,19.425,0
			c3.964,7.032,7.982,14.008,12.075,20.913c4.084-6.912,8.104-13.889,12.075-20.913c6.475,0,12.949,0,19.424,0
			c6.796,0.204,13.972,0.029,20.913,0.088c-17.485,30.23-34.897,60.536-52.412,90.737c-17.456-30.178-35.114-60.613-52.325-90.737
			C130.778,180.207,137.922,180.382,144.69,180.178z"/>
		<g>
		</g>
	</g>
</g>
<g id="u1EUYo_2_">
	<g>
		<path fill-rule="evenodd" clip-rule="evenodd" fill="#F5F5FF" d="M835.797,180.178c6.475,0,12.949,0,19.426,0
			c3.963,7.032,7.982,14.008,12.074,20.913c4.084-6.911,8.104-13.889,12.076-20.913c6.475,0,12.949,0,19.424,0
			c6.795,0.204,13.971,0.029,20.912,0.088c-17.484,30.23-34.896,60.536-52.412,90.737c-17.455-30.178-35.113-60.613-52.324-90.737
			C821.885,180.207,829.029,180.382,835.797,180.178z"/>
		<g>
		</g>
	</g>
</g>
<g id="u1EUYo_3_">
	<g>
		<path fill-rule="evenodd" clip-rule="evenodd" fill="#F5F5FF" d="M1524.391,180.178c6.475,0,12.949,0,19.424,0
			c3.965,7.032,7.982,14.008,12.076,20.913c4.084-6.911,8.104-13.889,12.074-20.913c6.475,0,12.949,0,19.424,0
			c6.797,0.204,13.973,0.029,20.914,0.088c-17.486,30.23-34.898,60.536-52.412,90.737c-17.457-30.178-35.115-60.613-52.326-90.737
			C1510.479,180.207,1517.623,180.382,1524.391,180.178z"/>
		<g>
		</g>
	</g>
</g>
</svg>
