<?xml version="1.0" encoding="utf-8"?>
<!-- Generator: Adobe Illustrator 15.1.0, SVG Export Plug-In . SVG Version: 6.00 Build 0)  -->
<!DOCTYPE svg PUBLIC "-//W3C//DTD SVG 1.1//EN" "http://www.w3.org/Graphics/SVG/1.1/DTD/svg11.dtd">
<svg version="1.1" id="Layer_1" xmlns="http://www.w3.org/2000/svg" xmlns:xlink="http://www.w3.org/1999/xlink" x="0px" y="0px"
	 width="1567px" height="450px" viewBox="0 0 1567 450" enable-background="new 0 0 1567 450" xml:space="preserve">
<rect x="-10.37" y="-8.398" fill="#F5F5FF" width="1585.421" height="467.976"/>
<g>
	<path fill="#FF9900" d="M566.178-246.925c-42.035,11.027-105.613,65.084-149.312,42.079
		c-56.751-29.862,16.992-109.864,57.439-73.152c-27.502-78.648,102.771-136.647,111.237-45.21
		c20.836-43.816,100.021-71.098,84.322-0.382C661.74-286.998,597.6-257.229,566.178-246.925"/>
</g>
<g>
	<path fill="#FFFFFF" d="M929.801,547.837c29.729,20.894,98.562,32.32,107.454,72.644c11.558,52.357-79.329,48.438-77.716,2.797
		c-35.382,60.009-142.727,8.117-88.904-46.639c-39.227,10.342-99.384-25.504-45.75-53.643
		C852.637,508.438,906.264,533.331,929.801,547.837"/>
</g>
<g>
	<path fill="#FFFFFF" d="M-213.392,109.69c113.532-1.947,336.16,49.241,337.253,112.931
		c1.093,63.678-219.763,115.743-333.293,117.689c-113.53,1.949-142.144-49.207-143.235-112.876
		C-353.759,163.745-326.922,111.639-213.392,109.69z"/>
</g>
<g>
	<path fill="#FFFFFF" d="M-346.759,213.525c-5.662,37.731,15.928,107.743-17.765,135.028c-43.746,35.441-82.745-51.758-39.12-71.674
		c-72.973-5.053-74.646-130.233,2.052-105.396c-28.131-31.983-22.716-105.314,28.896-68.157
		C-345.99,122.554-344.188,184.608-346.759,213.525"/>
</g>
<path fill="#FFFFFF" d="M1552.305-615.611c-48.945-53.933-178.532-106.555-178.188-189.32
	c0.425-107.476,176.443-59.84,153.211,28.71c95.587-101.79,282.689,46.898,153.35,130.307
	c81.262-2.971,183.143,93.587,65.881,125.026C1685.88-504.623,1591.955-576.892,1552.305-615.611"/>
<g>
	<path fill="#F5F5FF" d="M2455.498,764.908c86.323,159.271,177.727,512.088,88.376,560.514
		c-89.333,48.416-325.592-225.889-411.911-385.162c-86.322-159.271-34.969-237.428,54.354-285.836
		C2275.666,606,2369.175,605.635,2455.498,764.908z"/>
</g>
<g>
	<path fill="#F5F5FF" d="M2206.465,654.572c-57.574,19.755-140.789,101.85-204.212,74.238
		c-82.364-35.84,12.36-155.227,72.664-108.133c-46.562-107.014,129.407-201.521,150.702-74.67
		c24.568-63.361,132.354-109.672,117.747-9.264C2335.805,588.701,2249.291,636.926,2206.465,654.572"/>
</g>
<g>
	<path fill="#FFFFFF" d="M473.249,340.31c-113.532,1.947-336.16-49.242-337.254-112.933
		c-1.093-63.677,219.764-115.741,333.294-117.688c113.53-1.949,142.144,49.207,143.235,112.877
		C613.615,286.255,586.778,338.36,473.249,340.31z"/>
</g>
<g>
	<path fill="#FFFFFF" d="M606.615,236.474c5.662-37.73-15.929-107.742,17.765-135.027c43.746-35.441,82.746,51.758,39.12,71.674
		c72.973,5.053,74.646,130.232-2.052,105.396c28.131,31.982,22.715,105.314-28.896,68.156
		C605.847,327.444,604.044,265.392,606.615,236.474"/>
</g>
<g>
	<path fill="#FFFFFF" d="M975.949,109.689c113.532-1.947,336.16,49.242,337.254,112.932
		c1.093,63.678-219.764,115.742-333.294,117.688c-113.53,1.949-142.144-49.207-143.235-112.876
		C835.583,163.744,862.42,111.639,975.949,109.689z"/>
</g>
<g>
	<path fill="#FFFFFF" d="M842.583,213.525c-5.662,37.73,15.929,107.742-17.765,135.027c-43.746,35.441-82.746-51.758-39.12-71.674
		c-72.973-5.053-74.646-130.232,2.052-105.396c-28.13-31.982-22.715-105.314,28.896-68.156
		C843.352,122.555,845.154,184.607,842.583,213.525"/>
</g>
<g>
	<path fill="#FFFFFF" d="M1662.591,340.311c-113.532,1.947-336.16-49.242-337.254-112.933
		c-1.093-63.677,219.764-115.741,333.294-117.688c113.53-1.949,142.144,49.207,143.235,112.877
		C1802.957,286.256,1776.12,338.361,1662.591,340.311z"/>
</g>
<g>
	<path fill="#FFFFFF" d="M1795.957,236.475c5.662-37.73-15.929-107.742,17.765-135.027c43.746-35.441,82.746,51.758,39.12,71.674
		c72.973,5.053,74.646,130.232-2.052,105.396c28.131,31.982,22.715,105.314-28.896,68.156
		C1795.188,327.445,1793.386,265.393,1795.957,236.475"/>
</g>
</svg>
