<?xml version="1.0" encoding="utf-8"?>
<!-- Generator: Adobe Illustrator 15.1.0, SVG Export Plug-In . SVG Version: 6.00 Build 0)  -->
<!DOCTYPE svg PUBLIC "-//W3C//DTD SVG 1.1//EN" "http://www.w3.org/Graphics/SVG/1.1/DTD/svg11.dtd">
<svg version="1.1" id="Layer_1" xmlns="http://www.w3.org/2000/svg" xmlns:xlink="http://www.w3.org/1999/xlink" x="0px" y="0px"
	 width="1567px" height="450px" viewBox="0 0 1567 450" enable-background="new 0 0 1567 450" xml:space="preserve">
<rect x="-10.37" y="-8.398" fill="#FFFFFF" width="1585.421" height="467.976"/>
<g>
	<path fill="#FF9900" d="M566.178-246.925c-42.035,11.027-105.612,65.084-149.312,42.079
		c-56.751-29.862,16.992-109.864,57.438-73.152c-27.502-78.648,102.771-136.647,111.237-45.21
		c20.836-43.816,100.021-71.098,84.322-0.382C661.74-286.998,597.6-257.229,566.178-246.925"/>
</g>
<g>
	<path fill="#F5F5FF" d="M929.801,547.837c29.729,20.894,98.562,32.32,107.454,72.644c11.558,52.357-79.329,48.438-77.716,2.798
		c-35.382,60.009-142.727,8.116-88.904-46.64c-39.227,10.342-99.384-25.504-45.75-53.643
		C852.637,508.438,906.264,533.331,929.801,547.837"/>
</g>
<g>
	<path fill="#F5F5FF" d="M90.743,420.184c62.265-94.955,229.835-250.208,283.104-215.28
		c53.261,34.922-27.953,246.801-90.217,341.755c-62.262,94.953-120.651,89.829-173.903,54.91
		C56.46,566.639,28.482,515.137,90.743,420.184z"/>
</g>
<g>
	<path fill="#F5F5FF" d="M84.928,488.088c24.905,28.902,92.054,58.209,90.756,101.545c-1.674,56.275-93.206,28.953-79.843-17.104
		c-51.431,52.014-147.402-28.375-78.546-70.308c-42.592,0.459-94.641-51.479-32.811-66.36
		C16.479,428.162,64.688,467.275,84.928,488.088"/>
</g>
<path fill="#FFFFFF" d="M1552.305-615.611c-48.944-53.933-178.531-106.555-178.188-189.32
	c0.425-107.476,176.443-59.84,153.211,28.71c95.587-101.79,282.689,46.897,153.35,130.307
	c81.263-2.971,183.144,93.587,65.881,125.026C1685.88-504.623,1591.955-576.892,1552.305-615.611"/>
<g>
	<path fill="#F5F5FF" d="M2455.498,764.908c86.323,159.271,177.727,512.088,88.376,560.514
		c-89.333,48.416-325.592-225.889-411.911-385.162c-86.322-159.271-34.969-237.428,54.354-285.836
		C2275.666,606,2369.175,605.635,2455.498,764.908z"/>
</g>
<g>
	<path fill="#F5F5FF" d="M2206.465,654.572c-57.574,19.755-140.789,101.85-204.212,74.237
		c-82.364-35.84,12.36-155.227,72.664-108.133c-46.562-107.014,129.407-201.521,150.702-74.67
		c24.568-63.36,132.354-109.672,117.747-9.264C2335.805,588.701,2249.291,636.926,2206.465,654.572"/>
</g>
<g>
	<path fill="#F5F5FF" d="M318.649,418.663c35.446-54.06,130.844-142.442,161.17-122.558c30.32,19.881-15.914,140.503-51.36,194.56
		c-35.445,54.057-68.688,51.14-99.002,31.26C299.132,502.039,283.205,472.72,318.649,418.663z"/>
</g>
<g>
	<path fill="#F5F5FF" d="M309.913,444.798c14.178,16.454,52.406,33.138,51.667,57.811c-0.953,32.036-53.062,16.481-45.455-9.737
		c-29.279,29.611-83.916-16.154-44.716-40.025c-24.248,0.262-53.878-29.308-18.679-37.778
		C270.945,410.683,298.391,432.949,309.913,444.798"/>
</g>
<g>
	<path fill="#F5F5FF" d="M448.94,401.688c54.669-83.373,201.798-219.687,248.567-189.019
		c46.764,30.662-24.543,216.694-79.211,300.065c-54.666,83.369-105.933,78.871-152.688,48.212
		C418.839,530.277,394.273,485.058,448.94,401.688z"/>
</g>
<g>
	<path fill="#F5F5FF" d="M438.726,494.752c21.867,25.377,80.824,51.107,79.686,89.159c-1.47,49.409-81.835,25.421-70.104-15.02
		c-45.155,45.669-129.421-24.915-68.964-61.729c-37.396,0.403-83.096-45.2-28.808-58.266
		C378.627,442.138,420.955,476.479,438.726,494.752"/>
</g>
<g>
	<path fill="#F5F5FF" d="M632.514,412.055c34.354-52.395,126.814-138.056,156.205-118.783
		c29.389,19.271-15.423,136.176-49.776,188.566c-34.354,52.391-66.571,49.563-95.953,30.298
		C613.598,492.861,598.161,464.445,632.514,412.055z"/>
</g>
<g>
	<path fill="#F5F5FF" d="M612.747,463.099c10.752,12.479,39.743,25.13,39.183,43.842c-0.723,24.295-40.239,12.5-34.471-7.386
		c-22.204,22.455-63.638-12.251-33.911-30.354c-18.389,0.198-40.858-22.227-14.165-28.65
		C583.196,437.228,604.009,454.113,612.747,463.099"/>
</g>
<g>
	<path fill="#F5F5FF" d="M21.392,366.493c33.251-50.708,122.737-133.617,151.184-114.966
		c28.442,18.649-14.928,131.799-48.177,182.508c-33.25,50.707-64.432,47.97-92.869,29.323
		C3.083,444.705-11.857,417.201,21.392,366.493z"/>
</g>
<g>
	<path fill="#F5F5FF" d="M-19.821,385.146c10.706,12.426,39.572,25.023,39.015,43.652c-0.72,24.192-40.067,12.447-34.323-7.352
		c-22.109,22.358-63.366-12.198-33.766-30.225c-18.31,0.196-40.684-22.131-14.104-28.527
		C-49.246,359.387-28.522,376.201-19.821,385.146"/>
</g>
<g>
	<path fill="#F5F5FF" d="M714.01,424.771c66.631-101.621,245.957-267.762,302.961-230.383
		c56.998,37.374-29.911,264.112-96.545,365.728c-66.629,101.611-129.113,96.131-186.101,58.765
		C677.322,581.497,647.381,526.383,714.01,424.771z"/>
</g>
<g>
	<path fill="#F5F5FF" d="M697.903,580.037c26.651,30.931,98.511,62.29,97.123,108.669c-1.791,60.222-99.743,30.984-85.444-18.305
		c-55.038,55.659-157.741-30.367-84.056-75.238c-45.58,0.491-101.279-55.091-35.111-71.016
		C624.653,515.909,676.244,557.765,697.903,580.037"/>
</g>
<g>
	<path fill="#F5F5FF" d="M937.646,435.13c51.988-79.294,191.916-208.93,236.394-179.765c44.476,29.162-23.338,206.082-75.33,285.371
		c-51.99,79.286-100.747,75.009-145.213,45.854C909.02,557.42,885.656,514.415,937.646,435.13z"/>
</g>
<g>
	<path fill="#F5F5FF" d="M935.578,562.884c14.021,16.271,51.823,32.771,51.093,57.167c-0.942,31.68-52.47,16.299-44.948-9.63
		c-28.953,29.28-82.98-15.975-44.219-39.579c-23.978,0.258-53.278-28.98-18.47-37.357
		C897.045,529.149,924.186,551.168,935.578,562.884"/>
</g>
<g>
	<path fill="#F5F5FF" d="M1070.578,487.186c80.392-122.607,296.755-323.06,365.53-277.962
		c68.769,45.091-36.087,318.657-116.484,441.26c-80.39,122.598-155.778,115.982-224.534,70.899
		C1026.312,676.28,990.188,609.783,1070.578,487.186z"/>
</g>
<g>
	<path fill="#F5F5FF" d="M1043.314,719.604c32.157,37.319,118.857,75.158,117.183,131.114
		c-2.161,72.658-120.341,37.382-103.09-22.087c-66.405,67.155-190.321-36.638-101.417-90.774
		c-54.994,0.591-122.195-66.471-42.361-85.684C954.938,642.233,1017.186,692.733,1043.314,719.604"/>
</g>
<g>
	<path fill="#F5F5FF" d="M1548.301,358.986c62.265-94.957,229.834-250.208,283.104-215.28c53.26,34.922-27.952,246.8-90.217,341.754
		c-62.263,94.954-120.651,89.829-173.903,54.911C1514.017,505.441,1486.039,453.94,1548.301,358.986z"/>
</g>
<g>
	<path fill="#F5F5FF" d="M1769.787,452.382c41.321-49.713,146.084-126.767,173.972-103.586
		c27.884,23.177-31.669,137.811-72.989,187.521c-41.319,49.711-74.02,43.061-101.897,19.887
		C1740.984,533.021,1728.468,502.093,1769.787,452.382z"/>
</g>
<g>
	<path fill="#F5F5FF" d="M1901.161,450.219c63.729-76.672,225.302-195.509,268.312-159.758
		c43.006,35.744-48.842,212.54-112.569,289.208c-63.727,76.668-114.158,66.412-157.154,30.672
		C1856.74,574.59,1837.436,526.887,1901.161,450.219z"/>
</g>
<g>
	<path fill="#F5F5FF" d="M1421.61,396.325c42.737-65.177,157.758-171.742,194.318-147.767
		c36.559,23.969-19.185,169.4-61.923,234.576c-42.734,65.175-82.813,61.658-119.365,37.69
		C1398.079,496.85,1378.875,461.499,1421.61,396.325z"/>
</g>
<g>
	<path fill="#F5F5FF" d="M-73.628,304.312C-39.274,251.922,53.18,166.264,82.57,185.535
		c29.386,19.269-15.423,136.168-49.775,188.561c-34.352,52.389-66.568,49.562-95.949,30.294
		C-92.543,385.118-107.98,356.702-73.628,304.312z"/>
</g>
</svg>
