<?xml version="1.0" encoding="utf-8"?>
<!-- Generator: Adobe Illustrator 15.1.0, SVG Export Plug-In . SVG Version: 6.00 Build 0)  -->
<!DOCTYPE svg PUBLIC "-//W3C//DTD SVG 1.1//EN" "http://www.w3.org/Graphics/SVG/1.1/DTD/svg11.dtd">
<svg version="1.1" id="Layer_1" xmlns="http://www.w3.org/2000/svg" xmlns:xlink="http://www.w3.org/1999/xlink" x="0px" y="0px"
	 width="1567px" height="450px" viewBox="0 0 1567 450" enable-background="new 0 0 1567 450" xml:space="preserve">
<rect x="-10.37" y="-8.398" fill="#FFFFFF" width="1585.421" height="467.976"/>
<g>
	<path fill="#FF9900" d="M566.178-246.925c-42.035,11.027-105.611,65.084-149.312,42.079
		c-56.751-29.862,16.992-109.864,57.438-73.152c-27.502-78.648,102.771-136.647,111.237-45.21
		c20.836-43.816,100.021-71.098,84.322-0.382C661.74-286.998,597.6-257.229,566.178-246.925"/>
</g>
<g>
	<path fill="#F5F5FF" d="M670.951,547.837c23.537-14.506,77.164-39.399,104.916-24.841c53.633,28.139-6.523,63.984-45.75,53.643
		c53.822,54.756-53.522,106.649-88.904,46.641c1.613,45.64-89.273,49.559-77.716-2.799
		C572.388,580.157,641.221,568.73,670.951,547.837"/>
</g>
<g>
	<path fill="#F5F5FF" d="M1491.025,601.569c-53.252,34.919-111.643,40.043-173.904-54.91
		c-62.264-94.954-143.479-306.833-90.217-341.755c53.27-34.928,220.84,120.324,283.104,215.279
		C1572.27,515.137,1544.291,566.639,1491.025,601.569z"/>
</g>
<g>
	<path fill="#F5F5FF" d="M1515.824,488.088c20.24-20.812,68.449-59.926,100.443-52.227c61.83,14.881,9.781,66.818-32.811,66.359
		c68.855,41.934-27.115,122.322-78.547,70.309c13.363,46.057-78.168,73.379-79.842,17.104
		C1423.77,546.297,1490.918,516.99,1515.824,488.088"/>
</g>
<path fill="#FFFFFF" d="M1552.305-615.611c-48.943-53.933-178.53-106.555-178.188-189.32c0.425-107.476,176.443-59.84,153.211,28.71
	c95.587-101.79,282.689,46.896,153.35,130.307c81.264-2.971,183.145,93.587,65.881,125.026
	C1685.88-504.623,1591.955-576.892,1552.305-615.611"/>
<g>
	<path fill="#F5F5FF" d="M2455.498,764.908c86.323,159.271,177.727,512.088,88.376,560.514
		c-89.333,48.416-325.592-225.889-411.911-385.162c-86.322-159.271-34.969-237.428,54.354-285.836
		C2275.666,606,2369.175,605.635,2455.498,764.908z"/>
</g>
<g>
	<path fill="#F5F5FF" d="M2206.465,654.572c-57.574,19.755-140.789,101.85-204.212,74.236
		c-82.364-35.84,12.36-155.227,72.664-108.133c-46.562-107.014,129.407-201.521,150.702-74.67
		c24.568-63.359,132.354-109.672,117.747-9.264C2335.805,588.701,2249.291,636.926,2206.465,654.572"/>
</g>
<g>
	<path fill="#F5F5FF" d="M1271.295,521.925c-30.314,19.88-63.557,22.797-99.002-31.26c-35.447-54.058-81.68-174.679-51.361-194.56
		c30.326-19.885,125.725,68.498,161.17,122.558C1317.547,472.72,1301.619,502.039,1271.295,521.925z"/>
</g>
<g>
	<path fill="#F5F5FF" d="M1290.838,444.798c11.523-11.849,38.969-34.115,57.184-29.729c35.199,8.47,5.568,38.04-18.68,37.777
		c39.201,23.871-15.436,69.637-44.715,40.025c7.607,26.218-44.502,41.772-45.455,9.737
		C1238.432,477.936,1276.66,461.252,1290.838,444.798"/>
</g>
<g>
	<path fill="#F5F5FF" d="M1135.143,560.946c-46.754,30.659-98.021,35.157-152.688-48.212
		c-54.668-83.371-125.975-269.403-79.211-300.065c46.77-30.668,193.898,105.646,248.566,189.019
		C1206.479,485.058,1181.912,530.277,1135.143,560.946z"/>
</g>
<g>
	<path fill="#F5F5FF" d="M1162.025,494.752c17.771-18.273,60.1-52.614,88.189-45.855c54.289,13.065,8.588,58.668-28.807,58.266
		c60.457,36.814-23.811,107.398-68.965,61.729c11.73,40.441-68.635,64.43-70.104,15.021
		C1081.201,545.859,1140.158,520.129,1162.025,494.752"/>
</g>
<g>
	<path fill="#F5F5FF" d="M957.762,512.136c-29.383,19.266-61.6,22.093-95.953-30.298c-34.354-52.39-79.165-169.295-49.775-188.566
		c29.391-19.272,121.85,66.389,156.205,118.783C1002.59,464.445,987.154,492.861,957.762,512.136z"/>
</g>
<g>
	<path fill="#F5F5FF" d="M988.004,463.099c8.738-8.985,29.551-25.87,43.365-22.548c26.693,6.423,4.223,28.849-14.166,28.65
		c29.727,18.103-11.707,52.809-33.91,30.354c5.768,19.887-33.748,31.682-34.471,7.387
		C948.262,488.229,977.252,475.578,988.004,463.099"/>
</g>
<g>
	<path fill="#F5F5FF" d="M1569.223,463.358c-28.438,18.646-59.619,21.384-92.869-29.323
		c-33.25-50.709-76.619-163.859-48.178-182.508c28.447-18.651,117.934,64.258,151.184,114.966S1597.668,444.705,1569.223,463.358z"
		/>
</g>
<g>
	<path fill="#F5F5FF" d="M1620.572,385.146c8.701-8.945,29.426-25.76,43.178-22.453c26.58,6.396,4.207,28.724-14.104,28.527
		c29.6,18.027-11.656,52.583-33.766,30.226c5.744,19.799-33.604,31.544-34.322,7.352
		C1581,410.169,1609.867,397.572,1620.572,385.146"/>
</g>
<g>
	<path fill="#F5F5FF" d="M866.426,618.881c-56.986,37.366-119.471,42.846-186.1-58.765
		C613.691,458.5,526.783,231.762,583.781,194.388c57.004-37.379,236.331,128.763,302.961,230.384
		C953.371,526.383,923.43,581.497,866.426,618.881z"/>
</g>
<g>
	<path fill="#F5F5FF" d="M902.848,580.037c21.66-22.272,73.25-64.128,107.488-55.891c66.168,15.926,10.469,71.508-35.111,71.017
		c73.686,44.871-29.018,130.897-84.055,75.238c14.299,49.288-83.654,78.526-85.445,18.305
		C804.338,642.327,876.197,610.968,902.848,580.037"/>
</g>
<g>
	<path fill="#F5F5FF" d="M647.254,586.59c-44.466,29.155-93.223,33.432-145.213-45.854
		c-51.992-79.289-119.806-256.209-75.33-285.371C471.189,226.2,611.118,355.836,663.105,435.13
		C715.095,514.415,691.732,557.42,647.254,586.59z"/>
</g>
<g>
	<path fill="#F5F5FF" d="M665.173,562.884c11.393-11.716,38.533-33.735,56.544-29.398c34.808,8.377,5.508,37.614-18.47,37.356
		c38.761,23.604-15.266,68.859-44.219,39.579c7.521,25.929-44.006,41.31-44.948,9.63
		C613.35,595.655,651.153,579.155,665.173,562.884"/>
</g>
<g>
	<path fill="#F5F5FF" d="M505.662,721.383c-68.756,45.083-144.145,51.699-224.534-70.898
		c-80.397-122.604-185.253-396.17-116.484-441.26c68.775-45.098,285.139,155.355,365.53,277.961
		C610.564,609.783,574.439,676.28,505.662,721.383z"/>
</g>
<g>
	<path fill="#F5F5FF" d="M557.437,719.604c26.129-26.871,88.377-77.371,129.686-67.431c79.834,19.213,12.633,86.275-42.361,85.685
		c88.904,54.136-35.012,157.929-101.417,90.773c17.251,59.469-100.929,94.745-103.09,22.087
		C438.581,794.762,525.281,756.923,557.437,719.604"/>
</g>
<g>
	<path fill="#F5F5FF" d="M33.466,540.371c-53.252,34.918-111.64,40.043-173.902-54.911
		c-62.266-94.954-143.478-306.832-90.218-341.754c53.271-34.928,220.839,120.323,283.104,215.28
		C114.712,453.939,86.735,505.441,33.466,540.371z"/>
</g>
<g>
	<path fill="#F5F5FF" d="M-168.122,556.204c-27.877,23.174-60.578,29.824-101.896-19.887
		c-41.32-49.71-100.873-164.345-72.989-187.521c27.888-23.181,132.651,53.873,173.972,103.586
		C-127.716,502.093-140.233,533.021-168.122,556.204z"/>
</g>
<g>
	<path fill="#F5F5FF" d="M1901.161,450.219c63.729-76.672,225.302-195.509,268.312-159.758
		c43.007,35.744-48.842,212.54-112.568,289.208c-63.728,76.668-114.158,66.412-157.154,30.672
		C1856.74,574.59,1837.436,526.887,1901.161,450.219z"/>
</g>
<g>
	<path fill="#F5F5FF" d="M166.112,520.824c-36.553,23.968-76.632,27.484-119.365-37.69C4.008,417.958-51.736,272.527-15.176,248.559
		c36.56-23.976,151.581,82.59,194.317,147.767C221.876,461.499,202.672,496.85,166.112,520.824z"/>
</g>
<g>
	<path fill="#F5F5FF" d="M1663.906,404.39c-29.381,19.269-61.598,22.096-95.949-30.294
		c-34.352-52.393-79.162-169.292-49.775-188.561c29.391-19.271,121.844,66.387,156.197,118.777
		C1708.732,356.702,1693.295,385.118,1663.906,404.39z"/>
</g>
</svg>
