<?xml version="1.0" encoding="utf-8"?>
<!-- Generator: Adobe Illustrator 15.1.0, SVG Export Plug-In . SVG Version: 6.00 Build 0)  -->
<!DOCTYPE svg PUBLIC "-//W3C//DTD SVG 1.1//EN" "http://www.w3.org/Graphics/SVG/1.1/DTD/svg11.dtd">
<svg version="1.1" id="Layer_1" xmlns="http://www.w3.org/2000/svg" xmlns:xlink="http://www.w3.org/1999/xlink" x="0px" y="0px"
	 width="1567px" height="450px" viewBox="0 0 1567 450" enable-background="new 0 0 1567 450" xml:space="preserve">
<rect x="-10.37" y="-8.398" fill="#F5F5FF" width="1585.421" height="467.976"/>
<g>
	<path fill="#FF9900" d="M529.049-136.253c-39.328,9.249-98.812,54.591-139.696,35.295c-53.096-25.048,15.898-92.152,53.741-61.359
		c-25.731-65.968,96.153-114.617,104.074-37.921c19.494-36.752,93.581-59.635,78.892-0.32
		C618.458-169.865,558.448-144.896,529.049-136.253"/>
</g>
<g>
	<path fill="#FFFFFF" d="M929.801,547.837c29.729,20.894,98.562,32.32,107.454,72.644c11.558,52.357-79.329,48.438-77.716,2.797
		c-35.382,60.009-142.727,8.117-88.904-46.639c-39.227,10.342-99.384-25.504-45.75-53.643
		C852.637,508.438,906.264,533.331,929.801,547.837"/>
</g>
<g>
	<path fill="#FFFFFF" d="M557.576,161.353c26.557,6.613,74.837,31.056,70.699,44.412c-4.137,13.354-59.125,10.562-85.681,3.95
		c-26.556-6.612-29.686-19.054-25.55-32.406C521.182,163.953,531.021,154.741,557.576,161.353z"/>
</g>
<g>
	<path fill="#FFFFFF" d="M519.189,175.346c-3.92,7.521-3.723,23.464-13.446,27.073c-12.625,4.689-15.688-15.915-4.162-17.373
		c-16.634-5.565-8.391-31.787,7.746-21.863c-4.342-8.413,1.976-23.377,11.425-12.433
		C525.642,156.412,521.782,169.471,519.189,175.346"/>
</g>
<g>
	<path fill="#F5F5FF" d="M627.583,782.396c392.417-6.731,1161.918,170.198,1165.696,390.338
		c3.779,220.101-759.599,400.059-1152.01,406.789c-392.413,6.735-491.312-170.085-495.086-390.152
		C142.414,969.23,235.172,789.132,627.583,782.396z"/>
</g>
<g>
	<path fill="#F5F5FF" d="M166.609,1150.788c-19.571,130.412,55.054,372.404-61.404,466.717
		c-151.206,122.5-286.006-178.897-135.215-247.737c-252.227-17.466-258.009-450.146,7.092-364.297
		c-97.232-110.55-78.515-364.014,99.879-235.581C169.267,836.35,175.495,1050.837,166.609,1150.788"/>
</g>
<path fill="#FFFFFF" d="M1552.305-615.611c-48.945-53.933-178.532-106.555-178.188-189.32
	c0.425-107.476,176.443-59.84,153.211,28.71c95.587-101.79,282.689,46.898,153.35,130.307
	c81.262-2.971,183.143,93.587,65.881,125.026C1685.88-504.623,1591.955-576.892,1552.305-615.611"/>
<g>
	<path fill="#F5F5FF" d="M2455.498,764.908c86.323,159.271,177.727,512.088,88.376,560.514
		c-89.333,48.416-325.592-225.889-411.911-385.162c-86.322-159.271-34.969-237.428,54.354-285.836
		C2275.666,606,2369.175,605.635,2455.498,764.908z"/>
</g>
<g>
	<path fill="#F5F5FF" d="M2206.465,654.572c-57.574,19.755-140.789,101.85-204.212,74.238
		c-82.364-35.84,12.36-155.227,72.664-108.133c-46.562-107.014,129.407-201.521,150.702-74.67
		c24.568-63.361,132.354-109.672,117.747-9.264C2335.805,588.701,2249.291,636.926,2206.465,654.572"/>
</g>
<path fill="#FFFFFF" d="M-10.37-8.398c467.079,63.493,1584.984,237.449,1584.984,237.449L1562.829-3.373
	C1562.829-3.373,475.891-17.481-10.37-8.398z"/>
<g>
	<path fill="#FFFFFF" d="M1343.469,246.031c-53.932,24.089-172.247,47.701-187.32,20.579
		c-15.068-27.118,78.813-94.703,132.742-118.79c53.928-24.088,79.315-7.982,94.385,19.131
		C1398.347,194.076,1397.396,221.944,1343.469,246.031z"/>
</g>
<g>
	<path fill="#FFFFFF" d="M1382.994,172.956c-5.907-17.36-32.241-43-22.337-61.615c12.856-24.176,51.454,5.278,35.109,22.764
		c36.103-12.775,65.499,40.631,23.093,45.675c20.78,7.971,34.937,40.566,1.729,35.181
		C1403.407,212.174,1388.369,185.899,1382.994,172.956"/>
</g>
<g>
	<path fill="#FFFFFF" d="M631.402,125.416C588.196,87.765,524.182-4.513,547.74-26.241c23.555-21.724,125.767,35.328,168.969,72.979
		c43.204,37.649,34.655,64.458,11.104,86.181C704.252,154.645,674.604,163.065,631.402,125.416z"/>
</g>
<g>
	<path fill="#FFFFFF" d="M721.401,134.667c16.317-10.743,34.588-41.507,57.46-39.29c29.703,2.874,11.475,45.275-12.339,37.236
		c25.396,26.313-21.087,68.86-40.432,34.654c-1.511,20.219-31.134,42.983-36.457,13.108
		C686.878,164.917,709.557,143.499,721.401,134.667"/>
</g>
<g>
	<path fill="#FFFFFF" d="M921.759,270.287c5,16.765,5.706,51.666-4.783,54.182c-10.487,2.514-28.198-28.312-33.197-45.075
		c-5.002-16.762,2.28-22.894,12.766-25.408C907.034,251.471,916.758,253.525,921.759,270.287z"/>
</g>
<g>
	<path fill="#FFFFFF" d="M898.635,254.449c-6.474,0.554-17.165,6.342-23.066,2.354c-7.664-5.178,5.152-14.182,10.243-8.448
		c-2.171-11.007,18.466-15.88,17.519-3.589c4.131-5.354,16.481-7.259,12.462,1.767C913.713,251.203,903.524,253.763,898.635,254.449
		"/>
</g>
<g>
	<path fill="#FFFFFF" d="M1100.518,131.809c-8.547,30.642-41.79,86.757-60.964,82.459c-19.169-4.299-17.008-67.384-8.461-98.023
		c8.546-30.641,26.177-34.638,45.344-30.342C1095.608,90.203,1109.064,101.169,1100.518,131.809z"/>
</g>
<g>
	<path fill="#FFFFFF" d="M1079.305,88.297c-10.851-4.242-33.566-3.49-39.032-14.508c-7.102-14.308,22.165-18.498,24.624-5.341
		c7.383-19.24,45.027-10.663,31.418,8.151c11.847-5.252,33.384,1.49,18.098,12.676C1106.504,95.063,1087.765,91.072,1079.305,88.297
		"/>
</g>
<g>
	<path fill="#FFFFFF" d="M1165.429,179.084c-12.773,5.706-40.799,11.299-44.369,4.875c-3.569-6.423,18.668-22.433,31.442-28.138
		c12.773-5.705,18.787-1.891,22.356,4.531C1178.428,166.777,1178.203,173.379,1165.429,179.084z"/>
</g>
<g>
	<path fill="#FFFFFF" d="M1174.791,161.775c-1.398-4.113-7.636-10.186-5.29-14.595c3.045-5.727,12.188,1.25,8.315,5.393
		c8.553-3.027,15.516,9.624,5.471,10.819c4.923,1.888,8.274,9.608,0.41,8.333C1179.627,171.064,1176.065,164.84,1174.791,161.775"/>
</g>
<g>
	<path fill="#FFFFFF" d="M1463.706,159.561c26.835-60.971,110.722-163.885,147.187-145.207
		c36.459,18.675,11.689,151.875-15.148,212.84c-26.832,60.968-62.947,60.712-99.4,42.043
		C1459.878,250.554,1436.871,220.525,1463.706,159.561z"/>
</g>
<g>
	<path fill="#FFFFFF" d="M1492.03,262.069c20.049,14.421,65.152,24.11,72.366,50.28c9.373,33.983-49.782,28.354-50.362-0.869
		c-20.832,37.279-92.386,0.314-59.395-32.965c-25.101,5.291-65.441-19.766-31.62-35.977
		C1440.52,234.151,1476.228,251.958,1492.03,262.069"/>
</g>
<g>
	<path fill="#FFFFFF" d="M1242.579,348.474c-26.659-4.483-76.29-24.811-73.486-38.217c2.805-13.405,56.982-14.814,83.64-10.331
		c26.659,4.48,30.895,16.444,28.092,29.847C1278.021,343.18,1269.237,352.953,1242.579,348.474z"/>
</g>
<g>
	<path fill="#FFFFFF" d="M1278.904,331.86c3.14-7.671,1.452-23.289,10.646-27.56c11.94-5.551,16.874,14.421,5.71,16.719
		c16.831,4.204,11.209,30.535-5.545,22.021c5.047,7.922,0.256,23.07-10.034,13.051
		C1274.354,350.91,1276.915,337.815,1278.904,331.86"/>
</g>
<g>
	<path fill="#FFFFFF" d="M1101.146,297.079c-21.213,22.188-74.618,56.298-88.501,45.63c-13.881-10.666,17.018-62.072,38.229-84.258
		c21.211-22.187,37.646-18.956,51.525-8.293C1116.281,260.827,1122.356,274.893,1101.146,297.079z"/>
</g>
<g>
	<path fill="#FFFFFF" d="M1103.669,253.203c-7.022-7.535-26.168-15.337-25.607-26.483c0.726-14.474,26.878-7.087,22.843,4.712
		c14.987-13.183,42.184,7.877,22.239,18.398c12.227,0.047,26.939,13.614,9.128,17.202
		C1123.056,268.889,1109.389,258.637,1103.669,253.203"/>
</g>
<g>
	<path fill="#FFFFFF" d="M1121.312,325.243c6.43-7.512,23.043-19.385,27.743-16.151c4.698,3.233-4.295,20.35-10.726,27.86
		c-6.429,7.512-11.809,6.724-16.508,3.491C1117.121,337.21,1114.882,332.755,1121.312,325.243z"/>
</g>
<g>
	<path fill="#FFFFFF" d="M1121.351,339.479c2.42,2.327,8.767,4.551,8.803,8.166c0.048,4.695-8.558,2.715-7.482-1.166
		c-4.592,4.501-13.802-1.886-7.555-5.604c-3.957,0.178-8.981-3.982-3.289-5.422C1114.773,334.707,1119.395,337.811,1121.351,339.479
		"/>
</g>
<g>
	<path fill="#FFFFFF" d="M1353.311,277.235c12.052-0.43,35.811,3.966,36.078,10.026c0.269,6.059-23.056,11.487-35.105,11.916
		c-12.049,0.43-15.209-4.377-15.478-10.436C1338.537,282.682,1341.263,277.664,1353.311,277.235z"/>
</g>
<g>
	<path fill="#FFFFFF" d="M1339.407,287.667c-0.512,3.603,1.948,10.222-1.564,12.892c-4.56,3.466-8.909-4.751-4.325-6.74
		c-7.759-0.323-8.236-12.236-0.033-10.037c-3.063-2.982-2.664-9.975,2.904-6.549
		C1339.271,279.006,1339.611,284.908,1339.407,287.667"/>
</g>
<g>
	<path fill="#FFFFFF" d="M946.077,8.55c71.136-46.697,235.257-106.981,264.477-71.207c29.213,35.768-87.541,154.053-158.672,200.746
		c-71.133,46.696-112.189,29.097-141.401-6.665C881.266,95.647,874.946,55.244,946.077,8.55z"/>
</g>
<g>
	<path fill="#FFFFFF" d="M909.231,122.703c13.305,23.727,58.357,54.866,49.209,83.909c-11.871,37.718-75.662,3.794-56.912-25.045
		c-48.543,26.428-105.671-44.078-45.905-60.754c-32.169-6.887-61.575-50.759-12.198-50.353
		C868.974,70.668,897.909,105.228,909.231,122.703"/>
</g>
<g>
	<path fill="#FFFFFF" d="M751.826,320.722c-37.947-20.651-100.131-78.103-86.343-97.941c13.786-19.836,98.326,5.454,136.269,26.103
		c37.945,20.651,36.034,41.775,22.251,61.61C810.212,330.331,789.77,341.37,751.826,320.722z"/>
</g>
<g>
	<path fill="#FFFFFF" d="M819.568,312.827c10.254-10.571,18.675-36.196,35.869-38.302c22.326-2.736,15.839,31.446-2.999,29.419
		c22.988,15.216-4.27,54.12-24.093,32.107c2.19,15.126-15.892,36.719-24.688,15.602
		C799.105,340.729,812.294,321.261,819.568,312.827"/>
</g>
<g>
	<path fill="#FFFFFF" d="M405.144,194.01c5.233-7.116,19.294-18.737,23.746-16.106c4.453,2.631-2.391,18.519-7.624,25.634
		c-5.232,7.116-10.12,6.72-14.571,4.089C402.243,204.996,399.911,201.125,405.144,194.01z"/>
</g>
<g>
	<path fill="#FFFFFF" d="M406.203,206.788c2.339,1.95,8.198,3.58,8.49,6.823c0.382,4.212-7.488,2.932-6.801-0.614
		c-3.799,4.307-12.528-0.896-7.186-4.594c-3.541,0.387-8.352-3.056-3.344-4.678C399.953,202.886,404.327,205.403,406.203,206.788"/>
</g>
<g>
	<path fill="#FFFFFF" d="M573.482,292.095c-12.081,17.69-45.227,46.981-56.294,40.905c-11.066-6.074,4.135-45.215,16.215-62.903
		c12.081-17.689,24.004-17.082,35.069-11.009C579.541,265.165,585.562,274.408,573.482,292.095z"/>
</g>
<g>
	<path fill="#FFFFFF" d="M569.745,261.094c-5.866-4.572-20.263-8.108-21.269-15.976c-1.31-10.218,17.946-7.679,16.599,0.997
		c8.849-10.75,30.551,1.265,17.895,10.65c8.574-1.201,20.588,6.824,8.556,11.134C585.299,270.13,574.435,264.325,569.745,261.094"/>
</g>
<g>
	<path fill="#FFFFFF" d="M949.25,331.23c5.016-4.557,16.752-11.241,19.006-8.679c2.253,2.562-5.834,13.4-10.849,17.955
		c-5.014,4.557-8.065,3.591-10.317,1.031C944.837,338.975,944.235,335.786,949.25,331.23z"/>
</g>
<g>
	<path fill="#FFFFFF" d="M946.967,340.848c1.055,1.767,4.443,3.779,3.879,6.223c-0.732,3.175-5.496,1.146-4.231-1.389
		c-3.44,2.67-7.849-2.384-3.556-4.392c-2.366-0.199-4.66-3.412-1.065-3.928C943.854,337.096,946.082,339.563,946.967,340.848"/>
</g>
<g>
	<path fill="#FFFFFF" d="M1036.004,350.41c5.675-1.885,17.772-3.101,18.952-0.247c1.179,2.854-9.007,8.696-14.681,10.581
		c-5.675,1.886-8.017,0.031-9.195-2.821C1029.901,355.069,1030.329,352.296,1036.004,350.41z"/>
</g>
<g>
	<path fill="#FFFFFF" d="M1031.18,357.326c0.383,1.791,2.703,4.604,1.491,6.368c-1.574,2.29-5.074-1.024-3.232-2.611
		c-3.758,0.927-6.053-4.689-1.758-4.784c-1.979-0.996-3.001-4.388,0.251-3.529C1029.613,353.214,1030.799,355.982,1031.18,357.326"
		/>
</g>
<g>
	<path fill="#FFFFFF" d="M999.31,246.554c-4.924,5.15-17.319,13.067-20.542,10.591c-3.223-2.475,3.949-14.407,8.873-19.557
		c4.923-5.15,8.737-4.399,11.959-1.925C1002.822,238.14,1004.233,241.404,999.31,246.554z"/>
</g>
<g>
	<path fill="#FFFFFF" d="M999.895,236.369c-1.63-1.748-6.073-3.56-5.943-6.147c0.169-3.358,6.239-1.645,5.303,1.095
		c3.479-3.061,9.791,1.828,5.161,4.271c2.839,0.011,6.253,3.16,2.12,3.993C1004.395,240.011,1001.223,237.631,999.895,236.369"/>
</g>
<g>
	<path fill="#FFFFFF" d="M1310.244,127.812c50.198,18.527,138.203,76.499,126.611,101.745
		c-11.591,25.241-118.392,8.196-168.587-10.329c-50.198-18.525-53.057-43.516-41.471-68.754
		C1238.394,125.23,1260.047,109.287,1310.244,127.812z"/>
</g>
<g>
	<path fill="#FFFFFF" d="M1231.51,147.087c-9.639,13.882-13.433,45.099-33.392,50.111c-25.918,6.511-26.505-34.428-3.584-34.851
		c-31.067-14.387-8.074-63.926,20.879-41.122c-6.286-17.364,9.991-45.297,25.6-21.905
		C1249.09,111.423,1238.118,136.146,1231.51,147.087"/>
</g>
<g>
	<path fill="#FFFFFF" d="M1308.233,209.899c8.964,27.571,11.568,85.295-5.683,89.804c-17.248,4.507-47.822-45.911-56.784-73.48
		c-8.964-27.569,2.833-37.956,20.078-42.463C1283.098,179.252,1299.271,182.331,1308.233,209.899z"/>
</g>
<g>
	<path fill="#FFFFFF" d="M1269.323,184.458c-10.689,1.131-28.14,11.061-38.067,4.657c-12.895-8.313,7.94-23.635,16.601-14.316
		c-4.046-18.141,29.897-26.885,28.835-6.518c6.614-8.994,26.974-12.555,20.694,2.512
		C1294.137,178.588,1277.384,183.16,1269.323,184.458"/>
</g>
<g>
	<path fill="#FFFFFF" d="M654.158,323.314c-0.51,7.225-5.411,21.105-9.93,20.85c-4.519-0.257-6.947-14.555-6.437-21.778
		c0.511-7.223,4.3-8.779,8.818-8.521C651.129,314.12,654.668,316.093,654.158,323.314z"/>
</g>
<g>
	<path fill="#FFFFFF" d="M647.367,314.297c-2.642-0.554-7.727,0.459-9.468-1.82c-2.262-2.961,4.141-4.993,5.303-2.119
		c0.776-4.609,9.656-4.074,7.458,0.671c2.427-1.624,7.592-0.904,4.664,2.184C653.809,314.811,649.401,314.607,647.367,314.297"/>
</g>
<g>
	<path fill="#FFFFFF" d="M531.596,83.174c-30.063,24.421-101.956,59.043-117.236,43.925c-15.276-15.116,31.846-74.253,61.908-98.67
		c30.062-24.419,49.79-18.125,65.065-3.01C556.611,40.538,561.657,58.756,531.596,83.174z"/>
</g>
<g>
	<path fill="#FFFFFF" d="M542.37,29.354c-7.355-10.287-29.632-22.607-26.996-36.291c3.422-17.77,34.423-4.979,27.381,9.023
		c20.805-14.176,50.71,15.642,24.248,25.835c15.088,1.773,30.887,20.589,8.269,22.52C563.569,51.442,548.483,36.867,542.37,29.354"
		/>
</g>
<g>
	<path fill="#FFFFFF" d="M374.826-56.258c78.223-39.024,252.038-81.25,276.456-41.911C675.695-58.837,541.464,47.168,463.244,86.189
		c-78.219,39.023-117.115,16.661-141.528-22.666C297.302,24.183,296.607-17.236,374.826-56.258z"/>
</g>
<g>
	<path fill="#FFFFFF" d="M321.683,54.597c10.077,25.407,51.096,61.861,37.802,90.09c-17.254,36.662-76.763-4.711-53.826-31.654
		c-52.616,21.152-100.279-56.328-37.723-66.387c-31.443-10.568-54.915-58.085-5.224-52.108
		C288.425-2.37,312.727,35.714,321.683,54.597"/>
</g>
<g>
	<path fill="#FFFFFF" d="M586.756,43.134c36.749-7.331,112.462-5.686,117.048,12.796c4.587,18.478-63.692,46.795-100.438,54.125
		c-36.747,7.332-49.439-5.862-54.025-24.337C544.756,67.235,550.011,50.464,586.756,43.134z"/>
</g>
<g>
	<path fill="#FFFFFF" d="M550.52,82.114c0.668,11.324,12.333,30.426,3.202,40.378c-11.855,12.927-30.317-10.143-17.468-18.541
		c-24.039,2.876-32.9-33.478-6.338-30.813c-11.263-7.637-14.376-29.315,4.857-21.568C544.725,55.578,549.434,73.54,550.52,82.114"/>
</g>
<g>
	<path fill="#FFFFFF" d="M827.475,193.05c-18.015,6.348-56.617,10.92-60.588,1.86c-3.972-9.058,28.191-28.316,46.206-34.664
		c18.011-6.348,25.631-0.555,29.602,8.501C846.665,177.808,845.486,186.703,827.475,193.05z"/>
</g>
<g>
	<path fill="#FFFFFF" d="M842.415,170.663c-1.345-5.705-8.968-14.573-5.214-20.281c4.872-7.412,16.3,2.987,10.521,8.17
		c11.953-3.177,19.686,14.655,5.955,15.199c6.4,3.075,9.907,13.862-0.55,11.301C847.717,183.727,843.729,174.941,842.415,170.663"/>
</g>
<g>
	<path fill="#FFFFFF" d="M404.277,284.133c-6.761-0.448-19.718-4.263-19.437-7.663c0.281-3.399,13.696-5.097,20.455-4.647
		c6.761,0.45,8.183,3.316,7.902,6.715C412.916,281.938,411.037,284.584,404.277,284.133z"/>
</g>
<g>
	<path fill="#FFFFFF" d="M412.786,279.104c0.541-1.983-0.361-5.82,1.79-7.109c2.794-1.677,4.639,3.161,1.936,4.01
		c4.311,0.625,3.729,7.306-0.695,5.607c1.5,1.843,0.777,5.725-2.088,3.492C412.245,283.949,412.475,280.633,412.786,279.104"/>
</g>
<g>
	<path fill="#FFFFFF" d="M456.405,377.375c0.673,3.168,0.276,9.643-1.706,9.981c-1.981,0.338-4.796-5.588-5.469-8.755
		c-0.673-3.168,0.769-4.215,2.75-4.554C453.962,373.71,455.732,374.209,456.405,377.375z"/>
</g>
<g>
	<path fill="#FFFFFF" d="M452.361,374.159c-1.208,0.024-3.277,0.967-4.31,0.156c-1.342-1.053,1.169-2.565,2.026-1.441
		c-0.236-2.064,3.661-2.718,3.3-0.451c0.846-0.942,3.164-1.145,2.283,0.479C455.204,373.742,453.276,374.092,452.361,374.159"/>
</g>
<g>
	<path fill="#FFFFFF" d="M1095.97,162.977c4.338,13.343,5.598,41.277-2.75,43.459c-8.348,2.181-23.143-22.218-27.479-35.56
		c-4.339-13.341,1.37-18.368,9.716-20.549C1083.805,148.146,1091.633,149.635,1095.97,162.977z"/>
</g>
<g>
	<path fill="#FFFFFF" d="M1077.139,150.665c-5.172,0.547-13.617,5.353-18.421,2.253c-6.241-4.023,3.843-11.438,8.032-6.928
		c-1.957-8.779,14.47-13.01,13.956-3.154c3.2-4.353,13.053-6.076,10.014,1.215C1089.148,147.824,1081.04,150.036,1077.139,150.665"
		/>
</g>
<g>
	<path fill="#FFFFFF" d="M702.07,354.505c-16.982,5.736-53.234,9.562-56.823,1.022c-3.59-8.538,26.845-26.209,43.825-31.945
		c16.98-5.735,24.038-0.213,27.625,8.324C720.286,340.446,719.048,348.77,702.07,354.505z"/>
</g>
<g>
	<path fill="#FFFFFF" d="M716.408,333.698c-1.176-5.365-8.189-13.77-4.586-19.074c4.677-6.889,15.235,2.994,9.742,7.783
		c11.25-2.834,18.232,13.973,5.356,14.319c5.952,2.959,9.08,13.113-0.682,10.583C721.183,346.006,717.575,337.723,716.408,333.698"
		/>
</g>
<g>
	<path fill="#FFFFFF" d="M558.872,357.444c-3.075-1.151-8.455-4.737-7.733-6.283c0.721-1.547,7.27-0.468,10.344,0.686
		c3.075,1.153,3.241,2.687,2.521,4.233C563.282,357.625,561.946,358.598,558.872,357.444z"/>
</g>
<g>
	<path fill="#FFFFFF" d="M563.712,356.286c0.596-0.85,0.842-2.765,2.069-3.065c1.593-0.392,1.613,2.12,0.207,2.14
		c1.9,0.894,0.472,3.927-1.298,2.519c0.379,1.067-0.631,2.776-1.58,1.337C562.62,358.47,563.303,356.955,563.712,356.286"/>
</g>
<g>
	<path fill="#FFFFFF" d="M297.993,357.985c-2.059,1.033-6.636,2.158-7.283,1.123c-0.646-1.035,2.882-3.838,4.939-4.872
		c2.059-1.033,3.085-0.446,3.732,0.588C300.029,355.86,300.051,356.951,297.993,357.985z"/>
</g>
<g>
	<path fill="#FFFFFF" d="M299.384,355.06c-0.268-0.669-1.352-1.627-1.004-2.372c0.452-0.967,2.023,0.12,1.421,0.831
		c1.384-0.562,2.647,1.478,1,1.747c0.83,0.277,1.452,1.527,0.142,1.373C300.266,356.559,299.622,355.557,299.384,355.06"/>
</g>
<g>
	<path fill="#FFFFFF" d="M179.263,254.64c0.966,0.697,2.476,2.479,2.039,2.965c-0.437,0.485-2.653-0.508-3.62-1.205
		c-0.966-0.698-0.848-1.262-0.412-1.748C177.708,254.165,178.297,253.941,179.263,254.64z"/>
</g>
<g>
	<path fill="#FFFFFF" d="M177.398,254.604c-0.312,0.249-0.62,0.91-1.094,0.904c-0.615-0.008-0.332-0.908,0.173-0.784
		c-0.577-0.496,0.285-1.448,0.755-0.78c-0.012-0.417,0.546-0.935,0.719-0.331C178.042,253.926,177.623,254.403,177.398,254.604"/>
</g>
<g>
	<path fill="#FFFFFF" d="M665.819,108.492c-15.521,15.904-54.417,40.215-64.369,32.41c-9.949-7.804,12.815-44.771,28.335-60.674
		c15.52-15.903,27.377-13.459,37.327-5.656C677.061,82.378,681.338,92.589,665.819,108.492z"/>
</g>
<g>
	<path fill="#FFFFFF" d="M668.004,76.782c-5.016-5.495-18.796-11.263-18.298-19.318c0.643-10.461,19.493-4.947,16.478,3.558
		c10.945-9.435,30.438,5.973,15.93,13.449c8.84,0.115,19.368,10.023,6.459,12.5C681.894,88.252,672.095,80.749,668.004,76.782"/>
</g>
<g>
	<path fill="#FFFFFF" d="M236.765,85.397c-35.905,8.317-110.5,8.965-115.704-9.091c-5.203-18.053,60.957-47.974,96.858-56.291
		c35.902-8.317,48.888,4.29,54.092,22.34C277.213,60.413,272.665,77.081,236.765,85.397z"/>
</g>
<g>
	<path fill="#FFFFFF" d="M270.984,45.938c-1.079-11.127-13.274-29.583-4.656-39.654c11.188-13.081,30.223,9.078,17.888,17.729
		c23.556-3.551,33.634,31.971,7.386,30.145c11.373,7.181,15.244,28.428-3.978,21.376C277.678,71.888,272.374,54.346,270.984,45.938"
		/>
</g>
<g>
	<path fill="#FFFFFF" d="M901.355,411.669c3.484,1.352,9.558,5.505,8.712,7.257c-0.846,1.753-8.291,0.441-11.775-0.911
		c-3.484-1.352-3.649-3.103-2.805-4.854C896.334,411.407,897.87,410.317,901.355,411.669z"/>
</g>
<g>
	<path fill="#FFFFFF" d="M895.822,412.929c-0.692,0.96-1.003,3.139-2.406,3.466c-1.82,0.427-1.805-2.437-0.201-2.44
		c-2.153-1.041-0.476-4.479,1.519-2.853c-0.416-1.222,0.762-3.156,1.82-1.504C897.102,410.454,896.299,412.17,895.822,412.929"/>
</g>
<g>
	<path fill="#FFFFFF" d="M364.854,410.024c1.513-1.164,5.094-2.779,5.822-2.019c0.729,0.76-1.672,3.608-3.184,4.772
		c-1.513,1.164-2.472,0.832-3.2,0.072C363.563,412.089,363.342,411.188,364.854,410.024z"/>
</g>
<g>
	<path fill="#FFFFFF" d="M364.247,412.656c0.347,0.513,1.422,1.145,1.272,1.812c-0.194,0.87-1.697,0.204-1.331-0.475
		c-1.042,0.672-2.468-0.828-1.153-1.298c-0.738-0.104-1.486-1.046-0.373-1.115C363.237,411.545,363.957,412.279,364.247,412.656"/>
</g>
<g>
	<path fill="#FFFFFF" d="M63.264-52.147C129.11-33.103,250.833,33.469,242.917,67.508C235,101.542,100.436,90.155,34.596,71.113
		c-65.842-19.041-75.501-51.286-67.588-85.316C-25.071-48.242-2.574-71.186,63.264-52.147z"/>
</g>
<g>
	<path fill="#FFFFFF" d="M-28.079-53.426c-8.335,19.048-5.264,60.074-28.386,68.616c-30.026,11.1-40.851-42.139-12.978-45.007
		c-41.472-15.588-25.635-82.41,15.334-55.649c-11.958-21.972,1.017-59.983,25.837-31.107
		C-15.423-101.635-22.712-68.34-28.079-53.426"/>
</g>
<g>
	<path fill="#FFFFFF" d="M798.934,34.02c19.345,23.835,46.466,81.106,34.137,93.537c-12.327,12.429-59.439-24.689-78.78-48.522
		c-19.343-23.833-14.071-39.731-1.747-52.159C764.873,14.445,779.591,10.188,798.934,34.02z"/>
</g>
<g>
	<path fill="#FFFFFF" d="M755.724,25.999c-8.359,6.019-18.507,24.031-29.494,22.073c-14.268-2.54-3.65-27.556,7.548-22.069
		c-11.194-16.526,13.119-40.858,21.049-19.749c1.584-12.124,16.895-25.013,18.214-6.892
		C773.723,8.738,761.833,21.008,755.724,25.999"/>
</g>
<g>
	<path fill="#FFFFFF" d="M252.954,244.619c-1.046,8.771-7.554,25.812-12.725,25.717c-5.171-0.096-7.046-17.293-6-26.062
		c1.046-8.771,5.494-10.834,10.664-10.738C250.064,233.629,254.001,235.85,252.954,244.619z"/>
</g>
<g>
	<path fill="#FFFFFF" d="M245.735,234.021c-2.996-0.543-8.897,0.926-10.75-1.752c-2.408-3.477,5.071-6.242,6.221-2.818
		c1.183-5.619,11.342-5.394,8.517,0.457c2.89-2.082,8.773-1.457,5.215,2.424C253.096,234.338,248.05,234.303,245.735,234.021"/>
</g>
<g>
	<path fill="#FFFFFF" d="M209.294,165.773c6.104-2.942,19.258-6.009,20.689-2.911c1.431,3.097-9.406,11.185-15.508,14.125
		c-6.105,2.94-8.755,1.146-10.186-1.949C202.859,171.94,203.19,168.711,209.294,165.773z"/>
</g>
<g>
	<path fill="#FFFFFF" d="M204.369,174.342c0.507,1.992,3.182,4.887,1.946,7.068c-1.604,2.836-5.594-0.465-3.661-2.535
		c-4.059,1.58-6.845-4.519-2.158-5.222c-2.213-0.865-3.498-4.599,0.096-4.068C202.452,169.859,203.886,172.858,204.369,174.342"/>
</g>
<g>
	<path fill="#FFFFFF" d="M117.985,110.329c-2.147-2.424-4.993-8.254-3.435-9.525c1.557-1.271,6.927,2.499,9.074,4.923
		c2.146,2.425,1.408,4.046-0.148,5.317C121.917,112.314,120.13,112.752,117.985,110.329z"/>
</g>
<g>
	<path fill="#FFFFFF" d="M123.089,111.134c1.039-0.617,2.375-2.456,3.673-2.26c1.686,0.255,0.247,2.809-1.053,2.253
		c1.223,1.68-1.846,4.169-2.649,2.019c-0.271,1.237-2.188,2.555-2.222,0.708C120.821,112.898,122.325,111.644,123.089,111.134"/>
</g>
<g>
	<path fill="#FFFFFF" d="M194.335,100.662c-4.777-16.214-6.845-49.572,1.563-51.542c8.407-1.97,24.105,28.195,28.882,44.409
		c4.778,16.212-0.873,21.769-9.277,23.739C207.095,119.237,199.113,116.875,194.335,100.662z"/>
</g>
<g>
	<path fill="#FFFFFF" d="M213.787,116.738c5.232-0.263,13.663-5.351,18.624-1.299c6.444,5.26-3.575,13.331-7.953,7.646
		c2.234,10.601-14.312,14.404-14.068,2.707c-3.124,4.942-13.071,6.253-10.193-2.201
		C201.684,119.218,209.846,117.193,213.787,116.738"/>
</g>
<g>
	<path fill="#FFFFFF" d="M477.163,97.251c8.255,10.619,19.445,36.041,13.743,41.47c-5.702,5.432-26.139-11.187-34.391-21.805
		c-8.254-10.618-5.646-17.612,0.056-23.043C462.272,88.442,468.911,86.632,477.163,97.251z"/>
</g>
<g>
	<path fill="#FFFFFF" d="M458.003,93.501c-3.827,2.617-8.646,10.523-13.518,9.607c-6.329-1.189-1.188-12.188,3.722-9.71
		c-4.733-7.353,6.51-17.982,9.713-8.621c0.9-5.348,7.94-10.968,8.24-2.957C466.314,85.964,460.812,91.326,458.003,93.501"/>
</g>
<g>
	<path fill="#FFFFFF" d="M880.83,345.817c2.215,2.362,5.228,8.106,3.707,9.423c-1.521,1.314-6.996-2.299-9.211-4.66
		c-2.216-2.361-1.523-4.004-0.005-5.319C876.842,343.946,878.615,343.457,880.83,345.817z"/>
</g>
<g>
	<path fill="#FFFFFF" d="M875.705,345.159c-1.021,0.646-2.304,2.523-3.607,2.364c-1.693-0.206-0.327-2.8,0.988-2.282
		c-1.271-1.645,1.726-4.22,2.589-2.094c0.236-1.244,2.115-2.617,2.201-0.772C877.921,343.331,876.453,344.628,875.705,345.159"/>
</g>
<g>
	<path fill="#FFFFFF" d="M828.275,225.215c-0.984-3.353-1.317-10.556,0.522-11.321c1.84-0.764,5.156,5.202,6.142,8.554
		c0.985,3.351-0.266,4.788-2.106,5.553C830.992,228.765,829.26,228.566,828.275,225.215z"/>
</g>
<g>
	<path fill="#FFFFFF" d="M832.461,227.953c1.142-0.265,2.998-1.71,4.066-1.022c1.387,0.894-0.827,3.055-1.763,1.986
		c0.45,2.227-3.171,3.714-3.077,1.149c-0.698,1.204-2.871,1.885-2.216-0.075C829.813,228.975,831.6,228.209,832.461,227.953"/>
</g>
<g>
	<path fill="#FFFFFF" d="M110.78,57.64C90.5,90.181,36.128,145.558,19.012,136.111C1.9,126.666,28.525,55.973,48.803,23.435
		C69.081-9.104,87.907-9.392,105.018,0.051C122.133,9.499,131.056,25.103,110.78,57.64z"/>
</g>
<g>
	<path fill="#FFFFFF" d="M106.9-30.897c-8.983-7.388-31.533-11.983-32.608-25.729c-1.401-17.852,28.903-15.569,26.202-0.13
		c14.707-19.948,48.261-1.246,27.617,16.729c13.647-3.089,32.131,9.684,12.808,18.645C130.92-16.743,114.11-25.737,106.9-30.897"/>
</g>
<g>
	<path fill="#FFFFFF" d="M15.256,91.958c-16.779,2.046-50.023-1.399-50.584-10.016C-35.889,73.325-3.553,62.8,13.225,60.754
		c16.777-2.048,21.33,4.439,21.891,13.054C35.676,82.425,32.034,89.91,15.256,91.958z"/>
</g>
<g>
	<path fill="#FFFFFF" d="M34.312,41.077c0.601-5.204-3.031-14.357,1.781-18.584c6.248-5.491,12.561,5.719,6.234,9.103
		c10.823-0.461,11.856,16.485,0.357,14.322c4.361,3.894,4.018,13.92-3.847,9.692C34.768,53.423,34.112,45.039,34.312,41.077"/>
</g>
<g>
	<path fill="#FFFFFF" d="M1385.616,352.69c2.628,1.928,6.738,7.12,5.557,8.78c-1.181,1.658-7.207-0.845-9.834-2.771
		c-2.628-1.927-2.312-3.742-1.131-5.4C1381.389,351.64,1382.989,350.766,1385.616,352.69z"/>
</g>
<g>
	<path fill="#FFFFFF" d="M1380.555,353.114c-0.845,0.874-1.678,3.053-2.963,3.169c-1.67,0.151-0.909-2.773,0.464-2.526
		c-1.568-1.401,0.764-4.653,2.044-2.68c-0.037-1.312,1.476-3.107,1.949-1.251C1382.294,350.785,1381.16,352.415,1380.555,353.114"/>
</g>
<g id="XMLID_2_">
	<g>
		<path fill="#FFFFFF" d="M342.875,238.754c7.61,9.58,15.88,16.63,19,26c-10.71,6.62-26.33,8.33-40,12c0.4,4.55,4.17,8.98,7,13
			c3,4.27,5.87,8.6,9,13c5.92,8.32,14.36,15.96,16,25c-1.75,4.78-8.34,4.71-12,6c-28.59,10.03-60.76,22.29-91,32
			c-13.5-18.17-24.26-39.07-36-59c-22.68,4.99-42.85,12.49-66,17c-5.58-4.14-7.89-11.13-11-17c-18.87-35.68-38.59-72.81-58-110
			c-3.05-5.85-8.65-11.68-8-19c20.7-3.97,46.98-7.68,67-9c6.34,2.44,7.95,10.02,11,15c22.06,36.05,45.82,75.02,68,113
			c29.63-7.7,58.96-15.7,88-24c-2.7-7.73-9.65-14.39-15-22c-5.3-7.53-12.04-15.35-14-25c7.06-2.34,14.25-4.13,22-6
			c7.32-1.76,17.57-6.06,23-5C328.375,216.024,338.845,233.694,342.875,238.754z M349.875,261.754c-9.34-13.66-18.89-27.11-31-38
			c-10.14,2.86-21.8,4.2-31,8c10.45,11.88,17.39,27.27,29,38C328.555,267.764,337.735,263.273,349.875,261.754z M342.875,324.754
			c-4.36-8.11-8.79-14.24-15-23c-3.22-4.54-14.02-22.4-19-21c-24.76,6.98-57.47,16.25-86,23c5.12,8.89,9.68,18.04,15,27
			c5.23,8.82,10.69,18.07,17,25C284.085,345.294,313.885,335.434,342.875,324.754z M208.875,299.754c-14.31-28.61-36.77-62.7-55-93
			c-2.95-4.9-14.7-31.4-21-30c-14.66,3.26-31.86,4.21-50,7c19.23,38.7,40.45,78.31,60,115c2.84,5.34,5.44,11.6,10,16
			C171.675,309.894,189.835,304.384,208.875,299.754z"/>
	</g>
	<g>
	</g>
</g>
<g id="XMLID_1_">
	<g>
		<path fill="#FFFFFF" d="M1426.758,148.298c11.469,14.438,23.934,25.064,28.636,39.186c-16.142,9.977-39.684,12.554-60.286,18.085
			c0.603,6.858,6.285,13.534,10.55,19.593c4.521,6.435,8.847,12.961,13.564,19.592c8.922,12.54,21.643,24.055,24.114,37.679
			c-2.638,7.204-12.569,7.099-18.086,9.043c-43.089,15.117-91.574,33.595-137.15,48.229c-20.346-27.385-36.562-58.884-54.257-88.921
			c-34.182,7.521-64.581,18.824-99.472,25.621c-8.41-6.239-11.892-16.774-16.578-25.621
			c-28.44-53.775-58.161-109.735-87.415-165.786c-4.597-8.817-13.036-17.604-12.057-28.636
			c31.197-5.983,70.806-11.575,100.979-13.564c9.556,3.677,11.981,15.102,16.578,22.607
			c33.248,54.333,69.058,113.066,102.486,170.308c44.657-11.605,88.861-23.663,132.629-36.172
			c-4.069-11.65-14.544-21.688-22.607-33.157c-7.987-11.349-18.146-23.135-21.1-37.679c10.641-3.527,21.477-6.225,33.157-9.043
			c11.032-2.652,26.48-9.133,34.664-7.536C1404.904,114.041,1420.684,140.672,1426.758,148.298z M1437.308,182.962
			c-14.077-20.588-28.47-40.859-46.722-57.271c-15.282,4.311-32.855,6.33-46.722,12.057c15.75,17.905,26.209,41.1,43.707,57.271
			C1405.175,192.021,1419.011,185.253,1437.308,182.962z M1426.758,277.912c-6.571-12.223-13.248-21.461-22.607-34.664
			c-4.854-6.843-21.13-33.76-28.636-31.65c-37.317,10.52-86.616,24.491-129.614,34.665c7.716,13.398,14.589,27.188,22.606,40.692
			c7.883,13.293,16.111,27.234,25.622,37.679C1338.152,308.869,1383.065,294.009,1426.758,277.912z M1224.8,240.233
			c-21.567-43.119-55.418-94.498-82.893-140.164c-4.446-7.385-22.155-47.324-31.65-45.214c-22.095,4.913-48.018,6.345-75.357,10.55
			c28.982,58.327,60.964,118.025,90.429,173.322c4.28,8.048,8.199,17.483,15.071,24.114
			C1168.734,255.517,1196.104,247.212,1224.8,240.233z"/>
	</g>
	<g>
	</g>
</g>
<g id="XMLID_3_">
	<g>
		<path fill="#FFFFFF" d="M776.229,329.362c1.687,2.124,3.521,3.687,4.212,5.764c-2.374,1.468-5.837,1.847-8.868,2.661
			c0.088,1.008,0.924,1.99,1.552,2.882c0.665,0.946,1.301,1.906,1.995,2.882c1.312,1.845,3.184,3.538,3.547,5.543
			c-0.388,1.06-1.849,1.044-2.66,1.33c-6.339,2.224-13.471,4.941-20.175,7.094c-2.993-4.028-5.378-8.661-7.981-13.08
			c-5.028,1.106-9.5,2.77-14.632,3.77c-1.237-0.918-1.749-2.468-2.438-3.77c-4.184-7.91-8.555-16.142-12.858-24.387
			c-0.676-1.297-1.918-2.59-1.774-4.213c4.589-0.88,10.416-1.702,14.854-1.995c1.406,0.541,1.763,2.222,2.439,3.326
			c4.891,7.992,10.158,16.632,15.075,25.052c6.569-1.707,13.072-3.48,19.51-5.321c-0.599-1.713-2.139-3.189-3.326-4.877
			c-1.175-1.669-2.669-3.403-3.104-5.543c1.565-0.519,3.159-0.915,4.877-1.33c1.623-0.39,3.895-1.343,5.099-1.108
			C773.015,324.323,775.336,328.24,776.229,329.362z M777.781,334.461c-2.071-3.028-4.188-6.01-6.873-8.425
			c-2.248,0.635-4.833,0.932-6.873,1.774c2.317,2.634,3.855,6.045,6.429,8.424C773.055,335.794,775.09,334.798,777.781,334.461z
			 M776.229,348.429c-0.967-1.799-1.949-3.157-3.326-5.1c-0.714-1.007-3.108-4.966-4.212-4.655
			c-5.489,1.547-12.741,3.603-19.066,5.099c1.135,1.971,2.146,4,3.325,5.986c1.16,1.955,2.37,4.006,3.769,5.542
			C763.195,352.982,769.802,350.796,776.229,348.429z M746.521,342.886c-3.172-6.343-8.152-13.9-12.193-20.618
			c-0.654-1.086-3.259-6.961-4.656-6.651c-3.25,0.724-7.063,0.934-11.085,1.553c4.263,8.579,8.968,17.361,13.302,25.495
			c0.63,1.184,1.206,2.571,2.217,3.547C738.274,345.134,742.3,343.912,746.521,342.886z"/>
	</g>
	<g>
	</g>
</g>
<g id="XMLID_4_">
	<g>
		<path fill="#FFFFFF" d="M634.187,89.411c11.632,14.644,24.274,25.42,29.043,39.743c-16.371,10.119-40.248,12.733-61.143,18.343
			c0.611,6.955,6.374,13.727,10.7,19.871c4.585,6.527,8.973,13.146,13.757,19.872c9.049,12.718,21.951,24.396,24.458,38.214
			c-2.675,7.307-12.749,7.2-18.343,9.172c-43.702,15.331-92.876,34.072-139.101,48.914c-20.636-27.774-37.083-59.721-55.029-90.186
			c-34.668,7.628-65.5,19.092-100.886,25.986c-8.529-6.328-12.061-17.013-16.814-25.986
			c-28.844-54.54-58.988-111.295-88.657-168.144c-4.663-8.942-13.222-17.854-12.229-29.043
			c31.642-6.068,71.812-11.739,102.415-13.757c9.691,3.729,12.152,15.316,16.814,22.929
			c33.721,55.105,70.04,114.674,103.943,172.729c45.292-11.77,90.125-23.999,134.515-36.686
			c-4.127-11.816-14.751-21.997-22.929-33.629c-8.102-11.51-18.404-23.464-21.4-38.214c10.792-3.577,21.782-6.313,33.629-9.171
			c11.189-2.69,26.857-9.263,35.157-7.643C612.022,54.667,628.026,81.676,634.187,89.411z M644.887,124.568
			c-14.277-20.88-28.875-41.44-47.386-58.086c-15.5,4.372-33.323,6.42-47.386,12.229c15.974,18.16,26.582,41.684,44.329,58.086
			C612.297,133.755,626.33,126.892,644.887,124.568z M634.187,220.869c-6.665-12.397-13.436-21.767-22.929-35.157
			c-4.922-6.94-21.431-34.24-29.043-32.1c-37.848,10.669-87.847,24.839-131.458,35.157c7.826,13.589,14.796,27.576,22.929,41.271
			c7.994,13.482,16.34,27.621,25.986,38.215C544.321,252.266,589.873,237.193,634.187,220.869z M429.357,182.654
			c-21.874-43.733-56.206-95.842-84.071-142.158c-4.51-7.49-22.47-47.998-32.101-45.857c-22.409,4.983-48.7,6.435-76.429,10.7
			c29.395,59.156,61.831,119.703,91.715,175.786c4.341,8.163,8.315,17.731,15.286,24.458
			C372.494,198.154,400.253,189.731,429.357,182.654z"/>
	</g>
	<g>
	</g>
</g>
<g id="XMLID_5_">
	<g>
		<path fill="#FFFFFF" d="M1046.637,429.963c2.2,2.77,4.591,4.809,5.493,7.518c-3.097,1.914-7.613,2.408-11.565,3.47
			c0.115,1.315,1.205,2.597,2.023,3.759c0.868,1.235,1.697,2.487,2.603,3.759c1.712,2.406,4.152,4.615,4.627,7.229
			c-0.507,1.382-2.412,1.361-3.471,1.734c-8.267,2.9-17.568,6.445-26.312,9.253c-3.903-5.254-7.015-11.297-10.409-17.06
			c-6.558,1.442-12.39,3.611-19.084,4.915c-1.613-1.197-2.281-3.218-3.181-4.915c-5.456-10.317-11.158-21.054-16.771-31.807
			c-0.882-1.691-2.501-3.377-2.312-5.494c5.985-1.147,13.584-2.221,19.372-2.603c1.834,0.706,2.299,2.897,3.181,4.338
			c6.379,10.424,13.249,21.691,19.662,32.674c8.568-2.227,17.049-4.54,25.445-6.939c-0.78-2.235-2.79-4.161-4.337-6.361
			c-1.532-2.178-3.481-4.438-4.048-7.229c2.041-0.677,4.12-1.194,6.361-1.735c2.116-0.509,5.08-1.752,6.65-1.445
			C1042.443,423.391,1045.471,428.499,1046.637,429.963z M1048.66,436.613c-2.7-3.95-5.462-7.839-8.964-10.988
			c-2.932,0.827-6.303,1.215-8.963,2.313c3.021,3.436,5.028,7.885,8.385,10.987C1042.496,438.351,1045.15,437.053,1048.66,436.613z
			 M1046.637,454.829c-1.261-2.345-2.542-4.117-4.338-6.65c-0.931-1.312-4.054-6.477-5.493-6.072
			c-7.16,2.019-16.618,4.699-24.867,6.65c1.48,2.571,2.799,5.217,4.337,7.808c1.513,2.55,3.091,5.225,4.916,7.229
			C1029.638,460.769,1038.254,457.918,1046.637,454.829z M1007.891,447.601c-4.138-8.272-10.632-18.13-15.903-26.891
			c-0.854-1.417-4.251-9.079-6.072-8.675c-4.239,0.942-9.212,1.218-14.458,2.024c5.561,11.189,11.696,22.644,17.35,33.252
			c0.821,1.544,1.573,3.354,2.892,4.626C997.134,450.532,1002.385,448.939,1007.891,447.601z"/>
	</g>
	<g>
	</g>
</g>
<g id="XMLID_6_">
	<g>
		<path fill="#FFFFFF" d="M542.03,406.782c1.143,1.438,2.385,2.498,2.854,3.905c-1.609,0.994-3.955,1.251-6.008,1.802
			c0.06,0.684,0.626,1.35,1.051,1.953c0.451,0.642,0.882,1.292,1.352,1.952c0.889,1.25,2.157,2.397,2.403,3.755
			c-0.263,0.719-1.253,0.708-1.803,0.901c-4.294,1.507-9.126,3.349-13.668,4.807c-2.028-2.729-3.644-5.868-5.407-8.861
			c-3.406,0.749-6.436,1.876-9.913,2.553c-0.838-0.621-1.185-1.672-1.652-2.553c-2.834-5.359-5.796-10.937-8.711-16.522
			c-0.458-0.879-1.299-1.754-1.202-2.854c3.109-0.597,7.057-1.153,10.063-1.352c0.952,0.366,1.194,1.505,1.652,2.253
			c3.313,5.414,6.882,11.268,10.213,16.973c4.45-1.157,8.856-2.358,13.217-3.605c-0.405-1.161-1.449-2.161-2.253-3.304
			c-0.796-1.132-1.808-2.306-2.103-3.756c1.061-0.351,2.14-0.62,3.304-0.9c1.1-0.265,2.639-0.91,3.455-0.751
			C539.852,403.368,541.424,406.022,542.03,406.782z M543.081,410.236c-1.403-2.052-2.837-4.071-4.656-5.707
			c-1.523,0.43-3.274,0.631-4.656,1.201c1.569,1.784,2.612,4.097,4.355,5.708C539.879,411.14,541.258,410.465,543.081,410.236z
			 M542.03,419.699c-0.655-1.218-1.32-2.139-2.253-3.454c-0.484-0.683-2.106-3.365-2.854-3.154
			c-3.719,1.048-8.632,2.44-12.917,3.454c0.769,1.335,1.454,2.71,2.253,4.056c0.786,1.324,1.605,2.714,2.553,3.755
			C533.2,422.784,537.675,421.304,542.03,419.699z M521.903,415.944c-2.149-4.297-5.522-9.418-8.261-13.969
			c-0.443-0.735-2.208-4.716-3.154-4.506c-2.202,0.489-4.785,0.633-7.51,1.052c2.888,5.812,6.076,11.762,9.012,17.272
			c0.427,0.802,0.817,1.742,1.502,2.403C516.315,417.468,519.043,416.64,521.903,415.944z"/>
	</g>
	<g>
	</g>
</g>
<g id="XMLID_7_">
	<g>
		<path fill="#FFFFFF" d="M1143.036,27.152c16.012,20.156,33.412,34.99,39.977,54.704c-22.534,13.929-55.398,17.526-84.16,25.248
			c0.841,9.573,8.773,18.894,14.728,27.352c6.312,8.984,12.351,18.095,18.937,27.352c12.455,17.505,30.213,33.58,33.664,52.6
			c-3.683,10.057-17.548,9.91-25.248,12.624c-60.154,21.104-127.84,46.898-191.465,67.328
			c-28.404-38.229-51.043-82.203-75.744-124.136c-47.719,10.499-90.157,26.279-138.865,35.768
			c-11.74-8.71-16.601-23.417-23.144-35.768c-39.703-75.071-81.193-153.192-122.032-231.44c-6.417-12.309-18.2-24.575-16.832-39.976
			c43.553-8.353,98.846-16.159,140.968-18.936c13.339,5.134,16.727,21.082,23.144,31.56
			c46.415,75.849,96.406,157.842,143.072,237.752c62.342-16.201,124.053-33.033,185.153-50.496
			c-5.682-16.264-20.304-30.277-31.561-46.288c-11.151-15.843-25.332-32.296-29.456-52.6c14.854-4.923,29.982-8.689,46.288-12.624
			c15.401-3.703,36.968-12.75,48.393-10.52C1112.528-20.672,1134.558,16.505,1143.036,27.152z M1157.765,75.544
			c-19.651-28.741-39.745-57.04-65.225-79.952c-21.335,6.018-45.867,8.837-65.224,16.832c21.986,24.996,36.588,57.376,61.016,79.952
			C1112.907,88.189,1132.222,78.742,1157.765,75.544z M1143.036,208.096c-9.173-17.063-18.494-29.961-31.56-48.392
			c-6.775-9.552-29.498-47.129-39.977-44.184c-52.095,14.686-120.917,34.19-180.944,48.392
			c10.772,18.705,20.366,37.957,31.56,56.808c11.004,18.557,22.492,38.02,35.769,52.6
			C1019.342,251.312,1082.041,230.567,1143.036,208.096z M861.1,155.496C830.991,95.301,783.735,23.575,745.379-40.176
			c-6.207-10.31-30.929-66.066-44.184-63.12c-30.845,6.859-67.034,8.858-105.2,14.728c40.46,81.425,85.107,164.765,126.24,241.96
			c5.976,11.235,11.446,24.407,21.04,33.664C782.831,176.831,821.039,165.238,861.1,155.496z"/>
	</g>
	<g>
	</g>
</g>
<g id="XMLID_8_">
	<g>
		<path fill="#FFFFFF" d="M1192.44,346.254c1.721,2.988,3.254,6.064,5.043,9.077c1.758,2.965,3.594,6.075,5.716,8.405
			c9.82-3.517,19.839-6.832,29.586-10.423c-1.466-2.727-2.955-4.791-5.043-7.732c-1.083-1.526-4.714-7.531-6.389-7.061
			C1213.029,340.867,1202.032,343.984,1192.44,346.254z M1232.785,324.4c2.559,3.221,5.339,5.591,6.388,8.741
			c-3.601,2.226-8.853,2.801-13.448,4.034c0.135,1.53,1.402,3.02,2.354,4.371c1.009,1.436,1.974,2.891,3.025,4.37
			c1.991,2.798,4.828,5.366,5.38,8.405c-0.589,1.607-2.804,1.584-4.034,2.018c-9.612,3.372-20.429,7.494-30.596,10.759
			c-4.538-6.109-8.156-13.136-12.103-19.837c-7.626,1.678-14.407,4.199-22.19,5.716c-1.876-1.392-2.652-3.742-3.698-5.716
			c-6.344-11.995-12.974-24.479-19.5-36.982c-1.025-1.967-2.907-3.927-2.689-6.388c6.96-1.335,15.795-2.582,22.526-3.026
			c2.131,0.82,2.673,3.369,3.698,5.044c7.416,12.12,15.404,25.222,22.861,37.991c9.962-2.589,19.823-5.279,29.587-8.069
			c-0.908-2.599-3.245-4.838-5.044-7.396c-1.781-2.531-4.048-5.161-4.706-8.405c2.373-0.787,4.791-1.389,7.396-2.018
			c2.461-0.591,5.907-2.037,7.732-1.681C1227.91,316.758,1231.43,322.699,1232.785,324.4z M1235.139,332.133
			c-3.141-4.593-6.352-9.114-10.423-12.775c-3.409,0.961-7.329,1.411-10.422,2.689c3.513,3.994,5.847,9.168,9.75,12.775
			C1227.971,334.153,1231.057,332.644,1235.139,332.133z M1187.733,344.908c-4.812-9.618-12.362-21.08-18.491-31.267
			c-0.992-1.647-4.942-10.557-7.061-10.086c-4.929,1.096-10.712,1.415-16.811,2.354c6.466,13.011,13.6,26.328,20.173,38.663
			c0.955,1.796,1.829,3.9,3.362,5.38C1175.227,348.317,1181.332,346.465,1187.733,344.908z"/>
	</g>
	<g>
	</g>
</g>
<g id="XMLID_9_">
	<g>
		<path fill="#FFFFFF" d="M191.967,98.593c3.953,4.976,8.249,8.638,9.869,13.505c-5.563,3.438-13.677,4.327-20.778,6.233
			c0.208,2.363,2.167,4.665,3.636,6.752c1.559,2.218,3.049,4.467,4.675,6.753c3.075,4.322,7.459,8.29,8.311,12.986
			c-0.909,2.483-4.333,2.447-6.233,3.117c-14.851,5.21-31.562,11.579-47.27,16.622c-7.012-9.438-12.602-20.294-18.7-30.647
			c-11.781,2.592-22.258,6.488-34.283,8.831c-2.898-2.15-4.099-5.781-5.714-8.831c-9.802-18.534-20.045-37.82-30.128-57.139
			c-1.584-3.039-4.493-6.067-4.155-9.869C61.95,64.845,75.601,62.917,86,62.232c3.293,1.268,4.129,5.205,5.714,7.792
			c11.459,18.726,23.801,38.969,35.322,58.697c15.391-4,30.626-8.155,45.711-12.467c-1.402-4.015-5.013-7.475-7.792-11.428
			c-2.753-3.911-6.254-7.973-7.272-12.986c3.667-1.215,7.402-2.146,11.428-3.117c3.802-0.914,9.126-3.148,11.947-2.597
			C184.435,86.786,189.873,95.965,191.967,98.593z M195.603,110.54c-4.852-7.095-9.812-14.082-16.103-19.739
			c-5.267,1.486-11.324,2.182-16.103,4.156c5.428,6.171,9.033,14.165,15.063,19.739C184.528,113.662,189.297,111.33,195.603,110.54z
			 M191.967,143.265c-2.265-4.213-4.566-7.397-7.792-11.947c-1.672-2.358-7.282-11.635-9.869-10.908
			c-12.861,3.625-29.853,8.441-44.672,11.947c2.66,4.618,5.028,9.371,7.792,14.025c2.716,4.582,5.553,9.386,8.831,12.986
			C161.429,153.935,176.908,148.812,191.967,143.265z M122.361,130.279c-7.433-14.861-19.1-32.569-28.569-48.308
			c-1.532-2.545-7.636-16.311-10.908-15.583c-7.615,1.693-16.549,2.187-25.972,3.636c9.989,20.103,21.011,40.678,31.167,59.736
			c1.475,2.773,2.826,6.025,5.194,8.311C103.038,135.546,112.471,132.684,122.361,130.279z"/>
	</g>
	<g>
	</g>
</g>
<g id="XMLID_10_">
	<g>
		<path fill="#FFFFFF" d="M887.353,184.36c3.615,4.552,7.544,7.901,9.026,12.353c-5.088,3.146-12.509,3.958-19.004,5.702
			c0.19,2.162,1.981,4.266,3.326,6.176c1.425,2.029,2.788,4.086,4.275,6.176c2.812,3.953,6.822,7.583,7.602,11.878
			c-0.831,2.271-3.962,2.237-5.701,2.851c-13.583,4.765-28.867,10.59-43.234,15.203c-6.414-8.633-11.525-18.562-17.104-28.031
			c-10.775,2.371-20.358,5.934-31.356,8.077c-2.651-1.967-3.749-5.288-5.227-8.077c-8.965-16.952-18.334-34.592-27.556-52.261
			c-1.449-2.78-4.109-5.549-3.801-9.027c9.834-1.886,22.32-3.648,31.832-4.276c3.013,1.159,3.777,4.761,5.227,7.126
			c10.48,17.128,21.77,35.643,32.307,53.687c14.078-3.658,28.013-7.459,41.81-11.402c-1.283-3.673-4.585-6.837-7.127-10.453
			c-2.518-3.578-5.72-7.292-6.651-11.877c3.354-1.112,6.771-1.962,10.452-2.851c3.479-0.836,8.348-2.879,10.928-2.375
			C880.463,173.561,885.438,181.956,887.353,184.36z M890.678,195.287c-4.438-6.49-8.975-12.88-14.728-18.054
			c-4.818,1.359-10.357,1.996-14.729,3.801c4.965,5.644,8.262,12.956,13.778,18.054C880.549,198.143,884.91,196.009,890.678,195.287
			z M887.353,225.219c-2.071-3.853-4.177-6.765-7.127-10.927c-1.529-2.157-6.661-10.643-9.026-9.977
			c-11.764,3.316-27.305,7.72-40.859,10.927c2.433,4.224,4.599,8.571,7.127,12.828c2.484,4.19,5.078,8.585,8.076,11.878
			C859.421,234.978,873.579,230.293,887.353,225.219z M823.688,213.341c-6.799-13.593-17.47-29.789-26.131-44.185
			c-1.401-2.328-6.984-14.918-9.978-14.253c-6.964,1.549-15.136,2-23.755,3.326c9.136,18.387,19.218,37.206,28.507,54.637
			c1.349,2.537,2.584,5.511,4.751,7.602C806.015,218.159,814.643,215.541,823.688,213.341z"/>
	</g>
	<g>
	</g>
</g>
<g id="XMLID_11_">
	<g>
		<path fill="#FFFFFF" d="M1496.962,304.922c-4.573,1.29-9.833,1.895-13.982,3.613c4.714,5.354,7.844,12.296,13.081,17.136
			c5.268-0.897,9.409-2.923,14.885-3.608C1506.732,315.905,1502.425,309.834,1496.962,304.922z M1453.66,341.007
			c2.31,4.015,4.366,8.138,6.766,12.179c2.359,3.979,4.822,8.155,7.669,11.277c13.175-4.719,26.617-9.166,39.693-13.983
			c-1.967-3.658-3.965-6.423-6.767-10.374c-1.452-2.048-6.323-10.104-8.57-9.473C1481.283,333.781,1466.529,337.963,1453.66,341.007
			z M1422.537,297.254c-1.331-2.21-6.631-14.163-9.473-13.527c-6.612,1.466-14.371,1.895-22.553,3.153
			c8.674,17.456,18.245,35.322,27.063,51.872c1.281,2.408,2.454,5.232,4.511,7.217c8.479-2.192,16.671-4.673,25.26-6.766
			C1440.891,326.303,1430.76,310.921,1422.537,297.254z M1389.158,292.743c-1.376-2.639-3.901-5.269-3.608-8.565
			c9.337-1.795,21.191-3.469,30.222-4.064c2.859,1.105,3.586,4.521,4.961,6.767c9.951,16.261,20.668,33.839,30.677,50.97
			c13.36-3.473,26.591-7.077,39.689-10.825c-1.218-3.487-4.353-6.491-6.766-9.924c-2.392-3.396-5.432-6.919-6.315-11.276
			c3.185-1.051,6.428-1.863,9.924-2.706c3.302-0.794,7.925-2.733,10.374-2.256c2.932,0.573,7.654,8.548,9.473,10.83
			c3.437,4.317,7.162,7.497,8.57,11.724c-4.831,2.985-11.877,3.757-18.043,5.412c0.181,2.053,1.881,4.051,3.157,5.864
			c1.354,1.926,2.648,3.879,4.06,5.863c2.671,3.753,6.478,7.199,7.217,11.277c-0.789,2.155-3.762,2.124-5.412,2.706
			c-12.896,4.524-27.407,10.054-41.047,14.434c-6.09-8.195-10.942-17.623-16.238-26.612c-10.23,2.251-19.328,5.634-29.771,7.668
			c-2.517-1.867-3.559-5.021-4.961-7.668C1406.809,326.267,1397.913,309.519,1389.158,292.743z"/>
	</g>
	<g>
	</g>
</g>
<g id="XMLID_12_">
	<g>
		<path fill="#FFFFFF" d="M831.977,411.549c-1.935-3.867-4.972-8.475-7.436-12.573c-0.399-0.662-1.988-4.245-2.84-4.054
			c-1.981,0.439-4.307,0.567-6.76,0.944c2.601,5.232,5.469,10.588,8.112,15.548c0.384,0.724,0.735,1.568,1.352,2.163
			C826.947,412.921,829.402,412.175,831.977,411.549z M846.848,401.274c-1.371,0.387-2.947,0.567-4.19,1.081
			c1.412,1.606,2.351,3.688,3.92,5.14c1.579-0.271,2.822-0.878,4.462-1.083C849.776,404.565,848.483,402.746,846.848,401.274z
			 M814.536,397.624c-0.412-0.791-1.17-1.579-1.082-2.568c2.799-0.536,6.352-1.039,9.059-1.217c0.857,0.329,1.075,1.354,1.487,2.027
			c2.982,4.875,6.194,10.144,9.193,15.277c4.004-1.041,7.971-2.123,11.896-3.245c-0.364-1.043-1.304-1.943-2.027-2.974
			c-0.717-1.017-1.628-2.075-1.893-3.38c0.954-0.316,1.926-0.558,2.974-0.811c0.99-0.239,2.376-0.818,3.11-0.677
			c0.878,0.172,2.294,2.561,2.839,3.244c1.028,1.296,2.146,2.249,2.568,3.516c-1.448,0.895-3.56,1.128-5.407,1.624
			c0.054,0.614,0.563,1.212,0.946,1.756c0.405,0.577,0.795,1.163,1.217,1.758c0.8,1.124,1.941,2.159,2.163,3.38
			c-0.237,0.646-1.128,0.637-1.623,0.812c-3.865,1.355-8.214,3.012-12.303,4.324c-1.825-2.455-3.279-5.281-4.867-7.977
			c-3.065,0.677-5.793,1.689-8.923,2.299c-0.754-0.56-1.066-1.504-1.486-2.299C819.826,407.672,817.16,402.652,814.536,397.624z
			 M848.064,411.821c-0.436-0.615-1.896-3.028-2.568-2.84c-3.348,0.944-7.77,2.196-11.627,3.109c0.692,1.201,1.309,2.438,2.028,3.65
			c0.707,1.192,1.444,2.442,2.298,3.38c3.949-1.414,7.978-2.748,11.897-4.192C849.503,413.833,848.904,413.004,848.064,411.821z"/>
	</g>
	<g>
	</g>
</g>
<g id="XMLID_13_">
	<g>
		<path fill="#FFFFFF" d="M442.918,347.652c-0.585-0.854-1.181-1.695-1.938-2.376c-0.634,0.179-1.364,0.263-1.939,0.501
			c0.654,0.743,1.087,1.705,1.813,2.376C441.584,348.029,442.159,347.748,442.918,347.652z M442.48,351.593
			c-0.272-0.507-0.549-0.89-0.938-1.438c-0.201-0.283-0.876-1.4-1.188-1.313c-1.548,0.438-3.594,1.017-5.378,1.439
			c0.32,0.556,0.605,1.128,0.938,1.688c0.327,0.551,0.668,1.129,1.063,1.562C438.803,352.877,440.667,352.261,442.48,351.593z
			 M439.228,346.965c-0.331-0.471-0.753-0.96-0.875-1.563c0.442-0.146,0.891-0.258,1.376-0.375c0.458-0.109,1.099-0.38,1.438-0.312
			c0.406,0.079,1.061,1.185,1.313,1.501c0.476,0.6,0.993,1.04,1.188,1.626c-0.67,0.413-1.646,0.521-2.501,0.751
			c0.025,0.283,0.261,0.561,0.438,0.812c0.188,0.267,0.367,0.538,0.563,0.812c0.37,0.521,0.898,0.998,1,1.563
			c-0.109,0.3-0.521,0.295-0.75,0.376c-1.788,0.626-3.8,1.394-5.691,2.001c-0.844-1.137-1.517-2.443-2.251-3.689
			c-1.418,0.312-2.68,0.78-4.127,1.062c-0.349-0.259-0.493-0.696-0.688-1.062c-1.18-2.232-2.413-4.554-3.627-6.88
			c-0.191-0.365-0.541-0.73-0.5-1.188c1.294-0.249,2.938-0.48,4.19-0.563c0.396,0.152,0.498,0.627,0.688,0.938
			c1.38,2.256,2.866,4.692,4.253,7.067c1.853-0.481,3.687-0.981,5.503-1.501C439.997,347.857,439.563,347.441,439.228,346.965z
			 M430.661,344.213c-0.185-0.307-0.919-1.963-1.313-1.875c-0.917,0.203-1.993,0.263-3.127,0.437
			c1.203,2.421,2.53,4.898,3.752,7.192c0.177,0.334,0.34,0.726,0.625,1c1.175-0.303,2.311-0.647,3.502-0.938
			C433.205,348.24,431.8,346.108,430.661,344.213z"/>
	</g>
	<g>
	</g>
</g>
<g id="XMLID_14_">
	<g>
		<path fill="#FFFFFF" d="M37.203,219.5c2.742,3.451,5.721,5.991,6.845,9.367c-3.858,2.385-9.485,3.001-14.41,4.323
			c0.144,1.639,1.502,3.235,2.522,4.684c1.081,1.538,2.115,3.098,3.242,4.683c2.133,2.998,5.173,5.75,5.764,9.007
			c-0.63,1.722-3.005,1.696-4.323,2.161c-10.3,3.613-21.889,8.03-32.783,11.528c-4.863-6.546-8.74-14.075-12.969-21.255
			c-8.17,1.798-15.437,4.499-23.777,6.124c-2.01-1.491-2.842-4.01-3.963-6.124c-6.798-12.854-13.902-26.23-20.895-39.628
			c-1.099-2.107-3.116-4.208-2.882-6.845c7.458-1.43,16.925-2.767,24.137-3.242c2.284,0.879,2.864,3.61,3.963,5.404
			c7.947,12.987,16.507,27.026,24.498,40.709c10.674-2.774,21.24-5.656,31.702-8.646c-0.973-2.784-3.477-5.184-5.404-7.925
			c-1.909-2.713-4.337-5.53-5.043-9.006c2.543-0.843,5.134-1.488,7.926-2.162c2.637-0.634,6.33-2.183,8.286-1.801
			C31.979,211.312,35.751,217.678,37.203,219.5z M39.724,227.786c-3.365-4.921-6.805-9.766-11.167-13.689
			c-3.653,1.03-7.854,1.513-11.168,2.882c3.765,4.28,6.265,9.824,10.447,13.69C32.044,229.951,35.351,228.334,39.724,227.786z
			 M37.203,250.482c-1.571-2.922-3.167-5.13-5.404-8.286c-1.16-1.635-5.051-8.069-6.845-7.565
			c-8.92,2.515-20.704,5.854-30.982,8.286c1.844,3.203,3.487,6.499,5.404,9.727c1.884,3.178,3.851,6.511,6.124,9.007
			C16.023,257.882,26.759,254.33,37.203,250.482z M-11.072,241.477c-5.155-10.308-13.247-22.588-19.814-33.504
			c-1.062-1.766-5.295-11.312-7.565-10.808c-5.281,1.175-11.478,1.517-18.013,2.522c6.928,13.942,14.572,28.212,21.615,41.43
			c1.023,1.924,1.96,4.179,3.603,5.764C-24.473,245.129-17.931,243.145-11.072,241.477z"/>
	</g>
	<g>
	</g>
</g>
<g id="XMLID_15_">
	<g>
		<path fill="#FFFFFF" d="M69.963,288.122c-0.53-0.88-2.641-5.642-3.773-5.391c-2.634,0.584-5.725,0.759-8.984,1.256
			c3.457,6.954,7.269,14.073,10.781,20.665c0.51,0.961,0.978,2.086,1.797,2.875c3.38-0.872,6.643-1.864,10.062-2.695
			C77.275,299.69,73.239,293.565,69.963,288.122z M101.229,305.191c-0.579-0.812-2.519-4.025-3.414-3.773
			c-4.449,1.258-10.325,2.92-15.453,4.133c0.92,1.599,1.739,3.243,2.695,4.852c0.939,1.586,1.922,3.248,3.055,4.494
			c5.25-1.882,10.604-3.651,15.814-5.572C103.143,307.866,102.345,306.765,101.229,305.191z M87.394,316.693
			c-2.426-3.266-4.359-7.022-6.469-10.604c-4.074,0.896-7.7,2.244-11.86,3.055c-1.002-0.742-1.417-2-1.977-3.055
			c-3.391-6.412-6.932-13.084-10.422-19.765c-0.546-1.051-1.553-2.099-1.438-3.416c3.72-0.711,8.442-1.38,12.039-1.615
			c1.139,0.437,1.429,1.801,1.977,2.693c3.966,6.479,8.235,13.484,12.219,20.306c5.326-1.381,10.594-2.818,15.812-4.313
			c-0.485-1.389-1.734-2.583-2.695-3.953c-0.953-1.351-2.164-2.756-2.516-4.492c1.269-0.42,2.562-0.742,3.953-1.078
			c1.315-0.315,3.157-1.089,4.133-0.896c1.168,0.229,3.049,3.401,3.775,4.312c1.366,1.72,2.854,2.986,3.414,4.67
			c-1.926,1.191-4.733,1.497-7.189,2.157c0.072,0.819,0.75,1.617,1.258,2.336c0.539,0.767,1.055,1.547,1.619,2.336
			c1.063,1.494,2.58,2.867,2.875,4.492c-0.316,0.86-1.499,0.846-2.156,1.078C98.608,312.743,92.827,314.948,87.394,316.693z
			 M105.185,298.003c-1.678-2.454-3.396-4.869-5.572-6.828c-1.822,0.515-3.917,0.755-5.57,1.438c1.877,2.135,3.125,4.9,5.211,6.828
			C101.352,299.083,103.003,298.276,105.185,298.003z"/>
	</g>
	<g>
	</g>
</g>
<g id="XMLID_16_">
	<g>
		<path fill="#FFFFFF" d="M474.542,312.089c-0.663-0.935-2.886-4.611-3.911-4.321c-5.097,1.435-11.83,3.343-17.703,4.734
			c1.054,1.828,1.993,3.712,3.087,5.557c1.077,1.817,2.201,3.719,3.5,5.144c6.013-2.149,12.147-4.181,18.114-6.379
			C476.732,315.153,475.82,313.892,474.542,312.089z M450.046,311.677c-2.946-5.889-7.569-12.906-11.322-19.144
			c-0.607-1.009-3.026-6.464-4.323-6.176c-3.018,0.672-6.558,0.867-10.292,1.441c3.958,7.964,8.326,16.12,12.351,23.674
			c0.584,1.098,1.12,2.384,2.059,3.292C442.389,313.767,446.127,312.628,450.046,311.677z M479.07,303.854
			c-1.922-2.81-3.888-5.578-6.381-7.822c-2.087,0.589-4.488,0.865-6.381,1.647c2.151,2.447,3.58,5.613,5.97,7.824
			C474.682,305.094,476.571,304.17,479.07,303.854z M470.013,306.119c-0.556-1.591-1.986-2.96-3.087-4.528
			c-1.091-1.551-2.479-3.16-2.882-5.148c1.453-0.478,2.933-0.846,4.526-1.235c1.507-0.36,3.619-1.243,4.736-1.027
			c1.338,0.262,3.493,3.899,4.323,4.94c1.567,1.973,3.269,3.424,3.911,5.351c-2.205,1.364-5.42,1.714-8.234,2.472
			c0.083,0.935,0.858,1.847,1.441,2.676c0.618,0.879,1.208,1.771,1.853,2.676c1.218,1.713,2.956,3.284,3.293,5.146
			c-0.36,0.986-1.717,0.97-2.47,1.237c-5.885,2.062-12.507,4.586-18.732,6.585c-2.779-3.74-4.994-8.042-7.411-12.145
			c-4.668,1.029-8.82,2.57-13.586,3.499c-1.148-0.853-1.624-2.291-2.264-3.499c-3.884-7.345-7.943-14.988-11.939-22.644
			c-0.628-1.204-1.781-2.404-1.647-3.911c4.261-0.819,9.671-1.581,13.792-1.854c1.305,0.507,1.634,2.064,2.264,3.09
			c4.541,7.423,9.432,15.442,13.998,23.261C457.998,309.475,464.036,307.827,470.013,306.119z"/>
	</g>
	<g>
	</g>
</g>
</svg>
