<?xml version="1.0" encoding="utf-8"?>
<!-- Generator: Adobe Illustrator 15.1.0, SVG Export Plug-In . SVG Version: 6.00 Build 0)  -->
<!DOCTYPE svg PUBLIC "-//W3C//DTD SVG 1.1//EN" "http://www.w3.org/Graphics/SVG/1.1/DTD/svg11.dtd">
<svg version="1.1" id="Layer_1" xmlns="http://www.w3.org/2000/svg" xmlns:xlink="http://www.w3.org/1999/xlink" x="0px" y="0px"
	 width="1567px" height="450px" viewBox="0 0 1567 450" enable-background="new 0 0 1567 450" xml:space="preserve">
<rect x="-10.37" y="-8.398" fill="#FFFFFF" width="1585.421" height="467.976"/>
<g>
	<path fill="#FF9900" d="M566.178-246.925c-42.035,11.027-105.612,65.084-149.312,42.079
		c-56.751-29.862,16.992-109.864,57.439-73.152c-27.502-78.648,102.771-136.647,111.237-45.21
		c20.836-43.816,100.021-71.098,84.322-0.382C661.74-286.998,597.6-257.229,566.178-246.925"/>
</g>
<g>
	<path fill="#FFFFFF" d="M929.801,547.837c29.729,20.894,98.562,32.32,107.454,72.644c11.558,52.357-79.329,48.438-77.716,2.797
		c-35.382,60.009-142.727,8.117-88.904-46.639c-39.227,10.342-99.384-25.504-45.75-53.643
		C852.637,508.438,906.264,533.331,929.801,547.837"/>
</g>
<g>
	<path fill="#F5F5FF" d="M732.319,255.615c-38.36,45.407-135.258,115.487-160.73,93.968
		c-25.468-21.516,30.134-126.484,68.494-171.889c38.36-45.406,68.378-39.05,93.843-17.537
		C759.398,181.679,770.68,210.209,732.319,255.615z"/>
</g>
<g>
	<path fill="#F5F5FF" d="M736.288,166.333c-12.916-15.235-47.943-30.857-47.083-53.537c1.113-29.452,48.912-14.767,41.726,9.287
		c27.14-27.011,77.042,15.472,40.822,37.134c22.298-0.062,49.326,27.345,16.897,34.875
		C771.868,197.989,746.795,177.312,736.288,166.333"/>
</g>
<path fill="#FFFFFF" d="M1552.305-615.611c-48.945-53.933-178.532-106.555-178.188-189.32
	c0.425-107.476,176.443-59.84,153.211,28.71c95.587-101.79,282.689,46.898,153.35,130.307
	c81.262-2.971,183.143,93.587,65.881,125.026C1685.88-504.623,1591.955-576.892,1552.305-615.611"/>
<g>
	<path fill="#F5F5FF" d="M2455.498,764.908c86.323,159.271,177.727,512.088,88.376,560.514
		c-89.333,48.416-325.592-225.889-411.911-385.162c-86.322-159.271-34.969-237.428,54.354-285.836
		C2275.666,606,2369.175,605.635,2455.498,764.908z"/>
</g>
<g>
	<path fill="#F5F5FF" d="M2206.465,654.572c-57.574,19.755-140.789,101.85-204.212,74.237
		c-82.364-35.839,12.36-155.226,72.664-108.132c-46.562-107.014,129.407-201.521,150.702-74.67
		c24.568-63.361,132.354-109.672,117.747-9.264C2335.805,588.701,2249.291,636.926,2206.465,654.572"/>
</g>
<g>
	<path fill="#F5F5FF" d="M939.768,160.157c25.465-21.513,55.483-27.869,93.844,17.537c38.36,45.405,93.962,150.374,68.493,171.889
		c-25.471,21.52-122.37-48.561-160.729-93.968C903.015,210.209,914.296,181.679,939.768,160.157z"/>
</g>
<g>
	<path fill="#F5F5FF" d="M937.406,166.333c-10.507,10.979-35.58,31.656-52.361,27.759c-32.429-7.53-5.4-34.937,16.897-34.875
		c-36.22-21.662,13.682-64.146,40.821-37.134c-7.187-24.054,40.613-38.739,41.727-9.287
		C985.35,135.476,950.322,151.098,937.406,166.333"/>
</g>
<g>
	<path fill="#F5F5FF" d="M1312.927,289.843c-25.465,21.514-55.483,27.869-93.843-17.537
		c-38.361-45.404-93.963-150.373-68.494-171.889c25.471-21.52,122.369,48.561,160.729,93.968
		C1349.68,239.791,1338.398,268.321,1312.927,289.843z"/>
</g>
<g>
	<path fill="#F5F5FF" d="M1315.288,283.667c10.507-10.979,35.58-31.656,52.361-27.76c32.429,7.531,5.4,34.938-16.897,34.875
		c36.22,21.662-13.682,64.146-40.822,37.135c7.188,24.054-40.612,38.738-41.725,9.287
		C1267.345,314.524,1302.372,298.902,1315.288,283.667"/>
</g>
<g>
	<path fill="#F5F5FF" d="M1520.375,194.385c38.359-45.407,135.259-115.487,160.729-93.968
		c25.469,21.516-30.133,126.484-68.493,171.889c-38.36,45.406-68.379,39.051-93.844,17.537
		C1493.296,268.321,1482.015,239.791,1520.375,194.385z"/>
</g>
<g>
	<path fill="#F5F5FF" d="M1516.406,283.667c12.916,15.235,47.943,30.857,47.084,53.537c-1.113,29.451-48.913,14.767-41.727-9.287
		c-27.14,27.012-77.041-15.473-40.821-37.135c-22.298,0.062-49.326-27.344-16.897-34.875
		C1480.826,252.011,1505.899,272.688,1516.406,283.667"/>
</g>
<g>
	<path fill="#F5F5FF" d="M-422.191,255.615c-38.36,45.407-135.258,115.487-160.73,93.968
		c-25.468-21.516,30.134-126.484,68.494-171.889c38.36-45.406,68.378-39.05,93.843-17.537
		C-395.112,181.679-383.831,210.209-422.191,255.615z"/>
</g>
<g>
	<path fill="#F5F5FF" d="M-418.222,166.333c-12.916-15.235-47.943-30.857-47.083-53.537c1.113-29.452,48.912-14.767,41.726,9.287
		c27.14-27.011,77.042,15.472,40.822,37.134c22.298-0.062,49.326,27.345,16.897,34.875
		C-382.642,197.989-407.715,177.312-418.222,166.333"/>
</g>
<g>
	<path fill="#F5F5FF" d="M-214.743,160.157c25.465-21.513,55.483-27.869,93.844,17.537c38.36,45.405,93.962,150.374,68.493,171.889
		c-25.471,21.52-122.37-48.561-160.729-93.968C-251.496,210.209-240.214,181.679-214.743,160.157z"/>
</g>
<g>
	<path fill="#F5F5FF" d="M-217.104,166.333c-10.507,10.979-35.58,31.656-52.361,27.759c-32.429-7.53-5.4-34.937,16.897-34.875
		c-36.22-21.662,13.682-64.146,40.821-37.134c-7.187-24.054,40.613-38.739,41.727-9.287
		C-169.161,135.476-204.188,151.098-217.104,166.333"/>
</g>
<g>
	<path fill="#F5F5FF" d="M158.417,289.843c-25.465,21.514-55.483,27.869-93.843-17.537C26.212,226.901-29.389,121.933-3.92,100.417
		c25.471-21.52,122.369,48.561,160.729,93.968C195.169,239.791,183.888,268.321,158.417,289.843z"/>
</g>
<g>
	<path fill="#F5F5FF" d="M160.778,283.667c10.507-10.979,35.58-31.656,52.361-27.76c32.429,7.531,5.4,34.938-16.897,34.875
		c36.22,21.662-13.682,64.146-40.822,37.135c7.188,24.055-40.612,38.738-41.725,9.287
		C112.834,314.524,147.862,298.903,160.778,283.667"/>
</g>
<g>
	<path fill="#F5F5FF" d="M365.865,194.385c38.359-45.407,135.259-115.487,160.729-93.968
		c25.469,21.516-30.133,126.484-68.493,171.889c-38.36,45.406-68.379,39.051-93.844,17.537
		C338.786,268.321,327.504,239.791,365.865,194.385z"/>
</g>
<g>
	<path fill="#F5F5FF" d="M361.896,283.667c12.916,15.236,47.943,30.857,47.084,53.537c-1.113,29.451-48.913,14.768-41.727-9.287
		c-27.14,27.012-77.041-15.473-40.821-37.135c-22.298,0.062-49.326-27.344-16.897-34.875
		C326.316,252.011,351.389,272.688,361.896,283.667"/>
</g>
<g id="gXCfji_1_">
	<g>
		<path fill-rule="evenodd" clip-rule="evenodd" fill="#F5F5FF" d="M904.691,293.003c-3.008-0.968-4.738,0.701-5.337,3.108
			c-0.084,0.336-0.396,1.221-0.293,1.35c0.16,0.197,1.75,0.059,2.052,0.059c0.851,0,1.374,0,2.054,0
			c-0.204,1.132-0.43,2.201-0.646,3.401c-0.06,0.33-0.045,1.021-0.176,1.114c-0.218,0.155-1.697,0-2.053,0
			c-0.281,0-1.755-0.208-2.054,0c-0.164,0.115-0.324,1.597-0.41,2.053c-0.867,4.646-1.643,8.816-2.521,13.49
			c-0.061,0.316-0.156,1.04-0.176,1.056c-0.13,0.1-1.151,0-1.525,0c-1.505,0-3.158,0-4.458,0c0.759-4.51,1.789-9.716,2.698-14.487
			c0.063-0.334,0.473-1.902,0.352-2.053c-0.251-0.311-2.298,0.114-2.697-0.059c0.125-0.857,0.432-2.241,0.646-3.402
			c0.056-0.306,0.075-1.038,0.176-1.113c0.464-0.35,2.188,0.294,2.698,0c0.27-0.157,0.502-2.019,0.586-2.347
			c1.128-4.419,3.959-7.699,10.029-7.331c0.415,0.025,0.728,0.087,1.173,0.175c0.171,0.035,0.892,0.086,0.997,0.294
			c0.152,0.299-0.507,2.029-0.587,2.347C904.982,291.598,904.873,292.196,904.691,293.003z"/>
		<path fill-rule="evenodd" clip-rule="evenodd" fill="#F5F5FF" d="M826.1,288.252c-0.628,3.829-1.499,7.924-2.229,11.848
			c1.629-2.101,6.104-4.234,9.149-2.347c0.996,0.618,1.918,2.018,2.053,3.871c0.215,2.941-0.62,5.812-1.173,8.74
			c-0.384,2.032-0.733,3.938-1.174,6.217c-0.114,0.595-0.275,1.955-0.41,2.053c-0.281,0.204-2.571,0-2.99,0
			c-1.185,0-2.165,0-2.992,0c0.662-3.792,1.421-7.547,2.17-11.556c0.378-2.021,0.874-5.533-1.876-5.102
			c-0.63,0.099-1.102,0.407-1.525,0.763c-2.736,2.296-3.055,7.201-3.93,11.554c-0.2,0.995-0.419,2.102-0.645,3.226
			c-0.072,0.357-0.103,1.059-0.177,1.115c-0.274,0.206-2.549,0-2.99,0c-1.212,0-2.193,0-2.992,0
			c1.564-8.511,3.375-17.8,5.044-26.451c0.241-1.247,0.338-2.548,0.704-3.754c0.099-0.328,2.484-0.177,3.05-0.177
			C824.301,288.252,825.283,288.252,826.1,288.252z"/>
		<path fill-rule="evenodd" clip-rule="evenodd" fill="#F5F5FF" d="M885.864,288.604c2.08-0.264,3.386,0.973,3.461,2.757
			c0.104,2.446-2.199,4.401-4.692,3.52c-1.277-0.452-1.77-1.699-1.759-2.874C882.89,290.026,884.131,288.823,885.864,288.604z"/>
		<path fill-rule="evenodd" clip-rule="evenodd" fill="#F5F5FF" d="M847.918,297.108c4.021-0.259,6.666,1.634,7.859,4.399
			c1.286,2.98,0.697,7.429-0.47,10.146c-1.126,2.62-2.99,5.05-5.807,6.393c-2.51,1.196-6.818,1.621-9.678-0.353
			c-2.137-1.475-3.434-4.424-3.225-7.976c0.138-2.351,0.804-4.505,1.7-6.218c0.831-1.586,2.055-3.196,3.637-4.339
			C843.454,298.062,845.547,297.262,847.918,297.108z M842.991,308.076c-0.594,2.862-0.33,6.92,3.05,6.335
			c1.548-0.269,2.574-1.875,3.284-3.578c1.017-2.439,2.482-9.598-1.936-9.091C844.765,302.042,843.52,305.53,842.991,308.076z"/>
		<path fill-rule="evenodd" clip-rule="evenodd" fill="#F5F5FF" d="M855.073,327.079c1.812-9.88,3.94-19.441,5.396-29.678
			c1.76,0,3.52,0,5.278,0c-0.062,1.033-0.221,1.969-0.293,2.991c1.463-1.562,3.064-3.152,5.865-3.343
			c7.848-0.535,7.397,9.884,4.927,15.073c-1.731,3.638-5.041,6.97-9.912,6.979c-1.131,0.002-2.59-0.316-3.46-0.763
			c-0.246-0.126-0.407,1.539-0.528,2.171c-0.374,1.961-0.691,3.449-1.056,5.454c-0.055,0.302-0.131,1.079-0.176,1.114
			c-0.183,0.142-1.252,0-1.524,0C858.148,327.079,856.386,327.079,855.073,327.079z M867.155,302.915
			c-1.776,1.498-2.434,4.677-2.991,7.684c-0.105,0.566-0.646,2.678-0.528,3.049c0.123,0.385,1.251,0.812,1.995,0.88
			c0.746,0.069,1.262-0.077,1.642-0.234c2.017-0.833,3.053-3.078,3.754-5.337c0.774-2.498,1.334-7.332-2.112-6.862
			C868.219,302.189,867.598,302.542,867.155,302.915z"/>
		<path fill-rule="evenodd" clip-rule="evenodd" fill="#F5F5FF" d="M813.139,302.387c-1.584-0.921-7.004-1.737-6.452,1.467
			c0.167,0.968,1.347,1.562,2.287,2.111c1.844,1.078,4.027,2.475,4.223,5.396c0.258,3.833-2.229,6.085-5.044,7.038
			c-2.467,0.836-6.461,0.788-9.031-0.293c-0.23-0.097-0.887-0.408-0.939-0.527c-0.155-0.354,0.492-1.515,0.704-2.111
			c0.153-0.433,0.314-1.055,0.528-1.643c0.047-0.131,0.112-0.498,0.176-0.528c0.181-0.088,1.344,0.628,1.936,0.821
			c1.789,0.584,4.904,0.968,5.455-0.997c0.088-0.316,0.101-0.71,0-1.114c-0.422-1.672-3.27-2.473-4.634-3.871
			c-0.848-0.867-1.676-2.09-1.701-3.812c-0.032-2.201,1.038-4.059,2.347-5.16c2.162-1.825,6.598-2.688,10.321-1.585
			c0.28,0.084,1.124,0.366,1.174,0.47c0.115,0.241-0.54,1.908-0.646,2.229C813.573,301.087,813.366,301.599,813.139,302.387z"/>
		<path fill-rule="evenodd" clip-rule="evenodd" fill="#F5F5FF" d="M888.035,297.577c-1.072,5.813-2.36,12.337-3.52,18.476
			c-0.073,0.389-0.327,2.444-0.528,2.581c-0.312,0.211-2.545,0-2.991,0c-1.058,0-1.979,0-2.99,0
			c1.394-6.595,2.517-14.254,3.988-20.881c0.062-0.28,0.953-0.176,1.583-0.176C885.145,297.577,886.47,297.577,888.035,297.577z"/>
		<path fill-rule="evenodd" clip-rule="evenodd" fill="#F5F5FF" d="M923.577,297.577c0,0.079,0,0.157,0,0.235
			c-2.874,5.692-5.23,11.646-8.211,17.419c-2.458,4.759-5.374,9.781-10.265,12.141c-0.501,0.242-2.063,1-2.404,0.821
			c-0.05-0.026-0.331-0.983-0.41-1.232c-0.354-1.11-0.508-1.525-0.821-2.521c-0.1-0.315-0.465-1.13-0.353-1.349
			c0.058-0.11,0.848-0.296,1.115-0.411c1.971-0.845,3.262-1.831,4.457-3.343c0.409-0.517,1.092-1.254,1.173-1.936
			c0.073-0.613-0.261-1.736-0.41-2.521c-1.128-5.917-2.189-11.489-3.226-17.303c2.111,0,4.223,0,6.334,0
			c0.406,4.834,0.972,9.508,1.408,14.312c1.403-3.895,3.204-8.466,4.75-12.493c0.149-0.388,0.486-1.722,0.646-1.818
			c0.15-0.091,1.011,0,1.466,0C920.408,297.577,922.341,297.577,923.577,297.577z"/>
		<path fill-rule="evenodd" clip-rule="evenodd" fill="#F5F5FF" d="M770.088,278.281c0.379,0.012,0.435,0.576,0.763,0.704
			c0.179,0.07,0.475-0.018,0.646,0c0.765,0.079,1.596,0.462,2.053,0.763c0.108,0.071,0.254,0.146,0.293,0.177
			c0.045,0.033,0.426,0.364,0.47,0.41c0.448,0.474,1.126,1.639,1.524,2.521c0.123,0.271,0.423,0.852,0.352,0.997
			c-0.035,0.072-1.401,0.549-1.465,0.527c-0.254-0.081-0.358-0.903-0.528-1.289c-0.302-0.688-0.729-1.245-1.056-1.585
			c-0.204-0.211-1.556-1.257-1.232-0.351c0.341,0.953,0.404,2.657,0.528,3.929c0.021,0.207-0.133,0.607,0.059,0.763
			c0.005,0.005,0.937-0.102,1.291-0.176c0.808-0.171,1.488-0.416,2.345-0.646c0.428-0.114,0.814-0.599,0.938,0.293
			c0.096,0.679,0.034,1.68,0,2.464c-0.12,2.724-0.06,4.322-0.176,6.979c-0.075,1.716-0.14,3.094,0,4.281
			c0.015,0.118-0.007,0.183-0.117,0.176c0.026,0.293,0.104-0.045,0.235,0c0.144,1.306-0.194,3.433,0.117,4.868
			c0.413-3.454,0.461-7.309,0.703-11.203c0.086-1.371,0.058-2.794,0.176-4.163c0.158-1.823,0.209-3.666,0.411-5.338
			c0.477,0.173,0.89,0.67,1.29,1.056c0.453,0.438,0.972,0.988,1.525,1.525c0.121,0.118,0.284,0.385,0.352,0.41
			c0.369,0.145,1.79,0.191,2.287,0.235c0.617,0.054,1.676-0.088,1.936,0.176c0.111,0.113,0.097,0.688,0.176,1.29
			c0.146,1.114,0.373,2.237,0.527,3.401c0.351,2.634,0.929,5.438,1.291,8.035c0.485,3.484,0.975,6.784,1.408,10.206
			c0.074,0.59,0.268,1.158,0.352,1.759c0.179,1.283,0.303,2.587,0.469,3.871c0.104,0.808,0.361,1.604,0.47,2.405
			c0.177,1.306,0.265,2.619,0.469,3.87c0.052,0.312,0.432,1.036,0.294,1.291c-0.041,0.074-0.861,0.304-1.057,0.352
			c-0.488,0.12-0.889,0.112-1.23,0.176c-0.852,0.16-1.688,0.521-2.171,0.528c-0.2,0.062,0.163,0.018,0.059,0.176
			c-1.618,0.46-3.353,1.011-5.044,1.524c-0.584,0.178-1.081,0.461-1.701,0.528c-3.5,0.38-6.274-0.484-9.384-0.938
			c-1.387-0.203-2.756-0.626-4.105-0.88c-0.288-0.054-0.594-0.017-0.88-0.059c-1.37-0.2-2.726-0.63-4.105-0.88
			c-0.295-0.053-0.588-0.016-0.879-0.059c-1.174-0.173-2.34-0.545-3.519-0.762c-0.289-0.054-0.589-0.014-0.88-0.06
			c-2.097-0.33-4.181-0.903-6.276-1.29c-0.553-0.102-1.345-0.055-1.466-0.293c-0.073-0.144,0.115-0.455,0.176-0.821
			c0.397-2.391,0.582-4.84,0.879-7.272c0.372-3.043,0.917-6.065,1.291-9.209c0.416-3.494,0.927-7.002,1.349-10.322
			c0.074-0.574-0.047-1.603,0.294-1.936c0.267-0.261,0.967-0.244,1.407-0.352c0.516-0.125,1.23-0.338,2.053-0.586
			c0.578-0.175,1.756-0.34,1.994-0.587c0.154-0.159,0.228-0.762,0.352-1.173c0.197-0.649,0.332-1.236,0.528-1.818
			c0.162-0.479,0.37-0.831,0.528-1.231c0.211-0.537,0.325-1.159,0.586-1.701c0.08-0.166,0.252-0.341,0.352-0.527
			c0.452-0.854,1.018-1.7,1.642-2.463c0.426-0.521,0.638-0.904,1.173-1.232l0.103,0.161l0.19,0.016
			c0.609-0.133,1.048-0.827,1.584-1.115c0.076-0.041,0.211,0.03,0.293,0c0.909-0.337,1.833-1.005,3.108-0.646
			c0.084,0.024,0.848,0.405,0.998,0.528c0.038,0.031,0.305,0.405,0.352,0.469c0.502,0.679,0.674,1.389,0.938,2.346
			c0.011,0.044,0.161,0.1,0.176,0.176c0.008,0.043,0.026,0.588,0.175,0.354c-0.131-0.457-0.193-1.473-0.469-1.409
			c0.04-0.957-0.533-1.304-0.821-1.935l0.195-0.161L770.088,278.281z M764.751,280.804c-0.64,0.58-1.329,1.136-1.759,1.759
			c-0.32,0.463-0.556,0.927-0.822,1.408c-0.084,0.153-0.28,0.275-0.352,0.41c-0.215,0.403-0.29,0.933-0.469,1.35
			c-0.455,1.053-1.072,2.339-1.231,3.577c3.007-0.746,6.703-1.842,9.736-2.639c0.619-0.163,0.754-0.082,0.821-0.704
			c0.092-0.854-0.005-1.869-0.117-2.757c-0.032-0.25-0.328-1.918-0.47-1.994c-0.547-0.296-1.919,1.313-2.169,1.643
			c-0.094,0.124-0.271,0.146-0.293,0.176c-0.04,0.055,0.005,0.24-0.059,0.352c-0.066,0.115-0.285,0.18-0.352,0.294
			c-0.117,0.198-0.279,0.544-0.411,0.821c-0.164,0.344-0.451,1.008-0.528,1.231c-0.073,0.212-0.173,1.218-0.293,1.349
			c-0.101,0.11-0.755,0.223-0.997,0.294c-0.404,0.117-0.727,0.209-1.056,0.233c0.724-3.635,2.175-6.544,4.985-8.093
			C767.28,278.919,765.585,280.048,764.751,280.804z M770.323,289.366c0.339,0.886,1.666,0.69,1.936-0.117
			C771.898,289.791,770.756,290.005,770.323,289.366z M770.675,296.581c0.125-0.391,0.608-1.543,0.528-1.701
			c-0.086-0.171-1.009-0.338-1.056-0.353c-1.432-0.441-2.218-0.479-4.282-0.293c-1.603,0.146-3.32,0.863-4.34,1.525
			c-0.903,0.587-1.792,1.466-2.345,2.287c-0.95,1.405-1.94,3.946-1.408,6.451c0.232,1.097,1.23,2.622,1.759,3.167
			c0.2,0.206,0.565,0.334,0.763,0.528c0.34,0.333,0.597,0.506,0.997,0.821c0.508,0.4,1.095,0.878,1.407,1.466
			c0.725,1.361,0.135,2.979-1.173,3.167c-2.214,0.32-3.795-1.361-5.102-2.053c-0.271,1.262-0.727,2.533-0.997,3.695
			c-0.146,0.63,0.05,0.616,0.411,0.938c0.125,0.11,0.145,0.325,0.176,0.353c0.063,0.053,0.235,0.033,0.352,0.117
			c0.488,0.347,1.048,0.738,1.583,0.996c0.444,0.215,0.737,0.273,1.291,0.47c1.007,0.357,2.522,0.609,3.93,0.47
			c3.216-0.32,5.696-2.764,6.041-6.628c0.178-1.996-0.394-3.554-1.056-4.574c-0.365-0.562-0.657-0.915-1.115-1.35
			c-0.273-0.26-0.548-0.598-0.821-0.821c-0.598-0.488-1.363-0.802-1.994-1.231c-0.168-0.114-0.375-0.335-0.528-0.469
			c-0.359-0.314-0.483-0.476-0.704-0.881c-0.241-0.438-0.411-0.76-0.235-1.466c0.604-2.425,5.023-1.691,6.627-0.821
			C769.726,299.184,770.288,297.794,770.675,296.581z"/>
		<g>
			<path fill-rule="evenodd" clip-rule="evenodd" fill="#F5F5FF" d="M763.329,279.909c1.594-1.728,4.639-3.115,6.72-1.378"/>
		</g>
	</g>
</g>
<g id="gXCfji_2_">
	<g>
		<path fill-rule="evenodd" clip-rule="evenodd" fill="#F5F5FF" d="M1492.281,135.52c-3.008-0.968-4.738,0.701-5.337,3.108
			c-0.084,0.336-0.396,1.221-0.293,1.35c0.16,0.197,1.75,0.059,2.052,0.059c0.851,0,1.374,0,2.054,0
			c-0.204,1.132-0.43,2.201-0.646,3.401c-0.06,0.33-0.045,1.021-0.176,1.114c-0.218,0.155-1.697,0-2.053,0
			c-0.281,0-1.755-0.208-2.054,0c-0.164,0.115-0.324,1.597-0.41,2.053c-0.867,4.646-1.643,8.816-2.521,13.49
			c-0.061,0.316-0.156,1.04-0.176,1.056c-0.13,0.1-1.151,0-1.525,0c-1.505,0-3.158,0-4.458,0c0.759-4.51,1.789-9.716,2.698-14.487
			c0.063-0.334,0.473-1.902,0.352-2.053c-0.251-0.311-2.298,0.114-2.697-0.059c0.125-0.857,0.432-2.241,0.646-3.402
			c0.056-0.306,0.075-1.038,0.176-1.113c0.464-0.35,2.188,0.294,2.698,0c0.27-0.157,0.502-2.019,0.586-2.347
			c1.128-4.419,3.959-7.699,10.029-7.331c0.415,0.025,0.728,0.087,1.173,0.175c0.171,0.035,0.892,0.086,0.997,0.294
			c0.152,0.299-0.507,2.029-0.587,2.347C1492.572,134.115,1492.463,134.713,1492.281,135.52z"/>
		<path fill-rule="evenodd" clip-rule="evenodd" fill="#F5F5FF" d="M1413.689,130.769c-0.628,3.829-1.499,7.924-2.229,11.848
			c1.629-2.101,6.104-4.234,9.149-2.347c0.996,0.618,1.918,2.018,2.053,3.871c0.215,2.941-0.62,5.812-1.173,8.74
			c-0.384,2.032-0.733,3.938-1.174,6.217c-0.114,0.595-0.275,1.955-0.41,2.053c-0.281,0.204-2.571,0-2.99,0
			c-1.185,0-2.165,0-2.992,0c0.662-3.792,1.421-7.547,2.17-11.556c0.378-2.021,0.874-5.533-1.876-5.102
			c-0.63,0.099-1.102,0.407-1.525,0.763c-2.736,2.296-3.055,7.201-3.93,11.554c-0.2,0.995-0.419,2.102-0.645,3.226
			c-0.072,0.357-0.103,1.059-0.177,1.115c-0.274,0.206-2.549,0-2.99,0c-1.212,0-2.193,0-2.992,0
			c1.564-8.511,3.375-17.8,5.044-26.451c0.241-1.247,0.338-2.548,0.704-3.754c0.099-0.328,2.484-0.177,3.05-0.177
			C1411.891,130.769,1412.873,130.769,1413.689,130.769z"/>
		<path fill-rule="evenodd" clip-rule="evenodd" fill="#F5F5FF" d="M1473.454,131.121c2.08-0.264,3.386,0.973,3.461,2.757
			c0.104,2.446-2.199,4.401-4.692,3.52c-1.277-0.452-1.77-1.699-1.759-2.874C1470.479,132.543,1471.721,131.34,1473.454,131.121z"/>
		<path fill-rule="evenodd" clip-rule="evenodd" fill="#F5F5FF" d="M1435.508,139.625c4.021-0.259,6.666,1.634,7.859,4.399
			c1.286,2.98,0.697,7.429-0.47,10.146c-1.126,2.62-2.99,5.05-5.807,6.393c-2.51,1.196-6.818,1.621-9.678-0.353
			c-2.137-1.475-3.434-4.424-3.225-7.976c0.138-2.351,0.804-4.505,1.7-6.218c0.831-1.586,2.055-3.196,3.637-4.339
			C1431.044,140.58,1433.137,139.779,1435.508,139.625z M1430.581,150.593c-0.594,2.862-0.33,6.92,3.05,6.335
			c1.548-0.269,2.574-1.875,3.284-3.578c1.017-2.439,2.482-9.598-1.936-9.091C1432.354,144.559,1431.109,148.047,1430.581,150.593z"
			/>
		<path fill-rule="evenodd" clip-rule="evenodd" fill="#F5F5FF" d="M1442.663,169.596c1.812-9.88,3.94-19.441,5.396-29.678
			c1.76,0,3.52,0,5.278,0c-0.062,1.033-0.221,1.969-0.293,2.991c1.463-1.562,3.064-3.152,5.865-3.343
			c7.848-0.535,7.397,9.884,4.927,15.073c-1.731,3.638-5.041,6.97-9.912,6.979c-1.131,0.002-2.59-0.316-3.46-0.763
			c-0.246-0.126-0.407,1.539-0.528,2.171c-0.374,1.961-0.691,3.449-1.056,5.454c-0.055,0.302-0.131,1.079-0.176,1.114
			c-0.183,0.142-1.252,0-1.524,0C1445.738,169.596,1443.976,169.596,1442.663,169.596z M1454.745,145.432
			c-1.776,1.498-2.434,4.677-2.991,7.684c-0.105,0.566-0.646,2.678-0.528,3.049c0.123,0.385,1.251,0.812,1.995,0.88
			c0.746,0.069,1.262-0.077,1.642-0.234c2.017-0.833,3.053-3.078,3.754-5.337c0.774-2.498,1.334-7.332-2.112-6.862
			C1455.809,144.707,1455.188,145.059,1454.745,145.432z"/>
		<path fill-rule="evenodd" clip-rule="evenodd" fill="#F5F5FF" d="M1400.729,144.904c-1.584-0.921-7.004-1.737-6.452,1.467
			c0.167,0.968,1.347,1.562,2.287,2.111c1.844,1.078,4.027,2.475,4.223,5.396c0.258,3.833-2.229,6.085-5.044,7.038
			c-2.467,0.836-6.461,0.788-9.031-0.293c-0.23-0.097-0.887-0.408-0.939-0.527c-0.155-0.354,0.492-1.515,0.704-2.111
			c0.153-0.433,0.314-1.055,0.528-1.643c0.047-0.131,0.112-0.498,0.176-0.528c0.181-0.088,1.344,0.628,1.936,0.821
			c1.789,0.584,4.904,0.968,5.455-0.997c0.088-0.316,0.101-0.71,0-1.114c-0.422-1.672-3.27-2.473-4.634-3.871
			c-0.848-0.867-1.676-2.09-1.701-3.812c-0.032-2.201,1.038-4.059,2.347-5.16c2.162-1.825,6.598-2.688,10.321-1.585
			c0.28,0.084,1.124,0.366,1.174,0.47c0.115,0.241-0.54,1.908-0.646,2.229C1401.163,143.604,1400.956,144.116,1400.729,144.904z"/>
		<path fill-rule="evenodd" clip-rule="evenodd" fill="#F5F5FF" d="M1475.625,140.094c-1.072,5.813-2.36,12.337-3.52,18.476
			c-0.073,0.389-0.327,2.444-0.528,2.581c-0.312,0.211-2.545,0-2.991,0c-1.058,0-1.979,0-2.99,0
			c1.394-6.595,2.517-14.254,3.988-20.881c0.062-0.28,0.953-0.176,1.583-0.176C1472.734,140.094,1474.06,140.094,1475.625,140.094z"
			/>
		<path fill-rule="evenodd" clip-rule="evenodd" fill="#F5F5FF" d="M1511.167,140.094c0,0.079,0,0.157,0,0.235
			c-2.874,5.692-5.23,11.646-8.211,17.419c-2.458,4.759-5.374,9.781-10.265,12.141c-0.501,0.242-2.063,1-2.404,0.821
			c-0.05-0.026-0.331-0.983-0.41-1.232c-0.354-1.11-0.508-1.525-0.821-2.521c-0.1-0.315-0.465-1.13-0.353-1.349
			c0.058-0.11,0.848-0.296,1.115-0.411c1.971-0.845,3.262-1.831,4.457-3.343c0.409-0.517,1.092-1.254,1.173-1.936
			c0.073-0.613-0.261-1.736-0.41-2.521c-1.128-5.917-2.189-11.489-3.226-17.303c2.111,0,4.223,0,6.334,0
			c0.406,4.834,0.972,9.508,1.408,14.312c1.403-3.895,3.204-8.466,4.75-12.493c0.149-0.388,0.486-1.722,0.646-1.818
			c0.15-0.091,1.011,0,1.466,0C1507.998,140.094,1509.931,140.094,1511.167,140.094z"/>
		<path fill-rule="evenodd" clip-rule="evenodd" fill="#F5F5FF" d="M1357.678,120.798c0.379,0.012,0.436,0.576,0.763,0.704
			c0.179,0.07,0.475-0.018,0.646,0c0.765,0.079,1.596,0.462,2.053,0.763c0.108,0.071,0.254,0.146,0.293,0.177
			c0.045,0.033,0.426,0.364,0.47,0.41c0.448,0.474,1.126,1.639,1.524,2.521c0.123,0.271,0.423,0.852,0.352,0.997
			c-0.035,0.072-1.401,0.549-1.465,0.527c-0.254-0.081-0.358-0.903-0.528-1.289c-0.302-0.688-0.729-1.245-1.056-1.585
			c-0.204-0.211-1.556-1.257-1.232-0.351c0.341,0.953,0.404,2.657,0.527,3.929c0.021,0.207-0.133,0.607,0.06,0.763
			c0.005,0.005,0.937-0.102,1.29-0.176c0.809-0.171,1.488-0.416,2.346-0.646c0.428-0.114,0.814-0.599,0.938,0.293
			c0.096,0.679,0.034,1.68,0,2.464c-0.12,2.724-0.06,4.322-0.176,6.979c-0.075,1.716-0.14,3.094,0,4.281
			c0.015,0.118-0.007,0.183-0.117,0.176c0.026,0.293,0.104-0.045,0.235,0c0.144,1.306-0.194,3.433,0.117,4.868
			c0.413-3.454,0.461-7.309,0.703-11.203c0.086-1.371,0.058-2.794,0.176-4.163c0.158-1.823,0.209-3.666,0.411-5.338
			c0.477,0.173,0.89,0.67,1.29,1.056c0.453,0.438,0.972,0.988,1.525,1.525c0.121,0.118,0.284,0.385,0.352,0.41
			c0.369,0.145,1.79,0.191,2.287,0.235c0.617,0.054,1.676-0.088,1.936,0.176c0.111,0.113,0.097,0.688,0.176,1.29
			c0.146,1.114,0.373,2.237,0.527,3.401c0.351,2.634,0.929,5.438,1.291,8.035c0.485,3.484,0.975,6.784,1.408,10.206
			c0.074,0.59,0.268,1.158,0.352,1.759c0.179,1.283,0.303,2.587,0.469,3.871c0.104,0.808,0.361,1.604,0.47,2.405
			c0.177,1.306,0.265,2.619,0.469,3.87c0.052,0.312,0.432,1.036,0.294,1.291c-0.041,0.074-0.861,0.304-1.057,0.352
			c-0.488,0.12-0.889,0.112-1.23,0.176c-0.852,0.16-1.688,0.521-2.171,0.528c-0.2,0.062,0.163,0.018,0.059,0.176
			c-1.618,0.46-3.353,1.011-5.044,1.524c-0.584,0.178-1.081,0.461-1.701,0.528c-3.5,0.38-6.274-0.484-9.384-0.938
			c-1.388-0.203-2.756-0.626-4.105-0.88c-0.288-0.054-0.595-0.017-0.88-0.059c-1.369-0.2-2.726-0.63-4.105-0.88
			c-0.295-0.053-0.588-0.016-0.879-0.059c-1.175-0.173-2.341-0.545-3.52-0.762c-0.289-0.054-0.59-0.014-0.88-0.06
			c-2.097-0.33-4.181-0.903-6.276-1.29c-0.553-0.102-1.345-0.055-1.466-0.293c-0.073-0.144,0.115-0.455,0.177-0.821
			c0.396-2.391,0.582-4.84,0.879-7.272c0.372-3.043,0.916-6.065,1.291-9.209c0.415-3.494,0.927-7.002,1.348-10.322
			c0.074-0.574-0.047-1.603,0.295-1.936c0.267-0.261,0.967-0.244,1.406-0.352c0.517-0.125,1.23-0.338,2.053-0.586
			c0.578-0.175,1.757-0.34,1.994-0.587c0.154-0.159,0.229-0.762,0.353-1.173c0.196-0.649,0.331-1.236,0.528-1.818
			c0.161-0.479,0.369-0.831,0.527-1.231c0.211-0.537,0.324-1.159,0.586-1.701c0.08-0.166,0.253-0.341,0.353-0.527
			c0.452-0.854,1.018-1.7,1.642-2.463c0.426-0.521,0.638-0.904,1.174-1.232l0.103,0.161l0.19,0.016
			c0.609-0.133,1.047-0.827,1.584-1.115c0.076-0.041,0.211,0.03,0.293,0c0.908-0.337,1.834-1.005,3.107-0.646
			c0.085,0.024,0.848,0.405,0.998,0.528c0.037,0.031,0.305,0.405,0.352,0.469c0.502,0.679,0.674,1.389,0.939,2.346
			c0.011,0.044,0.16,0.1,0.176,0.176c0.008,0.043,0.025,0.588,0.175,0.354c-0.131-0.457-0.192-1.473-0.469-1.409
			c0.04-0.957-0.532-1.304-0.821-1.935l0.195-0.161L1357.678,120.798z M1352.342,123.321c-0.641,0.58-1.329,1.136-1.76,1.759
			c-0.32,0.463-0.557,0.927-0.822,1.408c-0.084,0.153-0.279,0.275-0.352,0.41c-0.215,0.403-0.289,0.933-0.469,1.35
			c-0.455,1.053-1.072,2.339-1.231,3.577c3.007-0.746,6.702-1.842,9.735-2.639c0.619-0.163,0.754-0.082,0.821-0.704
			c0.092-0.854-0.005-1.869-0.117-2.757c-0.032-0.25-0.327-1.918-0.47-1.994c-0.547-0.296-1.92,1.313-2.17,1.643
			c-0.094,0.124-0.271,0.146-0.293,0.176c-0.039,0.055,0.006,0.24-0.059,0.352c-0.066,0.115-0.285,0.18-0.352,0.294
			c-0.117,0.198-0.279,0.544-0.41,0.821c-0.164,0.344-0.451,1.008-0.529,1.231c-0.072,0.212-0.172,1.218-0.293,1.349
			c-0.102,0.11-0.756,0.223-0.996,0.294c-0.404,0.117-0.727,0.209-1.057,0.233c0.725-3.635,2.176-6.544,4.986-8.093
			C1354.87,121.436,1353.175,122.565,1352.342,123.321z M1357.912,131.883c0.34,0.886,1.666,0.69,1.936-0.117
			C1359.488,132.308,1358.346,132.522,1357.912,131.883z M1358.265,139.098c0.124-0.391,0.608-1.543,0.528-1.701
			c-0.087-0.171-1.01-0.338-1.057-0.353c-1.432-0.441-2.217-0.479-4.281-0.293c-1.604,0.146-3.32,0.863-4.34,1.525
			c-0.904,0.587-1.792,1.466-2.346,2.287c-0.949,1.405-1.939,3.946-1.408,6.451c0.232,1.097,1.23,2.622,1.76,3.167
			c0.2,0.206,0.564,0.334,0.763,0.528c0.34,0.333,0.597,0.506,0.997,0.821c0.508,0.4,1.095,0.878,1.407,1.466
			c0.725,1.361,0.136,2.979-1.173,3.167c-2.215,0.32-3.796-1.361-5.103-2.053c-0.271,1.262-0.728,2.533-0.997,3.695
			c-0.146,0.63,0.051,0.616,0.41,0.938c0.125,0.11,0.145,0.325,0.177,0.353c0.063,0.053,0.235,0.033,0.352,0.117
			c0.488,0.347,1.048,0.738,1.583,0.996c0.445,0.215,0.738,0.273,1.291,0.47c1.008,0.357,2.522,0.609,3.93,0.47
			c3.216-0.32,5.695-2.764,6.041-6.628c0.178-1.996-0.394-3.554-1.056-4.574c-0.364-0.562-0.657-0.915-1.114-1.35
			c-0.273-0.26-0.549-0.598-0.822-0.821c-0.598-0.488-1.362-0.802-1.993-1.231c-0.168-0.114-0.374-0.335-0.528-0.469
			c-0.359-0.314-0.482-0.476-0.703-0.881c-0.24-0.438-0.41-0.76-0.234-1.466c0.604-2.425,5.022-1.691,6.627-0.821
			C1357.316,141.701,1357.878,140.311,1358.265,139.098z"/>
		<g>
			<path fill-rule="evenodd" clip-rule="evenodd" fill="#F5F5FF" d="M1350.919,122.426c1.594-1.728,4.64-3.115,6.72-1.378"/>
		</g>
	</g>
</g>
<g id="gXCfji_3_">
	<g>
		<path fill-rule="evenodd" clip-rule="evenodd" fill="#F5F5FF" d="M326.005,133.68c-3.008-0.968-4.738,0.701-5.337,3.108
			c-0.084,0.336-0.396,1.221-0.293,1.35c0.16,0.197,1.75,0.059,2.052,0.059c0.851,0,1.374,0,2.054,0
			c-0.204,1.132-0.43,2.201-0.646,3.401c-0.06,0.33-0.045,1.021-0.176,1.114c-0.218,0.155-1.697,0-2.053,0
			c-0.281,0-1.755-0.208-2.054,0c-0.164,0.115-0.324,1.597-0.41,2.053c-0.867,4.646-1.643,8.816-2.521,13.49
			c-0.061,0.316-0.156,1.04-0.176,1.056c-0.13,0.1-1.151,0-1.525,0c-1.505,0-3.158,0-4.458,0c0.759-4.51,1.789-9.716,2.698-14.487
			c0.063-0.334,0.473-1.902,0.352-2.053c-0.251-0.311-2.298,0.114-2.697-0.059c0.125-0.857,0.432-2.241,0.646-3.402
			c0.056-0.306,0.075-1.038,0.176-1.113c0.464-0.35,2.188,0.294,2.698,0c0.27-0.157,0.502-2.019,0.586-2.347
			c1.128-4.419,3.959-7.699,10.029-7.331c0.415,0.025,0.728,0.087,1.173,0.175c0.171,0.035,0.892,0.086,0.997,0.294
			c0.152,0.299-0.507,2.029-0.587,2.347C326.296,132.274,326.187,132.873,326.005,133.68z"/>
		<path fill-rule="evenodd" clip-rule="evenodd" fill="#F5F5FF" d="M247.414,128.929c-0.628,3.829-1.499,7.924-2.229,11.848
			c1.629-2.101,6.104-4.234,9.149-2.347c0.996,0.618,1.918,2.018,2.053,3.871c0.215,2.941-0.62,5.812-1.173,8.74
			c-0.384,2.032-0.733,3.938-1.174,6.217c-0.114,0.595-0.275,1.955-0.41,2.053c-0.281,0.204-2.571,0-2.99,0
			c-1.185,0-2.165,0-2.992,0c0.662-3.792,1.421-7.547,2.17-11.556c0.378-2.021,0.874-5.533-1.876-5.102
			c-0.63,0.099-1.102,0.407-1.525,0.763c-2.736,2.296-3.055,7.201-3.93,11.554c-0.2,0.995-0.419,2.102-0.645,3.226
			c-0.072,0.357-0.103,1.059-0.177,1.115c-0.274,0.206-2.549,0-2.99,0c-1.212,0-2.193,0-2.992,0
			c1.564-8.511,3.375-17.8,5.044-26.451c0.241-1.247,0.338-2.548,0.704-3.754c0.099-0.328,2.484-0.177,3.05-0.177
			C245.615,128.929,246.597,128.929,247.414,128.929z"/>
		<path fill-rule="evenodd" clip-rule="evenodd" fill="#F5F5FF" d="M307.178,129.28c2.08-0.264,3.386,0.973,3.461,2.757
			c0.104,2.446-2.199,4.401-4.692,3.52c-1.277-0.452-1.77-1.699-1.759-2.874C304.204,130.703,305.445,129.5,307.178,129.28z"/>
		<path fill-rule="evenodd" clip-rule="evenodd" fill="#F5F5FF" d="M269.232,137.785c4.021-0.259,6.666,1.634,7.859,4.399
			c1.286,2.98,0.697,7.429-0.47,10.146c-1.126,2.62-2.99,5.05-5.807,6.393c-2.51,1.196-6.818,1.621-9.678-0.353
			c-2.137-1.475-3.434-4.424-3.225-7.976c0.138-2.351,0.804-4.505,1.7-6.218c0.831-1.586,2.055-3.196,3.637-4.339
			C264.768,138.739,266.861,137.938,269.232,137.785z M264.305,148.753c-0.594,2.862-0.33,6.92,3.05,6.335
			c1.548-0.269,2.574-1.875,3.284-3.578c1.017-2.439,2.482-9.598-1.936-9.091C266.079,142.719,264.833,146.207,264.305,148.753z"/>
		<path fill-rule="evenodd" clip-rule="evenodd" fill="#F5F5FF" d="M276.387,167.756c1.812-9.88,3.94-19.441,5.396-29.678
			c1.76,0,3.52,0,5.278,0c-0.062,1.033-0.221,1.969-0.293,2.991c1.463-1.562,3.064-3.152,5.865-3.343
			c7.848-0.535,7.397,9.884,4.927,15.073c-1.731,3.638-5.041,6.97-9.912,6.979c-1.131,0.002-2.59-0.316-3.46-0.763
			c-0.246-0.126-0.407,1.539-0.528,2.171c-0.374,1.961-0.691,3.449-1.056,5.454c-0.055,0.302-0.131,1.079-0.176,1.114
			c-0.183,0.142-1.252,0-1.524,0C279.462,167.756,277.7,167.756,276.387,167.756z M288.469,143.592
			c-1.776,1.498-2.434,4.677-2.991,7.684c-0.105,0.566-0.646,2.678-0.528,3.049c0.123,0.385,1.251,0.812,1.995,0.88
			c0.746,0.069,1.262-0.077,1.642-0.234c2.017-0.833,3.053-3.078,3.754-5.337c0.774-2.498,1.334-7.332-2.112-6.862
			C289.533,142.866,288.912,143.219,288.469,143.592z"/>
		<path fill-rule="evenodd" clip-rule="evenodd" fill="#F5F5FF" d="M234.453,143.063c-1.584-0.921-7.004-1.737-6.452,1.467
			c0.167,0.968,1.347,1.562,2.287,2.111c1.844,1.078,4.027,2.475,4.223,5.396c0.258,3.833-2.229,6.085-5.044,7.038
			c-2.467,0.836-6.461,0.788-9.031-0.293c-0.23-0.097-0.887-0.408-0.939-0.527c-0.155-0.354,0.492-1.515,0.704-2.111
			c0.153-0.433,0.314-1.055,0.528-1.643c0.047-0.131,0.112-0.498,0.176-0.528c0.181-0.088,1.344,0.628,1.936,0.821
			c1.789,0.584,4.904,0.968,5.455-0.997c0.088-0.316,0.101-0.71,0-1.114c-0.422-1.672-3.27-2.473-4.634-3.871
			c-0.848-0.867-1.676-2.09-1.701-3.812c-0.032-2.201,1.038-4.059,2.347-5.16c2.162-1.825,6.598-2.688,10.321-1.585
			c0.28,0.084,1.124,0.366,1.174,0.47c0.115,0.241-0.54,1.908-0.646,2.229C234.887,141.764,234.68,142.275,234.453,143.063z"/>
		<path fill-rule="evenodd" clip-rule="evenodd" fill="#F5F5FF" d="M309.349,138.254c-1.072,5.813-2.36,12.337-3.52,18.476
			c-0.073,0.389-0.327,2.444-0.528,2.581c-0.312,0.211-2.545,0-2.991,0c-1.058,0-1.979,0-2.99,0
			c1.394-6.595,2.517-14.254,3.988-20.881c0.062-0.28,0.953-0.176,1.583-0.176C306.458,138.254,307.784,138.254,309.349,138.254z"/>
		<path fill-rule="evenodd" clip-rule="evenodd" fill="#F5F5FF" d="M344.891,138.254c0,0.079,0,0.157,0,0.235
			c-2.874,5.692-5.23,11.646-8.211,17.419c-2.458,4.759-5.374,9.781-10.265,12.141c-0.501,0.242-2.063,1-2.404,0.821
			c-0.05-0.026-0.331-0.983-0.41-1.232c-0.354-1.11-0.508-1.525-0.821-2.521c-0.1-0.315-0.465-1.13-0.353-1.349
			c0.058-0.11,0.848-0.296,1.115-0.411c1.971-0.845,3.262-1.831,4.457-3.343c0.409-0.517,1.092-1.254,1.173-1.936
			c0.073-0.613-0.261-1.736-0.41-2.521c-1.128-5.917-2.189-11.489-3.226-17.303c2.111,0,4.223,0,6.334,0
			c0.406,4.834,0.972,9.508,1.408,14.312c1.403-3.895,3.204-8.466,4.75-12.493c0.149-0.388,0.486-1.722,0.646-1.818
			c0.15-0.091,1.011,0,1.466,0C341.722,138.254,343.655,138.254,344.891,138.254z"/>
		<path fill-rule="evenodd" clip-rule="evenodd" fill="#F5F5FF" d="M191.402,118.958c0.379,0.012,0.435,0.576,0.763,0.704
			c0.179,0.07,0.475-0.018,0.646,0c0.765,0.079,1.596,0.462,2.053,0.763c0.108,0.071,0.254,0.146,0.293,0.177
			c0.045,0.033,0.426,0.364,0.47,0.41c0.448,0.474,1.126,1.639,1.524,2.521c0.123,0.271,0.423,0.852,0.352,0.997
			c-0.035,0.072-1.401,0.549-1.465,0.527c-0.254-0.081-0.358-0.903-0.528-1.289c-0.302-0.688-0.729-1.245-1.056-1.585
			c-0.204-0.211-1.556-1.257-1.232-0.351c0.341,0.953,0.404,2.657,0.528,3.929c0.021,0.207-0.133,0.607,0.059,0.763
			c0.005,0.005,0.937-0.102,1.291-0.176c0.808-0.171,1.488-0.416,2.345-0.646c0.428-0.114,0.814-0.599,0.938,0.293
			c0.096,0.679,0.034,1.68,0,2.464c-0.12,2.724-0.06,4.322-0.176,6.979c-0.075,1.716-0.14,3.094,0,4.281
			c0.015,0.118-0.007,0.183-0.117,0.176c0.026,0.293,0.104-0.045,0.235,0c0.144,1.306-0.194,3.433,0.117,4.868
			c0.413-3.454,0.461-7.309,0.703-11.203c0.086-1.371,0.058-2.794,0.176-4.163c0.158-1.823,0.209-3.666,0.411-5.338
			c0.477,0.173,0.89,0.67,1.29,1.056c0.453,0.438,0.972,0.988,1.525,1.525c0.121,0.118,0.284,0.385,0.352,0.41
			c0.369,0.145,1.79,0.191,2.287,0.235c0.617,0.054,1.676-0.088,1.936,0.176c0.111,0.113,0.097,0.688,0.176,1.29
			c0.146,1.114,0.373,2.237,0.527,3.401c0.351,2.634,0.929,5.438,1.291,8.035c0.485,3.484,0.975,6.784,1.408,10.206
			c0.074,0.59,0.268,1.158,0.352,1.759c0.179,1.283,0.303,2.587,0.469,3.871c0.104,0.808,0.361,1.604,0.47,2.405
			c0.177,1.306,0.265,2.619,0.469,3.87c0.052,0.312,0.432,1.036,0.294,1.291c-0.041,0.074-0.861,0.304-1.057,0.352
			c-0.488,0.12-0.889,0.112-1.23,0.176c-0.852,0.16-1.688,0.521-2.171,0.528c-0.2,0.062,0.163,0.018,0.059,0.176
			c-1.618,0.46-3.353,1.011-5.044,1.524c-0.584,0.178-1.081,0.461-1.701,0.528c-3.5,0.38-6.274-0.484-9.384-0.938
			c-1.387-0.203-2.756-0.626-4.105-0.88c-0.288-0.054-0.594-0.017-0.88-0.059c-1.37-0.2-2.726-0.63-4.105-0.88
			c-0.295-0.053-0.588-0.016-0.879-0.059c-1.174-0.173-2.34-0.545-3.519-0.762c-0.289-0.054-0.589-0.014-0.88-0.06
			c-2.097-0.33-4.181-0.903-6.276-1.29c-0.553-0.102-1.345-0.055-1.466-0.293c-0.073-0.144,0.115-0.455,0.176-0.821
			c0.397-2.391,0.582-4.84,0.879-7.272c0.372-3.043,0.917-6.065,1.291-9.209c0.416-3.494,0.927-7.002,1.349-10.322
			c0.074-0.574-0.047-1.603,0.294-1.936c0.267-0.261,0.967-0.244,1.407-0.352c0.516-0.125,1.23-0.338,2.053-0.586
			c0.578-0.175,1.756-0.34,1.994-0.587c0.154-0.159,0.228-0.762,0.352-1.173c0.197-0.649,0.332-1.236,0.528-1.818
			c0.162-0.479,0.37-0.831,0.528-1.231c0.211-0.537,0.325-1.159,0.586-1.701c0.08-0.166,0.252-0.341,0.352-0.527
			c0.452-0.854,1.018-1.7,1.642-2.463c0.426-0.521,0.638-0.904,1.173-1.232l0.103,0.161l0.19,0.016
			c0.609-0.133,1.048-0.827,1.584-1.115c0.076-0.041,0.211,0.03,0.293,0c0.909-0.337,1.833-1.005,3.108-0.646
			c0.084,0.024,0.848,0.405,0.998,0.528c0.038,0.031,0.305,0.405,0.352,0.469c0.502,0.679,0.674,1.389,0.938,2.346
			c0.011,0.044,0.161,0.1,0.176,0.176c0.008,0.043,0.026,0.588,0.175,0.354c-0.131-0.457-0.193-1.473-0.469-1.409
			c0.04-0.957-0.533-1.304-0.821-1.935l0.195-0.161L191.402,118.958z M186.065,121.48c-0.64,0.58-1.329,1.136-1.759,1.759
			c-0.32,0.463-0.556,0.927-0.822,1.408c-0.084,0.153-0.28,0.275-0.352,0.41c-0.215,0.403-0.29,0.933-0.469,1.35
			c-0.455,1.053-1.072,2.339-1.231,3.577c3.007-0.746,6.703-1.842,9.736-2.639c0.619-0.163,0.754-0.082,0.821-0.704
			c0.092-0.854-0.005-1.869-0.117-2.757c-0.032-0.25-0.328-1.918-0.47-1.994c-0.547-0.296-1.919,1.313-2.169,1.643
			c-0.094,0.124-0.271,0.146-0.293,0.176c-0.04,0.055,0.005,0.24-0.059,0.352c-0.066,0.115-0.285,0.18-0.352,0.294
			c-0.117,0.198-0.279,0.544-0.411,0.821c-0.164,0.344-0.451,1.008-0.528,1.231c-0.073,0.212-0.173,1.218-0.293,1.349
			c-0.101,0.11-0.755,0.223-0.997,0.294c-0.404,0.117-0.727,0.209-1.056,0.233c0.724-3.635,2.175-6.544,4.985-8.093
			C188.594,119.596,186.899,120.725,186.065,121.48z M191.637,130.043c0.339,0.886,1.666,0.69,1.936-0.117
			C193.212,130.468,192.07,130.682,191.637,130.043z M191.989,137.258c0.125-0.391,0.608-1.543,0.528-1.701
			c-0.086-0.171-1.009-0.338-1.056-0.353c-1.432-0.441-2.218-0.479-4.282-0.293c-1.603,0.146-3.32,0.863-4.34,1.525
			c-0.903,0.587-1.792,1.466-2.345,2.287c-0.95,1.405-1.94,3.946-1.408,6.451c0.232,1.097,1.23,2.622,1.759,3.167
			c0.2,0.206,0.565,0.334,0.763,0.528c0.34,0.333,0.597,0.506,0.997,0.821c0.508,0.4,1.095,0.878,1.407,1.466
			c0.725,1.361,0.135,2.979-1.173,3.167c-2.214,0.32-3.795-1.361-5.102-2.053c-0.271,1.262-0.727,2.533-0.997,3.695
			c-0.146,0.63,0.05,0.616,0.411,0.938c0.125,0.11,0.145,0.325,0.176,0.353c0.063,0.053,0.235,0.033,0.352,0.117
			c0.488,0.347,1.048,0.738,1.583,0.996c0.444,0.215,0.737,0.273,1.291,0.47c1.007,0.357,2.522,0.609,3.93,0.47
			c3.216-0.32,5.696-2.764,6.041-6.628c0.178-1.996-0.394-3.554-1.056-4.574c-0.365-0.562-0.657-0.915-1.115-1.35
			c-0.273-0.26-0.548-0.598-0.821-0.821c-0.598-0.488-1.363-0.802-1.994-1.231c-0.168-0.114-0.375-0.335-0.528-0.469
			c-0.359-0.314-0.483-0.476-0.704-0.881c-0.241-0.438-0.411-0.76-0.235-1.466c0.604-2.425,5.023-1.691,6.627-0.821
			C191.04,139.86,191.602,138.471,191.989,137.258z"/>
		<g>
			<path fill-rule="evenodd" clip-rule="evenodd" fill="#F5F5FF" d="M184.643,120.586c1.594-1.728,4.639-3.115,6.72-1.378"/>
		</g>
	</g>
</g>
</svg>
