<?xml version="1.0" encoding="utf-8"?>
<!-- Generator: Adobe Illustrator 15.1.0, SVG Export Plug-In . SVG Version: 6.00 Build 0)  -->
<!DOCTYPE svg PUBLIC "-//W3C//DTD SVG 1.1//EN" "http://www.w3.org/Graphics/SVG/1.1/DTD/svg11.dtd">
<svg version="1.1" id="Layer_1" xmlns="http://www.w3.org/2000/svg" xmlns:xlink="http://www.w3.org/1999/xlink" x="0px" y="0px"
	 width="1567px" height="450px" viewBox="0 0 1567 450" enable-background="new 0 0 1567 450" xml:space="preserve">
<rect x="-10.37" y="-8.398" fill="#FFFFFF" width="1585.421" height="467.976"/>
<g>
	<path fill="#FF9900" d="M566.178-246.925c-42.035,11.027-105.611,65.084-149.312,42.079
		c-56.751-29.862,16.992-109.864,57.438-73.152c-27.502-78.648,102.771-136.647,111.237-45.21
		c20.836-43.816,100.021-71.098,84.322-0.382C661.74-286.998,597.6-257.229,566.178-246.925"/>
</g>
<g>
	<path fill="#FFFFFF" d="M929.801,547.837c29.729,20.894,98.562,32.32,107.454,72.644c11.558,52.357-79.329,48.438-77.716,2.798
		c-35.382,60.009-142.727,8.116-88.904-46.64c-39.227,10.342-99.384-25.504-45.75-53.643
		C852.637,508.438,906.264,533.331,929.801,547.837"/>
</g>
<g>
	<path fill="#F5F5FF" d="M732.319,255.615c-38.36,45.406-135.259,115.486-160.73,93.968
		c-25.468-21.517,30.134-126.484,68.494-171.889c38.36-45.406,68.378-39.05,93.843-17.537
		C759.398,181.679,770.68,210.209,732.319,255.615z"/>
</g>
<g>
	<path fill="#F5F5FF" d="M736.288,166.333c-12.916-15.235-47.943-30.857-47.083-53.537c1.113-29.452,48.912-14.767,41.726,9.287
		c27.141-27.011,77.042,15.472,40.822,37.134c22.298-0.062,49.326,27.345,16.897,34.875
		C771.868,197.989,746.795,177.312,736.288,166.333"/>
</g>
<path fill="#FFFFFF" d="M1552.305-615.611c-48.944-53.933-178.531-106.555-178.188-189.32
	c0.425-107.476,176.443-59.84,153.211,28.71c95.587-101.79,282.689,46.897,153.35,130.307
	c81.263-2.971,183.144,93.587,65.881,125.026C1685.88-504.623,1591.955-576.892,1552.305-615.611"/>
<g>
	<path fill="#F5F5FF" d="M2455.498,764.908c86.323,159.271,177.727,512.088,88.376,560.514
		c-89.333,48.416-325.592-225.889-411.911-385.162c-86.322-159.271-34.969-237.428,54.354-285.836
		C2275.666,606,2369.175,605.635,2455.498,764.908z"/>
</g>
<g>
	<path fill="#F5F5FF" d="M2206.465,654.572c-57.574,19.755-140.789,101.85-204.212,74.236
		c-82.364-35.839,12.36-155.226,72.664-108.132c-46.562-107.014,129.407-201.521,150.702-74.67
		c24.568-63.36,132.354-109.672,117.747-9.264C2335.805,588.701,2249.291,636.926,2206.465,654.572"/>
</g>
<g>
	<path fill="#F5F5FF" d="M939.768,160.157c25.466-21.513,55.483-27.869,93.845,17.537c38.359,45.405,93.962,150.375,68.493,171.889
		c-25.472,21.521-122.37-48.562-160.729-93.968C903.015,210.209,914.296,181.679,939.768,160.157z"/>
</g>
<g>
	<path fill="#F5F5FF" d="M937.406,166.333c-10.508,10.979-35.58,31.656-52.361,27.759c-32.429-7.53-5.4-34.937,16.896-34.875
		c-36.22-21.662,13.683-64.146,40.821-37.134c-7.187-24.054,40.613-38.739,41.728-9.287
		C985.35,135.476,950.322,151.098,937.406,166.333"/>
</g>
<g>
	<path fill="#F5F5FF" d="M1312.927,289.843c-25.465,21.515-55.482,27.869-93.843-17.536
		c-38.361-45.404-93.963-150.374-68.494-171.89c25.471-21.52,122.369,48.561,160.729,93.968
		C1349.68,239.791,1338.398,268.321,1312.927,289.843z"/>
</g>
<g>
	<path fill="#F5F5FF" d="M1315.288,283.667c10.507-10.979,35.58-31.656,52.36-27.76c32.43,7.53,5.4,34.938-16.896,34.875
		c36.22,21.661-13.682,64.146-40.822,37.135c7.188,24.054-40.611,38.738-41.725,9.287
		C1267.345,314.523,1302.372,298.902,1315.288,283.667"/>
</g>
<g>
	<path fill="#F5F5FF" d="M1520.375,194.385c38.359-45.407,135.259-115.487,160.729-93.968
		c25.47,21.516-30.133,126.483-68.492,171.89c-38.36,45.405-68.379,39.051-93.845,17.536
		C1493.296,268.321,1482.015,239.791,1520.375,194.385z"/>
</g>
<g>
	<path fill="#F5F5FF" d="M1516.406,283.667c12.916,15.235,47.942,30.856,47.084,53.537c-1.113,29.451-48.913,14.767-41.728-9.287
		c-27.14,27.012-77.041-15.474-40.821-37.135c-22.298,0.062-49.325-27.345-16.896-34.875
		C1480.826,252.011,1505.899,272.688,1516.406,283.667"/>
</g>
<g>
	<path fill="#F5F5FF" d="M-422.191,255.615c-38.36,45.406-135.258,115.486-160.73,93.968
		c-25.468-21.517,30.134-126.484,68.494-171.889c38.36-45.406,68.378-39.05,93.843-17.537
		C-395.112,181.679-383.831,210.209-422.191,255.615z"/>
</g>
<g>
	<path fill="#F5F5FF" d="M-418.222,166.333c-12.916-15.235-47.943-30.857-47.083-53.537c1.113-29.452,48.912-14.767,41.726,9.287
		c27.14-27.011,77.042,15.472,40.822,37.134c22.298-0.062,49.326,27.345,16.897,34.875
		C-382.642,197.989-407.715,177.312-418.222,166.333"/>
</g>
<g>
	<path fill="#F5F5FF" d="M-214.743,160.157c25.465-21.513,55.483-27.869,93.844,17.537c38.36,45.405,93.962,150.375,68.493,171.889
		c-25.471,21.521-122.37-48.562-160.729-93.968C-251.496,210.209-240.214,181.679-214.743,160.157z"/>
</g>
<g>
	<path fill="#F5F5FF" d="M-217.104,166.333c-10.507,10.979-35.58,31.656-52.361,27.759c-32.429-7.53-5.4-34.937,16.897-34.875
		c-36.22-21.662,13.682-64.146,40.821-37.134c-7.187-24.054,40.613-38.739,41.727-9.287
		C-169.161,135.476-204.188,151.098-217.104,166.333"/>
</g>
<g>
	<path fill="#F5F5FF" d="M158.417,289.843c-25.465,21.515-55.483,27.869-93.843-17.536C26.212,226.9-29.389,121.933-3.92,100.417
		c25.471-21.52,122.369,48.561,160.729,93.968C195.169,239.791,183.888,268.321,158.417,289.843z"/>
</g>
<g>
	<path fill="#F5F5FF" d="M160.778,283.667c10.507-10.979,35.58-31.656,52.361-27.76c32.429,7.53,5.4,34.938-16.897,34.875
		c36.22,21.661-13.682,64.146-40.822,37.135c7.188,24.055-40.612,38.738-41.725,9.287
		C112.834,314.523,147.862,298.903,160.778,283.667"/>
</g>
<g>
	<path fill="#F5F5FF" d="M365.865,194.385c38.358-45.407,135.259-115.487,160.729-93.968
		c25.469,21.516-30.133,126.483-68.493,171.89c-38.359,45.405-68.379,39.051-93.844,17.536
		C338.786,268.321,327.504,239.791,365.865,194.385z"/>
</g>
<g>
	<path fill="#F5F5FF" d="M361.896,283.667c12.916,15.235,47.942,30.856,47.084,53.537c-1.113,29.451-48.913,14.768-41.728-9.287
		c-27.14,27.012-77.041-15.474-40.821-37.135c-22.298,0.062-49.326-27.345-16.896-34.875
		C326.316,252.011,351.389,272.688,361.896,283.667"/>
</g>
<g>
	<path fill-rule="evenodd" clip-rule="evenodd" fill="#F5F5FF" d="M148.57,136.703c0-1.879,0-3.759,0-5.639
		c1.472-13.31,12.001-20.105,27.286-17.827c0-2.917,0-6.073,0-9.823c0-2.009-0.603-8.783,0.364-9.458c0.792-0.554,4.552,0,6.185,0
		c1.367,0,5.45-0.701,6.185,0.182c0.2,0.239,0,3.146,0,3.638c0,16.524,0,31.253,0,47.66c0,1.665,0.531,6.794,0,7.458
		c-0.141,0.175-2.308,0.222-3.274,0.364c-2.978,0.435-7.253,1.108-9.823,1.272C159.028,155.584,150.33,149.926,148.57,136.703z
		 M162.759,139.796c1.208,2.149,3.763,4.113,6.912,4.547c1.166,0.162,5.866,0.051,6.185-0.364c0.413-0.537,0-3.464,0-5.093
		c0-1.881,0-4.015,0-5.094c0-1.327,0.677-9.172,0-10.187c-0.552-0.827-5.407-0.573-5.639-0.545
		C162.956,123.943,158.7,132.58,162.759,139.796z"/>
	<path fill-rule="evenodd" clip-rule="evenodd" fill="#F5F5FF" d="M208.782,94.138c0,4.304,0,8.609,0,12.915
		c-4.184,0-8.368,0-12.552,0c0-2.017,0-4.083,0-6.367c0-1.476-0.393-6.524,0.364-6.73C200.012,93.023,205.265,94.496,208.782,94.138
		z"/>
	<path fill-rule="evenodd" clip-rule="evenodd" fill="#F5F5FF" d="M247.71,153.258c-14.426,1.475-35.665,5.669-33.835-12.188
		c0.886-8.647,8.396-10.805,17.099-12.006c1.027-0.142,4.183-0.084,4.73-0.546c0.806-0.68,0.335-4.579-0.364-5.275
		c-0.963-0.959-4.132-0.866-6.185-0.728c-4.547,0.305-9.087,2.296-12.37,3.457c0.772-2.058-1.002-8.059,0-9.642
		c0.524-0.828,6.177-2.243,7.458-2.546c8.212-1.937,19.335-2.096,22.374,4.366c1.107,2.353,1.264,5.647,1.274,8.369
		C247.921,134.7,247.493,144.576,247.71,153.258z M226.609,138.887c-0.896,0.766-1.849,2.534-1.456,4.184
		c0.465,1.949,4.361,2.891,6.731,2.91c1.081,0.009,4.212,0.043,4.729-0.727c1.076-1.605-0.843-6.758,0-8.369
		C233.081,137.388,228.674,137.122,226.609,138.887z"/>
	<path fill-rule="evenodd" clip-rule="evenodd" fill="#F5F5FF" d="M291.187,153.985c-4.126-0.12-8.729,0.239-12.552-0.182
		c0.184-4.851-0.244-10.649,0-16.19c0.32-7.269,1.378-14.405-5.276-14.734c-0.839-0.042-2.634,0.221-3.637,0.364
		c-0.702,0.1-3.055,0.25-3.275,0.545c-0.654,0.877,0,5.91,0,7.641c0,7.709,0.148,15.474-0.181,22.557c-4.124,0-8.247,0-12.37,0
		c0-10.937,0-22.002,0-33.653c0-1.47-0.322-4.232,0-4.729c0.488-0.754,7.049-1.682,7.822-1.819
		c10.865-1.939,25.24-1.98,28.742,7.276c1.421,3.76,0.909,8.985,0.909,14.189C291.368,141.489,290.701,147.9,291.187,153.985z"/>
	<path fill-rule="evenodd" clip-rule="evenodd" fill="#F5F5FF" d="M381.414,130.337c0,1.819,0,3.638,0,5.457
		c-1.124,7.576-4.826,13.916-9.641,16.736c-6.149,3.6-15.616,3.32-20.92,0.909c-5.638-2.563-9.669-8.271-10.915-14.734
		c-2.957-15.361,6.525-27.552,24.013-26.013C374.091,113.584,379.433,119.809,381.414,130.337z M355.765,143.435
		c2.351,2.067,6.901,2.038,9.096,0.182c6.197-5.243,4.484-21.799-5.276-20.556C351.415,124.101,350.583,138.878,355.765,143.435z"/>
	<path fill-rule="evenodd" clip-rule="evenodd" fill="#F5F5FF" d="M340.667,114.329c-0.258,1.632-1.036,3.227-1.819,4.911
		c-0.323,0.694-1.577,4.074-2.183,4.366c-0.597,0.291-2.435-0.572-2.911-0.182c-0.907,0.745,0.121,9.333,0.182,10.733
		c0.443,10.08,1.02,23.097-2.365,30.197c-2.51,5.262-7.762,8.835-14.371,10.187c-4.056,0.829-11.609,0.671-16.373-0.546
		c-1.208-0.308-4.073-0.565-4.547-1.455c-0.587-1.102,0-4.231,0-5.821c0-2.126,0-3.544,0-5.639
		c5.706,3.29,20.876,5.846,24.375-1.273c0.354-0.721,0.478-1.795,0.728-3.274c0.092-0.543,0.905-2.814,0.545-3.273
		c-0.283-0.362-3.237,0.345-4.184,0.545c-12.054,2.553-21.702-4.371-22.556-15.463C293.299,113.812,317.67,109.919,340.667,114.329z
		 M307.922,135.067c0.192,4.931,3.118,8.768,8.368,9.094c1.359,0.085,5.155-0.229,5.639-1.091c0.551-0.979-0.156-4.289-0.182-4.911
		c-0.117-2.771,0-5.163,0-7.276c0-2.006,0.722-6.382,0-7.459c-0.536-0.798-3.385-0.421-4.002-0.363
		C311.767,123.615,307.67,128.564,307.922,135.067z"/>
	<path fill-rule="evenodd" clip-rule="evenodd" fill="#F5F5FF" d="M196.594,113.601c4.062,0,8.126,0,12.188,0
		c-0.073,7.668,0.096,17.091,0,26.195c-0.107,10.283-0.306,21.272-5.093,26.376c-1.214,1.295-5.61,5.319-7.822,5.458
		c-2.041,0.127-4.292-1.686-6.003-2.547c-2.072-1.041-3.79-1.93-5.821-2.729c3.843-3.012,7.68-4.202,10.005-8.731
		c2.649-5.159,2.183-13.131,2.183-20.738C196.23,128.867,196.198,120.258,196.594,113.601z"/>
	<g>
	</g>
</g>
<g>
	<path fill-rule="evenodd" clip-rule="evenodd" fill="#F5F5FF" d="M721.698,315.232c0-1.879,0-3.76,0-5.639
		c1.472-13.311,12.001-20.105,27.286-17.828c0-2.917,0-6.072,0-9.822c0-2.01-0.603-8.783,0.364-9.459c0.792-0.554,4.552,0,6.185,0
		c1.367,0,5.45-0.7,6.185,0.183c0.2,0.239,0,3.146,0,3.638c0,16.524,0,31.253,0,47.66c0,1.665,0.531,6.794,0,7.459
		c-0.141,0.175-2.308,0.222-3.274,0.363c-2.978,0.436-7.253,1.108-9.823,1.272C732.156,334.113,723.458,328.455,721.698,315.232z
		 M735.887,318.325c1.208,2.149,3.763,4.112,6.912,4.548c1.166,0.161,5.866,0.051,6.185-0.364c0.413-0.537,0-3.464,0-5.093
		c0-1.881,0-4.015,0-5.094c0-1.327,0.677-9.172,0-10.188c-0.552-0.827-5.407-0.573-5.639-0.545
		C736.083,302.473,731.828,311.109,735.887,318.325z"/>
	<path fill-rule="evenodd" clip-rule="evenodd" fill="#F5F5FF" d="M781.91,272.667c0,4.304,0,8.609,0,12.915
		c-4.184,0-8.368,0-12.552,0c0-2.018,0-4.084,0-6.367c0-1.476-0.393-6.523,0.364-6.73
		C773.14,271.553,778.393,273.025,781.91,272.667z"/>
	<path fill-rule="evenodd" clip-rule="evenodd" fill="#F5F5FF" d="M820.839,331.787c-14.426,1.475-35.665,5.67-33.835-12.188
		c0.885-8.647,8.395-10.805,17.099-12.007c1.027-0.142,4.183-0.084,4.73-0.546c0.806-0.68,0.335-4.578-0.364-5.275
		c-0.963-0.959-4.132-0.865-6.185-0.728c-4.548,0.305-9.087,2.296-12.37,3.456c0.772-2.058-1.002-8.059,0-9.642
		c0.524-0.828,6.178-2.243,7.459-2.546c8.212-1.937,19.335-2.096,22.374,4.365c1.106,2.354,1.264,5.647,1.273,8.369
		C821.049,313.229,820.621,323.105,820.839,331.787z M799.736,317.416c-0.895,0.766-1.848,2.533-1.455,4.184
		c0.465,1.949,4.361,2.891,6.731,2.91c1.08,0.01,4.213,0.043,4.729-0.727c1.076-1.605-0.843-6.758,0-8.369
		C806.209,315.918,801.802,315.65,799.736,317.416z"/>
	<path fill-rule="evenodd" clip-rule="evenodd" fill="#F5F5FF" d="M864.315,332.515c-4.127-0.12-8.729,0.239-12.553-0.183
		c0.185-4.85-0.243-10.648,0-16.189c0.32-7.269,1.379-14.404-5.275-14.734c-0.84-0.043-2.635,0.221-3.638,0.363
		c-0.702,0.101-3.056,0.251-3.274,0.545c-0.654,0.878,0,5.91,0,7.641c0,7.71,0.148,15.475-0.182,22.558c-4.123,0-8.246,0-12.37,0
		c0-10.937,0-22.002,0-33.653c0-1.47-0.321-4.232,0-4.729c0.487-0.755,7.049-1.682,7.822-1.819
		c10.864-1.939,25.24-1.98,28.741,7.276c1.422,3.761,0.909,8.985,0.909,14.189C864.496,320.018,863.829,326.43,864.315,332.515z"/>
	<path fill-rule="evenodd" clip-rule="evenodd" fill="#F5F5FF" d="M954.542,308.866c0,1.819,0,3.638,0,5.457
		c-1.125,7.575-4.826,13.915-9.642,16.736c-6.149,3.6-15.616,3.319-20.92,0.909c-5.638-2.564-9.669-8.271-10.915-14.734
		c-2.956-15.361,6.525-27.553,24.014-26.014C947.22,292.113,952.561,298.338,954.542,308.866z M928.893,321.964
		c2.351,2.067,6.901,2.038,9.096,0.182c6.197-5.243,4.484-21.8-5.276-20.556C924.543,302.63,923.711,317.408,928.893,321.964z"/>
	<path fill-rule="evenodd" clip-rule="evenodd" fill="#F5F5FF" d="M913.794,292.858c-0.258,1.632-1.035,3.227-1.818,4.911
		c-0.323,0.693-1.578,4.073-2.184,4.365c-0.597,0.291-2.435-0.572-2.91-0.182c-0.907,0.745,0.12,9.333,0.182,10.732
		c0.443,10.08,1.02,23.098-2.365,30.197c-2.51,5.263-7.762,8.836-14.37,10.188c-4.056,0.829-11.609,0.672-16.372-0.547
		c-1.209-0.308-4.073-0.564-4.548-1.455c-0.587-1.102,0-4.23,0-5.82c0-2.126,0-3.545,0-5.639c5.706,3.289,20.876,5.846,24.376-1.273
		c0.354-0.722,0.477-1.796,0.728-3.275c0.092-0.543,0.905-2.813,0.546-3.273c-0.283-0.361-3.238,0.346-4.185,0.545
		c-12.054,2.554-21.702-4.37-22.556-15.463C866.427,292.341,890.798,288.448,913.794,292.858z M881.05,313.596
		c0.192,4.932,3.117,8.769,8.368,9.095c1.359,0.085,5.155-0.229,5.64-1.091c0.551-0.979-0.156-4.289-0.182-4.911
		c-0.117-2.771,0-5.163,0-7.276c0-2.006,0.722-6.382,0-7.459c-0.536-0.798-3.386-0.421-4.003-0.363
		C884.896,302.145,880.798,307.094,881.05,313.596z"/>
	<path fill-rule="evenodd" clip-rule="evenodd" fill="#F5F5FF" d="M769.722,292.131c4.062,0,8.126,0,12.188,0
		c-0.073,7.668,0.096,17.09,0,26.194c-0.107,10.283-0.306,21.272-5.093,26.376c-1.214,1.295-5.61,5.32-7.822,5.459
		c-2.041,0.127-4.292-1.687-6.003-2.548c-2.072-1.041-3.79-1.93-5.821-2.729c3.843-3.012,7.68-4.202,10.005-8.731
		c2.649-5.159,2.183-13.131,2.183-20.738C769.358,307.396,769.326,298.787,769.722,292.131z"/>
	<g>
	</g>
</g>
<g>
	<path fill-rule="evenodd" clip-rule="evenodd" fill="#F5F5FF" d="M1299.493,136.256c0-1.879,0-3.76,0-5.639
		c1.472-13.311,12.001-20.105,27.286-17.828c0-2.917,0-6.072,0-9.822c0-2.01-0.604-8.783,0.363-9.459c0.793-0.554,4.553,0,6.186,0
		c1.366,0,5.449-0.7,6.185,0.183c0.2,0.239,0,3.146,0,3.638c0,16.524,0,31.253,0,47.66c0,1.665,0.531,6.794,0,7.459
		c-0.141,0.175-2.308,0.222-3.274,0.363c-2.978,0.436-7.254,1.108-9.822,1.272C1309.951,155.137,1301.253,149.479,1299.493,136.256z
		 M1313.682,139.349c1.209,2.149,3.764,4.112,6.912,4.548c1.166,0.161,5.867,0.051,6.186-0.364c0.412-0.537,0-3.464,0-5.093
		c0-1.881,0-4.015,0-5.094c0-1.327,0.677-9.172,0-10.188c-0.553-0.827-5.407-0.573-5.639-0.545
		C1313.879,123.497,1309.623,132.133,1313.682,139.349z"/>
	<path fill-rule="evenodd" clip-rule="evenodd" fill="#F5F5FF" d="M1359.705,93.691c0,4.304,0,8.609,0,12.915
		c-4.185,0-8.368,0-12.553,0c0-2.018,0-4.084,0-6.367c0-1.476-0.393-6.523,0.364-6.73
		C1350.936,92.577,1356.188,94.049,1359.705,93.691z"/>
	<path fill-rule="evenodd" clip-rule="evenodd" fill="#F5F5FF" d="M1398.634,152.811c-14.426,1.475-35.665,5.67-33.835-12.188
		c0.885-8.647,8.395-10.805,17.099-12.007c1.027-0.142,4.183-0.084,4.73-0.546c0.806-0.68,0.335-4.578-0.364-5.275
		c-0.963-0.959-4.132-0.865-6.185-0.728c-4.548,0.305-9.087,2.296-12.37,3.456c0.772-2.058-1.002-8.059,0-9.642
		c0.524-0.828,6.178-2.243,7.459-2.546c8.212-1.937,19.335-2.096,22.374,4.365c1.106,2.354,1.264,5.647,1.273,8.369
		C1398.844,134.253,1398.416,144.129,1398.634,152.811z M1377.531,138.44c-0.895,0.766-1.848,2.533-1.455,4.184
		c0.465,1.949,4.361,2.891,6.731,2.91c1.08,0.01,4.213,0.043,4.729-0.727c1.076-1.605-0.843-6.758,0-8.369
		C1384.004,136.942,1379.597,136.674,1377.531,138.44z"/>
	<path fill-rule="evenodd" clip-rule="evenodd" fill="#F5F5FF" d="M1442.11,153.539c-4.127-0.12-8.729,0.239-12.553-0.183
		c0.185-4.85-0.243-10.648,0-16.189c0.32-7.269,1.379-14.404-5.275-14.734c-0.84-0.043-2.635,0.221-3.638,0.363
		c-0.702,0.101-3.056,0.251-3.274,0.545c-0.654,0.878,0,5.91,0,7.641c0,7.71,0.148,15.475-0.182,22.558c-4.123,0-8.246,0-12.37,0
		c0-10.937,0-22.002,0-33.653c0-1.47-0.321-4.232,0-4.729c0.487-0.755,7.049-1.682,7.822-1.819
		c10.864-1.939,25.24-1.98,28.741,7.276c1.422,3.761,0.909,8.985,0.909,14.189C1442.291,141.042,1441.624,147.454,1442.11,153.539z"
		/>
	<path fill-rule="evenodd" clip-rule="evenodd" fill="#F5F5FF" d="M1532.337,129.89c0,1.819,0,3.638,0,5.457
		c-1.125,7.575-4.826,13.915-9.642,16.736c-6.149,3.6-15.616,3.319-20.92,0.909c-5.638-2.564-9.669-8.271-10.915-14.734
		c-2.956-15.361,6.525-27.553,24.014-26.014C1525.015,113.137,1530.355,119.362,1532.337,129.89z M1506.688,142.988
		c2.351,2.067,6.901,2.038,9.096,0.182c6.197-5.243,4.484-21.8-5.276-20.556C1502.338,123.654,1501.506,138.432,1506.688,142.988z"
		/>
	<path fill-rule="evenodd" clip-rule="evenodd" fill="#F5F5FF" d="M1491.589,113.882c-0.258,1.632-1.035,3.227-1.818,4.911
		c-0.323,0.693-1.578,4.073-2.184,4.365c-0.597,0.291-2.435-0.572-2.91-0.182c-0.907,0.745,0.12,9.333,0.182,10.732
		c0.443,10.08,1.02,23.098-2.365,30.197c-2.51,5.263-7.762,8.836-14.37,10.188c-4.056,0.829-11.609,0.672-16.372-0.547
		c-1.209-0.308-4.073-0.564-4.548-1.455c-0.587-1.102,0-4.23,0-5.82c0-2.126,0-3.545,0-5.639c5.706,3.289,20.876,5.846,24.376-1.273
		c0.354-0.722,0.477-1.796,0.728-3.275c0.092-0.543,0.905-2.813,0.546-3.273c-0.283-0.361-3.238,0.346-4.185,0.545
		c-12.054,2.554-21.702-4.37-22.556-15.463C1444.222,113.365,1468.593,109.472,1491.589,113.882z M1458.845,134.62
		c0.192,4.932,3.117,8.769,8.368,9.095c1.359,0.085,5.155-0.229,5.64-1.091c0.551-0.979-0.156-4.289-0.182-4.911
		c-0.117-2.771,0-5.163,0-7.276c0-2.006,0.722-6.382,0-7.459c-0.536-0.798-3.386-0.421-4.003-0.363
		C1462.69,123.168,1458.593,128.118,1458.845,134.62z"/>
	<path fill-rule="evenodd" clip-rule="evenodd" fill="#F5F5FF" d="M1347.517,113.155c4.062,0,8.126,0,12.188,0
		c-0.074,7.668,0.096,17.09,0,26.194c-0.107,10.283-0.307,21.272-5.094,26.376c-1.214,1.295-5.609,5.32-7.822,5.459
		c-2.04,0.127-4.291-1.687-6.003-2.548c-2.072-1.041-3.79-1.93-5.821-2.729c3.844-3.012,7.68-4.202,10.006-8.731
		c2.648-5.159,2.182-13.131,2.182-20.738C1347.152,128.42,1347.121,119.811,1347.517,113.155z"/>
	<g>
	</g>
</g>
</svg>
