<?xml version="1.0" encoding="utf-8"?>
<!-- Generator: Adobe Illustrator 15.1.0, SVG Export Plug-In . SVG Version: 6.00 Build 0)  -->
<!DOCTYPE svg PUBLIC "-//W3C//DTD SVG 1.1//EN" "http://www.w3.org/Graphics/SVG/1.1/DTD/svg11.dtd">
<svg version="1.1" id="Layer_1" xmlns="http://www.w3.org/2000/svg" xmlns:xlink="http://www.w3.org/1999/xlink" x="0px" y="0px"
	 width="1567px" height="450px" viewBox="0 0 1567 450" enable-background="new 0 0 1567 450" xml:space="preserve">
<rect x="-10.37" y="-8.398" fill="#F5F5FF" width="1585.421" height="467.976"/>
<g>
	<path fill="#FF9900" d="M566.178-246.925c-42.035,11.027-105.61,65.084-149.312,42.079
		c-56.751-29.862,16.992-109.864,57.438-73.152c-27.502-78.648,102.771-136.647,111.237-45.21
		c20.836-43.816,100.021-71.098,84.322-0.382C661.74-286.998,597.6-257.229,566.178-246.925"/>
</g>
<g>
	<path fill="#FFFFFF" d="M929.801,547.837c29.729,20.894,98.562,32.32,107.454,72.644c11.558,52.357-79.329,48.438-77.716,2.799
		c-35.382,60.009-142.727,8.115-88.904-46.641c-39.227,10.342-99.384-25.504-45.75-53.643
		C852.637,508.438,906.264,533.331,929.801,547.837"/>
</g>
<path fill="#FFFFFF" d="M1552.305-615.611c-48.943-53.933-178.53-106.555-178.188-189.32c0.425-107.476,176.443-59.84,153.211,28.71
	c95.587-101.79,282.689,46.896,153.35,130.307c81.264-2.971,183.145,93.587,65.881,125.026
	C1685.88-504.623,1591.955-576.892,1552.305-615.611"/>
<g>
	<path fill="#F5F5FF" d="M2455.498,764.908c86.323,159.271,177.727,512.088,88.376,560.514
		c-89.333,48.416-325.592-225.889-411.911-385.162c-86.322-159.271-34.969-237.428,54.354-285.836
		C2275.666,606,2369.175,605.635,2455.498,764.908z"/>
</g>
<g>
	<path fill="#F5F5FF" d="M2206.465,654.572c-57.574,19.755-140.789,101.85-204.212,74.236
		c-82.364-35.84,12.36-155.227,72.664-108.133c-46.562-107.014,129.407-201.521,150.702-74.67
		c24.568-63.359,132.354-109.672,117.747-9.264C2335.805,588.701,2249.291,636.926,2206.465,654.572"/>
</g>
<g>
	<path fill="#F5F5FF" d="M-422.191,255.615c-38.36,45.406-135.258,115.486-160.73,93.968
		c-25.468-21.517,30.134-126.484,68.494-171.889c38.36-45.406,68.378-39.05,93.843-17.537
		C-395.112,181.679-383.831,210.209-422.191,255.615z"/>
</g>
<g>
	<path fill="#FFFFFF" d="M-179.636,171.558c-10.627-12.535-39.447-25.389-38.739-44.05c0.916-24.232,40.244-12.149,34.332,7.642
		c22.331-22.224,63.389,12.73,33.588,30.553c18.346-0.051,40.584,22.5,13.903,28.695
		C-150.361,197.604-170.991,180.591-179.636,171.558"/>
</g>
<g>
	<path fill="#FFFFFF" d="M466.561,196.03c3.859,45.87-10.826,137.31-36.559,139.474c-25.73,2.166-52.763-85.764-56.621-131.636
		c-3.857-45.871,16.061-58.829,41.787-60.992C440.901,140.713,462.703,150.158,466.561,196.03z"/>
</g>
<g>
	<path fill="#FFFFFF" d="M419.842,144.964c-15.416-1.27-43.15,9.356-55.101-3.533c-15.519-16.739,18.698-34.873,27.936-17.765
		c0.07-29.654,50.662-33.715,42.689-2.019c12.177-12.244,41.984-12.037,28.351,9.845
		C456.662,142.815,431.609,145.224,419.842,144.964"/>
</g>
<g>
	<path fill="#FFFFFF" d="M583.515,250.612c-7.874,36.556-40.96,104.12-61.465,99.702c-20.504-4.416-20.666-79.143-12.791-115.699
		c7.875-36.554,26.423-41.901,46.925-37.484C576.69,201.551,591.391,214.058,583.515,250.612z"/>
</g>
<g>
	<path fill="#FFFFFF" d="M559.32,199.862c-11.678-4.64-35.745-2.958-41.976-15.806c-8.089-16.684,22.794-22.663,25.917-7.182
		c7.083-23.023,47.354-14.188,33.647,8.551c12.362-6.628,35.474,0.599,19.694,14.369
		C588.438,206.921,568.401,202.853,559.32,199.862"/>
</g>
<g>
	<path fill="#FFFFFF" d="M730.386,184.815c15.005,53.255,18.506,164.51-11.367,172.925c-29.87,8.417-81.806-89.191-96.81-142.445
		c-15.004-53.253,5.55-73.084,35.417-81.499C687.502,125.381,715.381,131.561,730.386,184.815z"/>
</g>
<g>
	<path fill="#FFFFFF" d="M663.618,135.196c-18.481,2.015-48.791,20.873-65.831,8.384c-22.126-16.218,14.121-45.413,28.92-27.33
		c-6.673-35.011,52.104-51.329,49.919-12.108c11.58-17.224,46.805-23.771,35.699,5.16
		C706.58,124.272,677.562,132.822,663.618,135.196"/>
</g>
<g>
	<path fill="#FFFFFF" d="M991.416,223.598c-12.844,44.204-59.337,124.3-84.134,117.095c-24.794-7.204-18.506-98.979-5.663-143.187
		c12.845-44.204,36.086-49.161,60.877-41.956C987.295,162.758,1004.261,179.392,991.416,223.598z"/>
</g>
<g>
	<path fill="#FFFFFF" d="M966.111,159.177c-13.937-6.712-43.639-6.736-50.172-23.054c-8.485-21.189,29.957-25.85,32.447-6.567
		c10.698-27.658,59.381-13.311,40.575,13.42c15.757-7.064,43.51,3.815,22.938,19.355
		C1001.252,170.372,977.002,163.637,966.111,159.177"/>
</g>
<g>
	<path fill="#FFFFFF" d="M1133.475,196.449c4.58,54.455-12.854,163.007-43.399,165.574c-30.547,2.57-62.64-101.812-67.22-156.271
		c-4.58-54.454,19.066-69.838,49.607-72.405C1103.012,130.78,1128.893,141.993,1133.475,196.449z"/>
</g>
<g>
	<path fill="#FFFFFF" d="M1078.012,135.828c-18.301-1.506-51.227,11.108-65.412-4.194c-18.422-19.871,22.197-41.399,33.162-21.09
		c0.084-35.203,60.146-40.023,50.681-2.396c14.454-14.537,49.842-14.29,33.655,11.688
		C1121.721,133.276,1091.98,136.135,1078.012,135.828"/>
</g>
<g>
	<path fill="#FFFFFF" d="M1215.324,226.873c3.351,26.26-2.832,79.162-17.562,81.041s-32.435-47.977-35.783-74.238
		c-3.349-26.261,7.776-34.198,22.506-36.075C1199.217,195.722,1211.977,200.61,1215.324,226.873z"/>
</g>
<g>
	<path fill="#FFFFFF" d="M1187.221,198.685c-8.889-0.349-24.562,6.441-31.746-0.67c-9.328-9.234,9.884-20.498,15.612-10.897
		c-0.69-17.04,28.276-20.622,24.479-2.213c6.692-7.336,23.824-7.952,16.531,4.956
		C1208.324,196.542,1193.988,198.543,1187.221,198.685"/>
</g>
<g>
	<path fill="#FFFFFF" d="M1479.358,206.41c3.859,45.871-10.827,137.311-36.559,139.475c-25.729,2.165-52.764-85.765-56.622-131.637
		c-3.857-45.87,16.062-58.829,41.787-60.992C1453.699,151.093,1475.5,160.539,1479.358,206.41z"/>
</g>
<g>
	<path fill="#FFFFFF" d="M1432.64,155.345c-15.415-1.27-43.15,9.356-55.101-3.533c-15.518-16.738,18.698-34.873,27.938-17.765
		c0.069-29.654,50.661-33.715,42.688-2.019c12.177-12.244,41.984-12.038,28.351,9.845
		C1469.46,153.196,1444.406,155.604,1432.64,155.345"/>
</g>
<g>
	<path fill="#FFFFFF" d="M1596.312,260.993c-7.873,36.555-40.959,104.121-61.466,99.702c-20.504-4.416-20.666-79.144-12.791-115.699
		c7.875-36.555,26.425-41.902,46.926-37.485C1589.488,211.932,1604.189,224.438,1596.312,260.993z"/>
</g>
<g>
	<path fill="#FFFFFF" d="M1572.118,210.243c-11.677-4.641-35.744-2.959-41.976-15.807c-8.089-16.683,22.795-22.663,25.918-7.181
		c7.082-23.024,47.354-14.188,33.646,8.551c12.362-6.628,35.474,0.599,19.693,14.369
		C1601.235,217.301,1581.199,213.232,1572.118,210.243"/>
</g>
<g>
	<path fill="#FFFFFF" d="M1743.184,195.195c15.006,53.255,18.506,164.51-11.366,172.926c-29.871,8.416-81.806-89.191-96.811-142.446
		c-15.004-53.252,5.552-73.084,35.417-81.498C1700.3,135.762,1728.179,141.941,1743.184,195.195z"/>
</g>
<g>
	<path fill="#FFFFFF" d="M1676.416,145.577c-18.48,2.015-48.791,20.873-65.831,8.384c-22.126-16.218,14.122-45.413,28.921-27.33
		c-6.673-35.011,52.105-51.329,49.919-12.108c11.58-17.224,46.806-23.771,35.699,5.16
		C1719.378,134.653,1690.36,143.202,1676.416,145.577"/>
</g>
<g>
	<path fill="#F5F5FF" d="M2235.993,242.197c-15.609,53.726-72.117,151.072-102.254,142.314
		c-30.136-8.756-22.492-120.297-6.884-174.024c15.611-53.726,43.857-59.749,73.988-50.992
		C2230.985,168.254,2251.604,188.47,2235.993,242.197z"/>
</g>
<g>
	<path fill="#F5F5FF" d="M2205.239,163.901c-16.938-8.157-53.037-8.187-60.979-28.019c-10.312-25.753,36.41-31.418,39.438-7.982
		c13.002-33.615,72.17-16.178,49.313,16.311c19.15-8.586,52.881,4.638,27.877,23.524
		C2247.948,177.508,2218.477,169.322,2205.239,163.901"/>
</g>
<g>
	<path fill="#F5F5FF" d="M2411.1,204.589c5.916,70.337-16.604,210.546-56.058,213.863c-39.455,3.319-80.905-131.506-86.821-201.845
		c-5.916-70.335,24.627-90.205,64.073-93.521C2371.753,119.769,2405.181,134.252,2411.1,204.589z"/>
</g>
<g>
	<path fill="#F5F5FF" d="M2339.462,126.288c-23.639-1.946-66.166,14.348-84.49-5.417c-23.793-25.666,28.673-53.473,42.836-27.24
		c0.107-45.47,77.685-51.696,65.459-3.095c18.67-18.775,64.377-18.457,43.472,15.096
		C2395.919,122.993,2357.505,126.686,2339.462,126.288"/>
</g>
<g>
	<path fill="#F5F5FF" d="M2508.128,246.179c4.072,31.916-3.44,96.214-21.344,98.496c-17.904,2.283-39.42-58.31-43.49-90.228
		s9.451-41.564,27.353-43.846C2488.552,208.317,2504.061,214.26,2508.128,246.179z"/>
</g>
<g>
	<path fill="#F5F5FF" d="M2473.972,211.919c-10.803-0.424-29.854,7.829-38.584-0.814c-11.338-11.224,12.013-24.913,18.976-13.244
		c-0.84-20.71,34.367-25.064,29.752-2.689c8.135-8.916,28.957-9.665,20.094,6.023
		C2499.62,209.314,2482.196,211.747,2473.972,211.919"/>
</g>
<g>
	<path fill="#F5F5FF" d="M-841.827,196.666c4.691,55.751-13.159,166.885-44.433,169.516
		c-31.271,2.631-64.127-104.236-68.816-159.989c-4.689-55.75,19.52-71.5,50.787-74.129
		C-873.013,129.435-846.516,140.914-841.827,196.666z"/>
</g>
<g>
	<path fill="#F5F5FF" d="M-898.607,134.602c-18.736-1.543-52.445,11.372-66.969-4.294c-18.86-20.344,22.726-42.384,33.953-21.591
		c0.085-36.041,61.574-40.977,51.884-2.453c14.799-14.882,51.028-14.631,34.457,11.965
		C-853.857,131.99-884.307,134.917-898.607,134.602"/>
</g>
<g>
	<path fill="#F5F5FF" d="M-699.682,263.005c-9.57,44.429-49.782,126.547-74.704,121.177c-24.921-5.367-25.117-96.188-15.546-140.619
		c9.571-44.428,32.114-50.927,57.031-45.559C-707.977,203.376-690.11,218.576-699.682,263.005z"/>
</g>
<g>
	<path fill="#F5F5FF" d="M-729.088,201.324c-14.192-5.64-43.444-3.596-51.015-19.211c-9.832-20.276,27.704-27.544,31.499-8.729
		c8.609-27.981,57.554-17.243,40.895,10.394c15.025-8.056,43.115,0.728,23.936,17.464
		C-693.7,209.902-718.051,204.958-729.088,201.324"/>
</g>
<g>
	<path fill="#F5F5FF" d="M-521.178,183.036c18.236,64.725,22.491,199.942-13.815,210.17
		c-36.305,10.229-99.425-108.401-117.661-173.126c-18.235-64.723,6.746-88.825,43.046-99.052
		C-573.298,110.801-539.415,118.312-521.178,183.036z"/>
</g>
<g>
	<path fill="#F5F5FF" d="M-602.327,122.73c-22.462,2.448-59.3,25.368-80.009,10.189c-26.892-19.711,17.163-55.194,35.149-33.216
		c-8.11-42.552,63.329-62.385,60.67-14.716c14.074-20.935,56.886-28.892,43.389,6.271
		C-550.112,109.453-585.378,119.844-602.327,122.73"/>
</g>
<g>
	<path fill="#FFFFFF" d="M-3.317,224.082C-16.16,268.287-62.654,348.384-87.45,341.178c-24.794-7.203-18.506-98.979-5.663-143.186
		c12.845-44.204,36.085-49.161,60.876-41.956C-7.437,163.243,9.528,179.876-3.317,224.082z"/>
</g>
<g>
	<path fill="#FFFFFF" d="M-28.621,159.662c-13.936-6.711-43.638-6.736-50.172-23.053c-8.485-21.189,29.958-25.85,32.449-6.568
		c10.698-27.658,59.38-13.311,40.575,13.42c15.757-7.064,43.51,3.815,22.937,19.355C6.52,170.857-17.73,164.122-28.621,159.662"/>
</g>
<g>
	<path fill="#FFFFFF" d="M139.466,197.595c4.58,54.456-12.854,163.009-43.4,165.576C65.52,365.741,33.428,261.357,28.847,206.9
		c-4.58-54.453,19.066-69.837,49.607-72.404C109.004,131.927,134.884,143.14,139.466,197.595z"/>
</g>
<g>
	<path fill="#FFFFFF" d="M84.004,136.974c-18.301-1.507-51.227,11.108-65.414-4.194c-18.42-19.871,22.199-41.399,33.165-21.09
		c0.083-35.204,60.143-40.023,50.679-2.396c14.455-14.536,49.842-14.289,33.656,11.688
		C127.714,134.423,97.973,137.281,84.004,136.974"/>
</g>
<g>
	<path fill="#FFFFFF" d="M220.592,227.357c3.351,26.261-2.832,79.164-17.562,81.041c-14.731,1.879-32.434-47.977-35.783-74.236
		c-3.349-26.262,7.776-34.199,22.505-36.076C204.485,196.207,217.244,201.096,220.592,227.357z"/>
</g>
<g>
	<path fill="#FFFFFF" d="M192.488,199.17c-8.888-0.349-24.563,6.441-31.746-0.67c-9.329-9.234,9.883-20.498,15.612-10.897
		c-0.691-17.04,28.277-20.623,24.479-2.213c6.693-7.336,23.826-7.952,16.533,4.956C213.592,197.027,199.255,199.028,192.488,199.17"
		/>
</g>
<g>
	<path fill="#FFFFFF" d="M1294.199,236.511c-5.066,19.645-24.479,55.547-35.498,52.705c-11.019-2.843-9.474-43.355-4.406-62.999
		c5.068-19.644,15.24-22.137,26.258-19.294C1291.572,209.766,1299.269,216.866,1294.199,236.511z"/>
</g>
<g>
	<path fill="#FFFFFF" d="M1282.193,208.471c-6.229-2.771-19.312-2.385-22.408-9.485c-4.021-9.219,12.852-11.787,14.205-3.326
		c4.344-12.326,25.98-6.656,18.054,5.371c6.845-3.323,19.216,1.1,10.36,8.219C1297.823,212.934,1287.051,210.291,1282.193,208.471"
		/>
</g>
<g>
	<path fill="#FFFFFF" d="M839.232,217.542c10.487,29.769,16.537,92.978-0.159,98.86c-16.698,5.882-49.827-47.791-60.313-77.56
		c-10.484-29.77,0.494-41.809,17.191-47.689C812.65,185.271,828.749,187.771,839.232,217.542z"/>
</g>
<g>
	<path fill="#FFFFFF" d="M799.412,191.731c-10.448,1.821-27.013,13.663-37.17,7.175c-13.187-8.423,6.382-26.368,15.466-16.613
		c-5.076-19.688,27.79-31.123,27.977-8.715c5.961-10.228,25.777-15.24,20.51,1.634C823.473,183.945,807.265,189.87,799.412,191.731"
		/>
</g>
<g>
	<path fill="#FFFFFF" d="M1353.786,234.647c4.537,14.188,6.52,44.092-1.438,46.637c-7.959,2.544-22.848-23.234-27.384-37.423
		s0.81-19.717,8.768-22.261C1341.691,219.056,1349.251,220.458,1353.786,234.647z"/>
</g>
<g>
	<path fill="#FFFFFF" d="M1335.356,221.921c-4.954,0.715-12.933,6.073-17.635,2.873c-6.104-4.156,3.374-12.352,7.525-7.624
		c-2.122-9.358,13.54-14.3,13.319-3.726c2.953-4.743,12.37-6.834,9.652,1.054C1346.814,218.58,1339.086,221.151,1335.356,221.921"/>
</g>
<g>
	<path fill="#FFFFFF" d="M297.204,233.104c-5.066,19.645-24.479,55.547-35.498,52.705c-11.019-2.843-9.474-43.355-4.406-62.999
		c5.068-19.644,15.24-22.137,26.258-19.294C294.577,206.359,302.273,213.46,297.204,233.104z"/>
</g>
<g>
	<path fill="#FFFFFF" d="M285.198,205.065c-6.229-2.771-19.312-2.385-22.408-9.485c-4.021-9.219,12.852-11.787,14.205-3.326
		c4.344-12.326,25.98-6.656,18.054,5.371c6.845-3.323,19.216,1.1,10.36,8.219C300.828,209.528,290.056,206.884,285.198,205.065"/>
</g>
<g>
	<path fill="#FFFFFF" d="M356.791,231.241c4.537,14.188,6.52,44.092-1.438,46.637c-7.959,2.544-22.848-23.234-27.384-37.423
		s0.81-19.717,8.768-22.261C344.696,215.65,352.256,217.051,356.791,231.241z"/>
</g>
<g>
	<path fill="#FFFFFF" d="M338.361,218.515c-4.954,0.715-12.933,6.073-17.635,2.873c-6.104-4.156,3.374-12.352,7.525-7.624
		c-2.122-9.358,13.54-14.3,13.319-3.726c2.953-4.743,12.37-6.834,9.652,1.054C349.819,215.173,342.091,217.745,338.361,218.515"/>
</g>
</svg>
