<?xml version="1.0" encoding="utf-8"?>
<!-- Generator: Adobe Illustrator 15.1.0, SVG Export Plug-In . SVG Version: 6.00 Build 0)  -->
<!DOCTYPE svg PUBLIC "-//W3C//DTD SVG 1.1//EN" "http://www.w3.org/Graphics/SVG/1.1/DTD/svg11.dtd">
<svg version="1.1" id="Layer_1" xmlns="http://www.w3.org/2000/svg" xmlns:xlink="http://www.w3.org/1999/xlink" x="0px" y="0px"
	 width="1567px" height="450px" viewBox="0 0 1567 450" enable-background="new 0 0 1567 450" xml:space="preserve">
<rect x="-10.37" y="-8.398" fill="#F5F5FF" width="1585.421" height="467.976"/>
<g>
	<path fill="#FF9900" d="M566.178-246.925c-42.035,11.027-105.611,65.084-149.312,42.079
		c-56.751-29.862,16.992-109.864,57.438-73.152c-27.502-78.648,102.771-136.647,111.237-45.21
		c20.836-43.816,100.021-71.098,84.322-0.382C661.74-286.998,597.6-257.229,566.178-246.925"/>
</g>
<g>
	<path fill="#FFFFFF" d="M929.801,547.837c29.729,20.894,98.562,32.32,107.454,72.644c11.558,52.357-79.329,48.438-77.716,2.798
		c-35.382,60.009-142.727,8.116-88.904-46.64c-39.227,10.342-99.384-25.504-45.75-53.643
		C852.637,508.438,906.264,533.331,929.801,547.837"/>
</g>
<g>
	<path fill="#FFFFFF" d="M732.319,255.615c-38.36,45.406-135.259,115.486-160.73,93.968
		c-25.468-21.517,30.134-126.484,68.494-171.889c38.36-45.406,68.378-39.05,93.843-17.537
		C759.398,181.679,770.68,210.209,732.319,255.615z"/>
</g>
<g>
	<path fill="#FFFFFF" d="M736.288,166.333c-12.916-15.235-47.943-30.857-47.083-53.537c1.113-29.452,48.912-14.767,41.726,9.287
		c27.141-27.011,77.042,15.472,40.822,37.134c22.298-0.062,49.326,27.345,16.897,34.875
		C771.868,197.989,746.795,177.312,736.288,166.333"/>
</g>
<path fill="#FFFFFF" d="M1552.305-615.611c-48.944-53.933-178.531-106.555-178.188-189.32
	c0.425-107.476,176.443-59.84,153.211,28.71c95.587-101.79,282.689,46.897,153.35,130.307
	c81.263-2.971,183.144,93.587,65.881,125.026C1685.88-504.623,1591.955-576.892,1552.305-615.611"/>
<g>
	<path fill="#F5F5FF" d="M2455.498,764.908c86.323,159.271,177.727,512.088,88.376,560.514
		c-89.333,48.416-325.592-225.889-411.911-385.162c-86.322-159.271-34.969-237.428,54.354-285.836
		C2275.666,606,2369.175,605.635,2455.498,764.908z"/>
</g>
<g>
	<path fill="#F5F5FF" d="M2206.465,654.572c-57.574,19.755-140.789,101.85-204.212,74.236
		c-82.364-35.839,12.36-155.226,72.664-108.132c-46.562-107.014,129.407-201.521,150.702-74.67
		c24.568-63.36,132.354-109.672,117.747-9.264C2335.805,588.701,2249.291,636.926,2206.465,654.572"/>
</g>
<g>
	<path fill="#FFFFFF" d="M939.768,160.157c25.466-21.513,55.483-27.869,93.845,17.537c38.359,45.405,93.962,150.375,68.493,171.889
		c-25.472,21.521-122.37-48.562-160.729-93.968C903.015,210.209,914.296,181.679,939.768,160.157z"/>
</g>
<g>
	<path fill="#FFFFFF" d="M937.406,166.333c-10.508,10.979-35.58,31.656-52.361,27.759c-32.429-7.53-5.4-34.937,16.896-34.875
		c-36.22-21.662,13.683-64.146,40.821-37.134c-7.187-24.054,40.613-38.739,41.728-9.287
		C985.35,135.476,950.322,151.098,937.406,166.333"/>
</g>
<g>
	<path fill="#FFFFFF" d="M1312.927,289.843c-25.465,21.515-55.482,27.869-93.843-17.536
		c-38.361-45.404-93.963-150.374-68.494-171.89c25.471-21.52,122.369,48.561,160.729,93.968
		C1349.68,239.791,1338.398,268.321,1312.927,289.843z"/>
</g>
<g>
	<path fill="#FFFFFF" d="M1315.288,283.667c10.507-10.979,35.58-31.656,52.36-27.76c32.43,7.53,5.4,34.938-16.896,34.875
		c36.22,21.661-13.682,64.146-40.822,37.135c7.188,24.054-40.611,38.738-41.725,9.287
		C1267.345,314.523,1302.372,298.902,1315.288,283.667"/>
</g>
<g>
	<path fill="#FFFFFF" d="M1520.375,194.385c38.359-45.407,135.259-115.487,160.729-93.968
		c25.47,21.516-30.133,126.483-68.492,171.89c-38.36,45.405-68.379,39.051-93.845,17.536
		C1493.296,268.321,1482.015,239.791,1520.375,194.385z"/>
</g>
<g>
	<path fill="#FFFFFF" d="M1516.406,283.667c12.916,15.235,47.942,30.856,47.084,53.537c-1.113,29.451-48.913,14.767-41.728-9.287
		c-27.14,27.012-77.041-15.474-40.821-37.135c-22.298,0.062-49.325-27.345-16.896-34.875
		C1480.826,252.011,1505.899,272.688,1516.406,283.667"/>
</g>
<g>
	<path fill="#F5F5FF" d="M-422.191,255.615c-38.36,45.406-135.258,115.486-160.73,93.968
		c-25.468-21.517,30.134-126.484,68.494-171.889c38.36-45.406,68.378-39.05,93.843-17.537
		C-395.112,181.679-383.831,210.209-422.191,255.615z"/>
</g>
<g>
	<path fill="#F5F5FF" d="M-418.222,166.333c-12.916-15.235-47.943-30.857-47.083-53.537c1.113-29.452,48.912-14.767,41.726,9.287
		c27.14-27.011,77.042,15.472,40.822,37.134c22.298-0.062,49.326,27.345,16.897,34.875
		C-382.642,197.989-407.715,177.312-418.222,166.333"/>
</g>
<g>
	<path fill="#F5F5FF" d="M-214.743,160.157c25.465-21.513,55.483-27.869,93.844,17.537c38.36,45.405,93.962,150.375,68.493,171.889
		c-25.471,21.521-122.37-48.562-160.729-93.968C-251.496,210.209-240.214,181.679-214.743,160.157z"/>
</g>
<g>
	<path fill="#F5F5FF" d="M-217.104,166.333c-10.507,10.979-35.58,31.656-52.361,27.759c-32.429-7.53-5.4-34.937,16.897-34.875
		c-36.22-21.662,13.682-64.146,40.821-37.134c-7.187-24.054,40.613-38.739,41.727-9.287
		C-169.161,135.476-204.188,151.098-217.104,166.333"/>
</g>
<g>
	<path fill="#FFFFFF" d="M158.417,289.843c-25.465,21.515-55.483,27.869-93.843-17.536C26.212,226.9-29.389,121.933-3.92,100.417
		c25.471-21.52,122.369,48.561,160.729,93.968C195.169,239.791,183.888,268.321,158.417,289.843z"/>
</g>
<g>
	<path fill="#FFFFFF" d="M160.778,283.667c10.507-10.979,35.58-31.656,52.361-27.76c32.429,7.53,5.4,34.938-16.897,34.875
		c36.22,21.661-13.682,64.146-40.822,37.135c7.188,24.055-40.612,38.738-41.725,9.287
		C112.834,314.523,147.862,298.903,160.778,283.667"/>
</g>
<g>
	<path fill="#FFFFFF" d="M365.865,194.385c38.358-45.407,135.259-115.487,160.729-93.968
		c25.469,21.516-30.133,126.483-68.493,171.89c-38.359,45.405-68.379,39.051-93.844,17.536
		C338.786,268.321,327.504,239.791,365.865,194.385z"/>
</g>
<g>
	<path fill="#FFFFFF" d="M361.896,283.667c12.916,15.235,47.942,30.856,47.084,53.537c-1.113,29.451-48.913,14.768-41.728-9.287
		c-27.14,27.012-77.041-15.474-40.821-37.135c-22.298,0.062-49.326-27.345-16.896-34.875
		C326.316,252.011,351.389,272.688,361.896,283.667"/>
</g>
<g>
	<path fill-rule="evenodd" clip-rule="evenodd" fill="#FFFFFF" d="M261.843,89.811c0.191,0,0.381,0,0.572,0
		c4.779,0.422,7.773,2.715,11.456,4.868c14.187,8.296,28.444,16.346,42.816,24.773c2.426,1.423,5.213,2.568,7.017,4.153
		c2.138,1.877,3.472,4.735,4.153,7.733c0,21.575,0,43.15,0,64.725c-0.48,2.634-1.908,5.595-3.866,7.446
		c-1.806,1.708-4.512,2.889-7.017,4.296c-7.244,4.068-14.337,8.341-21.479,12.457c-8.414,4.851-16.592,9.562-25.059,14.464
		c-2.1,1.215-3.921,2.482-6.874,2.863c-0.954,0-1.909,0-2.863,0c-4.318-0.718-6.934-2.994-10.454-5.012
		c-15.214-8.719-30.659-17.707-45.966-26.491c-1.217-0.699-2.504-1.216-3.437-2.005c-2.443-2.067-3.865-5.072-4.439-8.735
		c0-21.098,0-42.195,0-63.293c0.327-2.99,2.051-6.603,4.153-8.449c1.868-1.641,4.675-2.716,7.16-4.153
		c7.401-4.278,14.198-8.243,21.479-12.458c6.996-4.05,14.469-8.341,21.479-12.458C254.32,92.395,257.193,90.176,261.843,89.811z
		 M284.468,126.04c-6.515-3.81-14.541-6.775-25.06-6.158c-16.768,0.985-29.533,11.205-35.799,22.625
		c-3.712,6.766-5.61,14.61-5.298,23.628c0.305,8.818,3.334,15.863,7.303,21.766c3.817,5.677,8.959,10.384,15.036,13.891
		c6.42,3.705,14.053,6.074,23.198,5.584c18.067-0.967,28.744-9.95,36.229-21.766c-6.284-3.645-12.519-7.338-18.902-10.883
		c-4.293,6.747-12.966,12.983-24.2,10.31c-4.353-1.036-8.32-3.472-11.169-6.73c-2.767-3.163-5.088-7.602-5.442-12.458
		c-0.636-8.735,2.659-14.335,7.446-18.473c4.074-3.521,9.271-5.985,16.325-5.441c8.164,0.628,13.544,5.662,17.041,10.883
		c5.396-3.292,11.188-6.481,16.61-9.594c0.794-0.457,1.642-0.941,2.292-1.576C296.274,135.13,291.109,129.923,284.468,126.04z
		 M296.21,161.266c-1.623,0-3.246,0-4.869,0c0,1.623,0,3.246,0,4.869c1.576,0.095,3.532-0.19,4.869,0.143c0,1.576,0,3.15,0,4.726
		c1.623,0,3.246,0,4.869,0c0-1.622,0-3.246,0-4.868c1.623,0,3.246,0,4.869,0c0-1.623,0-3.246,0-4.869c-1.623,0-3.246,0-4.869,0
		c0-1.623,0-3.246,0-4.868c-1.623,0-3.246,0-4.869,0C296.21,158.02,296.21,159.643,296.21,161.266z M314.396,161.266
		c-1.623,0-3.246,0-4.869,0c0,1.623,0,3.246,0,4.869c1.576,0.095,3.532-0.19,4.869,0.143c0,1.576,0,3.15,0,4.726
		c1.671,0,3.342,0,5.012,0c0-1.622,0-3.246,0-4.868c1.623,0,3.246,0,4.869,0c0-1.623,0-3.246,0-4.869c-1.623,0-3.246,0-4.869,0
		c0-1.623,0-3.246,0-4.868c-1.67,0-3.341,0-5.012,0C314.396,158.02,314.396,159.643,314.396,161.266z"/>
	<g>
	</g>
</g>
<g>
	<path fill-rule="evenodd" clip-rule="evenodd" fill="#FFFFFF" d="M1418.312,89.811c0.19,0,0.382,0,0.572,0
		c4.779,0.423,7.773,2.715,11.456,4.869c14.187,8.295,28.443,16.346,42.816,24.773c2.426,1.422,5.213,2.568,7.016,4.152
		c2.139,1.877,3.473,4.734,4.153,7.732c0,21.575,0,43.15,0,64.726c-0.479,2.634-1.908,5.595-3.866,7.446
		c-1.807,1.707-4.512,2.889-7.018,4.297c-7.243,4.067-14.337,8.341-21.479,12.457c-8.414,4.85-16.593,9.562-25.06,14.462
		c-2.101,1.215-3.921,2.482-6.874,2.863c-0.954,0-1.909,0-2.863,0c-4.318-0.717-6.934-2.994-10.453-5.012
		c-15.215-8.718-30.659-17.707-45.967-26.49c-1.217-0.699-2.505-1.217-3.437-2.006c-2.443-2.066-3.865-5.071-4.439-8.734
		c0-21.098,0-42.195,0-63.293c0.326-2.99,2.051-6.604,4.152-8.449c1.869-1.641,4.676-2.717,7.16-4.152
		c7.401-4.279,14.198-8.244,21.479-12.459c6.996-4.049,14.469-8.341,21.479-12.457C1410.79,92.395,1413.663,90.176,1418.312,89.811z
		 M1440.938,126.041c-6.515-3.81-14.54-6.774-25.06-6.157c-16.768,0.984-29.533,11.205-35.799,22.625
		c-3.712,6.766-5.61,14.609-5.299,23.627c0.305,8.818,3.334,15.863,7.303,21.766c3.818,5.678,8.96,10.385,15.036,13.891
		c6.42,3.705,14.053,6.074,23.198,5.584c18.066-0.967,28.743-9.949,36.229-21.766c-6.284-3.645-12.52-7.338-18.902-10.883
		c-4.293,6.748-12.966,12.983-24.199,10.311c-4.354-1.035-8.32-3.472-11.17-6.73c-2.768-3.162-5.088-7.602-5.441-12.457
		c-0.637-8.735,2.658-14.336,7.445-18.473c4.074-3.521,9.271-5.986,16.325-5.441c8.164,0.628,13.544,5.662,17.04,10.883
		c5.396-3.292,11.188-6.482,16.611-9.594c0.794-0.457,1.641-0.941,2.291-1.576C1452.743,135.131,1447.579,129.924,1440.938,126.041z
		 M1452.68,161.266c-1.623,0-3.246,0-4.869,0c0,1.623,0,3.246,0,4.869c1.576,0.096,3.532-0.189,4.869,0.143c0,1.576,0,3.15,0,4.727
		c1.623,0,3.245,0,4.868,0c0-1.623,0-3.246,0-4.869c1.623,0,3.246,0,4.869,0c0-1.623,0-3.246,0-4.869c-1.623,0-3.246,0-4.869,0
		c0-1.622,0-3.246,0-4.867c-1.623,0-3.245,0-4.868,0C1452.68,158.02,1452.68,159.644,1452.68,161.266z M1470.865,161.266
		c-1.622,0-3.245,0-4.868,0c0,1.623,0,3.246,0,4.869c1.576,0.096,3.531-0.189,4.868,0.143c0,1.576,0,3.15,0,4.727
		c1.671,0,3.342,0,5.013,0c0-1.623,0-3.246,0-4.869c1.623,0,3.246,0,4.868,0c0-1.623,0-3.246,0-4.869c-1.622,0-3.245,0-4.868,0
		c0-1.622,0-3.246,0-4.867c-1.671,0-3.342,0-5.013,0C1470.865,158.02,1470.865,159.644,1470.865,161.266z"/>
	<g>
	</g>
</g>
<g>
	<path fill-rule="evenodd" clip-rule="evenodd" fill="#FFFFFF" d="M836.342,211.941c0.19,0,0.382,0,0.572,0
		c4.779,0.423,7.773,2.715,11.456,4.869c14.187,8.295,28.443,16.346,42.816,24.773c2.426,1.422,5.213,2.568,7.016,4.152
		c2.139,1.877,3.473,4.734,4.153,7.732c0,21.575,0,43.15,0,64.726c-0.479,2.634-1.908,5.595-3.866,7.446
		c-1.807,1.707-4.512,2.889-7.018,4.297c-7.243,4.067-14.337,8.341-21.479,12.457c-8.414,4.85-16.593,9.562-25.06,14.463
		c-2.101,1.215-3.921,2.482-6.874,2.863c-0.954,0-1.909,0-2.863,0c-4.318-0.717-6.934-2.994-10.453-5.012
		c-15.215-8.719-30.659-17.707-45.967-26.49c-1.217-0.699-2.504-1.217-3.437-2.006c-2.443-2.066-3.865-5.071-4.439-8.734
		c0-21.098,0-42.195,0-63.293c0.327-2.99,2.051-6.604,4.153-8.449c1.868-1.641,4.675-2.717,7.16-4.152
		c7.401-4.279,14.198-8.244,21.479-12.459c6.996-4.049,14.469-8.341,21.479-12.457C828.819,214.525,831.692,212.307,836.342,211.941
		z M858.967,248.171c-6.515-3.81-14.54-6.774-25.06-6.157c-16.768,0.984-29.533,11.205-35.799,22.625
		c-3.712,6.766-5.61,14.609-5.299,23.627c0.305,8.818,3.334,15.863,7.303,21.766c3.818,5.678,8.96,10.385,15.036,13.891
		c6.42,3.705,14.053,6.074,23.198,5.584c18.066-0.967,28.743-9.949,36.229-21.766c-6.284-3.645-12.52-7.338-18.902-10.883
		c-4.293,6.748-12.966,12.983-24.199,10.311c-4.354-1.035-8.32-3.472-11.17-6.73c-2.768-3.162-5.088-7.602-5.441-12.457
		c-0.637-8.735,2.658-14.336,7.445-18.473c4.074-3.521,9.271-5.986,16.325-5.441c8.164,0.628,13.544,5.662,17.04,10.883
		c5.396-3.292,11.188-6.482,16.611-9.594c0.794-0.457,1.641-0.941,2.291-1.576C870.772,257.262,865.608,252.055,858.967,248.171z
		 M870.709,283.396c-1.623,0-3.246,0-4.869,0c0,1.623,0,3.246,0,4.869c1.576,0.096,3.532-0.189,4.869,0.143c0,1.576,0,3.15,0,4.727
		c1.623,0,3.245,0,4.868,0c0-1.623,0-3.246,0-4.869c1.623,0,3.246,0,4.869,0c0-1.623,0-3.246,0-4.869c-1.623,0-3.246,0-4.869,0
		c0-1.622,0-3.246,0-4.867c-1.623,0-3.245,0-4.868,0C870.709,280.15,870.709,281.774,870.709,283.396z M888.895,283.396
		c-1.622,0-3.245,0-4.868,0c0,1.623,0,3.246,0,4.869c1.576,0.096,3.531-0.189,4.868,0.143c0,1.576,0,3.15,0,4.727
		c1.671,0,3.342,0,5.013,0c0-1.623,0-3.246,0-4.869c1.623,0,3.246,0,4.868,0c0-1.623,0-3.246,0-4.869c-1.622,0-3.245,0-4.868,0
		c0-1.622,0-3.246,0-4.867c-1.671,0-3.342,0-5.013,0C888.895,280.15,888.895,281.774,888.895,283.396z"/>
	<g>
	</g>
</g>
<g>
	<path fill-rule="evenodd" clip-rule="evenodd" fill="#FFFFFF" d="M1130.093,194.574c0.095,0,0.189,0,0.284,0
		c2.372,0.21,3.858,1.348,5.687,2.417c7.042,4.118,14.12,8.114,21.255,12.298c1.204,0.706,2.587,1.275,3.482,2.062
		c1.062,0.932,1.724,2.35,2.062,3.838c0,10.711,0,21.421,0,32.131c-0.238,1.307-0.947,2.777-1.919,3.696
		c-0.897,0.847-2.24,1.434-3.483,2.133c-3.596,2.019-7.117,4.141-10.662,6.184c-4.177,2.407-8.237,4.746-12.44,7.18
		c-1.042,0.603-1.946,1.232-3.412,1.421c-0.474,0-0.947,0-1.421,0c-2.144-0.355-3.442-1.486-5.189-2.487
		c-7.553-4.328-15.22-8.79-22.817-13.15c-0.604-0.347-1.244-0.604-1.707-0.995c-1.213-1.026-1.918-2.518-2.203-4.336
		c0-10.473,0-20.946,0-31.419c0.162-1.484,1.018-3.278,2.062-4.194c0.927-0.814,2.321-1.349,3.554-2.062
		c3.674-2.124,7.049-4.092,10.663-6.185c3.473-2.01,7.183-4.141,10.662-6.184C1126.358,195.857,1127.785,194.756,1130.093,194.574z
		 M1141.324,212.56c-3.234-1.892-7.218-3.363-12.439-3.057c-8.324,0.488-14.661,5.562-17.771,11.23
		c-1.842,3.359-2.785,7.252-2.63,11.729c0.151,4.378,1.655,7.875,3.625,10.805c1.896,2.818,4.448,5.155,7.464,6.896
		c3.188,1.839,6.976,3.016,11.516,2.772c8.969-0.48,14.269-4.939,17.984-10.805c-3.12-1.81-6.215-3.643-9.384-5.402
		c-2.131,3.35-6.436,6.445-12.013,5.118c-2.16-0.515-4.13-1.724-5.545-3.341c-1.373-1.57-2.525-3.773-2.701-6.184
		c-0.315-4.337,1.32-7.117,3.696-9.17c2.022-1.749,4.603-2.973,8.104-2.701c4.053,0.312,6.723,2.811,8.458,5.401
		c2.679-1.634,5.554-3.218,8.246-4.762c0.395-0.228,0.814-0.468,1.138-0.782C1147.185,217.071,1144.621,214.487,1141.324,212.56z
		 M1147.152,230.045c-0.805,0-1.611,0-2.417,0c0,0.806,0,1.611,0,2.417c0.783,0.048,1.754-0.094,2.417,0.071
		c0,0.782,0,1.563,0,2.347c0.807,0,1.611,0,2.417,0c0-0.807,0-1.612,0-2.418c0.806,0,1.611,0,2.417,0c0-0.806,0-1.611,0-2.417
		c-0.806,0-1.611,0-2.417,0c0-0.805,0-1.611,0-2.416c-0.806,0-1.61,0-2.417,0C1147.152,228.434,1147.152,229.24,1147.152,230.045z
		 M1156.181,230.045c-0.806,0-1.611,0-2.417,0c0,0.806,0,1.611,0,2.417c0.782,0.048,1.753-0.094,2.417,0.071
		c0,0.782,0,1.563,0,2.347c0.829,0,1.658,0,2.488,0c0-0.807,0-1.612,0-2.418c0.806,0,1.611,0,2.416,0c0-0.806,0-1.611,0-2.417
		c-0.805,0-1.61,0-2.416,0c0-0.805,0-1.611,0-2.416c-0.83,0-1.659,0-2.488,0C1156.181,228.434,1156.181,229.24,1156.181,230.045z"/>
	<g>
	</g>
</g>
<g>
	<path fill-rule="evenodd" clip-rule="evenodd" fill="#FFFFFF" d="M550.375,194.574c0.095,0,0.189,0,0.284,0
		c2.372,0.21,3.858,1.348,5.687,2.417c7.042,4.118,14.12,8.114,21.255,12.298c1.204,0.706,2.587,1.275,3.482,2.062
		c1.062,0.932,1.724,2.35,2.062,3.838c0,10.711,0,21.421,0,32.131c-0.238,1.307-0.947,2.777-1.919,3.696
		c-0.897,0.847-2.24,1.434-3.483,2.133c-3.596,2.019-7.117,4.141-10.662,6.184c-4.177,2.407-8.237,4.746-12.44,7.18
		c-1.042,0.603-1.946,1.232-3.412,1.421c-0.474,0-0.947,0-1.421,0c-2.144-0.355-3.442-1.486-5.189-2.487
		c-7.553-4.328-15.22-8.79-22.817-13.15c-0.604-0.347-1.244-0.604-1.707-0.995c-1.213-1.026-1.918-2.518-2.203-4.336
		c0-10.473,0-20.946,0-31.419c0.162-1.484,1.018-3.278,2.062-4.194c0.927-0.814,2.321-1.349,3.554-2.062
		c3.674-2.124,7.049-4.092,10.663-6.185c3.473-2.01,7.183-4.141,10.662-6.184C546.641,195.857,548.067,194.756,550.375,194.574z
		 M561.606,212.56c-3.234-1.892-7.218-3.363-12.439-3.057c-8.324,0.488-14.661,5.562-17.771,11.23
		c-1.842,3.359-2.785,7.252-2.63,11.729c0.151,4.378,1.655,7.875,3.625,10.805c1.896,2.818,4.448,5.155,7.464,6.896
		c3.188,1.839,6.976,3.016,11.516,2.772c8.969-0.48,14.269-4.939,17.984-10.805c-3.12-1.81-6.215-3.643-9.384-5.402
		c-2.131,3.35-6.436,6.445-12.013,5.118c-2.16-0.515-4.13-1.724-5.545-3.341c-1.373-1.57-2.525-3.773-2.701-6.184
		c-0.315-4.337,1.32-7.117,3.696-9.17c2.022-1.749,4.603-2.973,8.104-2.701c4.053,0.312,6.723,2.811,8.458,5.401
		c2.679-1.634,5.554-3.218,8.246-4.762c0.395-0.228,0.814-0.468,1.138-0.782C567.467,217.071,564.903,214.487,561.606,212.56z
		 M567.435,230.045c-0.805,0-1.611,0-2.417,0c0,0.806,0,1.611,0,2.417c0.783,0.048,1.754-0.094,2.417,0.071c0,0.782,0,1.563,0,2.347
		c0.807,0,1.611,0,2.417,0c0-0.807,0-1.612,0-2.418c0.806,0,1.611,0,2.417,0c0-0.806,0-1.611,0-2.417c-0.806,0-1.611,0-2.417,0
		c0-0.805,0-1.611,0-2.416c-0.806,0-1.61,0-2.417,0C567.435,228.434,567.435,229.24,567.435,230.045z M576.463,230.045
		c-0.806,0-1.611,0-2.417,0c0,0.806,0,1.611,0,2.417c0.782,0.048,1.753-0.094,2.417,0.071c0,0.782,0,1.563,0,2.347
		c0.829,0,1.658,0,2.488,0c0-0.807,0-1.612,0-2.418c0.806,0,1.611,0,2.416,0c0-0.806,0-1.611,0-2.417c-0.805,0-1.61,0-2.416,0
		c0-0.805,0-1.611,0-2.416c-0.83,0-1.659,0-2.488,0C576.463,228.434,576.463,229.24,576.463,230.045z"/>
	<g>
	</g>
</g>
<g>
	<path fill-rule="evenodd" clip-rule="evenodd" fill="#FFFFFF" d="M-13.471,211.941c0.095,0,0.189,0,0.284,0
		c2.372,0.21,3.858,1.348,5.687,2.417c7.042,4.118,14.12,8.114,21.255,12.298c1.204,0.706,2.587,1.275,3.482,2.062
		c1.062,0.932,1.724,2.35,2.062,3.838c0,10.711,0,21.421,0,32.131c-0.238,1.307-0.947,2.777-1.919,3.696
		c-0.897,0.847-2.24,1.434-3.483,2.133c-3.596,2.019-7.117,4.141-10.662,6.184c-4.177,2.407-8.237,4.746-12.44,7.18
		c-1.042,0.603-1.946,1.232-3.412,1.421c-0.474,0-0.947,0-1.421,0c-2.144-0.355-3.442-1.486-5.189-2.487
		c-7.553-4.328-15.22-8.79-22.817-13.15c-0.604-0.347-1.244-0.604-1.707-0.995c-1.213-1.026-1.918-2.518-2.203-4.336
		c0-10.473,0-20.946,0-31.419c0.162-1.484,1.018-3.278,2.062-4.194c0.927-0.814,2.321-1.349,3.554-2.062
		c3.674-2.124,7.049-4.092,10.663-6.185c3.473-2.01,7.183-4.141,10.662-6.184C-17.205,213.225-15.778,212.123-13.471,211.941z
		 M-2.239,229.927c-3.234-1.892-7.218-3.363-12.439-3.057c-8.324,0.488-14.661,5.562-17.771,11.23
		c-1.842,3.359-2.785,7.252-2.63,11.729c0.151,4.378,1.655,7.875,3.625,10.805c1.896,2.818,4.448,5.155,7.464,6.896
		c3.188,1.839,6.976,3.016,11.516,2.772c8.969-0.48,14.269-4.939,17.984-10.805c-3.12-1.81-6.215-3.643-9.384-5.402
		c-2.131,3.35-6.436,6.445-12.013,5.118c-2.16-0.515-4.13-1.724-5.545-3.341c-1.373-1.57-2.525-3.773-2.701-6.184
		c-0.315-4.337,1.32-7.117,3.696-9.17c2.022-1.749,4.603-2.973,8.104-2.701c4.053,0.312,6.723,2.811,8.458,5.401
		c2.679-1.634,5.554-3.218,8.246-4.762c0.395-0.228,0.814-0.468,1.138-0.782C3.621,234.438,1.058,231.854-2.239,229.927z
		 M3.589,247.412c-0.805,0-1.611,0-2.417,0c0,0.806,0,1.611,0,2.417c0.783,0.048,1.754-0.094,2.417,0.071c0,0.782,0,1.563,0,2.347
		c0.807,0,1.611,0,2.417,0c0-0.807,0-1.612,0-2.418c0.806,0,1.611,0,2.417,0c0-0.806,0-1.611,0-2.417c-0.806,0-1.611,0-2.417,0
		c0-0.805,0-1.611,0-2.416c-0.806,0-1.61,0-2.417,0C3.589,245.801,3.589,246.607,3.589,247.412z M12.617,247.412
		c-0.806,0-1.611,0-2.417,0c0,0.806,0,1.611,0,2.417c0.782,0.048,1.753-0.094,2.417,0.071c0,0.782,0,1.563,0,2.347
		c0.829,0,1.658,0,2.488,0c0-0.807,0-1.612,0-2.418c0.806,0,1.611,0,2.416,0c0-0.806,0-1.611,0-2.417c-0.805,0-1.61,0-2.416,0
		c0-0.805,0-1.611,0-2.416c-0.83,0-1.659,0-2.488,0C12.617,245.801,12.617,246.607,12.617,247.412z"/>
	<g>
	</g>
</g>
</svg>
