<?xml version="1.0" encoding="utf-8"?>
<!-- Generator: Adobe Illustrator 15.1.0, SVG Export Plug-In . SVG Version: 6.00 Build 0)  -->
<!DOCTYPE svg PUBLIC "-//W3C//DTD SVG 1.1//EN" "http://www.w3.org/Graphics/SVG/1.1/DTD/svg11.dtd">
<svg version="1.1" id="Layer_1" xmlns="http://www.w3.org/2000/svg" xmlns:xlink="http://www.w3.org/1999/xlink" x="0px" y="0px"
	 width="1567px" height="450px" viewBox="0 0 1567 450" enable-background="new 0 0 1567 450" xml:space="preserve">
<rect x="-10.37" y="-8.398" fill="#FFFFFF" width="1585.421" height="467.976"/>
<g>
	<path fill="#FF9900" d="M566.178-246.925c-42.035,11.027-105.611,65.084-149.312,42.079
		c-56.751-29.862,16.992-109.864,57.438-73.152c-27.502-78.648,102.771-136.647,111.237-45.21
		c20.836-43.816,100.021-71.098,84.322-0.382C661.74-286.998,597.6-257.229,566.178-246.925"/>
</g>
<g>
	<path fill="#FFFFFF" d="M929.801,547.837c29.729,20.894,98.562,32.32,107.454,72.644c11.558,52.357-79.329,48.438-77.716,2.798
		c-35.382,60.009-142.727,8.116-88.904-46.64c-39.227,10.342-99.384-25.504-45.75-53.643
		C852.637,508.438,906.264,533.331,929.801,547.837"/>
</g>
<path fill="#FFFFFF" d="M1552.305-615.611c-48.944-53.933-178.531-106.555-178.188-189.32
	c0.425-107.476,176.443-59.84,153.211,28.71c95.587-101.79,282.689,46.897,153.35,130.307
	c81.263-2.971,183.144,93.587,65.881,125.026C1685.88-504.623,1591.955-576.892,1552.305-615.611"/>
<g>
	<path fill="#F5F5FF" d="M2455.498,764.908c86.323,159.271,177.727,512.088,88.376,560.514
		c-89.333,48.416-325.592-225.889-411.911-385.162c-86.322-159.271-34.969-237.428,54.354-285.836
		C2275.666,606,2369.175,605.635,2455.498,764.908z"/>
</g>
<g>
	<path fill="#F5F5FF" d="M2206.465,654.572c-57.574,19.755-140.789,101.85-204.212,74.236
		c-82.364-35.839,12.36-155.226,72.664-108.132c-46.562-107.014,129.407-201.521,150.702-74.67
		c24.568-63.36,132.354-109.672,117.747-9.264C2335.805,588.701,2249.291,636.926,2206.465,654.572"/>
</g>
<g>
	<path fill="#F5F5FF" d="M-422.191,255.615c-38.36,45.406-135.258,115.486-160.73,93.968
		c-25.468-21.517,30.134-126.484,68.494-171.889c38.36-45.406,68.378-39.05,93.843-17.537
		C-395.112,181.679-383.831,210.209-422.191,255.615z"/>
</g>
<g>
	<path fill="#F5F5FF" d="M-179.636,171.558c-10.627-12.535-39.447-25.389-38.739-44.05c0.916-24.232,40.244-12.149,34.332,7.642
		c22.331-22.224,63.389,12.73,33.588,30.553c18.346-0.051,40.584,22.5,13.903,28.695
		C-150.361,197.604-170.991,180.591-179.636,171.558"/>
</g>
<g>
	<path fill="#F5F5FF" d="M466.561,196.03c3.859,45.871-10.827,137.31-36.559,139.474c-25.73,2.166-52.763-85.764-56.621-131.636
		c-3.858-45.871,16.06-58.829,41.787-60.992C440.901,140.713,462.703,150.158,466.561,196.03z"/>
</g>
<g>
	<path fill="#F5F5FF" d="M419.842,144.964c-15.416-1.27-43.151,9.356-55.101-3.533c-15.518-16.739,18.698-34.873,27.936-17.765
		c0.07-29.654,50.662-33.715,42.689-2.019c12.177-12.244,41.985-12.037,28.351,9.845
		C456.662,142.815,431.609,145.224,419.842,144.964"/>
</g>
<g>
	<path fill="#F5F5FF" d="M583.515,250.612c-7.874,36.556-40.96,104.121-61.465,99.702c-20.504-4.416-20.666-79.142-12.791-115.699
		c7.875-36.554,26.423-41.901,46.925-37.484C576.69,201.551,591.391,214.058,583.515,250.612z"/>
</g>
<g>
	<path fill="#F5F5FF" d="M559.32,199.862c-11.677-4.64-35.745-2.958-41.975-15.806c-8.089-16.684,22.794-22.663,25.917-7.182
		c7.083-23.023,47.354-14.188,33.647,8.551c12.363-6.628,35.474,0.599,19.694,14.369
		C588.438,206.921,568.401,202.853,559.32,199.862"/>
</g>
<g>
	<path fill="#F5F5FF" d="M730.386,184.815c15.005,53.255,18.506,164.51-11.367,172.925c-29.871,8.417-81.806-89.191-96.81-142.445
		c-15.004-53.253,5.55-73.084,35.417-81.499C687.502,125.381,715.381,131.561,730.386,184.815z"/>
</g>
<g>
	<path fill="#F5F5FF" d="M663.618,135.196c-18.481,2.015-48.791,20.873-65.831,8.384c-22.126-16.218,14.121-45.413,28.92-27.33
		c-6.673-35.011,52.105-51.329,49.919-12.108c11.58-17.224,46.805-23.771,35.699,5.16
		C706.58,124.272,677.562,132.822,663.618,135.196"/>
</g>
<g>
	<path fill="#F5F5FF" d="M991.416,223.598c-12.844,44.204-59.337,124.301-84.134,117.095c-24.794-7.204-18.506-98.979-5.663-143.186
		c12.845-44.204,36.086-49.161,60.877-41.956C987.295,162.758,1004.261,179.392,991.416,223.598z"/>
</g>
<g>
	<path fill="#F5F5FF" d="M966.111,159.177c-13.936-6.712-43.638-6.736-50.172-23.054c-8.485-21.189,29.958-25.85,32.448-6.567
		c10.698-27.658,59.381-13.311,40.575,13.42c15.757-7.064,43.51,3.815,22.938,19.355
		C1001.252,170.372,977.002,163.637,966.111,159.177"/>
</g>
<g>
	<path fill="#F5F5FF" d="M1133.475,196.449c4.58,54.455-12.855,163.007-43.4,165.575c-30.547,2.57-62.639-101.813-67.219-156.271
		c-4.58-54.454,19.066-69.838,49.607-72.405C1103.012,130.78,1128.893,141.993,1133.475,196.449z"/>
</g>
<g>
	<path fill="#F5F5FF" d="M1078.012,135.828c-18.301-1.506-51.227,11.108-65.412-4.194c-18.422-19.871,22.197-41.399,33.162-21.09
		c0.084-35.203,60.145-40.023,50.68-2.396c14.455-14.537,49.842-14.29,33.656,11.688
		C1121.721,133.276,1091.98,136.135,1078.012,135.828"/>
</g>
<g>
	<path fill="#F5F5FF" d="M1215.324,226.873c3.351,26.26-2.832,79.162-17.562,81.041c-14.731,1.879-32.435-47.977-35.783-74.238
		c-3.349-26.261,7.776-34.198,22.505-36.075C1199.217,195.722,1211.977,200.61,1215.324,226.873z"/>
</g>
<g>
	<path fill="#F5F5FF" d="M1187.221,198.685c-8.889-0.349-24.562,6.441-31.746-0.67c-9.328-9.234,9.883-20.498,15.612-10.897
		c-0.691-17.04,28.276-20.622,24.479-2.213c6.693-7.336,23.825-7.952,16.532,4.956
		C1208.324,196.542,1193.988,198.543,1187.221,198.685"/>
</g>
<g>
	<path fill="#F5F5FF" d="M1479.358,206.41c3.86,45.871-10.827,137.311-36.558,139.475c-25.73,2.165-52.764-85.765-56.622-131.637
		c-3.858-45.87,16.061-58.829,41.787-60.992C1453.699,151.093,1475.5,160.539,1479.358,206.41z"/>
</g>
<g>
	<path fill="#F5F5FF" d="M1432.64,155.345c-15.415-1.27-43.151,9.356-55.101-3.533c-15.518-16.738,18.698-34.873,27.937-17.765
		c0.07-29.654,50.662-33.715,42.689-2.019c12.177-12.244,41.984-12.038,28.351,9.845
		C1469.46,153.196,1444.406,155.604,1432.64,155.345"/>
</g>
<g>
	<path fill="#F5F5FF" d="M1596.313,260.993c-7.874,36.555-40.96,104.121-61.466,99.702c-20.504-4.416-20.666-79.143-12.791-115.699
		c7.875-36.555,26.424-41.902,46.925-37.485C1589.488,211.932,1604.189,224.438,1596.313,260.993z"/>
</g>
<g>
	<path fill="#F5F5FF" d="M1572.118,210.243c-11.677-4.641-35.744-2.959-41.975-15.807c-8.089-16.683,22.794-22.663,25.917-7.181
		c7.083-23.024,47.354-14.188,33.647,8.551c12.362-6.628,35.474,0.599,19.693,14.369
		C1601.235,217.301,1581.199,213.232,1572.118,210.243"/>
</g>
<g>
	<path fill="#F5F5FF" d="M1743.184,195.195c15.005,53.255,18.506,164.51-11.367,172.926c-29.871,8.416-81.805-89.191-96.81-142.446
		c-15.004-53.252,5.551-73.084,35.417-81.498C1700.3,135.762,1728.179,141.941,1743.184,195.195z"/>
</g>
<g>
	<path fill="#F5F5FF" d="M1676.416,145.577c-18.481,2.015-48.791,20.873-65.831,8.384c-22.126-16.218,14.122-45.413,28.921-27.33
		c-6.673-35.011,52.105-51.329,49.919-12.108c11.58-17.224,46.805-23.771,35.699,5.16
		C1719.378,134.653,1690.36,143.202,1676.416,145.577"/>
</g>
<g>
	<path fill="#F5F5FF" d="M2235.993,242.197c-15.609,53.726-72.117,151.073-102.254,142.315
		c-30.135-8.756-22.492-120.297-6.883-174.025c15.611-53.725,43.857-59.749,73.988-50.992
		C2230.985,168.254,2251.604,188.47,2235.993,242.197z"/>
</g>
<g>
	<path fill="#F5F5FF" d="M2205.239,163.901c-16.938-8.157-53.037-8.187-60.979-28.019c-10.312-25.753,36.41-31.418,39.438-7.982
		c13.002-33.615,72.17-16.178,49.314,16.311c19.15-8.586,52.881,4.638,27.877,23.524
		C2247.948,177.508,2218.476,169.322,2205.239,163.901"/>
</g>
<g>
	<path fill="#F5F5FF" d="M2411.099,204.589c5.916,70.337-16.604,210.546-56.057,213.863
		c-39.455,3.319-80.906-131.506-86.822-201.845c-5.916-70.335,24.627-90.205,64.074-93.521
		C2371.753,119.769,2405.181,134.252,2411.099,204.589z"/>
</g>
<g>
	<path fill="#F5F5FF" d="M2339.462,126.288c-23.639-1.946-66.166,14.348-84.49-5.417c-23.793-25.666,28.672-53.473,42.836-27.24
		c0.107-45.47,77.684-51.696,65.459-3.095c18.67-18.775,64.377-18.457,43.471,15.096
		C2395.919,122.993,2357.505,126.686,2339.462,126.288"/>
</g>
<g>
	<path fill="#F5F5FF" d="M2508.128,246.179c4.072,31.916-3.441,96.213-21.344,98.496c-17.904,2.283-39.42-58.31-43.49-90.228
		s9.451-41.564,27.352-43.846C2488.552,208.317,2504.06,214.26,2508.128,246.179z"/>
</g>
<g>
	<path fill="#F5F5FF" d="M2473.972,211.919c-10.803-0.424-29.854,7.829-38.584-0.814c-11.338-11.224,12.012-24.913,18.975-13.244
		c-0.84-20.71,34.367-25.064,29.752-2.689c8.135-8.916,28.957-9.665,20.094,6.023
		C2499.62,209.314,2482.196,211.747,2473.972,211.919"/>
</g>
<g>
	<path fill="#F5F5FF" d="M-841.827,196.666c4.691,55.751-13.159,166.885-44.433,169.515
		c-31.271,2.632-64.127-104.236-68.816-159.988c-4.689-55.75,19.52-71.5,50.787-74.129
		C-873.013,129.435-846.516,140.914-841.827,196.666z"/>
</g>
<g>
	<path fill="#F5F5FF" d="M-898.607,134.602c-18.736-1.543-52.445,11.372-66.969-4.294c-18.86-20.344,22.726-42.384,33.953-21.591
		c0.085-36.041,61.574-40.977,51.884-2.453c14.799-14.882,51.028-14.631,34.457,11.965
		C-853.857,131.99-884.307,134.917-898.607,134.602"/>
</g>
<g>
	<path fill="#F5F5FF" d="M-699.682,263.005c-9.57,44.429-49.782,126.547-74.704,121.177c-24.921-5.367-25.117-96.188-15.546-140.619
		c9.571-44.428,32.114-50.927,57.031-45.559C-707.977,203.376-690.11,218.576-699.682,263.005z"/>
</g>
<g>
	<path fill="#F5F5FF" d="M-729.088,201.324c-14.192-5.64-43.444-3.596-51.015-19.211c-9.832-20.276,27.704-27.544,31.499-8.728
		c8.609-27.982,57.554-17.243,40.895,10.393c15.025-8.056,43.115,0.728,23.936,17.464
		C-693.7,209.902-718.051,204.958-729.088,201.324"/>
</g>
<g>
	<path fill="#F5F5FF" d="M-521.178,183.036c18.236,64.725,22.491,199.942-13.815,210.17
		c-36.305,10.229-99.425-108.401-117.661-173.126c-18.235-64.723,6.746-88.825,43.046-99.052
		C-573.298,110.801-539.415,118.312-521.178,183.036z"/>
</g>
<g>
	<path fill="#F5F5FF" d="M-602.327,122.73c-22.462,2.448-59.3,25.368-80.009,10.189c-26.892-19.711,17.163-55.194,35.149-33.216
		c-8.11-42.552,63.329-62.385,60.67-14.716c14.074-20.934,56.886-28.891,43.389,6.271
		C-550.112,109.453-585.378,119.844-602.327,122.73"/>
</g>
<g>
	<path fill="#F5F5FF" d="M-3.317,224.082C-16.16,268.287-62.654,348.384-87.45,341.178c-24.794-7.204-18.506-98.979-5.663-143.186
		c12.845-44.204,36.085-49.161,60.876-41.956C-7.437,163.243,9.528,179.876-3.317,224.082z"/>
</g>
<g>
	<path fill="#F5F5FF" d="M-28.621,159.662c-13.936-6.711-43.638-6.736-50.172-23.053c-8.485-21.189,29.958-25.85,32.449-6.568
		c10.698-27.658,59.38-13.311,40.575,13.42c15.757-7.064,43.51,3.815,22.937,19.355C6.52,170.857-17.73,164.122-28.621,159.662"/>
</g>
<g>
	<path fill="#F5F5FF" d="M139.466,197.595c4.58,54.456-12.854,163.008-43.4,165.576c-30.546,2.57-62.638-101.813-67.219-156.271
		c-4.58-54.453,19.066-69.837,49.607-72.404C109.004,131.927,134.884,143.14,139.466,197.595z"/>
</g>
<g>
	<path fill="#F5F5FF" d="M84.004,136.974c-18.301-1.507-51.227,11.108-65.414-4.194C0.17,112.909,40.789,91.381,51.755,111.69
		c0.083-35.204,60.143-40.023,50.679-2.396c14.455-14.536,49.842-14.289,33.656,11.688
		C127.714,134.423,97.973,137.281,84.004,136.974"/>
</g>
<g>
	<path fill="#F5F5FF" d="M220.592,227.358c3.351,26.26-2.832,79.163-17.562,81.041c-14.731,1.879-32.434-47.977-35.783-74.237
		c-3.349-26.262,7.776-34.199,22.505-36.076C204.485,196.207,217.244,201.096,220.592,227.358z"/>
</g>
<g>
	<path fill="#F5F5FF" d="M192.488,199.17c-8.888-0.349-24.563,6.441-31.746-0.67c-9.329-9.234,9.883-20.498,15.612-10.897
		c-0.691-17.04,28.277-20.623,24.479-2.213c6.693-7.336,23.826-7.952,16.533,4.956C213.592,197.027,199.255,199.028,192.488,199.17"
		/>
</g>
<g>
	<path fill-rule="evenodd" clip-rule="evenodd" fill="#F5F5FF" d="M777.542,175.105c0.011-0.128,0.537-0.128,0.548,0
		C777.907,175.105,777.725,175.105,777.542,175.105z"/>
	<path fill-rule="evenodd" clip-rule="evenodd" fill="#F5F5FF" d="M858.838,175.105c0.012-0.128,0.538-0.128,0.549,0
		C859.204,175.105,859.021,175.105,858.838,175.105z"/>
	<path fill-rule="evenodd" clip-rule="evenodd" fill="#F5F5FF" d="M777.463,175.105c0.027,0,0.053,0,0.079,0
		c0.183,0,0.365,0,0.548,0c0.026,0,0.053,0,0.078,0c1.39,0.26,1.751,1.481,2.428,2.663c3.32,5.794,6.947,11.834,10.104,17.388
		c1.562-0.734,3.265-1.33,4.855-2.036c0.025,0,0.052,0,0.078,0c1.002-0.33,2.04-0.623,2.976-1.019c0.026,0,0.053,0,0.079,0
		c0.282-0.03,0.522-0.104,0.705-0.234c0.025,0,0.052,0,0.078,0c0.2-0.009,0.373-0.044,0.47-0.157c0.026,0,0.052,0,0.078,0
		c0.201-0.008,0.373-0.044,0.47-0.156c0.026,0,0.053,0,0.078,0c0.936-0.214,1.886-0.412,2.741-0.705c0.026,0,0.053,0,0.079,0
		c0.255-0.007,0.481-0.04,0.626-0.156c0.026,0,0.053,0,0.078,0c0.125-0.007,0.299,0.037,0.313-0.079c0.026,0,0.053,0,0.078,0
		c0.526-0.075,1.052-0.149,1.489-0.313c0.025,0,0.052,0,0.078,0c0.308-0.004,0.588-0.037,0.783-0.156c0.025,0,0.052,0,0.078,0
		c0.523-0.024,0.999-0.097,1.409-0.234c0.026,0,0.053,0,0.078,0c0.139-0.045,0.461,0.094,0.471-0.078c0.025,0,0.052,0,0.078,0
		c0.138-0.046,0.46,0.094,0.47-0.079c0.026,0,0.053,0,0.078,0c0.163-0.046,0.515,0.097,0.549-0.078c0.026,0,0.052,0,0.078,0
		c0.188-0.048,0.568,0.099,0.627-0.078c0.025,0,0.052,0,0.078,0c0.188-0.048,0.568,0.098,0.626-0.079c0.027,0,0.053,0,0.078,0
		c0.238-0.049,0.675,0.101,0.784-0.078c0.026,0,0.052,0,0.077,0c0.264-0.05,0.729,0.102,0.862-0.078c0.025,0,0.053,0,0.078,0
		c0.341-0.05,0.886,0.103,1.096-0.078c0.054,0,0.105,0,0.158,0c0.496-0.052,1.199,0.104,1.565-0.078c0.104,0,0.209,0,0.313,0
		c1.331,0,2.663,0,3.994,0c0.104,0,0.209,0,0.313,0c0.366,0.182,1.069,0.026,1.566,0.078c0.052,0,0.104,0,0.156,0
		c0.186,0.18,0.703,0.028,1.019,0.078c0.053,0,0.104,0,0.157,0c0.134,0.18,0.597,0.028,0.861,0.078c0.026,0,0.052,0,0.078,0
		c0.083,0.178,0.492,0.03,0.705,0.078c0.025,0,0.052,0,0.079,0c0.082,0.178,0.491,0.031,0.703,0.079c0.026,0,0.054,0,0.079,0
		c0.323,0.12,0.744,0.144,1.175,0.156c0.025,0,0.053,0,0.079,0c0.033,0.175,0.386,0.031,0.548,0.079c0.025,0,0.051,0,0.078,0
		c0.009,0.172,0.331,0.033,0.47,0.078c0.025,0,0.053,0,0.079,0c1.098,0.259,2.294,0.42,3.445,0.627c0.026,0,0.053,0,0.078,0
		c0.024,0.105,0.196,0.064,0.313,0.077c0.026,0,0.052,0,0.078,0c1.134,0.329,2.347,0.578,3.524,0.862c0.026,0,0.052,0,0.078,0
		c0.186,0.154,0.494,0.185,0.783,0.234c0.026,0,0.053,0,0.078,0c1.322,0.48,2.729,0.874,4.073,1.331c0.025,0,0.052,0,0.079,0
		c0.67,0.349,1.445,0.591,2.192,0.862c0.025,0,0.052,0,0.078,0c0.844,0.488,1.892,0.771,2.741,1.253
		c3.041-5.001,6.034-10.368,9.007-15.429c0.964-1.642,1.631-3.874,3.603-4.622c0.026,0,0.053,0,0.078,0c0.184,0,0.366,0,0.549,0
		c0.025,0,0.052,0,0.078,0c0.079,0.13,0.332,0.085,0.47,0.157c0.026,0,0.053,0,0.078,0c0.659,0.411,1.153,0.988,1.332,1.88
		c0,0.13,0,0.261,0,0.391c-0.17-0.013-0.035,0.278-0.079,0.392c0,0.026,0,0.053,0,0.079c-3.664,6.386-7.343,12.758-11.043,19.11
		c13.684,7.776,23.832,19.088,29.605,34.774c0,0.025,0,0.052,0,0.078c0.199,0.61,0.362,1.257,0.626,1.802
		c-0.032,0.163,0.054,0.207,0.078,0.312c0.222,0.798,0.41,1.628,0.706,2.35c0,0.026,0,0.053,0,0.079
		c0.188,0.83,0.359,1.676,0.626,2.428c0,0.026,0,0.052,0,0.078c0.007,0.255,0.04,0.481,0.157,0.627c0,0.025,0,0.052,0,0.078
		c0.102,0.655,0.201,1.312,0.391,1.88c0,0.025,0,0.052,0,0.078c0.007,0.123-0.037,0.299,0.079,0.313c0,0.025,0,0.052,0,0.077
		c0.043,0.114-0.092,0.405,0.078,0.393c0,0.025,0,0.053,0,0.078c0.043,0.114-0.092,0.404,0.078,0.392c0,0.026,0,0.053,0,0.078
		c0.043,0.114-0.092,0.405,0.078,0.392c0,0.026,0,0.052,0,0.078c0.046,0.138-0.095,0.461,0.078,0.471c0,0.025,0.001,0.051,0,0.078
		c0.046,0.138-0.094,0.46,0.079,0.47c0,0.025,0,0.052,0,0.079c0.044,0.137-0.095,0.459,0.078,0.469c0,0.025,0,0.053,0,0.079
		c0.046,0.162-0.097,0.514,0.078,0.548c0,0.026,0,0.052,0,0.078c0.048,0.188-0.099,0.568,0.078,0.627c0,0.026,0,0.052,0,0.078
		c0.048,0.188-0.098,0.568,0.078,0.627c0,0.025,0,0.051,0,0.078c0.05,0.237-0.1,0.675,0.079,0.783c0,0.025,0,0.052,0,0.078
		c0,0.078-0.063,0.093-0.079,0.156c-43.178,0-86.363,0-129.541,0c0-0.078-0.063-0.093-0.079-0.156c0-0.026,0-0.053,0-0.078
		c0.179-0.108,0.029-0.546,0.079-0.783c0-0.027,0-0.053,0-0.078c0.177-0.059,0.03-0.439,0.078-0.627c0-0.026,0-0.052,0-0.078
		c0.177-0.059,0.031-0.439,0.078-0.627c0-0.026,0-0.052,0-0.078c0.175-0.034,0.032-0.386,0.078-0.548c0-0.026,0-0.054,0-0.079
		c0.174-0.01,0.033-0.332,0.078-0.469c0-0.027,0-0.054,0-0.079c0.12-0.272,0.142-0.642,0.157-1.019c0-0.026,0-0.052,0-0.078
		c0.17,0.014,0.035-0.277,0.078-0.392c0-0.025,0-0.052,0-0.078c0.17,0.013,0.035-0.277,0.078-0.392c0-0.025,0-0.053,0-0.078
		c0.17,0.013,0.036-0.278,0.079-0.393c0-0.025,0-0.052,0-0.077c0.137-0.334,0.209-0.73,0.234-1.176c0-0.025,0-0.052,0-0.078
		c0.267-0.854,0.438-1.807,0.627-2.74c0.077-0.21,0.161-0.413,0.156-0.706c0.187-0.283,0.231-0.708,0.313-1.096
		c0-0.026,0-0.053,0-0.079c0.112-0.096,0.148-0.269,0.156-0.47c0-0.025,0-0.052,0-0.078c0.113-0.096,0.148-0.269,0.157-0.47
		c0-0.026,0-0.053,0-0.078c0.131-0.183,0.204-0.423,0.234-0.705c0-0.026,0-0.052,0-0.078c0.343-0.779,0.585-1.661,0.861-2.506
		c0-0.027,0-0.053,0-0.079c0.191-0.175,0.221-0.511,0.313-0.783c0-0.026,0-0.052,0-0.078c0.197-0.247,0.29-0.598,0.392-0.94
		c0-0.025,0-0.052,0-0.077c0.171-0.17,0.222-0.458,0.313-0.705c0-0.026,0-0.053,0-0.079c6.009-14.119,15.593-24.664,28.587-31.798
		c-2.748-4.896-5.698-9.786-8.537-14.724c-0.813-1.417-2.347-3.649-2.584-5.404c0-0.026,0-0.053,0-0.079
		C775.859,176.007,776.485,175.381,777.463,175.105z M788.037,218.965c-0.026,0-0.053,0-0.079,0c-3.06,0.49-4.995,2.523-4.698,6.108
		c0,0.026,0,0.053,0,0.079c0.006,0.123-0.038,0.299,0.078,0.312c-0.025,0.182,0.012,0.301,0.078,0.392
		c0.562,1.839,1.775,3.028,3.603,3.604c0.091,0.065,0.21,0.104,0.392,0.077c0.024,0.107,0.195,0.065,0.313,0.079
		c0.025,0,0.052,0,0.078,0c3.584,0.294,5.615-1.643,6.108-4.699c0-0.026,0-0.052,0-0.078c0.131-0.161,0.131-0.857,0-1.019
		c0-0.026,0-0.052,0-0.078c-0.044-0.138,0.096-0.46-0.078-0.47c0-0.026,0-0.052,0-0.079c-0.514-2.253-1.897-3.637-4.15-4.15
		c-0.026,0-0.052,0-0.078,0c-0.011-0.173-0.333-0.033-0.471-0.078c-0.025,0-0.052,0-0.078,0
		C788.895,218.835,788.197,218.835,788.037,218.965z M847.795,218.965c-0.026,0-0.052,0-0.078,0
		c-0.138,0.045-0.461-0.095-0.471,0.078c-0.025,0-0.051,0-0.077,0c-2.25,0.518-3.637,1.898-4.152,4.15c0,0.027,0,0.053,0,0.079
		c-0.172,0.01-0.032,0.332-0.077,0.47c0,0.026,0,0.052,0,0.078c-0.13,0.161-0.13,0.857,0,1.019c0,0.026,0,0.052,0,0.078
		c0.487,3.062,2.531,4.987,6.108,4.699c0.026,0,0.054,0,0.079,0c0.123-0.007,0.299,0.038,0.313-0.079
		c0.182,0.026,0.3-0.012,0.391-0.077c1.759-0.538,2.917-1.678,3.525-3.368c0.069-0.191,0.182-0.34,0.156-0.627
		c0.105-0.023,0.064-0.195,0.078-0.312c0-0.026,0-0.053,0-0.079c0.292-3.581-1.639-5.619-4.698-6.108c-0.027,0-0.054,0-0.079,0
		C848.652,218.835,847.955,218.835,847.795,218.965z"/>
	<path fill-rule="evenodd" clip-rule="evenodd" fill="#F5F5FF" d="M861.345,177.533c-0.043,0.114,0.091,0.405-0.079,0.392
		C861.31,177.811,861.175,177.521,861.345,177.533z"/>
	<path fill-rule="evenodd" clip-rule="evenodd" fill="#F5F5FF" d="M816.467,189.203c1.149-0.131,2.846-0.131,3.994,0
		C819.13,189.203,817.798,189.203,816.467,189.203z"/>
	<path fill-rule="evenodd" clip-rule="evenodd" fill="#F5F5FF" d="M814.588,189.281c0.366-0.182,1.069-0.026,1.565-0.078
		C815.787,189.385,815.084,189.229,814.588,189.281z"/>
	<path fill-rule="evenodd" clip-rule="evenodd" fill="#F5F5FF" d="M820.774,189.203c0.497,0.052,1.199-0.104,1.566,0.078
		C821.844,189.229,821.141,189.385,820.774,189.203z"/>
	<path fill-rule="evenodd" clip-rule="evenodd" fill="#F5F5FF" d="M813.334,189.359c0.211-0.18,0.755-0.027,1.096-0.078
		C814.22,189.462,813.675,189.31,813.334,189.359z"/>
	<path fill-rule="evenodd" clip-rule="evenodd" fill="#F5F5FF" d="M822.497,189.281c0.315,0.051,0.833-0.102,1.019,0.078
		C823.2,189.31,822.683,189.461,822.497,189.281z"/>
	<path fill-rule="evenodd" clip-rule="evenodd" fill="#F5F5FF" d="M812.394,189.438c0.136-0.179,0.599-0.028,0.862-0.078
		C813.122,189.539,812.657,189.388,812.394,189.438z"/>
	<path fill-rule="evenodd" clip-rule="evenodd" fill="#F5F5FF" d="M823.673,189.359c0.264,0.05,0.727-0.101,0.861,0.078
		C824.27,189.388,823.807,189.539,823.673,189.359z"/>
	<path fill-rule="evenodd" clip-rule="evenodd" fill="#F5F5FF" d="M811.532,189.516c0.109-0.178,0.545-0.028,0.784-0.078
		C812.207,189.616,811.771,189.467,811.532,189.516z"/>
	<path fill-rule="evenodd" clip-rule="evenodd" fill="#F5F5FF" d="M824.612,189.438c0.213,0.049,0.622-0.1,0.705,0.078
		C825.104,189.468,824.695,189.615,824.612,189.438z"/>
	<path fill-rule="evenodd" clip-rule="evenodd" fill="#F5F5FF" d="M810.828,189.595c0.059-0.177,0.439-0.031,0.626-0.079
		C811.396,189.692,811.016,189.547,810.828,189.595z"/>
	<path fill-rule="evenodd" clip-rule="evenodd" fill="#F5F5FF" d="M825.396,189.516c0.212,0.049,0.62-0.099,0.703,0.079
		C825.888,189.547,825.479,189.693,825.396,189.516z"/>
	<path fill-rule="evenodd" clip-rule="evenodd" fill="#F5F5FF" d="M810.123,189.673c0.058-0.177,0.438-0.03,0.627-0.078
		C810.691,189.771,810.311,189.625,810.123,189.673z"/>
	<path fill-rule="evenodd" clip-rule="evenodd" fill="#F5F5FF" d="M809.496,189.751c0.033-0.175,0.386-0.032,0.549-0.078
		C810.011,189.848,809.659,189.705,809.496,189.751z"/>
	<path fill-rule="evenodd" clip-rule="evenodd" fill="#F5F5FF" d="M808.948,189.83c0.01-0.174,0.333-0.034,0.47-0.079
		C809.408,189.924,809.086,189.784,808.948,189.83z"/>
	<path fill-rule="evenodd" clip-rule="evenodd" fill="#F5F5FF" d="M827.433,189.751c0.161,0.047,0.514-0.097,0.548,0.079
		C827.818,189.782,827.466,189.926,827.433,189.751z"/>
	<path fill-rule="evenodd" clip-rule="evenodd" fill="#F5F5FF" d="M808.399,189.908c0.011-0.174,0.333-0.033,0.471-0.078
		C808.86,190.002,808.538,189.863,808.399,189.908z"/>
	<path fill-rule="evenodd" clip-rule="evenodd" fill="#F5F5FF" d="M828.059,189.83c0.137,0.045,0.46-0.096,0.47,0.078
		C828.39,189.863,828.067,190.002,828.059,189.83z"/>
	<path fill-rule="evenodd" clip-rule="evenodd" fill="#F5F5FF" d="M832.131,190.535c0.124,0.006,0.299-0.038,0.313,0.077
		C832.327,190.6,832.155,190.641,832.131,190.535z"/>
	<path fill-rule="evenodd" clip-rule="evenodd" fill="#F5F5FF" d="M804.092,190.691c0.024-0.107,0.197-0.065,0.313-0.079
		C804.391,190.729,804.217,190.685,804.092,190.691z"/>
	<path fill-rule="evenodd" clip-rule="evenodd" fill="#F5F5FF" d="M788.037,218.965c0.16-0.13,0.857-0.13,1.018,0
		C788.716,218.965,788.376,218.965,788.037,218.965z"/>
	<path fill-rule="evenodd" clip-rule="evenodd" fill="#F5F5FF" d="M847.795,218.965c0.16-0.13,0.857-0.13,1.019,0
		C848.474,218.965,848.135,218.965,847.795,218.965z"/>
	<path fill-rule="evenodd" clip-rule="evenodd" fill="#F5F5FF" d="M789.133,218.965c0.138,0.045,0.46-0.095,0.471,0.078
		C789.465,218.998,789.143,219.138,789.133,218.965z"/>
	<path fill-rule="evenodd" clip-rule="evenodd" fill="#F5F5FF" d="M847.246,219.043c0.01-0.173,0.333-0.033,0.471-0.078
		C847.707,219.138,847.385,218.998,847.246,219.043z"/>
	<path fill-rule="evenodd" clip-rule="evenodd" fill="#F5F5FF" d="M793.832,223.272c0.174,0.01,0.034,0.332,0.078,0.47
		C793.738,223.732,793.877,223.41,793.832,223.272z"/>
	<path fill-rule="evenodd" clip-rule="evenodd" fill="#F5F5FF" d="M843.017,223.272c-0.045,0.138,0.095,0.46-0.077,0.47
		C842.984,223.604,842.845,223.282,843.017,223.272z"/>
	<path fill-rule="evenodd" clip-rule="evenodd" fill="#F5F5FF" d="M793.91,223.82c0.131,0.161,0.131,0.857,0,1.019
		C793.91,224.5,793.91,224.16,793.91,223.82z"/>
	<path fill-rule="evenodd" clip-rule="evenodd" fill="#F5F5FF" d="M842.939,223.82c0,0.34,0,0.68,0,1.019
		C842.81,224.678,842.81,223.981,842.939,223.82z"/>
	<path fill-rule="evenodd" clip-rule="evenodd" fill="#F5F5FF" d="M783.26,225.152c0.115,0.014,0.071,0.189,0.078,0.312
		C783.222,225.451,783.266,225.275,783.26,225.152z"/>
	<path fill-rule="evenodd" clip-rule="evenodd" fill="#F5F5FF" d="M853.591,225.152c-0.014,0.117,0.027,0.289-0.078,0.312
		C853.525,225.348,853.485,225.176,853.591,225.152z"/>
	<path fill-rule="evenodd" clip-rule="evenodd" fill="#F5F5FF" d="M787.41,229.537c0.117,0.014,0.289-0.027,0.313,0.079
		C787.605,229.603,787.435,229.645,787.41,229.537z"/>
	<path fill-rule="evenodd" clip-rule="evenodd" fill="#F5F5FF" d="M849.127,229.616c0.015-0.116,0.189-0.072,0.313-0.079
		C849.426,229.654,849.25,229.609,849.127,229.616z"/>
	<path fill-rule="evenodd" clip-rule="evenodd" fill="#F5F5FF" d="M882.412,241.678c0.106,0.023,0.064,0.196,0.079,0.313
		C882.375,241.977,882.419,241.801,882.412,241.678z"/>
	<path fill-rule="evenodd" clip-rule="evenodd" fill="#F5F5FF" d="M754.359,242.068c-0.043,0.114,0.091,0.405-0.079,0.393
		C754.323,242.347,754.189,242.056,754.359,242.068z"/>
	<path fill-rule="evenodd" clip-rule="evenodd" fill="#F5F5FF" d="M882.491,242.068c0.17-0.013,0.035,0.278,0.078,0.393
		C882.399,242.474,882.534,242.183,882.491,242.068z"/>
	<path fill-rule="evenodd" clip-rule="evenodd" fill="#F5F5FF" d="M754.28,242.539c-0.043,0.114,0.092,0.404-0.078,0.392
		C754.245,242.816,754.111,242.526,754.28,242.539z"/>
	<path fill-rule="evenodd" clip-rule="evenodd" fill="#F5F5FF" d="M882.569,242.539c0.17-0.013,0.035,0.277,0.078,0.392
		C882.478,242.943,882.612,242.653,882.569,242.539z"/>
	<path fill-rule="evenodd" clip-rule="evenodd" fill="#F5F5FF" d="M754.202,243.009c-0.043,0.114,0.092,0.405-0.078,0.392
		C754.167,243.287,754.032,242.995,754.202,243.009z"/>
	<path fill-rule="evenodd" clip-rule="evenodd" fill="#F5F5FF" d="M882.647,243.009c0.17-0.014,0.035,0.278,0.078,0.392
		C882.556,243.414,882.69,243.123,882.647,243.009z"/>
	<path fill-rule="evenodd" clip-rule="evenodd" fill="#F5F5FF" d="M882.726,243.479c0.173,0.01,0.034,0.332,0.078,0.471
		C882.631,243.939,882.771,243.616,882.726,243.479z"/>
	<path fill-rule="evenodd" clip-rule="evenodd" fill="#F5F5FF" d="M882.804,244.027c0.173,0.01,0.033,0.332,0.079,0.47
		C882.71,244.487,882.85,244.165,882.804,244.027z"/>
	<path fill-rule="evenodd" clip-rule="evenodd" fill="#F5F5FF" d="M753.967,244.576c-0.045,0.137,0.096,0.459-0.078,0.469
		C753.935,244.908,753.794,244.586,753.967,244.576z"/>
	<path fill-rule="evenodd" clip-rule="evenodd" fill="#F5F5FF" d="M882.883,244.576c0.173,0.01,0.033,0.332,0.078,0.469
		C882.788,245.035,882.927,244.713,882.883,244.576z"/>
	<path fill-rule="evenodd" clip-rule="evenodd" fill="#F5F5FF" d="M753.889,245.124c-0.046,0.162,0.097,0.514-0.078,0.548
		C753.857,245.51,753.714,245.157,753.889,245.124z"/>
	<path fill-rule="evenodd" clip-rule="evenodd" fill="#F5F5FF" d="M882.961,245.124c0.175,0.033,0.032,0.386,0.078,0.548
		C882.864,245.638,883.007,245.286,882.961,245.124z"/>
	<path fill-rule="evenodd" clip-rule="evenodd" fill="#F5F5FF" d="M753.811,245.75c-0.047,0.188,0.099,0.568-0.078,0.627
		C753.78,246.189,753.634,245.809,753.811,245.75z"/>
	<path fill-rule="evenodd" clip-rule="evenodd" fill="#F5F5FF" d="M883.039,245.75c0.177,0.059,0.031,0.439,0.078,0.627
		C882.94,246.318,883.087,245.938,883.039,245.75z"/>
	<path fill-rule="evenodd" clip-rule="evenodd" fill="#F5F5FF" d="M753.732,246.455c-0.048,0.188,0.099,0.568-0.078,0.627
		C753.702,246.894,753.556,246.514,753.732,246.455z"/>
	<path fill-rule="evenodd" clip-rule="evenodd" fill="#F5F5FF" d="M883.117,246.455c0.177,0.059,0.03,0.438,0.078,0.627
		C883.02,247.023,883.165,246.643,883.117,246.455z"/>
	<path fill-rule="evenodd" clip-rule="evenodd" fill="#F5F5FF" d="M753.654,247.16c-0.05,0.237,0.1,0.675-0.079,0.783
		C753.625,247.705,753.476,247.269,753.654,247.16z"/>
	<path fill-rule="evenodd" clip-rule="evenodd" fill="#F5F5FF" d="M883.195,247.16c0.179,0.108,0.029,0.545,0.079,0.783
		C883.096,247.835,883.245,247.397,883.195,247.16z"/>
	<path fill-rule="evenodd" clip-rule="evenodd" fill="#F5F5FF" d="M775.584,176.985c0.174-1.079,0.801-1.706,1.879-1.88
		C776.485,175.381,775.859,176.007,775.584,176.985z"/>
	<path fill-rule="evenodd" clip-rule="evenodd" fill="#F5F5FF" d="M775.584,177.063c0.237,1.755,1.771,3.987,2.584,5.404
		c2.839,4.938,5.789,9.827,8.537,14.724c-12.994,7.134-22.578,17.679-28.587,31.798c5.867-14.208,15.53-24.621,28.431-31.798
		c-3.001-5.451-6.561-11.516-9.868-17.23C776.112,178.98,775.331,178.014,775.584,177.063z"/>
	<path fill-rule="evenodd" clip-rule="evenodd" fill="#F5F5FF" d="M758.118,229.068c-0.092,0.247-0.143,0.535-0.313,0.705
		C757.874,229.502,757.941,229.23,758.118,229.068z"/>
	<path fill-rule="evenodd" clip-rule="evenodd" fill="#F5F5FF" d="M757.805,229.851c-0.102,0.343-0.194,0.693-0.392,0.94
		C757.516,230.449,757.608,230.099,757.805,229.851z"/>
	<path fill-rule="evenodd" clip-rule="evenodd" fill="#F5F5FF" d="M757.413,230.869c-0.093,0.272-0.122,0.608-0.313,0.783
		C757.193,231.381,757.223,231.044,757.413,230.869z"/>
	<path fill-rule="evenodd" clip-rule="evenodd" fill="#F5F5FF" d="M757.1,231.731c-0.276,0.845-0.519,1.727-0.861,2.506
		C756.482,233.359,756.726,232.479,757.1,231.731z"/>
	<path fill-rule="evenodd" clip-rule="evenodd" fill="#F5F5FF" d="M756.238,234.315c-0.03,0.282-0.104,0.522-0.234,0.705
		C756.034,234.738,756.107,234.497,756.238,234.315z"/>
	<path fill-rule="evenodd" clip-rule="evenodd" fill="#F5F5FF" d="M756.004,235.099c-0.009,0.201-0.044,0.374-0.157,0.47
		C755.855,235.368,755.892,235.195,756.004,235.099z"/>
	<path fill-rule="evenodd" clip-rule="evenodd" fill="#F5F5FF" d="M755.847,235.646c-0.008,0.201-0.044,0.374-0.156,0.47
		C755.699,235.916,755.734,235.744,755.847,235.646z"/>
	<path fill-rule="evenodd" clip-rule="evenodd" fill="#F5F5FF" d="M755.69,236.195c-0.082,0.388-0.127,0.812-0.313,1.096
		C755.459,236.904,755.504,236.479,755.69,236.195z"/>
	<path fill-rule="evenodd" clip-rule="evenodd" fill="#F5F5FF" d="M755.221,237.997c-0.188,0.934-0.36,1.886-0.627,2.74
		C754.751,239.771,754.929,238.827,755.221,237.997z"/>
	<path fill-rule="evenodd" clip-rule="evenodd" fill="#F5F5FF" d="M754.594,240.815c-0.025,0.445-0.098,0.842-0.234,1.176
		C754.385,241.547,754.457,241.148,754.594,240.815z"/>
	<path fill-rule="evenodd" clip-rule="evenodd" fill="#F5F5FF" d="M754.124,243.479c-0.016,0.377-0.037,0.746-0.157,1.019
		C753.963,244.102,753.998,243.745,754.124,243.479z"/>
	<path fill-rule="evenodd" clip-rule="evenodd" fill="#F5F5FF" d="M753.575,248.021c0.016,0.063,0.079,0.078,0.079,0.156
		c43.178,0,86.363,0,129.541,0c0.016-0.063,0.079-0.078,0.079-0.156c-0.434,0.436-1.13,0.234-1.645,0.234
		c-41.043,0.001-82.479,0-123.825,0C756.592,248.256,753.84,248.423,753.575,248.021z"/>
	<path fill-rule="evenodd" clip-rule="evenodd" fill="#F5F5FF" d="M882.021,239.72c0.208,0.549,0.313,1.2,0.391,1.88
		C882.223,241.031,882.123,240.375,882.021,239.72z"/>
	<path fill-rule="evenodd" clip-rule="evenodd" fill="#F5F5FF" d="M881.864,239.015c0.116,0.145,0.149,0.372,0.157,0.627
		C881.904,239.496,881.871,239.27,881.864,239.015z"/>
	<path fill-rule="evenodd" clip-rule="evenodd" fill="#F5F5FF" d="M881.238,236.509c0.29,0.727,0.466,1.57,0.626,2.428
		C881.598,238.185,881.426,237.339,881.238,236.509z"/>
	<path fill-rule="evenodd" clip-rule="evenodd" fill="#F5F5FF" d="M880.532,234.08c0.319,0.699,0.514,1.523,0.706,2.35
		C880.942,235.708,880.754,234.878,880.532,234.08z"/>
	<path fill-rule="evenodd" clip-rule="evenodd" fill="#F5F5FF" d="M879.828,231.966c0.295,0.514,0.462,1.157,0.626,1.802
		C880.19,233.223,880.027,232.576,879.828,231.966z"/>
	<path fill-rule="evenodd" clip-rule="evenodd" fill="#F5F5FF" d="M861.266,178.003c-3.53,6.494-7.304,12.746-10.964,19.11
		c13.681,7.752,23.868,18.999,29.526,34.774c-5.773-15.687-15.922-26.998-29.605-34.774
		C853.923,190.762,857.602,184.39,861.266,178.003z"/>
	<path fill-rule="evenodd" clip-rule="evenodd" fill="#F5F5FF" d="M860.013,175.262c0.731,0.339,1.258,0.884,1.332,1.88
		C861.166,176.25,860.672,175.673,860.013,175.262z"/>
	<path fill-rule="evenodd" clip-rule="evenodd" fill="#F5F5FF" d="M859.465,175.105c0.225-0.016,0.398,0.02,0.47,0.157
		C859.797,175.19,859.544,175.235,859.465,175.105z"/>
	<path fill-rule="evenodd" clip-rule="evenodd" fill="#F5F5FF" d="M843.409,193.902c0.937,0.316,1.761,0.745,2.663,1.097
		c2.032-2.929,3.737-6.272,5.717-9.712c1.341-2.329,2.774-4.795,4.23-7.284c0.76-1.301,1.152-2.6,2.74-2.898
		c-1.972,0.748-2.639,2.979-3.603,4.622c-2.973,5.061-5.966,10.428-9.007,15.429C845.301,194.673,844.253,194.391,843.409,193.902z"
		/>
	<path fill-rule="evenodd" clip-rule="evenodd" fill="#F5F5FF" d="M841.139,193.04c0.767,0.251,1.537,0.499,2.192,0.862
		C842.584,193.631,841.809,193.389,841.139,193.04z"/>
	<path fill-rule="evenodd" clip-rule="evenodd" fill="#F5F5FF" d="M836.986,191.709c1.425,0.378,2.824,0.779,4.073,1.331
		C839.715,192.583,838.309,192.189,836.986,191.709z"/>
	<path fill-rule="evenodd" clip-rule="evenodd" fill="#F5F5FF" d="M836.125,191.475c0.289,0.05,0.599,0.08,0.783,0.234
		C836.619,191.659,836.311,191.629,836.125,191.475z"/>
	<path fill-rule="evenodd" clip-rule="evenodd" fill="#F5F5FF" d="M832.522,190.612c1.243,0.22,2.448,0.476,3.524,0.862
		C834.869,191.19,833.656,190.941,832.522,190.612z"/>
	<path fill-rule="evenodd" clip-rule="evenodd" fill="#F5F5FF" d="M828.607,189.908c1.213,0.144,2.402,0.312,3.445,0.627
		C830.901,190.328,829.705,190.167,828.607,189.908z"/>
	<path fill-rule="evenodd" clip-rule="evenodd" fill="#F5F5FF" d="M826.179,189.595c0.446-0.004,0.857,0.029,1.175,0.156
		C826.923,189.738,826.502,189.715,826.179,189.595z"/>
	<path fill-rule="evenodd" clip-rule="evenodd" fill="#F5F5FF" d="M806.912,190.143c0.41-0.138,0.886-0.211,1.409-0.234
		C807.911,190.046,807.436,190.118,806.912,190.143z"/>
	<path fill-rule="evenodd" clip-rule="evenodd" fill="#F5F5FF" d="M806.051,190.299c0.194-0.118,0.476-0.15,0.783-0.156
		C806.639,190.262,806.358,190.295,806.051,190.299z"/>
	<path fill-rule="evenodd" clip-rule="evenodd" fill="#F5F5FF" d="M804.483,190.612c0.42-0.181,0.939-0.262,1.489-0.313
		C805.535,190.463,805.01,190.537,804.483,190.612z"/>
	<path fill-rule="evenodd" clip-rule="evenodd" fill="#F5F5FF" d="M803.388,190.848c0.145-0.116,0.372-0.149,0.626-0.156
		C803.869,190.808,803.643,190.841,803.388,190.848z"/>
	<path fill-rule="evenodd" clip-rule="evenodd" fill="#F5F5FF" d="M800.567,191.553c0.832-0.317,1.78-0.519,2.741-0.705
		C802.453,191.141,801.503,191.339,800.567,191.553z"/>
	<path fill-rule="evenodd" clip-rule="evenodd" fill="#F5F5FF" d="M800.02,191.709c0.097-0.112,0.27-0.147,0.47-0.156
		C800.393,191.665,800.221,191.701,800.02,191.709z"/>
	<path fill-rule="evenodd" clip-rule="evenodd" fill="#F5F5FF" d="M799.472,191.866c0.097-0.112,0.269-0.148,0.47-0.157
		C799.845,191.822,799.672,191.857,799.472,191.866z"/>
	<path fill-rule="evenodd" clip-rule="evenodd" fill="#F5F5FF" d="M798.688,192.101c0.183-0.131,0.422-0.204,0.705-0.234
		C799.211,191.997,798.971,192.07,798.688,192.101z"/>
	<path fill-rule="evenodd" clip-rule="evenodd" fill="#F5F5FF" d="M795.634,193.119c0.904-0.427,1.941-0.722,2.976-1.019
		C797.674,192.496,796.636,192.789,795.634,193.119z"/>
	<path fill-rule="evenodd" clip-rule="evenodd" fill="#F5F5FF" d="M778.168,175.105c1.979,0.512,3.013,3.522,3.994,5.248
		c2.758,4.847,5.935,9.967,8.538,14.725c1.584-0.688,3.15-1.392,4.855-1.958c-1.591,0.706-3.293,1.302-4.855,2.036
		c-3.157-5.554-6.784-11.593-10.104-17.388C779.919,176.586,779.558,175.365,778.168,175.105z"/>
	<path fill-rule="evenodd" clip-rule="evenodd" fill="#F5F5FF" d="M783.26,225.073c-0.297-3.585,1.639-5.618,4.698-6.108
		C785.019,219.628,783.123,221.335,783.26,225.073z"/>
	<path fill-rule="evenodd" clip-rule="evenodd" fill="#F5F5FF" d="M783.416,225.856c0.65,1.752,1.851,2.953,3.603,3.604
		C785.191,228.885,783.979,227.695,783.416,225.856z"/>
	<path fill-rule="evenodd" clip-rule="evenodd" fill="#F5F5FF" d="M787.802,229.616c3.739,0.137,5.442-1.764,6.108-4.699
		C793.417,227.974,791.386,229.91,787.802,229.616z"/>
	<path fill-rule="evenodd" clip-rule="evenodd" fill="#F5F5FF" d="M789.682,219.043c2.253,0.514,3.637,1.897,4.15,4.15
		C793.224,221.035,791.84,219.652,789.682,219.043z"/>
	<path fill-rule="evenodd" clip-rule="evenodd" fill="#F5F5FF" d="M843.017,223.193c0.516-2.252,1.902-3.633,4.152-4.15
		C845.01,219.652,843.626,221.035,843.017,223.193z"/>
	<path fill-rule="evenodd" clip-rule="evenodd" fill="#F5F5FF" d="M842.939,224.917c0.667,2.936,2.372,4.833,6.108,4.699
		C845.471,229.904,843.427,227.979,842.939,224.917z"/>
	<path fill-rule="evenodd" clip-rule="evenodd" fill="#F5F5FF" d="M849.831,229.46c1.68-0.618,2.846-1.751,3.525-3.368
		C852.748,227.782,851.59,228.922,849.831,229.46z"/>
	<path fill-rule="evenodd" clip-rule="evenodd" fill="#F5F5FF" d="M848.893,218.965c3.06,0.489,4.99,2.527,4.698,6.108
		C853.726,221.335,851.831,219.628,848.893,218.965z"/>
	<path fill-rule="evenodd" clip-rule="evenodd" fill="#FFFFFF" d="M853.513,225.465c0.025,0.287-0.087,0.436-0.156,0.627
		c-0.68,1.617-1.846,2.75-3.525,3.368c-0.091,0.065-0.209,0.104-0.391,0.077c-0.124,0.007-0.299-0.037-0.313,0.079
		c-0.025,0-0.053,0-0.079,0c-3.736,0.134-5.441-1.764-6.108-4.699c0-0.026,0-0.052,0-0.078c0-0.339,0-0.679,0-1.019
		c0-0.026,0-0.052,0-0.078c0.172-0.01,0.032-0.332,0.077-0.47c0-0.026,0-0.052,0-0.079c0.609-2.158,1.993-3.541,4.152-4.15
		c0.026,0,0.052,0,0.077,0c0.139-0.045,0.461,0.095,0.471-0.078c0.026,0,0.052,0,0.078,0c0.34,0,0.679,0,1.019,0
		c0.025,0,0.052,0,0.079,0c2.938,0.663,4.833,2.37,4.698,6.108c0,0.026,0,0.053,0,0.079
		C853.485,225.176,853.525,225.348,853.513,225.465z"/>
	<path fill-rule="evenodd" clip-rule="evenodd" fill="#FFFFFF" d="M787.41,229.537c-0.182,0.026-0.301-0.012-0.392-0.077
		c-1.752-0.65-2.952-1.852-3.603-3.604c-0.066-0.091-0.104-0.21-0.078-0.392c-0.007-0.123,0.037-0.299-0.078-0.312
		c0-0.026,0-0.053,0-0.079c-0.137-3.738,1.759-5.445,4.698-6.108c0.026,0,0.053,0,0.079,0c0.339,0,0.679,0,1.018,0
		c0.026,0,0.053,0,0.078,0c0.01,0.173,0.332,0.033,0.471,0.078c0.026,0,0.052,0,0.078,0c2.158,0.609,3.542,1.992,4.15,4.15
		c0,0.027,0,0.053,0,0.079c0.045,0.138-0.094,0.46,0.078,0.47c0,0.026,0,0.052,0,0.078c0,0.34,0,0.68,0,1.019
		c0,0.026,0,0.052,0,0.078c-0.666,2.936-2.369,4.836-6.108,4.699c-0.026,0-0.053,0-0.078,0
		C787.699,229.51,787.527,229.551,787.41,229.537z"/>
</g>
<g>
	<path fill-rule="evenodd" clip-rule="evenodd" fill="#F5F5FF" d="M1261.378,177.59c0.011-0.128,0.538-0.128,0.549,0
		C1261.744,177.59,1261.561,177.59,1261.378,177.59z"/>
	<path fill-rule="evenodd" clip-rule="evenodd" fill="#F5F5FF" d="M1342.674,177.59c0.012-0.128,0.539-0.128,0.549,0
		C1343.041,177.59,1342.857,177.59,1342.674,177.59z"/>
	<path fill-rule="evenodd" clip-rule="evenodd" fill="#F5F5FF" d="M1261.3,177.59c0.026,0,0.052,0,0.078,0c0.183,0,0.366,0,0.549,0
		c0.026,0,0.052,0,0.077,0c1.39,0.26,1.751,1.481,2.429,2.663c3.32,5.794,6.947,11.833,10.104,17.388
		c1.563-0.734,3.265-1.33,4.856-2.036c0.025,0,0.052,0,0.077,0c1.002-0.33,2.04-0.623,2.977-1.019c0.026,0,0.052,0,0.078,0
		c0.282-0.03,0.522-0.104,0.705-0.234c0.026,0,0.052,0,0.079,0c0.2-0.009,0.373-0.045,0.469-0.158c0.026,0,0.053,0,0.079,0
		c0.201-0.008,0.373-0.043,0.47-0.155c0.026,0,0.053,0,0.078,0c0.936-0.214,1.885-0.413,2.742-0.706c0.025,0,0.051,0,0.077,0
		c0.255-0.006,0.481-0.04,0.626-0.155c0.027,0,0.053,0,0.079,0c0.124-0.007,0.299,0.037,0.313-0.079c0.026,0,0.052,0,0.078,0
		c0.525-0.075,1.051-0.149,1.488-0.313c0.025,0,0.053,0,0.078,0c0.308-0.005,0.589-0.037,0.783-0.155c0.025,0,0.053,0,0.079,0
		c0.522-0.025,0.999-0.098,1.409-0.235c0.025,0,0.053,0,0.078,0c0.138-0.045,0.46,0.094,0.47-0.078c0.026,0,0.053,0,0.079,0
		c0.137-0.046,0.459,0.094,0.469-0.079c0.027,0,0.053,0,0.079,0c0.162-0.047,0.515,0.097,0.548-0.078c0.026,0,0.053,0,0.079,0
		c0.187-0.048,0.567,0.098,0.626-0.078c0.026,0,0.053,0,0.078,0c0.188-0.048,0.568,0.098,0.626-0.079c0.027,0,0.054,0,0.079,0
		c0.237-0.049,0.675,0.101,0.783-0.078c0.026,0,0.053,0,0.078,0c0.264-0.05,0.728,0.102,0.862-0.078c0.025,0,0.052,0,0.077,0
		c0.341-0.05,0.886,0.103,1.097-0.078c0.053,0,0.104,0,0.157,0c0.496-0.052,1.199,0.104,1.566-0.078c0.104,0,0.209,0,0.312,0
		c1.332,0,2.663,0,3.995,0c0.104,0,0.208,0,0.313,0c0.366,0.182,1.069,0.026,1.566,0.078c0.052,0,0.104,0,0.156,0
		c0.186,0.18,0.703,0.028,1.019,0.078c0.052,0,0.104,0,0.156,0c0.135,0.18,0.598,0.028,0.861,0.078c0.026,0,0.053,0,0.078,0
		c0.084,0.178,0.493,0.03,0.706,0.078c0.025,0,0.051,0,0.078,0c0.082,0.178,0.492,0.03,0.704,0.079c0.025,0,0.053,0,0.079,0
		c0.322,0.119,0.744,0.144,1.174,0.156c0.026,0,0.053,0,0.079,0c0.034,0.176,0.386,0.031,0.548,0.079c0.025,0,0.052,0,0.079,0
		c0.009,0.172,0.331,0.033,0.469,0.078c0.026,0,0.054,0,0.079,0c1.099,0.259,2.295,0.42,3.445,0.626c0.026,0,0.053,0,0.079,0
		c0.024,0.106,0.196,0.065,0.313,0.078c0.025,0,0.051,0,0.078,0c1.133,0.328,2.347,0.578,3.524,0.861c0.025,0,0.052,0,0.078,0
		c0.185,0.155,0.494,0.186,0.783,0.234c0.025,0,0.052,0,0.078,0c1.321,0.48,2.729,0.875,4.073,1.333c0.025,0,0.051,0,0.078,0
		c0.67,0.348,1.445,0.59,2.193,0.861c0.025,0,0.052,0,0.077,0c0.844,0.488,1.893,0.771,2.742,1.253
		c3.041-5.001,6.034-10.368,9.006-15.429c0.965-1.642,1.632-3.874,3.604-4.622c0.026,0,0.052,0,0.077,0c0.184,0,0.367,0,0.549,0
		c0.026,0,0.053,0,0.078,0c0.08,0.13,0.333,0.085,0.471,0.157c0.026,0,0.052,0,0.078,0c0.659,0.411,1.153,0.987,1.332,1.88
		c0,0.13,0,0.261,0,0.392c-0.171-0.013-0.036,0.278-0.079,0.392c0,0.026,0,0.052,0,0.078c-3.665,6.387-7.343,12.759-11.043,19.11
		c13.684,7.776,23.831,19.088,29.605,34.774c0,0.025,0,0.052,0,0.078c0.198,0.61,0.361,1.257,0.626,1.801
		c-0.033,0.164,0.054,0.208,0.078,0.313c0.221,0.798,0.409,1.628,0.705,2.35c0,0.026,0,0.053,0,0.079
		c0.188,0.83,0.36,1.676,0.627,2.428c0,0.025,0,0.052,0,0.078c0.006,0.255,0.04,0.481,0.156,0.627c0,0.025,0,0.052,0,0.078
		c0.102,0.655,0.202,1.312,0.392,1.88c0,0.025,0,0.052,0,0.078c0.007,0.123-0.038,0.299,0.079,0.313c0,0.025,0,0.052,0,0.077
		c0.042,0.114-0.093,0.405,0.078,0.393c0,0.025,0,0.052,0,0.078c0.042,0.114-0.092,0.404,0.077,0.392c0,0.026,0,0.053,0,0.078
		c0.044,0.114-0.091,0.405,0.079,0.392c0,0.026,0,0.052,0,0.078c0.045,0.138-0.095,0.461,0.078,0.471c0,0.025,0,0.051,0,0.077
		c0.046,0.139-0.094,0.461,0.078,0.471c0,0.025,0,0.052,0,0.078c0.045,0.138-0.095,0.46,0.078,0.47c0,0.025,0,0.053,0,0.079
		c0.047,0.162-0.096,0.514,0.079,0.548c0,0.026,0,0.052,0,0.078c0.047,0.188-0.099,0.568,0.078,0.626c0,0.027,0,0.053,0,0.079
		c0.047,0.188-0.099,0.568,0.077,0.627c0,0.025,0,0.051,0,0.078c0.051,0.237-0.1,0.675,0.079,0.783c0,0.025,0,0.052,0,0.078
		c0,0.078-0.063,0.093-0.079,0.156c-43.178,0-86.362,0-129.54,0c0-0.078-0.064-0.093-0.079-0.156c0-0.026,0-0.053,0-0.078
		c0.179-0.108,0.029-0.546,0.079-0.783c0-0.027,0-0.053,0-0.078c0.176-0.059,0.03-0.439,0.078-0.627c0-0.026,0-0.052,0-0.079
		c0.177-0.058,0.03-0.438,0.077-0.626c0-0.026,0-0.052,0-0.078c0.176-0.034,0.033-0.386,0.079-0.548c0-0.026,0-0.054,0-0.079
		c0.173-0.01,0.033-0.332,0.078-0.47c0-0.026,0-0.053,0-0.078c0.12-0.272,0.142-0.643,0.157-1.019c0-0.026,0-0.052,0-0.078
		c0.17,0.014,0.035-0.277,0.078-0.392c0-0.025,0-0.052,0-0.078c0.17,0.013,0.035-0.277,0.078-0.392c0-0.026,0-0.053,0-0.078
		c0.17,0.013,0.035-0.278,0.078-0.393c0-0.025,0-0.052,0-0.077c0.137-0.334,0.209-0.73,0.235-1.176c0-0.025,0-0.052,0-0.078
		c0.267-0.854,0.438-1.807,0.626-2.74c0.078-0.21,0.162-0.413,0.157-0.706c0.187-0.283,0.231-0.708,0.313-1.096
		c0-0.026,0-0.053,0-0.079c0.112-0.096,0.147-0.269,0.156-0.47c0-0.025,0-0.052,0-0.078c0.112-0.097,0.148-0.269,0.157-0.47
		c0-0.026,0-0.053,0-0.078c0.13-0.183,0.204-0.423,0.234-0.705c0-0.026,0-0.052,0-0.078c0.343-0.779,0.584-1.661,0.861-2.506
		c0-0.027,0-0.053,0-0.079c0.191-0.175,0.22-0.511,0.313-0.783c0-0.026,0-0.052,0-0.078c0.196-0.247,0.289-0.598,0.392-0.94
		c0-0.025,0-0.052,0-0.078c0.17-0.169,0.222-0.457,0.313-0.704c0-0.026,0-0.053,0-0.079c6.009-14.119,15.593-24.664,28.586-31.798
		c-2.748-4.896-5.698-9.786-8.537-14.724c-0.812-1.417-2.347-3.648-2.584-5.404c0-0.026,0-0.052,0-0.078
		C1259.695,178.493,1260.322,177.866,1261.3,177.59z M1271.873,221.45c-0.025,0-0.053,0-0.079,0c-3.06,0.49-4.994,2.523-4.698,6.108
		c0,0.026,0,0.053,0,0.078c0.006,0.124-0.037,0.3,0.078,0.313c-0.024,0.182,0.014,0.301,0.078,0.392
		c0.563,1.839,1.775,3.028,3.604,3.604c0.09,0.065,0.209,0.104,0.391,0.077c0.025,0.107,0.196,0.065,0.313,0.079
		c0.025,0,0.053,0,0.079,0c3.583,0.294,5.614-1.643,6.107-4.699c0-0.026,0-0.052,0-0.078c0.131-0.161,0.131-0.857,0-1.019
		c0-0.026,0-0.052,0-0.078c-0.044-0.138,0.096-0.46-0.077-0.47c0-0.026,0-0.053,0-0.079c-0.514-2.253-1.898-3.637-4.151-4.15
		c-0.026,0-0.052,0-0.078,0c-0.01-0.173-0.332-0.033-0.471-0.078c-0.025,0-0.051,0-0.077,0
		C1272.731,221.32,1272.033,221.32,1271.873,221.45z M1331.631,221.45c-0.025,0-0.051,0-0.078,0c-0.137,0.045-0.46-0.095-0.47,0.078
		c-0.025,0-0.052,0-0.078,0c-2.25,0.518-3.637,1.898-4.151,4.15c0,0.026,0,0.053,0,0.079c-0.172,0.01-0.033,0.332-0.077,0.47
		c0,0.026,0,0.052,0,0.078c-0.13,0.161-0.13,0.857,0,1.019c0,0.026,0,0.052,0,0.078c0.487,3.062,2.531,4.986,6.108,4.699
		c0.025,0,0.053,0,0.078,0c0.124-0.007,0.299,0.037,0.313-0.079c0.182,0.026,0.301-0.012,0.392-0.077
		c1.759-0.538,2.917-1.678,3.525-3.368c0.068-0.192,0.182-0.34,0.155-0.627c0.106-0.023,0.065-0.195,0.079-0.313
		c0-0.025,0-0.052,0-0.078c0.291-3.581-1.64-5.619-4.699-6.108c-0.027,0-0.053,0-0.078,0
		C1332.489,221.32,1331.792,221.32,1331.631,221.45z"/>
	<path fill-rule="evenodd" clip-rule="evenodd" fill="#F5F5FF" d="M1345.182,180.019c-0.044,0.114,0.09,0.405-0.079,0.392
		C1345.146,180.296,1345.011,180.006,1345.182,180.019z"/>
	<path fill-rule="evenodd" clip-rule="evenodd" fill="#F5F5FF" d="M1300.303,191.688c1.149-0.131,2.846-0.131,3.995,0
		C1302.966,191.688,1301.635,191.688,1300.303,191.688z"/>
	<path fill-rule="evenodd" clip-rule="evenodd" fill="#F5F5FF" d="M1298.424,191.767c0.366-0.181,1.069-0.026,1.566-0.078
		C1299.623,191.87,1298.92,191.715,1298.424,191.767z"/>
	<path fill-rule="evenodd" clip-rule="evenodd" fill="#F5F5FF" d="M1304.611,191.688c0.496,0.052,1.199-0.103,1.566,0.078
		C1305.681,191.715,1304.978,191.87,1304.611,191.688z"/>
	<path fill-rule="evenodd" clip-rule="evenodd" fill="#F5F5FF" d="M1297.17,191.845c0.212-0.181,0.756-0.027,1.097-0.078
		C1298.056,191.947,1297.511,191.795,1297.17,191.845z"/>
	<path fill-rule="evenodd" clip-rule="evenodd" fill="#F5F5FF" d="M1306.334,191.767c0.315,0.051,0.833-0.103,1.019,0.078
		C1307.037,191.795,1306.52,191.946,1306.334,191.767z"/>
	<path fill-rule="evenodd" clip-rule="evenodd" fill="#F5F5FF" d="M1296.23,191.923c0.135-0.179,0.598-0.028,0.862-0.078
		C1296.958,192.024,1296.494,191.873,1296.23,191.923z"/>
	<path fill-rule="evenodd" clip-rule="evenodd" fill="#F5F5FF" d="M1307.509,191.845c0.264,0.05,0.728-0.101,0.861,0.078
		C1308.106,191.873,1307.644,192.024,1307.509,191.845z"/>
	<path fill-rule="evenodd" clip-rule="evenodd" fill="#F5F5FF" d="M1295.369,192.001c0.109-0.179,0.545-0.028,0.783-0.078
		C1296.044,192.102,1295.606,191.952,1295.369,192.001z"/>
	<path fill-rule="evenodd" clip-rule="evenodd" fill="#F5F5FF" d="M1308.448,191.923c0.213,0.049,0.622-0.1,0.706,0.078
		C1308.941,191.953,1308.532,192.101,1308.448,191.923z"/>
	<path fill-rule="evenodd" clip-rule="evenodd" fill="#F5F5FF" d="M1294.664,192.08c0.059-0.177,0.439-0.031,0.626-0.079
		C1295.232,192.178,1294.852,192.032,1294.664,192.08z"/>
	<path fill-rule="evenodd" clip-rule="evenodd" fill="#F5F5FF" d="M1309.232,192.001c0.212,0.049,0.62-0.099,0.704,0.079
		C1309.725,192.031,1309.314,192.179,1309.232,192.001z"/>
	<path fill-rule="evenodd" clip-rule="evenodd" fill="#F5F5FF" d="M1293.96,192.158c0.058-0.177,0.438-0.031,0.626-0.078
		C1294.527,192.256,1294.146,192.11,1293.96,192.158z"/>
	<path fill-rule="evenodd" clip-rule="evenodd" fill="#F5F5FF" d="M1293.333,192.236c0.034-0.175,0.386-0.032,0.548-0.078
		C1293.848,192.333,1293.495,192.189,1293.333,192.236z"/>
	<path fill-rule="evenodd" clip-rule="evenodd" fill="#F5F5FF" d="M1292.785,192.315c0.01-0.174,0.332-0.034,0.469-0.079
		C1293.244,192.409,1292.922,192.27,1292.785,192.315z"/>
	<path fill-rule="evenodd" clip-rule="evenodd" fill="#F5F5FF" d="M1311.269,192.236c0.161,0.047,0.515-0.097,0.548,0.079
		C1311.654,192.268,1311.303,192.412,1311.269,192.236z"/>
	<path fill-rule="evenodd" clip-rule="evenodd" fill="#F5F5FF" d="M1292.236,192.394c0.01-0.173,0.332-0.033,0.47-0.078
		C1292.696,192.487,1292.374,192.349,1292.236,192.394z"/>
	<path fill-rule="evenodd" clip-rule="evenodd" fill="#F5F5FF" d="M1311.896,192.315c0.137,0.045,0.46-0.095,0.469,0.078
		C1312.227,192.349,1311.904,192.487,1311.896,192.315z"/>
	<path fill-rule="evenodd" clip-rule="evenodd" fill="#F5F5FF" d="M1315.968,193.02c0.124,0.007,0.299-0.037,0.313,0.078
		C1316.164,193.085,1315.992,193.126,1315.968,193.02z"/>
	<path fill-rule="evenodd" clip-rule="evenodd" fill="#F5F5FF" d="M1287.929,193.177c0.024-0.106,0.196-0.066,0.313-0.079
		C1288.228,193.214,1288.053,193.17,1287.929,193.177z"/>
	<path fill-rule="evenodd" clip-rule="evenodd" fill="#F5F5FF" d="M1271.873,221.45c0.16-0.13,0.858-0.13,1.019,0
		C1272.552,221.45,1272.212,221.45,1271.873,221.45z"/>
	<path fill-rule="evenodd" clip-rule="evenodd" fill="#F5F5FF" d="M1331.631,221.45c0.161-0.13,0.858-0.13,1.02,0
		C1332.31,221.45,1331.971,221.45,1331.631,221.45z"/>
	<path fill-rule="evenodd" clip-rule="evenodd" fill="#F5F5FF" d="M1272.969,221.45c0.139,0.045,0.461-0.095,0.471,0.078
		C1273.302,221.483,1272.979,221.623,1272.969,221.45z"/>
	<path fill-rule="evenodd" clip-rule="evenodd" fill="#F5F5FF" d="M1331.083,221.528c0.01-0.173,0.333-0.033,0.47-0.078
		C1331.543,221.623,1331.221,221.483,1331.083,221.528z"/>
	<path fill-rule="evenodd" clip-rule="evenodd" fill="#F5F5FF" d="M1277.669,225.758c0.173,0.01,0.033,0.332,0.077,0.47
		C1277.574,226.218,1277.714,225.896,1277.669,225.758z"/>
	<path fill-rule="evenodd" clip-rule="evenodd" fill="#F5F5FF" d="M1326.854,225.758c-0.045,0.138,0.095,0.46-0.077,0.47
		C1326.82,226.09,1326.682,225.768,1326.854,225.758z"/>
	<path fill-rule="evenodd" clip-rule="evenodd" fill="#F5F5FF" d="M1277.746,226.306c0.131,0.161,0.131,0.857,0,1.019
		C1277.746,226.984,1277.746,226.645,1277.746,226.306z"/>
	<path fill-rule="evenodd" clip-rule="evenodd" fill="#F5F5FF" d="M1326.776,226.306c0,0.339,0,0.679,0,1.019
		C1326.646,227.163,1326.646,226.467,1326.776,226.306z"/>
	<path fill-rule="evenodd" clip-rule="evenodd" fill="#F5F5FF" d="M1267.096,227.637c0.116,0.015,0.072,0.19,0.078,0.313
		C1267.059,227.937,1267.102,227.761,1267.096,227.637z"/>
	<path fill-rule="evenodd" clip-rule="evenodd" fill="#F5F5FF" d="M1337.428,227.637c-0.014,0.118,0.027,0.29-0.079,0.313
		C1337.361,227.833,1337.321,227.661,1337.428,227.637z"/>
	<path fill-rule="evenodd" clip-rule="evenodd" fill="#F5F5FF" d="M1271.246,232.022c0.117,0.014,0.289-0.027,0.313,0.079
		C1271.442,232.088,1271.271,232.13,1271.246,232.022z"/>
	<path fill-rule="evenodd" clip-rule="evenodd" fill="#F5F5FF" d="M1332.963,232.102c0.015-0.116,0.189-0.072,0.313-0.079
		C1333.262,232.139,1333.087,232.095,1332.963,232.102z"/>
	<path fill-rule="evenodd" clip-rule="evenodd" fill="#F5F5FF" d="M1366.249,244.163c0.106,0.023,0.064,0.196,0.079,0.313
		C1366.211,244.462,1366.256,244.286,1366.249,244.163z"/>
	<path fill-rule="evenodd" clip-rule="evenodd" fill="#F5F5FF" d="M1238.195,244.554c-0.043,0.114,0.092,0.405-0.078,0.393
		C1238.16,244.832,1238.025,244.541,1238.195,244.554z"/>
	<path fill-rule="evenodd" clip-rule="evenodd" fill="#F5F5FF" d="M1366.328,244.554c0.169-0.013,0.035,0.278,0.078,0.393
		C1366.235,244.959,1366.37,244.668,1366.328,244.554z"/>
	<path fill-rule="evenodd" clip-rule="evenodd" fill="#F5F5FF" d="M1238.117,245.024c-0.043,0.114,0.092,0.404-0.078,0.392
		C1238.082,245.302,1237.947,245.012,1238.117,245.024z"/>
	<path fill-rule="evenodd" clip-rule="evenodd" fill="#F5F5FF" d="M1366.406,245.024c0.169-0.013,0.035,0.277,0.077,0.392
		C1366.314,245.429,1366.448,245.139,1366.406,245.024z"/>
	<path fill-rule="evenodd" clip-rule="evenodd" fill="#F5F5FF" d="M1238.039,245.494c-0.043,0.114,0.092,0.405-0.078,0.392
		C1238.003,245.772,1237.869,245.48,1238.039,245.494z"/>
	<path fill-rule="evenodd" clip-rule="evenodd" fill="#F5F5FF" d="M1366.483,245.494c0.171-0.014,0.036,0.278,0.079,0.392
		C1366.393,245.899,1366.527,245.608,1366.483,245.494z"/>
	<path fill-rule="evenodd" clip-rule="evenodd" fill="#F5F5FF" d="M1366.562,245.964c0.173,0.01,0.033,0.332,0.078,0.471
		C1366.468,246.425,1366.607,246.102,1366.562,245.964z"/>
	<path fill-rule="evenodd" clip-rule="evenodd" fill="#F5F5FF" d="M1366.641,246.512c0.173,0.01,0.033,0.333,0.078,0.471
		C1366.547,246.973,1366.687,246.65,1366.641,246.512z"/>
	<path fill-rule="evenodd" clip-rule="evenodd" fill="#F5F5FF" d="M1237.804,247.061c-0.045,0.138,0.095,0.46-0.078,0.47
		C1237.771,247.393,1237.631,247.07,1237.804,247.061z"/>
	<path fill-rule="evenodd" clip-rule="evenodd" fill="#F5F5FF" d="M1366.719,247.061c0.173,0.01,0.033,0.332,0.078,0.47
		C1366.624,247.521,1366.764,247.198,1366.719,247.061z"/>
	<path fill-rule="evenodd" clip-rule="evenodd" fill="#F5F5FF" d="M1237.726,247.609c-0.046,0.162,0.097,0.514-0.079,0.548
		C1237.693,247.995,1237.551,247.643,1237.726,247.609z"/>
	<path fill-rule="evenodd" clip-rule="evenodd" fill="#F5F5FF" d="M1366.797,247.609c0.176,0.033,0.032,0.386,0.079,0.548
		C1366.701,248.123,1366.844,247.771,1366.797,247.609z"/>
	<path fill-rule="evenodd" clip-rule="evenodd" fill="#F5F5FF" d="M1237.646,248.235c-0.047,0.188,0.1,0.568-0.077,0.626
		C1237.616,248.675,1237.471,248.294,1237.646,248.235z"/>
	<path fill-rule="evenodd" clip-rule="evenodd" fill="#F5F5FF" d="M1366.876,248.235c0.177,0.059,0.03,0.439,0.078,0.626
		C1366.777,248.804,1366.923,248.423,1366.876,248.235z"/>
	<path fill-rule="evenodd" clip-rule="evenodd" fill="#F5F5FF" d="M1237.569,248.94c-0.048,0.188,0.098,0.568-0.078,0.627
		C1237.538,249.379,1237.393,248.999,1237.569,248.94z"/>
	<path fill-rule="evenodd" clip-rule="evenodd" fill="#F5F5FF" d="M1366.954,248.94c0.177,0.059,0.03,0.438,0.077,0.627
		C1366.855,249.509,1367.001,249.128,1366.954,248.94z"/>
	<path fill-rule="evenodd" clip-rule="evenodd" fill="#F5F5FF" d="M1237.491,249.646c-0.05,0.237,0.1,0.675-0.079,0.783
		C1237.461,250.189,1237.312,249.754,1237.491,249.646z"/>
	<path fill-rule="evenodd" clip-rule="evenodd" fill="#F5F5FF" d="M1367.031,249.646c0.18,0.108,0.03,0.544,0.079,0.783
		C1366.932,250.32,1367.082,249.883,1367.031,249.646z"/>
	<path fill-rule="evenodd" clip-rule="evenodd" fill="#F5F5FF" d="M1259.42,179.471c0.174-1.079,0.801-1.706,1.88-1.88
		C1260.322,177.866,1259.695,178.493,1259.42,179.471z"/>
	<path fill-rule="evenodd" clip-rule="evenodd" fill="#F5F5FF" d="M1259.42,179.548c0.237,1.756,1.771,3.988,2.584,5.404
		c2.839,4.938,5.789,9.828,8.537,14.724c-12.993,7.134-22.577,17.679-28.586,31.798c5.867-14.208,15.53-24.621,28.43-31.798
		c-3-5.451-6.561-11.516-9.867-17.23C1259.949,181.466,1259.168,180.499,1259.42,179.548z"/>
	<path fill-rule="evenodd" clip-rule="evenodd" fill="#F5F5FF" d="M1241.955,231.554c-0.092,0.247-0.144,0.535-0.313,0.704
		C1241.71,231.987,1241.777,231.716,1241.955,231.554z"/>
	<path fill-rule="evenodd" clip-rule="evenodd" fill="#F5F5FF" d="M1241.642,232.336c-0.103,0.343-0.195,0.693-0.392,0.94
		C1241.352,232.935,1241.444,232.584,1241.642,232.336z"/>
	<path fill-rule="evenodd" clip-rule="evenodd" fill="#F5F5FF" d="M1241.25,233.354c-0.094,0.272-0.122,0.608-0.313,0.783
		C1241.029,233.866,1241.06,233.529,1241.25,233.354z"/>
	<path fill-rule="evenodd" clip-rule="evenodd" fill="#F5F5FF" d="M1240.937,234.217c-0.277,0.845-0.519,1.727-0.861,2.506
		C1240.319,235.844,1240.562,234.965,1240.937,234.217z"/>
	<path fill-rule="evenodd" clip-rule="evenodd" fill="#F5F5FF" d="M1240.075,236.801c-0.03,0.282-0.104,0.522-0.234,0.705
		C1239.87,237.223,1239.943,236.982,1240.075,236.801z"/>
	<path fill-rule="evenodd" clip-rule="evenodd" fill="#F5F5FF" d="M1239.841,237.584c-0.009,0.201-0.045,0.373-0.157,0.47
		C1239.691,237.854,1239.729,237.68,1239.841,237.584z"/>
	<path fill-rule="evenodd" clip-rule="evenodd" fill="#F5F5FF" d="M1239.684,238.132c-0.009,0.201-0.044,0.374-0.156,0.47
		C1239.535,238.401,1239.57,238.229,1239.684,238.132z"/>
	<path fill-rule="evenodd" clip-rule="evenodd" fill="#F5F5FF" d="M1239.527,238.681c-0.082,0.388-0.127,0.812-0.313,1.096
		C1239.296,239.389,1239.341,238.963,1239.527,238.681z"/>
	<path fill-rule="evenodd" clip-rule="evenodd" fill="#F5F5FF" d="M1239.057,240.482c-0.188,0.934-0.359,1.886-0.626,2.74
		C1238.587,242.257,1238.766,241.312,1239.057,240.482z"/>
	<path fill-rule="evenodd" clip-rule="evenodd" fill="#F5F5FF" d="M1238.431,243.301c-0.026,0.445-0.099,0.842-0.235,1.176
		C1238.221,244.032,1238.294,243.634,1238.431,243.301z"/>
	<path fill-rule="evenodd" clip-rule="evenodd" fill="#F5F5FF" d="M1237.961,245.964c-0.016,0.376-0.037,0.746-0.157,1.019
		C1237.8,246.587,1237.834,246.23,1237.961,245.964z"/>
	<path fill-rule="evenodd" clip-rule="evenodd" fill="#F5F5FF" d="M1237.412,250.507c0.015,0.063,0.079,0.078,0.079,0.156
		c43.178,0,86.362,0,129.54,0c0.016-0.063,0.079-0.078,0.079-0.156c-0.433,0.436-1.13,0.234-1.644,0.234
		c-41.043,0.001-82.479,0-123.825,0C1240.428,250.741,1237.677,250.908,1237.412,250.507z"/>
	<path fill-rule="evenodd" clip-rule="evenodd" fill="#F5F5FF" d="M1365.857,242.205c0.209,0.549,0.313,1.2,0.392,1.88
		C1366.06,243.517,1365.959,242.86,1365.857,242.205z"/>
	<path fill-rule="evenodd" clip-rule="evenodd" fill="#F5F5FF" d="M1365.701,241.5c0.115,0.145,0.149,0.372,0.156,0.627
		C1365.741,241.981,1365.707,241.755,1365.701,241.5z"/>
	<path fill-rule="evenodd" clip-rule="evenodd" fill="#F5F5FF" d="M1365.074,238.994c0.291,0.727,0.466,1.57,0.627,2.428
		C1365.435,240.67,1365.263,239.824,1365.074,238.994z"/>
	<path fill-rule="evenodd" clip-rule="evenodd" fill="#F5F5FF" d="M1364.369,236.565c0.318,0.699,0.514,1.523,0.705,2.35
		C1364.778,238.193,1364.59,237.363,1364.369,236.565z"/>
	<path fill-rule="evenodd" clip-rule="evenodd" fill="#F5F5FF" d="M1363.665,234.451c0.294,0.514,0.461,1.156,0.626,1.801
		C1364.026,235.708,1363.863,235.062,1363.665,234.451z"/>
	<path fill-rule="evenodd" clip-rule="evenodd" fill="#F5F5FF" d="M1345.103,180.488c-3.53,6.494-7.304,12.746-10.965,19.11
		c13.682,7.752,23.868,18.999,29.527,34.774c-5.774-15.687-15.922-26.998-29.605-34.774
		C1337.76,193.247,1341.438,186.875,1345.103,180.488z"/>
	<path fill-rule="evenodd" clip-rule="evenodd" fill="#F5F5FF" d="M1343.85,177.747c0.731,0.339,1.257,0.884,1.332,1.88
		C1345.003,178.734,1344.509,178.158,1343.85,177.747z"/>
	<path fill-rule="evenodd" clip-rule="evenodd" fill="#F5F5FF" d="M1343.301,177.59c0.226-0.016,0.398,0.02,0.471,0.157
		C1343.634,177.676,1343.381,177.721,1343.301,177.59z"/>
	<path fill-rule="evenodd" clip-rule="evenodd" fill="#F5F5FF" d="M1327.245,196.388c0.938,0.316,1.761,0.745,2.663,1.097
		c2.033-2.929,3.738-6.272,5.718-9.712c1.341-2.329,2.773-4.795,4.229-7.284c0.76-1.301,1.152-2.599,2.741-2.898
		c-1.972,0.748-2.639,2.979-3.604,4.622c-2.972,5.061-5.965,10.428-9.006,15.429
		C1329.138,197.159,1328.089,196.876,1327.245,196.388z"/>
	<path fill-rule="evenodd" clip-rule="evenodd" fill="#F5F5FF" d="M1324.975,195.526c0.767,0.25,1.538,0.498,2.193,0.861
		C1326.42,196.116,1325.645,195.874,1324.975,195.526z"/>
	<path fill-rule="evenodd" clip-rule="evenodd" fill="#F5F5FF" d="M1320.823,194.193c1.425,0.378,2.824,0.78,4.073,1.333
		C1323.552,195.068,1322.145,194.674,1320.823,194.193z"/>
	<path fill-rule="evenodd" clip-rule="evenodd" fill="#F5F5FF" d="M1319.962,193.959c0.288,0.051,0.599,0.08,0.783,0.234
		C1320.456,194.145,1320.146,194.114,1319.962,193.959z"/>
	<path fill-rule="evenodd" clip-rule="evenodd" fill="#F5F5FF" d="M1316.359,193.098c1.242,0.219,2.447,0.476,3.524,0.861
		C1318.706,193.676,1317.492,193.426,1316.359,193.098z"/>
	<path fill-rule="evenodd" clip-rule="evenodd" fill="#F5F5FF" d="M1312.443,192.394c1.213,0.144,2.402,0.312,3.445,0.626
		C1314.738,192.813,1313.542,192.652,1312.443,192.394z"/>
	<path fill-rule="evenodd" clip-rule="evenodd" fill="#F5F5FF" d="M1310.016,192.08c0.446-0.004,0.857,0.029,1.174,0.156
		C1310.76,192.224,1310.338,192.199,1310.016,192.08z"/>
	<path fill-rule="evenodd" clip-rule="evenodd" fill="#F5F5FF" d="M1290.749,192.629c0.409-0.139,0.886-0.212,1.409-0.235
		C1291.748,192.531,1291.271,192.604,1290.749,192.629z"/>
	<path fill-rule="evenodd" clip-rule="evenodd" fill="#F5F5FF" d="M1289.887,192.784c0.195-0.118,0.476-0.15,0.783-0.155
		C1290.476,192.747,1290.194,192.779,1289.887,192.784z"/>
	<path fill-rule="evenodd" clip-rule="evenodd" fill="#F5F5FF" d="M1288.32,193.098c0.42-0.181,0.938-0.262,1.488-0.313
		C1289.371,192.948,1288.846,193.022,1288.32,193.098z"/>
	<path fill-rule="evenodd" clip-rule="evenodd" fill="#F5F5FF" d="M1287.224,193.332c0.145-0.115,0.372-0.148,0.626-0.155
		C1287.705,193.292,1287.479,193.326,1287.224,193.332z"/>
	<path fill-rule="evenodd" clip-rule="evenodd" fill="#F5F5FF" d="M1284.404,194.038c0.831-0.318,1.779-0.519,2.742-0.706
		C1286.289,193.625,1285.34,193.824,1284.404,194.038z"/>
	<path fill-rule="evenodd" clip-rule="evenodd" fill="#F5F5FF" d="M1283.856,194.193c0.097-0.111,0.27-0.147,0.47-0.155
		C1284.229,194.15,1284.058,194.186,1283.856,194.193z"/>
	<path fill-rule="evenodd" clip-rule="evenodd" fill="#F5F5FF" d="M1283.309,194.352c0.096-0.112,0.269-0.148,0.469-0.158
		C1283.682,194.307,1283.509,194.343,1283.309,194.352z"/>
	<path fill-rule="evenodd" clip-rule="evenodd" fill="#F5F5FF" d="M1282.524,194.586c0.183-0.131,0.423-0.204,0.705-0.234
		C1283.047,194.482,1282.807,194.556,1282.524,194.586z"/>
	<path fill-rule="evenodd" clip-rule="evenodd" fill="#F5F5FF" d="M1279.47,195.604c0.904-0.427,1.941-0.722,2.977-1.019
		C1281.51,194.981,1280.472,195.274,1279.47,195.604z"/>
	<path fill-rule="evenodd" clip-rule="evenodd" fill="#F5F5FF" d="M1262.004,177.59c1.979,0.512,3.014,3.522,3.995,5.248
		c2.758,4.847,5.934,9.967,8.537,14.725c1.584-0.688,3.151-1.392,4.856-1.958c-1.592,0.706-3.293,1.302-4.856,2.036
		c-3.156-5.555-6.783-11.594-10.104-17.388C1263.755,179.071,1263.394,177.851,1262.004,177.59z"/>
	<path fill-rule="evenodd" clip-rule="evenodd" fill="#F5F5FF" d="M1267.096,227.559c-0.296-3.585,1.639-5.618,4.698-6.108
		C1268.855,222.113,1266.961,223.82,1267.096,227.559z"/>
	<path fill-rule="evenodd" clip-rule="evenodd" fill="#F5F5FF" d="M1267.252,228.342c0.65,1.752,1.852,2.953,3.604,3.604
		C1269.027,231.37,1267.815,230.181,1267.252,228.342z"/>
	<path fill-rule="evenodd" clip-rule="evenodd" fill="#F5F5FF" d="M1271.639,232.102c3.739,0.137,5.441-1.764,6.107-4.699
		C1277.253,230.459,1275.222,232.396,1271.639,232.102z"/>
	<path fill-rule="evenodd" clip-rule="evenodd" fill="#F5F5FF" d="M1273.518,221.528c2.253,0.514,3.638,1.897,4.151,4.15
		C1277.061,223.521,1275.677,222.137,1273.518,221.528z"/>
	<path fill-rule="evenodd" clip-rule="evenodd" fill="#F5F5FF" d="M1326.854,225.679c0.515-2.252,1.901-3.633,4.151-4.15
		C1328.846,222.137,1327.463,223.521,1326.854,225.679z"/>
	<path fill-rule="evenodd" clip-rule="evenodd" fill="#F5F5FF" d="M1326.776,227.402c0.667,2.936,2.372,4.833,6.108,4.699
		C1329.308,232.389,1327.264,230.465,1326.776,227.402z"/>
	<path fill-rule="evenodd" clip-rule="evenodd" fill="#F5F5FF" d="M1333.668,231.945c1.68-0.618,2.845-1.751,3.525-3.368
		C1336.585,230.268,1335.427,231.407,1333.668,231.945z"/>
	<path fill-rule="evenodd" clip-rule="evenodd" fill="#F5F5FF" d="M1332.729,221.45c3.06,0.489,4.99,2.527,4.699,6.108
		C1337.562,223.82,1335.668,222.113,1332.729,221.45z"/>
	<path fill-rule="evenodd" clip-rule="evenodd" fill="#FFFFFF" d="M1337.349,227.95c0.026,0.287-0.087,0.435-0.155,0.627
		c-0.681,1.617-1.846,2.75-3.525,3.368c-0.091,0.065-0.21,0.104-0.392,0.077c-0.124,0.007-0.299-0.037-0.313,0.079
		c-0.025,0-0.053,0-0.078,0c-3.736,0.134-5.441-1.764-6.108-4.699c0-0.026,0-0.052,0-0.078c0-0.34,0-0.68,0-1.019
		c0-0.026,0-0.052,0-0.078c0.172-0.01,0.032-0.332,0.077-0.47c0-0.026,0-0.053,0-0.079c0.609-2.158,1.992-3.542,4.151-4.15
		c0.026,0,0.053,0,0.078,0c0.138-0.045,0.46,0.095,0.47-0.078c0.027,0,0.053,0,0.078,0c0.34,0,0.679,0,1.02,0
		c0.025,0,0.051,0,0.078,0c2.939,0.663,4.834,2.37,4.699,6.108c0,0.026,0,0.053,0,0.078
		C1337.321,227.661,1337.361,227.833,1337.349,227.95z"/>
	<path fill-rule="evenodd" clip-rule="evenodd" fill="#FFFFFF" d="M1271.246,232.022c-0.182,0.026-0.301-0.012-0.391-0.077
		c-1.752-0.65-2.953-1.852-3.604-3.604c-0.064-0.091-0.103-0.21-0.078-0.392c-0.006-0.123,0.038-0.299-0.078-0.313
		c0-0.025,0-0.052,0-0.078c-0.135-3.738,1.76-5.445,4.698-6.108c0.026,0,0.054,0,0.079,0c0.339,0,0.679,0,1.019,0
		c0.026,0,0.052,0,0.077,0c0.011,0.173,0.333,0.033,0.471,0.078c0.026,0,0.052,0,0.078,0c2.159,0.608,3.543,1.992,4.151,4.15
		c0,0.026,0,0.053,0,0.079c0.045,0.138-0.095,0.46,0.077,0.47c0,0.026,0,0.052,0,0.078c0,0.339,0,0.679,0,1.019
		c0,0.026,0,0.052,0,0.078c-0.666,2.936-2.368,4.836-6.107,4.699c-0.026,0-0.054,0-0.079,0
		C1271.535,231.995,1271.363,232.036,1271.246,232.022z"/>
</g>
<g>
	<path fill-rule="evenodd" clip-rule="evenodd" fill="#F5F5FF" d="M255.054,175.077c0.011-0.128,0.538-0.128,0.549,0
		C255.42,175.077,255.237,175.077,255.054,175.077z"/>
	<path fill-rule="evenodd" clip-rule="evenodd" fill="#F5F5FF" d="M336.35,175.077c0.011-0.128,0.539-0.128,0.549,0
		C336.717,175.077,336.533,175.077,336.35,175.077z"/>
	<path fill-rule="evenodd" clip-rule="evenodd" fill="#F5F5FF" d="M254.976,175.077c0.026,0,0.052,0,0.078,0
		c0.183,0,0.366,0,0.549,0c0.026,0,0.052,0,0.078,0c1.389,0.26,1.751,1.481,2.428,2.663c3.32,5.794,6.947,11.833,10.104,17.388
		c1.563-0.734,3.265-1.33,4.856-2.036c0.026,0,0.052,0,0.078,0c1.002-0.33,2.04-0.623,2.976-1.019c0.026,0,0.052,0,0.078,0
		c0.283-0.03,0.523-0.104,0.706-0.234c0.025,0,0.051,0,0.079,0c0.2-0.009,0.373-0.045,0.469-0.158c0.026,0,0.052,0,0.079,0
		c0.201-0.008,0.373-0.043,0.469-0.155c0.026,0,0.053,0,0.079,0c0.936-0.214,1.885-0.413,2.742-0.706c0.026,0,0.051,0,0.078,0
		c0.254-0.006,0.481-0.04,0.626-0.155c0.027,0,0.053,0,0.079,0c0.125-0.007,0.299,0.037,0.313-0.079c0.026,0,0.052,0,0.079,0
		c0.525-0.075,1.051-0.149,1.488-0.313c0.025,0,0.052,0,0.078,0c0.308-0.005,0.589-0.037,0.784-0.155c0.025,0,0.052,0,0.079,0
		c0.523-0.025,1-0.098,1.409-0.235c0.026,0,0.052,0,0.078,0c0.138-0.046,0.46,0.094,0.47-0.078c0.026,0,0.052,0,0.079,0
		c0.137-0.046,0.459,0.094,0.469-0.079c0.026,0,0.053,0,0.079,0c0.162-0.047,0.514,0.097,0.548-0.078c0.027,0,0.052,0,0.079,0
		c0.187-0.048,0.568,0.098,0.626-0.078c0.026,0,0.052,0,0.078,0c0.187-0.048,0.568,0.098,0.626-0.079c0.027,0,0.053,0,0.079,0
		c0.238-0.049,0.675,0.101,0.783-0.078c0.027,0,0.052,0,0.078,0c0.264-0.05,0.728,0.102,0.862-0.078c0.025,0,0.052,0,0.078,0
		c0.341-0.05,0.886,0.103,1.096-0.078c0.053,0,0.105,0,0.157,0c0.497-0.052,1.2,0.104,1.566-0.078c0.104,0,0.208,0,0.313,0
		c1.332,0,2.663,0,3.995,0c0.104,0,0.208,0,0.313,0c0.367,0.182,1.07,0.026,1.567,0.078c0.051,0,0.104,0,0.156,0
		c0.186,0.18,0.703,0.028,1.019,0.078c0.052,0,0.104,0,0.157,0c0.134,0.18,0.597,0.028,0.861,0.078c0.026,0,0.052,0,0.078,0
		c0.084,0.178,0.493,0.03,0.706,0.078c0.026,0,0.052,0,0.079,0c0.082,0.178,0.492,0.03,0.704,0.079c0.026,0,0.053,0,0.079,0
		c0.323,0.119,0.744,0.144,1.175,0.156c0.026,0,0.052,0,0.079,0c0.034,0.176,0.386,0.031,0.548,0.079c0.025,0,0.051,0,0.079,0
		c0.009,0.172,0.331,0.032,0.469,0.078c0.026,0,0.053,0,0.079,0c1.099,0.259,2.295,0.42,3.445,0.626c0.027,0,0.053,0,0.079,0
		c0.024,0.106,0.196,0.065,0.313,0.078c0.025,0,0.051,0,0.078,0c1.134,0.328,2.347,0.578,3.525,0.861c0.026,0,0.052,0,0.078,0
		c0.185,0.155,0.494,0.185,0.783,0.234c0.026,0,0.052,0,0.078,0c1.322,0.48,2.729,0.875,4.073,1.333c0.026,0,0.052,0,0.079,0
		c0.67,0.348,1.445,0.589,2.192,0.861c0.026,0,0.052,0,0.078,0c0.844,0.488,1.892,0.771,2.742,1.253
		c3.041-5.001,6.034-10.368,9.006-15.429c0.964-1.643,1.631-3.874,3.603-4.622c0.026,0,0.052,0,0.078,0c0.183,0,0.367,0,0.549,0
		c0.026,0,0.052,0,0.078,0c0.08,0.13,0.333,0.085,0.47,0.157c0.027,0,0.052,0,0.078,0c0.66,0.41,1.154,0.987,1.332,1.88
		c0,0.13,0,0.261,0,0.392c-0.17-0.013-0.035,0.278-0.079,0.392c0,0.026,0,0.052,0,0.078c-3.665,6.386-7.343,12.759-11.043,19.109
		c13.684,7.776,23.832,19.089,29.606,34.775c0,0.025,0,0.052,0,0.077c0.199,0.61,0.362,1.259,0.626,1.802
		c-0.033,0.164,0.054,0.207,0.078,0.313c0.221,0.799,0.41,1.628,0.705,2.35c0,0.025,0,0.053,0,0.078
		c0.188,0.831,0.36,1.677,0.627,2.429c0,0.025,0,0.051,0,0.078c0.006,0.254,0.04,0.48,0.157,0.627c0,0.025,0,0.052,0,0.077
		c0.101,0.655,0.202,1.313,0.391,1.88c0,0.026,0,0.052,0,0.079c0.006,0.124-0.038,0.299,0.079,0.313c0,0.025,0,0.052,0,0.077
		c0.042,0.114-0.093,0.405,0.078,0.392c0,0.026,0,0.054,0,0.079c0.042,0.114-0.091,0.405,0.078,0.391c0,0.027,0,0.053,0,0.079
		c0.043,0.113-0.092,0.404,0.079,0.392c0,0.025,0,0.052,0,0.079c0.045,0.137-0.095,0.459,0.078,0.469c0,0.026,0,0.052,0,0.079
		c0.046,0.138-0.094,0.46,0.079,0.469c0,0.026,0,0.054,0,0.079c0.044,0.139-0.095,0.46,0.078,0.469c0,0.026,0,0.054,0,0.079
		c0.046,0.162-0.097,0.515,0.079,0.548c0,0.027,0,0.054,0,0.079c0.047,0.188-0.099,0.569,0.078,0.627c0,0.025,0,0.051,0,0.078
		c0.047,0.187-0.098,0.567,0.078,0.627c0,0.025,0,0.052,0,0.077c0.05,0.238-0.1,0.675,0.079,0.784c0,0.026,0,0.052,0,0.077
		c0,0.079-0.063,0.094-0.079,0.157c-43.178,0-86.363,0-129.541,0c0-0.078-0.064-0.093-0.079-0.157c0-0.025,0-0.051,0-0.077
		c0.178-0.109,0.029-0.546,0.079-0.784c0-0.025,0-0.052,0-0.077c0.176-0.06,0.031-0.44,0.078-0.627c0-0.027,0-0.053,0-0.078
		c0.177-0.058,0.03-0.438,0.078-0.627c0-0.025,0-0.052,0-0.079c0.175-0.033,0.032-0.386,0.079-0.548c0-0.025,0-0.053,0-0.079
		c0.172-0.009,0.033-0.33,0.078-0.469c0-0.025,0-0.053,0-0.079c0.12-0.271,0.142-0.641,0.157-1.017c0-0.027,0-0.054,0-0.079
		c0.17,0.013,0.036-0.278,0.079-0.392c0-0.026,0-0.052,0-0.079c0.17,0.015,0.036-0.276,0.078-0.391c0-0.025,0-0.053,0-0.079
		c0.169,0.014,0.035-0.277,0.078-0.392c0-0.025,0-0.052,0-0.077c0.136-0.334,0.209-0.731,0.235-1.177c0-0.025,0-0.051,0-0.077
		c0.267-0.854,0.438-1.808,0.626-2.741c0.079-0.209,0.162-0.413,0.157-0.705c0.187-0.283,0.231-0.709,0.313-1.097
		c0-0.025,0-0.051,0-0.078c0.112-0.097,0.148-0.269,0.156-0.47c0-0.025,0-0.051,0-0.078c0.113-0.097,0.149-0.269,0.158-0.47
		c0-0.025,0-0.053,0-0.078c0.13-0.182,0.204-0.423,0.234-0.706c0-0.025,0-0.052,0-0.077c0.342-0.779,0.584-1.662,0.861-2.507
		c0-0.025,0-0.052,0-0.079c0.191-0.173,0.22-0.511,0.313-0.782c0-0.025,0-0.052,0-0.079c0.196-0.246,0.289-0.598,0.392-0.939
		c0-0.026,0-0.052,0-0.077c0.17-0.171,0.222-0.458,0.314-0.706c0-0.025,0-0.051,0-0.078c6.008-14.119,15.593-24.664,28.586-31.798
		c-2.749-4.896-5.698-9.786-8.537-14.724c-0.813-1.417-2.347-3.649-2.584-5.404c0-0.026,0-0.052,0-0.078
		C253.371,175.979,253.998,175.352,254.976,175.077z M265.549,218.937c-0.026,0-0.052,0-0.079,0c-3.06,0.49-4.995,2.522-4.699,6.107
		c0,0.027,0,0.054,0,0.079c0.006,0.124-0.037,0.299,0.079,0.313c-0.025,0.182,0.013,0.301,0.078,0.392
		c0.563,1.839,1.776,3.028,3.603,3.604c0.091,0.065,0.21,0.103,0.392,0.077c0.025,0.107,0.196,0.065,0.313,0.078
		c0.026,0,0.053,0,0.079,0c3.583,0.294,5.615-1.642,6.108-4.698c0-0.026,0-0.052,0-0.079c0.13-0.161,0.13-0.856,0-1.017
		c0-0.027,0-0.054,0-0.079c-0.044-0.139,0.095-0.46-0.078-0.47c0-0.027,0-0.053,0-0.078c-0.514-2.253-1.898-3.638-4.151-4.151
		c-0.027,0-0.052,0-0.078,0c-0.01-0.173-0.333-0.033-0.471-0.078c-0.026,0-0.052,0-0.077,0
		C266.407,218.807,265.709,218.807,265.549,218.937z M325.307,218.937c-0.025,0-0.051,0-0.078,0c-0.137,0.045-0.46-0.095-0.47,0.078
		c-0.025,0-0.051,0-0.078,0c-2.25,0.518-3.637,1.898-4.152,4.151c0,0.025,0,0.051,0,0.078c-0.172,0.01-0.033,0.331-0.077,0.47
		c0,0.025,0,0.052,0,0.079c-0.13,0.16-0.13,0.855,0,1.017c0,0.027,0,0.053,0,0.079c0.487,3.062,2.531,4.986,6.108,4.698
		c0.025,0,0.053,0,0.079,0c0.124-0.006,0.299,0.039,0.313-0.078c0.182,0.025,0.3-0.012,0.391-0.077
		c1.759-0.539,2.917-1.678,3.525-3.368c0.069-0.191,0.182-0.339,0.156-0.627c0.106-0.024,0.065-0.196,0.079-0.313
		c0-0.025,0-0.052,0-0.079c0.292-3.58-1.639-5.618-4.699-6.107c-0.027,0-0.053,0-0.079,0
		C326.165,218.807,325.468,218.807,325.307,218.937z"/>
	<path fill-rule="evenodd" clip-rule="evenodd" fill="#F5F5FF" d="M338.857,177.505c-0.043,0.114,0.091,0.405-0.079,0.392
		C338.822,177.783,338.687,177.492,338.857,177.505z"/>
	<path fill-rule="evenodd" clip-rule="evenodd" fill="#F5F5FF" d="M293.979,189.175c1.149-0.131,2.845-0.131,3.995,0
		C296.642,189.175,295.311,189.175,293.979,189.175z"/>
	<path fill-rule="evenodd" clip-rule="evenodd" fill="#F5F5FF" d="M292.1,189.253c0.367-0.181,1.07-0.026,1.566-0.078
		C293.299,189.356,292.596,189.201,292.1,189.253z"/>
	<path fill-rule="evenodd" clip-rule="evenodd" fill="#F5F5FF" d="M298.287,189.175c0.497,0.052,1.2-0.103,1.567,0.078
		C299.356,189.201,298.653,189.356,298.287,189.175z"/>
	<path fill-rule="evenodd" clip-rule="evenodd" fill="#F5F5FF" d="M290.846,189.331c0.211-0.181,0.755-0.027,1.096-0.078
		C291.732,189.434,291.187,189.281,290.846,189.331z"/>
	<path fill-rule="evenodd" clip-rule="evenodd" fill="#F5F5FF" d="M300.009,189.253c0.316,0.051,0.833-0.103,1.019,0.078
		C300.712,189.281,300.195,189.433,300.009,189.253z"/>
	<path fill-rule="evenodd" clip-rule="evenodd" fill="#F5F5FF" d="M289.906,189.409c0.135-0.179,0.598-0.028,0.862-0.078
		C290.634,189.511,290.17,189.359,289.906,189.409z"/>
	<path fill-rule="evenodd" clip-rule="evenodd" fill="#F5F5FF" d="M301.185,189.331c0.264,0.05,0.727-0.101,0.861,0.078
		C301.782,189.359,301.319,189.511,301.185,189.331z"/>
	<path fill-rule="evenodd" clip-rule="evenodd" fill="#F5F5FF" d="M289.045,189.487c0.109-0.179,0.545-0.029,0.783-0.078
		C289.72,189.588,289.283,189.438,289.045,189.487z"/>
	<path fill-rule="evenodd" clip-rule="evenodd" fill="#F5F5FF" d="M302.124,189.409c0.213,0.049,0.622-0.1,0.706,0.078
		C302.617,189.439,302.208,189.587,302.124,189.409z"/>
	<path fill-rule="evenodd" clip-rule="evenodd" fill="#F5F5FF" d="M288.34,189.566c0.059-0.177,0.439-0.031,0.626-0.079
		C288.908,189.664,288.527,189.519,288.34,189.566z"/>
	<path fill-rule="evenodd" clip-rule="evenodd" fill="#F5F5FF" d="M302.909,189.487c0.212,0.049,0.62-0.099,0.704,0.079
		C303.4,189.518,302.99,189.665,302.909,189.487z"/>
	<path fill-rule="evenodd" clip-rule="evenodd" fill="#F5F5FF" d="M287.636,189.645c0.058-0.178,0.438-0.031,0.626-0.078
		C288.204,189.742,287.823,189.597,287.636,189.645z"/>
	<path fill-rule="evenodd" clip-rule="evenodd" fill="#F5F5FF" d="M287.009,189.723c0.034-0.175,0.386-0.032,0.548-0.078
		C287.523,189.819,287.171,189.676,287.009,189.723z"/>
	<path fill-rule="evenodd" clip-rule="evenodd" fill="#F5F5FF" d="M286.461,189.802c0.01-0.174,0.333-0.034,0.469-0.079
		C286.92,189.896,286.598,189.756,286.461,189.802z"/>
	<path fill-rule="evenodd" clip-rule="evenodd" fill="#F5F5FF" d="M304.944,189.723c0.162,0.047,0.515-0.097,0.548,0.079
		C305.33,189.754,304.979,189.898,304.944,189.723z"/>
	<path fill-rule="evenodd" clip-rule="evenodd" fill="#F5F5FF" d="M285.912,189.88c0.01-0.173,0.332-0.033,0.47-0.078
		C286.373,189.974,286.05,189.834,285.912,189.88z"/>
	<path fill-rule="evenodd" clip-rule="evenodd" fill="#F5F5FF" d="M305.571,189.802c0.137,0.045,0.459-0.095,0.469,0.078
		C305.902,189.834,305.58,189.974,305.571,189.802z"/>
	<path fill-rule="evenodd" clip-rule="evenodd" fill="#F5F5FF" d="M309.644,190.506c0.124,0.007,0.299-0.037,0.313,0.078
		C309.839,190.571,309.667,190.612,309.644,190.506z"/>
	<path fill-rule="evenodd" clip-rule="evenodd" fill="#F5F5FF" d="M281.604,190.663c0.024-0.107,0.196-0.066,0.313-0.079
		C281.903,190.7,281.729,190.656,281.604,190.663z"/>
	<path fill-rule="evenodd" clip-rule="evenodd" fill="#F5F5FF" d="M265.549,218.937c0.161-0.13,0.858-0.13,1.019,0
		C266.228,218.937,265.888,218.937,265.549,218.937z"/>
	<path fill-rule="evenodd" clip-rule="evenodd" fill="#F5F5FF" d="M325.307,218.937c0.161-0.13,0.858-0.13,1.019,0
		C325.986,218.937,325.647,218.937,325.307,218.937z"/>
	<path fill-rule="evenodd" clip-rule="evenodd" fill="#F5F5FF" d="M266.645,218.937c0.138,0.045,0.46-0.095,0.471,0.078
		C266.978,218.97,266.655,219.109,266.645,218.937z"/>
	<path fill-rule="evenodd" clip-rule="evenodd" fill="#F5F5FF" d="M324.759,219.015c0.01-0.173,0.333-0.033,0.47-0.078
		C325.219,219.109,324.897,218.97,324.759,219.015z"/>
	<path fill-rule="evenodd" clip-rule="evenodd" fill="#F5F5FF" d="M271.345,223.244c0.172,0.01,0.034,0.331,0.078,0.47
		C271.25,223.704,271.39,223.381,271.345,223.244z"/>
	<path fill-rule="evenodd" clip-rule="evenodd" fill="#F5F5FF" d="M320.529,223.244c-0.045,0.137,0.095,0.46-0.077,0.47
		C320.496,223.575,320.357,223.254,320.529,223.244z"/>
	<path fill-rule="evenodd" clip-rule="evenodd" fill="#F5F5FF" d="M271.422,223.793c0.13,0.16,0.13,0.855,0,1.017
		C271.422,224.471,271.422,224.132,271.422,223.793z"/>
	<path fill-rule="evenodd" clip-rule="evenodd" fill="#F5F5FF" d="M320.452,223.793c0,0.339,0,0.678,0,1.017
		C320.322,224.648,320.322,223.953,320.452,223.793z"/>
	<path fill-rule="evenodd" clip-rule="evenodd" fill="#F5F5FF" d="M260.771,225.123c0.116,0.015,0.072,0.189,0.079,0.313
		C260.734,225.422,260.778,225.247,260.771,225.123z"/>
	<path fill-rule="evenodd" clip-rule="evenodd" fill="#F5F5FF" d="M331.104,225.123c-0.014,0.117,0.027,0.289-0.079,0.313
		C331.038,225.319,330.997,225.147,331.104,225.123z"/>
	<path fill-rule="evenodd" clip-rule="evenodd" fill="#F5F5FF" d="M264.922,229.509c0.117,0.015,0.289-0.027,0.313,0.078
		C265.118,229.574,264.947,229.616,264.922,229.509z"/>
	<path fill-rule="evenodd" clip-rule="evenodd" fill="#F5F5FF" d="M326.639,229.587c0.014-0.115,0.189-0.072,0.313-0.078
		C326.938,229.626,326.763,229.581,326.639,229.587z"/>
	<path fill-rule="evenodd" clip-rule="evenodd" fill="#F5F5FF" d="M359.925,241.649c0.106,0.024,0.064,0.196,0.079,0.313
		C359.887,241.948,359.931,241.773,359.925,241.649z"/>
	<path fill-rule="evenodd" clip-rule="evenodd" fill="#F5F5FF" d="M231.871,242.04c-0.043,0.114,0.091,0.405-0.078,0.392
		C231.835,242.318,231.701,242.027,231.871,242.04z"/>
	<path fill-rule="evenodd" clip-rule="evenodd" fill="#F5F5FF" d="M360.004,242.04c0.169-0.013,0.035,0.278,0.078,0.392
		C359.911,242.445,360.046,242.154,360.004,242.04z"/>
	<path fill-rule="evenodd" clip-rule="evenodd" fill="#F5F5FF" d="M231.793,242.511c-0.042,0.114,0.092,0.405-0.078,0.391
		C231.758,242.789,231.624,242.498,231.793,242.511z"/>
	<path fill-rule="evenodd" clip-rule="evenodd" fill="#F5F5FF" d="M360.082,242.511c0.169-0.013,0.036,0.278,0.078,0.391
		C359.99,242.916,360.124,242.625,360.082,242.511z"/>
	<path fill-rule="evenodd" clip-rule="evenodd" fill="#F5F5FF" d="M231.715,242.98c-0.043,0.113,0.092,0.404-0.079,0.392
		C231.679,243.258,231.545,242.967,231.715,242.98z"/>
	<path fill-rule="evenodd" clip-rule="evenodd" fill="#F5F5FF" d="M360.16,242.98c0.17-0.014,0.035,0.277,0.079,0.392
		C360.068,243.385,360.203,243.094,360.16,242.98z"/>
	<path fill-rule="evenodd" clip-rule="evenodd" fill="#F5F5FF" d="M360.238,243.451c0.173,0.01,0.034,0.331,0.078,0.469
		C360.144,243.91,360.283,243.588,360.238,243.451z"/>
	<path fill-rule="evenodd" clip-rule="evenodd" fill="#F5F5FF" d="M360.316,243.999c0.173,0.01,0.033,0.333,0.079,0.469
		C360.222,244.459,360.362,244.137,360.316,243.999z"/>
	<path fill-rule="evenodd" clip-rule="evenodd" fill="#F5F5FF" d="M231.479,244.547c-0.045,0.139,0.095,0.46-0.078,0.469
		C231.447,244.88,231.307,244.557,231.479,244.547z"/>
	<path fill-rule="evenodd" clip-rule="evenodd" fill="#F5F5FF" d="M360.395,244.547c0.173,0.01,0.033,0.333,0.078,0.469
		C360.3,245.007,360.439,244.686,360.395,244.547z"/>
	<path fill-rule="evenodd" clip-rule="evenodd" fill="#F5F5FF" d="M231.402,245.095c-0.047,0.162,0.096,0.515-0.079,0.548
		C231.37,245.48,231.227,245.129,231.402,245.095z"/>
	<path fill-rule="evenodd" clip-rule="evenodd" fill="#F5F5FF" d="M360.473,245.095c0.175,0.034,0.032,0.386,0.079,0.548
		C360.376,245.609,360.52,245.257,360.473,245.095z"/>
	<path fill-rule="evenodd" clip-rule="evenodd" fill="#F5F5FF" d="M231.323,245.722c-0.047,0.188,0.099,0.569-0.078,0.627
		C231.292,246.16,231.146,245.779,231.323,245.722z"/>
	<path fill-rule="evenodd" clip-rule="evenodd" fill="#F5F5FF" d="M360.552,245.722c0.177,0.058,0.03,0.438,0.078,0.627
		C360.453,246.291,360.599,245.91,360.552,245.722z"/>
	<path fill-rule="evenodd" clip-rule="evenodd" fill="#F5F5FF" d="M231.245,246.427c-0.047,0.187,0.098,0.567-0.078,0.627
		C231.214,246.866,231.068,246.485,231.245,246.427z"/>
	<path fill-rule="evenodd" clip-rule="evenodd" fill="#F5F5FF" d="M360.63,246.427c0.177,0.059,0.03,0.439,0.078,0.627
		C360.532,246.994,360.677,246.613,360.63,246.427z"/>
	<path fill-rule="evenodd" clip-rule="evenodd" fill="#F5F5FF" d="M231.167,247.131c-0.05,0.238,0.1,0.675-0.079,0.784
		C231.137,247.676,230.988,247.24,231.167,247.131z"/>
	<path fill-rule="evenodd" clip-rule="evenodd" fill="#F5F5FF" d="M360.708,247.131c0.179,0.109,0.03,0.545,0.079,0.784
		C360.608,247.806,360.757,247.369,360.708,247.131z"/>
	<path fill-rule="evenodd" clip-rule="evenodd" fill="#F5F5FF" d="M253.096,176.957c0.173-1.079,0.8-1.706,1.879-1.88
		C253.998,175.352,253.371,175.979,253.096,176.957z"/>
	<path fill-rule="evenodd" clip-rule="evenodd" fill="#F5F5FF" d="M253.096,177.035c0.237,1.755,1.771,3.988,2.584,5.404
		c2.839,4.938,5.789,9.828,8.537,14.724c-12.993,7.134-22.578,17.679-28.586,31.798c5.867-14.208,15.53-24.621,28.429-31.798
		c-3-5.451-6.561-11.516-9.868-17.23C253.625,178.952,252.844,177.985,253.096,177.035z"/>
	<path fill-rule="evenodd" clip-rule="evenodd" fill="#F5F5FF" d="M235.631,229.039c-0.092,0.248-0.144,0.535-0.314,0.706
		C235.386,229.473,235.454,229.201,235.631,229.039z"/>
	<path fill-rule="evenodd" clip-rule="evenodd" fill="#F5F5FF" d="M235.317,229.822c-0.103,0.342-0.195,0.693-0.392,0.939
		C235.028,230.422,235.12,230.069,235.317,229.822z"/>
	<path fill-rule="evenodd" clip-rule="evenodd" fill="#F5F5FF" d="M234.926,230.841c-0.093,0.271-0.122,0.609-0.313,0.782
		C234.706,231.352,234.735,231.016,234.926,230.841z"/>
	<path fill-rule="evenodd" clip-rule="evenodd" fill="#F5F5FF" d="M234.612,231.702c-0.277,0.845-0.519,1.728-0.861,2.507
		C233.996,233.33,234.238,232.451,234.612,231.702z"/>
	<path fill-rule="evenodd" clip-rule="evenodd" fill="#F5F5FF" d="M233.751,234.286c-0.03,0.283-0.104,0.524-0.234,0.706
		C233.546,234.709,233.619,234.47,233.751,234.286z"/>
	<path fill-rule="evenodd" clip-rule="evenodd" fill="#F5F5FF" d="M233.517,235.07c-0.009,0.201-0.045,0.373-0.158,0.47
		C233.367,235.34,233.404,235.167,233.517,235.07z"/>
	<path fill-rule="evenodd" clip-rule="evenodd" fill="#F5F5FF" d="M233.359,235.618c-0.008,0.201-0.043,0.373-0.156,0.47
		C233.211,235.889,233.247,235.715,233.359,235.618z"/>
	<path fill-rule="evenodd" clip-rule="evenodd" fill="#F5F5FF" d="M233.203,236.166c-0.082,0.388-0.127,0.813-0.313,1.097
		C232.972,236.875,233.017,236.449,233.203,236.166z"/>
	<path fill-rule="evenodd" clip-rule="evenodd" fill="#F5F5FF" d="M232.732,237.968c-0.188,0.934-0.359,1.887-0.626,2.741
		C232.263,239.743,232.441,238.799,232.732,237.968z"/>
	<path fill-rule="evenodd" clip-rule="evenodd" fill="#F5F5FF" d="M232.106,240.786c-0.026,0.445-0.099,0.843-0.235,1.177
		C231.896,241.518,231.97,241.121,232.106,240.786z"/>
	<path fill-rule="evenodd" clip-rule="evenodd" fill="#F5F5FF" d="M231.636,243.451c-0.015,0.376-0.037,0.745-0.157,1.017
		C231.476,244.073,231.51,243.716,231.636,243.451z"/>
	<path fill-rule="evenodd" clip-rule="evenodd" fill="#F5F5FF" d="M231.088,247.992c0.014,0.064,0.079,0.079,0.079,0.157
		c43.178,0,86.363,0,129.541,0c0.015-0.063,0.079-0.078,0.079-0.157c-0.433,0.436-1.129,0.234-1.644,0.234
		c-41.043,0.002-82.479,0-123.825,0C234.104,248.227,231.353,248.395,231.088,247.992z"/>
	<path fill-rule="evenodd" clip-rule="evenodd" fill="#F5F5FF" d="M359.534,239.69c0.208,0.55,0.313,1.2,0.391,1.88
		C359.735,241.004,359.635,240.346,359.534,239.69z"/>
	<path fill-rule="evenodd" clip-rule="evenodd" fill="#F5F5FF" d="M359.377,238.986c0.116,0.145,0.149,0.371,0.157,0.627
		C359.417,239.467,359.383,239.24,359.377,238.986z"/>
	<path fill-rule="evenodd" clip-rule="evenodd" fill="#F5F5FF" d="M358.75,236.479c0.291,0.727,0.466,1.57,0.627,2.429
		C359.11,238.156,358.938,237.311,358.75,236.479z"/>
	<path fill-rule="evenodd" clip-rule="evenodd" fill="#F5F5FF" d="M358.045,234.052c0.319,0.699,0.513,1.523,0.705,2.35
		C358.455,235.68,358.266,234.851,358.045,234.052z"/>
	<path fill-rule="evenodd" clip-rule="evenodd" fill="#F5F5FF" d="M357.341,231.937c0.294,0.515,0.461,1.157,0.626,1.802
		C357.703,233.195,357.54,232.547,357.341,231.937z"/>
	<path fill-rule="evenodd" clip-rule="evenodd" fill="#F5F5FF" d="M338.778,177.975c-3.53,6.494-7.304,12.746-10.964,19.109
		c13.681,7.753,23.868,19,29.527,34.775c-5.774-15.687-15.922-26.999-29.606-34.775
		C331.435,190.733,335.114,184.361,338.778,177.975z"/>
	<path fill-rule="evenodd" clip-rule="evenodd" fill="#F5F5FF" d="M337.525,175.233c0.732,0.339,1.257,0.884,1.332,1.88
		C338.679,176.221,338.185,175.644,337.525,175.233z"/>
	<path fill-rule="evenodd" clip-rule="evenodd" fill="#F5F5FF" d="M336.977,175.077c0.225-0.016,0.398,0.02,0.47,0.157
		C337.31,175.162,337.057,175.207,336.977,175.077z"/>
	<path fill-rule="evenodd" clip-rule="evenodd" fill="#F5F5FF" d="M320.921,193.874c0.937,0.316,1.76,0.745,2.663,1.097
		c2.033-2.929,3.738-6.272,5.718-9.712c1.34-2.329,2.774-4.795,4.23-7.284c0.76-1.301,1.152-2.599,2.741-2.898
		c-1.972,0.748-2.639,2.979-3.603,4.622c-2.972,5.061-5.965,10.428-9.006,15.429C322.813,194.645,321.765,194.362,320.921,193.874z"
		/>
	<path fill-rule="evenodd" clip-rule="evenodd" fill="#F5F5FF" d="M318.651,193.013c0.766,0.25,1.538,0.498,2.192,0.861
		C320.096,193.602,319.321,193.36,318.651,193.013z"/>
	<path fill-rule="evenodd" clip-rule="evenodd" fill="#F5F5FF" d="M314.499,191.68c1.425,0.378,2.824,0.779,4.073,1.333
		C317.228,192.555,315.821,192.16,314.499,191.68z"/>
	<path fill-rule="evenodd" clip-rule="evenodd" fill="#F5F5FF" d="M313.638,191.445c0.289,0.051,0.599,0.08,0.783,0.234
		C314.132,191.63,313.822,191.601,313.638,191.445z"/>
	<path fill-rule="evenodd" clip-rule="evenodd" fill="#F5F5FF" d="M310.035,190.584c1.243,0.219,2.448,0.476,3.525,0.861
		C312.382,191.162,311.168,190.912,310.035,190.584z"/>
	<path fill-rule="evenodd" clip-rule="evenodd" fill="#F5F5FF" d="M306.119,189.88c1.213,0.144,2.403,0.312,3.445,0.626
		C308.414,190.3,307.218,190.139,306.119,189.88z"/>
	<path fill-rule="evenodd" clip-rule="evenodd" fill="#F5F5FF" d="M303.691,189.566c0.447-0.004,0.857,0.029,1.175,0.156
		C304.435,189.71,304.014,189.686,303.691,189.566z"/>
	<path fill-rule="evenodd" clip-rule="evenodd" fill="#F5F5FF" d="M284.425,190.115c0.41-0.139,0.885-0.212,1.409-0.235
		C285.424,190.018,284.948,190.09,284.425,190.115z"/>
	<path fill-rule="evenodd" clip-rule="evenodd" fill="#F5F5FF" d="M283.562,190.271c0.195-0.118,0.476-0.15,0.784-0.155
		C284.151,190.233,283.87,190.266,283.562,190.271z"/>
	<path fill-rule="evenodd" clip-rule="evenodd" fill="#F5F5FF" d="M281.997,190.584c0.419-0.181,0.938-0.262,1.488-0.313
		C283.047,190.435,282.522,190.509,281.997,190.584z"/>
	<path fill-rule="evenodd" clip-rule="evenodd" fill="#F5F5FF" d="M280.9,190.818c0.145-0.115,0.372-0.149,0.626-0.155
		C281.381,190.778,281.154,190.812,280.9,190.818z"/>
	<path fill-rule="evenodd" clip-rule="evenodd" fill="#F5F5FF" d="M278.08,191.524c0.831-0.318,1.779-0.519,2.742-0.706
		C279.965,191.111,279.016,191.311,278.08,191.524z"/>
	<path fill-rule="evenodd" clip-rule="evenodd" fill="#F5F5FF" d="M277.532,191.68c0.097-0.111,0.269-0.147,0.469-0.155
		C277.905,191.637,277.733,191.672,277.532,191.68z"/>
	<path fill-rule="evenodd" clip-rule="evenodd" fill="#F5F5FF" d="M276.984,191.838c0.096-0.113,0.269-0.148,0.469-0.158
		C277.357,191.793,277.185,191.829,276.984,191.838z"/>
	<path fill-rule="evenodd" clip-rule="evenodd" fill="#F5F5FF" d="M276.2,192.072c0.183-0.131,0.422-0.204,0.706-0.234
		C276.723,191.969,276.483,192.042,276.2,192.072z"/>
	<path fill-rule="evenodd" clip-rule="evenodd" fill="#F5F5FF" d="M273.146,193.091c0.904-0.427,1.941-0.722,2.976-1.019
		C275.186,192.468,274.148,192.761,273.146,193.091z"/>
	<path fill-rule="evenodd" clip-rule="evenodd" fill="#F5F5FF" d="M255.68,175.077c1.979,0.512,3.013,3.522,3.995,5.248
		c2.758,4.847,5.933,9.967,8.537,14.725c1.584-0.688,3.151-1.393,4.856-1.958c-1.591,0.706-3.292,1.302-4.856,2.036
		c-3.156-5.555-6.783-11.594-10.104-17.388C257.431,176.558,257.069,175.337,255.68,175.077z"/>
	<path fill-rule="evenodd" clip-rule="evenodd" fill="#F5F5FF" d="M260.771,225.044c-0.296-3.585,1.639-5.617,4.699-6.107
		C262.531,219.6,260.636,221.307,260.771,225.044z"/>
	<path fill-rule="evenodd" clip-rule="evenodd" fill="#F5F5FF" d="M260.928,225.828c0.65,1.752,1.852,2.952,3.603,3.604
		C262.704,228.856,261.491,227.667,260.928,225.828z"/>
	<path fill-rule="evenodd" clip-rule="evenodd" fill="#F5F5FF" d="M265.314,229.587c3.739,0.137,5.441-1.763,6.108-4.698
		C270.929,227.945,268.898,229.881,265.314,229.587z"/>
	<path fill-rule="evenodd" clip-rule="evenodd" fill="#F5F5FF" d="M267.194,219.015c2.253,0.514,3.637,1.898,4.151,4.151
		C270.736,221.008,269.353,219.623,267.194,219.015z"/>
	<path fill-rule="evenodd" clip-rule="evenodd" fill="#F5F5FF" d="M320.529,223.166c0.515-2.253,1.902-3.634,4.152-4.151
		C322.522,219.623,321.138,221.008,320.529,223.166z"/>
	<path fill-rule="evenodd" clip-rule="evenodd" fill="#F5F5FF" d="M320.452,224.889c0.667,2.936,2.372,4.834,6.108,4.698
		C322.983,229.875,320.939,227.951,320.452,224.889z"/>
	<path fill-rule="evenodd" clip-rule="evenodd" fill="#F5F5FF" d="M327.344,229.432c1.679-0.619,2.845-1.75,3.525-3.368
		C330.26,227.754,329.103,228.893,327.344,229.432z"/>
	<path fill-rule="evenodd" clip-rule="evenodd" fill="#F5F5FF" d="M326.404,218.937c3.06,0.489,4.991,2.527,4.699,6.107
		C331.238,221.307,329.344,219.6,326.404,218.937z"/>
	<path fill-rule="evenodd" clip-rule="evenodd" fill="#FFFFFF" d="M331.024,225.437c0.026,0.288-0.086,0.436-0.156,0.627
		c-0.68,1.618-1.846,2.749-3.525,3.368c-0.091,0.065-0.209,0.103-0.391,0.077c-0.124,0.006-0.299-0.037-0.313,0.078
		c-0.026,0-0.053,0-0.079,0c-3.736,0.136-5.441-1.763-6.108-4.698c0-0.026,0-0.052,0-0.079c0-0.339,0-0.678,0-1.017
		c0-0.027,0-0.054,0-0.079c0.172-0.01,0.032-0.333,0.077-0.47c0-0.027,0-0.053,0-0.078c0.609-2.158,1.993-3.543,4.152-4.151
		c0.026,0,0.052,0,0.078,0c0.138-0.045,0.46,0.095,0.47-0.078c0.026,0,0.052,0,0.078,0c0.34,0,0.679,0,1.019,0
		c0.026,0,0.051,0,0.079,0c2.939,0.663,4.834,2.37,4.699,6.107c0,0.027,0,0.054,0,0.079
		C330.997,225.147,331.038,225.319,331.024,225.437z"/>
	<path fill-rule="evenodd" clip-rule="evenodd" fill="#FFFFFF" d="M264.922,229.509c-0.182,0.025-0.301-0.012-0.392-0.077
		c-1.751-0.651-2.953-1.852-3.603-3.604c-0.065-0.091-0.103-0.21-0.078-0.392c-0.006-0.124,0.038-0.299-0.079-0.313
		c0-0.025,0-0.052,0-0.079c-0.135-3.737,1.759-5.444,4.699-6.107c0.026,0,0.053,0,0.079,0c0.339,0,0.679,0,1.019,0
		c0.025,0,0.051,0,0.077,0c0.01,0.173,0.333,0.033,0.471,0.078c0.026,0,0.051,0,0.078,0c2.159,0.608,3.542,1.993,4.151,4.151
		c0,0.025,0,0.051,0,0.078c0.045,0.137-0.094,0.46,0.078,0.47c0,0.025,0,0.052,0,0.079c0,0.339,0,0.678,0,1.017
		c0,0.027,0,0.053,0,0.079c-0.667,2.936-2.369,4.835-6.108,4.698c-0.026,0-0.053,0-0.079,0
		C265.211,229.481,265.04,229.523,264.922,229.509z"/>
</g>
</svg>
