<?xml version="1.0" encoding="utf-8"?>
<!-- Generator: Adobe Illustrator 15.1.0, SVG Export Plug-In . SVG Version: 6.00 Build 0)  -->
<!DOCTYPE svg PUBLIC "-//W3C//DTD SVG 1.1//EN" "http://www.w3.org/Graphics/SVG/1.1/DTD/svg11.dtd">
<svg version="1.1" id="Layer_1" xmlns="http://www.w3.org/2000/svg" xmlns:xlink="http://www.w3.org/1999/xlink" x="0px" y="0px"
	 width="1567px" height="450px" viewBox="0 0 1567 450" enable-background="new 0 0 1567 450" xml:space="preserve">
<rect x="-10.37" y="-8.398" fill="#FFFFFF" width="1585.421" height="467.976"/>
<g>
	<path fill="#FF9900" d="M566.178-246.925c-42.035,11.027-105.612,65.084-149.312,42.079
		c-56.751-29.862,16.992-109.864,57.438-73.152c-27.502-78.648,102.771-136.647,111.237-45.21
		c20.836-43.816,100.021-71.098,84.322-0.382C661.74-286.998,597.6-257.229,566.178-246.925"/>
</g>
<g>
	<path fill="#F5F5FF" d="M929.801,547.837c29.729,20.894,98.562,32.32,107.454,72.644c11.558,52.357-79.329,48.438-77.716,2.798
		c-35.382,60.009-142.727,8.116-88.904-46.64c-39.227,10.342-99.384-25.504-45.75-53.643
		C852.637,508.438,906.264,533.331,929.801,547.837"/>
</g>
<g>
	<path fill="#F5F5FF" d="M90.743,420.184c62.265-94.955,229.835-250.208,283.104-215.28
		c53.261,34.922-27.953,246.801-90.217,341.755c-62.262,94.953-120.651,89.829-173.903,54.91
		C56.46,566.639,28.482,515.137,90.743,420.184z"/>
</g>
<g>
	<path fill="#F5F5FF" d="M84.928,488.088c24.905,28.902,92.054,58.209,90.756,101.545c-1.674,56.275-93.206,28.953-79.843-17.104
		c-51.431,52.014-147.402-28.375-78.546-70.308c-42.592,0.459-94.641-51.479-32.811-66.36
		C16.479,428.162,64.688,467.275,84.928,488.088"/>
</g>
<path fill="#FFFFFF" d="M1552.305-615.611c-48.944-53.933-178.531-106.555-178.188-189.32
	c0.425-107.476,176.443-59.84,153.211,28.71c95.587-101.79,282.689,46.897,153.35,130.307
	c81.263-2.971,183.144,93.587,65.881,125.026C1685.88-504.623,1591.955-576.892,1552.305-615.611"/>
<g>
	<path fill="#F5F5FF" d="M2455.498,764.908c86.323,159.271,177.727,512.088,88.376,560.514
		c-89.333,48.416-325.592-225.889-411.911-385.162c-86.322-159.271-34.969-237.428,54.354-285.836
		C2275.666,606,2369.175,605.635,2455.498,764.908z"/>
</g>
<g>
	<path fill="#F5F5FF" d="M2206.465,654.572c-57.574,19.755-140.789,101.85-204.212,74.237
		c-82.364-35.84,12.36-155.227,72.664-108.133c-46.562-107.014,129.407-201.521,150.702-74.67
		c24.568-63.36,132.354-109.672,117.747-9.264C2335.805,588.701,2249.291,636.926,2206.465,654.572"/>
</g>
<g>
	<path fill="#F5F5FF" d="M318.649,418.663c35.446-54.06,130.844-142.442,161.17-122.558c30.32,19.881-15.914,140.503-51.36,194.56
		c-35.445,54.057-68.688,51.14-99.002,31.26C299.132,502.039,283.205,472.72,318.649,418.663z"/>
</g>
<g>
	<path fill="#F5F5FF" d="M309.913,444.798c14.178,16.454,52.406,33.138,51.667,57.811c-0.953,32.036-53.062,16.481-45.455-9.737
		c-29.279,29.611-83.916-16.154-44.716-40.025c-24.248,0.262-53.878-29.308-18.679-37.778
		C270.945,410.683,298.391,432.949,309.913,444.798"/>
</g>
<g>
	<path fill="#F5F5FF" d="M448.94,401.688c54.669-83.373,201.798-219.687,248.567-189.019
		c46.764,30.662-24.543,216.694-79.211,300.065c-54.666,83.369-105.933,78.871-152.688,48.212
		C418.839,530.277,394.273,485.058,448.94,401.688z"/>
</g>
<g>
	<path fill="#F5F5FF" d="M438.726,494.752c21.867,25.377,80.824,51.107,79.686,89.159c-1.47,49.409-81.835,25.421-70.104-15.02
		c-45.155,45.669-129.421-24.915-68.964-61.729c-37.396,0.403-83.096-45.2-28.808-58.266
		C378.627,442.138,420.955,476.479,438.726,494.752"/>
</g>
<g>
	<path fill="#F5F5FF" d="M632.514,412.055c34.354-52.395,126.814-138.056,156.205-118.783
		c29.389,19.271-15.423,136.176-49.776,188.566c-34.354,52.391-66.571,49.563-95.953,30.298
		C613.598,492.861,598.161,464.445,632.514,412.055z"/>
</g>
<g>
	<path fill="#F5F5FF" d="M612.747,463.099c10.752,12.479,39.743,25.13,39.183,43.842c-0.723,24.295-40.239,12.5-34.471-7.386
		c-22.204,22.455-63.638-12.251-33.911-30.354c-18.389,0.198-40.858-22.227-14.165-28.65
		C583.196,437.228,604.009,454.113,612.747,463.099"/>
</g>
<g>
	<path fill="#F5F5FF" d="M21.392,366.493c33.251-50.708,122.737-133.617,151.184-114.966
		c28.442,18.649-14.928,131.799-48.177,182.508c-33.25,50.707-64.432,47.97-92.869,29.323
		C3.083,444.705-11.857,417.201,21.392,366.493z"/>
</g>
<g>
	<path fill="#F5F5FF" d="M-19.821,385.146c10.706,12.426,39.572,25.023,39.015,43.652c-0.72,24.192-40.067,12.447-34.323-7.352
		c-22.109,22.358-63.366-12.198-33.766-30.225c-18.31,0.196-40.684-22.131-14.104-28.527
		C-49.246,359.387-28.522,376.201-19.821,385.146"/>
</g>
<g>
	<path fill="#F5F5FF" d="M714.01,424.771c66.631-101.621,245.957-267.762,302.961-230.383
		c56.998,37.374-29.911,264.112-96.545,365.728c-66.629,101.611-129.113,96.131-186.101,58.765
		C677.322,581.497,647.381,526.383,714.01,424.771z"/>
</g>
<g>
	<path fill="#F5F5FF" d="M697.903,580.037c26.651,30.931,98.511,62.29,97.123,108.669c-1.791,60.222-99.743,30.984-85.444-18.305
		c-55.038,55.659-157.741-30.367-84.056-75.238c-45.58,0.491-101.279-55.091-35.111-71.016
		C624.653,515.909,676.244,557.765,697.903,580.037"/>
</g>
<g>
	<path fill="#F5F5FF" d="M937.646,435.13c51.988-79.294,191.916-208.93,236.394-179.765c44.476,29.162-23.338,206.082-75.33,285.371
		c-51.99,79.286-100.747,75.009-145.213,45.854C909.02,557.42,885.656,514.415,937.646,435.13z"/>
</g>
<g>
	<path fill="#F5F5FF" d="M935.578,562.884c14.021,16.271,51.823,32.771,51.093,57.167c-0.942,31.68-52.47,16.299-44.948-9.63
		c-28.953,29.28-82.98-15.975-44.219-39.579c-23.978,0.258-53.278-28.98-18.47-37.357
		C897.045,529.149,924.186,551.168,935.578,562.884"/>
</g>
<g>
	<path fill="#F5F5FF" d="M1070.578,487.186c80.392-122.607,296.755-323.06,365.53-277.962
		c68.769,45.091-36.087,318.657-116.484,441.26c-80.39,122.598-155.778,115.982-224.534,70.899
		C1026.312,676.28,990.188,609.783,1070.578,487.186z"/>
</g>
<g>
	<path fill="#F5F5FF" d="M1043.314,719.604c32.157,37.319,118.857,75.158,117.183,131.114
		c-2.161,72.658-120.341,37.382-103.09-22.087c-66.405,67.155-190.321-36.638-101.417-90.774
		c-54.994,0.591-122.195-66.471-42.361-85.684C954.938,642.233,1017.186,692.733,1043.314,719.604"/>
</g>
<g>
	<path fill="#F5F5FF" d="M1548.301,358.986c62.265-94.957,229.834-250.208,283.104-215.28c53.26,34.922-27.952,246.8-90.217,341.754
		c-62.263,94.954-120.651,89.829-173.903,54.911C1514.017,505.441,1486.039,453.94,1548.301,358.986z"/>
</g>
<g>
	<path fill="#F5F5FF" d="M1769.787,452.382c41.321-49.713,146.084-126.767,173.972-103.586
		c27.884,23.177-31.669,137.811-72.989,187.521c-41.319,49.711-74.02,43.061-101.897,19.887
		C1740.984,533.021,1728.468,502.093,1769.787,452.382z"/>
</g>
<g>
	<path fill="#F5F5FF" d="M1901.161,450.219c63.729-76.672,225.302-195.509,268.312-159.758
		c43.006,35.744-48.842,212.54-112.569,289.208c-63.727,76.668-114.158,66.412-157.154,30.672
		C1856.74,574.59,1837.436,526.887,1901.161,450.219z"/>
</g>
<g>
	<path fill="#F5F5FF" d="M1421.61,396.325c42.737-65.177,157.758-171.742,194.318-147.767
		c36.559,23.969-19.185,169.4-61.923,234.576c-42.734,65.175-82.813,61.658-119.365,37.69
		C1398.079,496.85,1378.875,461.499,1421.61,396.325z"/>
</g>
<g>
	<path fill="#F5F5FF" d="M-73.628,304.312C-39.274,251.922,53.18,166.264,82.57,185.535
		c29.386,19.269-15.423,136.168-49.775,188.561c-34.352,52.389-66.568,49.562-95.949,30.294
		C-92.543,385.118-107.98,356.702-73.628,304.312z"/>
</g>
<g>
	<path fill-rule="evenodd" clip-rule="evenodd" fill="#F5F5FF" d="M838.491,225.448c-1.805,15.292-3.561,30.632-5.312,45.976
		c-0.963,1.1-2.438,1.518-3.664,2.199c-8.395,4.674-17.271,9.664-25.827,14.471c-10.053-5.396-19.933-10.963-29.857-16.486
		c-1.537-15.438-3.571-30.377-5.129-45.793c0.418-0.667,1.35-0.859,2.015-1.099c4.896-1.771,10.13-3.526,15.204-5.312
		c5.945-2.093,12.275-4.658,17.768-6.228C815.417,217.138,826.784,221.462,838.491,225.448z M781.707,270.325
		c2.749,0,5.495,0,8.243,0c1.335-3.794,2.8-7.458,4.396-10.99c6.105,0,12.212,0,18.317,0c1.49,3.638,3.002,7.257,4.396,10.99
		c2.687-0.122,5.861,0.243,8.242-0.183c-7.436-16.012-14.339-32.553-21.797-48.542C796.078,237.682,788.922,254.033,781.707,270.325
		z"/>
	<path fill-rule="evenodd" clip-rule="evenodd" fill="#F5F5FF" d="M803.505,237.537c2.176,4.906,4.303,9.862,6.227,15.021
		c-4.15,0-8.303,0-12.454,0C799.209,247.408,801.322,242.438,803.505,237.537z"/>
	<g>
	</g>
</g>
<g>
	<path fill-rule="evenodd" clip-rule="evenodd" fill="#F5F5FF" d="M1099.65,107.83c-2.591,21.954-5.112,43.978-7.627,66.006
		c-1.382,1.578-3.499,2.179-5.26,3.157c-12.053,6.71-24.797,13.874-37.08,20.774c-14.431-7.747-28.616-15.739-42.865-23.668
		c-2.206-22.164-5.126-43.612-7.362-65.744c0.601-0.957,1.938-1.233,2.892-1.578c7.029-2.543,14.545-5.063,21.827-7.626
		c8.536-3.005,17.625-6.687,25.509-8.941C1066.523,95.9,1082.843,102.108,1099.65,107.83z M1018.128,172.258
		c3.944,0,7.889,0,11.832,0c1.917-5.447,4.021-10.708,6.312-15.778c8.766,0,17.532,0,26.298,0c2.14,5.222,4.31,10.418,6.312,15.778
		c3.856-0.175,8.415,0.35,11.833-0.263c-10.675-22.987-20.585-46.735-31.293-69.688
		C1038.759,125.394,1028.485,148.868,1018.128,172.258z"/>
	<path fill-rule="evenodd" clip-rule="evenodd" fill="#F5F5FF" d="M1049.422,125.187c3.124,7.044,6.177,14.158,8.939,21.563
		c-5.958,0-11.92,0-17.881,0C1043.255,139.356,1046.288,132.222,1049.422,125.187z"/>
	<g>
	</g>
</g>
<g>
	<path fill-rule="evenodd" clip-rule="evenodd" fill="#F5F5FF" d="M1209.009,216.973c-1.062,9.002-2.096,18.032-3.127,27.064
		c-0.566,0.646-1.434,0.894-2.157,1.295c-4.94,2.75-10.165,5.688-15.203,8.518c-5.915-3.176-11.731-6.452-17.574-9.705
		c-0.905-9.086-2.104-17.88-3.02-26.954c0.247-0.393,0.794-0.506,1.186-0.648c2.882-1.041,5.964-2.076,8.949-3.125
		c3.501-1.232,7.228-2.743,10.459-3.666C1195.426,212.083,1202.118,214.628,1209.009,216.973z M1175.583,243.391
		c1.617,0,3.235,0,4.852,0c0.786-2.234,1.648-4.39,2.589-6.469c3.593,0,7.188,0,10.782,0c0.876,2.14,1.767,4.271,2.587,6.469
		c1.582-0.071,3.45,0.143,4.854-0.108c-4.377-9.425-8.441-19.161-12.832-28.572C1184.042,224.175,1179.83,233.8,1175.583,243.391z"
		/>
	<path fill-rule="evenodd" clip-rule="evenodd" fill="#F5F5FF" d="M1188.414,224.09c1.28,2.889,2.534,5.806,3.666,8.843
		c-2.442,0-4.887,0-7.332,0C1185.886,229.901,1187.129,226.976,1188.414,224.09z"/>
	<g>
	</g>
</g>
<g>
	<path fill-rule="evenodd" clip-rule="evenodd" fill="#F5F5FF" d="M1542.687,107.746c-3.227,27.334-6.365,54.756-9.496,82.183
		c-1.722,1.966-4.357,2.713-6.55,3.932c-15.006,8.354-30.873,17.274-46.168,25.866c-17.968-9.646-35.629-19.596-53.37-29.47
		c-2.747-27.595-6.383-54.3-9.168-81.856c0.748-1.191,2.413-1.535,3.601-1.965c8.752-3.167,18.109-6.303,27.178-9.495
		c10.627-3.742,21.944-8.326,31.76-11.133C1501.44,92.892,1521.76,100.622,1542.687,107.746z M1441.182,187.965
		c4.912,0,9.823,0,14.734,0c2.387-6.781,5.005-13.331,7.859-19.645c10.913,0,21.829,0,32.742,0
		c2.664,6.502,5.366,12.972,7.859,19.645c4.802-0.218,10.477,0.435,14.732-0.326c-13.291-28.621-25.631-58.19-38.962-86.769
		C1466.871,129.614,1454.079,158.843,1441.182,187.965z"/>
	<path fill-rule="evenodd" clip-rule="evenodd" fill="#F5F5FF" d="M1480.147,129.356c3.889,8.77,7.691,17.628,11.13,26.849
		c-7.419,0-14.842,0-22.263,0C1472.469,147,1476.245,138.116,1480.147,129.356z"/>
	<g>
	</g>
</g>
<g>
	<path fill-rule="evenodd" clip-rule="evenodd" fill="#F5F5FF" d="M768.701,133.906c-2.214,18.762-4.369,37.583-6.518,56.409
		c-1.181,1.349-2.991,1.861-4.495,2.698c-10.301,5.734-21.191,11.856-31.689,17.754c-12.333-6.621-24.455-13.45-36.632-20.228
		c-1.886-18.939-4.381-37.27-6.293-56.184c0.513-0.818,1.656-1.054,2.472-1.349c6.007-2.173,12.429-4.327,18.654-6.518
		c7.294-2.568,15.062-5.714,21.799-7.641C740.392,123.711,754.337,129.017,768.701,133.906z M699.032,188.967
		c3.372,0,6.742,0,10.113,0c1.638-4.654,3.436-9.15,5.395-13.484c7.49,0,14.981,0,22.473,0c1.829,4.463,3.683,8.904,5.394,13.484
		c3.297-0.149,7.191,0.299,10.113-0.224c-9.123-19.645-17.593-39.94-26.743-59.556C716.664,148.917,707.884,168.978,699.032,188.967
		z"/>
	<path fill-rule="evenodd" clip-rule="evenodd" fill="#F5F5FF" d="M725.776,148.74c2.669,6.02,5.279,12.1,7.64,18.428
		c-5.093,0-10.188,0-15.281,0C720.506,160.85,723.098,154.752,725.776,148.74z"/>
	<g>
	</g>
</g>
<g>
	<path fill-rule="evenodd" clip-rule="evenodd" fill="#F5F5FF" d="M562.743,201.096c-2.695,22.844-5.319,45.76-7.936,68.682
		c-1.438,1.643-3.642,2.268-5.473,3.285c-12.542,6.982-25.802,14.438-38.583,21.617c-15.016-8.061-29.776-16.377-44.603-24.627
		c-2.296-23.062-5.334-45.381-7.662-68.41c0.625-0.996,2.017-1.283,3.01-1.642c7.314-2.646,15.133-5.268,22.712-7.936
		c8.882-3.127,18.339-6.958,26.543-9.304C528.274,188.683,545.254,195.143,562.743,201.096z M477.915,268.138
		c4.105,0,8.209,0,12.313,0c1.995-5.668,4.183-11.142,6.569-16.418c9.12,0,18.242,0,27.363,0c2.227,5.434,4.484,10.84,6.567,16.418
		c4.014-0.184,8.756,0.363,12.313-0.273c-11.107-23.919-21.42-48.63-32.562-72.515C499.383,219.372,488.693,243.798,477.915,268.138
		z"/>
	<path fill-rule="evenodd" clip-rule="evenodd" fill="#F5F5FF" d="M510.479,219.157c3.25,7.33,6.428,14.733,9.303,22.438
		c-6.202,0-12.404,0-18.606,0C504.062,233.901,507.217,226.478,510.479,219.157z"/>
	<g>
	</g>
</g>
<g>
	<path fill-rule="evenodd" clip-rule="evenodd" fill="#F5F5FF" d="M415.728,158.479c-1.272,10.783-2.511,21.598-3.745,32.418
		c-0.679,0.775-1.719,1.069-2.583,1.551c-5.92,3.295-12.178,6.814-18.211,10.203c-7.087-3.805-14.054-7.73-21.052-11.625
		c-1.084-10.885-2.518-21.42-3.617-32.288c0.295-0.471,0.952-0.606,1.42-0.776c3.452-1.25,7.144-2.487,10.72-3.746
		c4.192-1.476,8.656-3.284,12.528-4.391C399.458,152.62,407.473,155.668,415.728,158.479z M375.689,190.122c1.938,0,3.875,0,5.812,0
		c0.942-2.675,1.975-5.258,3.101-7.75c4.305,0,8.609,0,12.915,0c1.051,2.565,2.116,5.118,3.1,7.75
		c1.895-0.086,4.133,0.171,5.812-0.128c-5.243-11.29-10.111-22.954-15.369-34.227C385.822,167.105,380.776,178.634,375.689,190.122z
		"/>
	<path fill-rule="evenodd" clip-rule="evenodd" fill="#F5F5FF" d="M391.06,167.004c1.534,3.458,3.034,6.954,4.391,10.59
		c-2.927,0-5.854,0-8.782,0C388.031,173.963,389.521,170.458,391.06,167.004z"/>
	<g>
	</g>
</g>
<g>
	<path fill-rule="evenodd" clip-rule="evenodd" fill="#F5F5FF" d="M259.263,152.529c-3.001,25.435-5.922,50.95-8.835,76.471
		c-1.602,1.829-4.055,2.524-6.093,3.658c-13.964,7.773-28.729,16.074-42.959,24.068c-16.719-8.976-33.153-18.234-49.661-27.421
		c-2.557-25.676-5.939-50.526-8.531-76.167c0.696-1.108,2.246-1.428,3.351-1.828c8.143-2.946,16.85-5.865,25.288-8.835
		c9.889-3.482,20.419-7.747,29.553-10.359C220.885,138.708,239.791,145.9,259.263,152.529z M164.815,227.173c4.571,0,9.14,0,13.71,0
		c2.221-6.311,4.657-12.405,7.313-18.28c10.154,0,20.31,0,30.466,0c2.479,6.05,4.992,12.07,7.312,18.28
		c4.469-0.203,9.749,0.404,13.71-0.304c-12.367-26.632-23.85-54.146-36.254-80.738C188.718,172.877,176.815,200.074,164.815,227.173
		z"/>
	<path fill-rule="evenodd" clip-rule="evenodd" fill="#F5F5FF" d="M201.072,172.638c3.619,8.161,7.157,16.403,10.357,24.982
		c-6.905,0-13.811,0-20.716,0C193.927,189.055,197.441,180.789,201.072,172.638z"/>
	<g>
	</g>
</g>
<g>
	<path fill-rule="evenodd" clip-rule="evenodd" fill="#F5F5FF" d="M122.936,139.548c-1.318,11.175-2.602,22.386-3.882,33.599
		c-0.704,0.804-1.782,1.109-2.677,1.607c-6.136,3.416-12.623,7.062-18.875,10.575c-7.346-3.943-14.566-8.012-21.819-12.048
		c-1.123-11.281-2.609-22.2-3.748-33.465c0.306-0.487,0.987-0.627,1.472-0.803c3.578-1.294,7.403-2.577,11.111-3.882
		c4.345-1.53,8.971-3.404,12.984-4.552C106.074,133.476,114.381,136.636,122.936,139.548z M81.439,172.344c2.008,0,4.016,0,6.023,0
		c0.976-2.772,2.046-5.45,3.213-8.031c4.461,0,8.923,0,13.386,0c1.089,2.658,2.193,5.303,3.212,8.031
		c1.964-0.089,4.284,0.178,6.024-0.134c-5.434-11.701-10.479-23.789-15.929-35.473C91.941,148.488,86.711,160.438,81.439,172.344z"
		/>
	<path fill-rule="evenodd" clip-rule="evenodd" fill="#F5F5FF" d="M97.369,148.383c1.59,3.585,3.145,7.207,4.551,10.976
		c-3.034,0-6.068,0-9.102,0C94.229,155.596,95.773,151.964,97.369,148.383z"/>
	<g>
	</g>
</g>
</svg>
