<?xml version="1.0" encoding="utf-8"?>
<!-- Generator: Adobe Illustrator 15.1.0, SVG Export Plug-In . SVG Version: 6.00 Build 0)  -->
<!DOCTYPE svg PUBLIC "-//W3C//DTD SVG 1.1//EN" "http://www.w3.org/Graphics/SVG/1.1/DTD/svg11.dtd">
<svg version="1.1" id="Layer_1" xmlns="http://www.w3.org/2000/svg" xmlns:xlink="http://www.w3.org/1999/xlink" x="0px" y="0px"
	 width="1567px" height="450px" viewBox="0 0 1567 450" enable-background="new 0 0 1567 450" xml:space="preserve">
<rect x="-10.37" y="-8.398" fill="#FFFFFF" width="1585.421" height="467.976"/>
<g>
	<path fill="#FF9900" d="M566.178-246.925c-42.035,11.027-105.611,65.084-149.312,42.079
		c-56.751-29.862,16.992-109.864,57.438-73.152c-27.502-78.648,102.771-136.647,111.237-45.21
		c20.836-43.816,100.021-71.098,84.322-0.382C661.74-286.998,597.6-257.229,566.178-246.925"/>
</g>
<g>
	<path fill="#F5F5FF" d="M670.95,547.837c23.537-14.506,77.164-39.399,104.916-24.841c53.634,28.139-6.523,63.984-45.75,53.643
		c53.822,54.756-53.522,106.649-88.904,46.641c1.613,45.64-89.273,49.559-77.716-2.799
		C572.388,580.157,641.221,568.73,670.95,547.837"/>
</g>
<g>
	<path fill="#F5F5FF" d="M1491.024,601.569c-53.252,34.919-111.642,40.043-173.903-54.91
		c-62.264-94.954-143.479-306.833-90.217-341.755c53.269-34.928,220.839,120.324,283.104,215.279
		C1572.269,515.137,1544.291,566.639,1491.024,601.569z"/>
</g>
<g>
	<path fill="#F5F5FF" d="M1515.823,488.088c20.24-20.812,68.449-59.926,100.443-52.227c61.83,14.881,9.781,66.818-32.811,66.359
		c68.855,41.934-27.115,122.322-78.546,70.309c13.362,46.057-78.169,73.379-79.843,17.104
		C1423.769,546.297,1490.918,516.99,1515.823,488.088"/>
</g>
<path fill="#FFFFFF" d="M1552.305-615.611c-48.943-53.933-178.53-106.555-178.188-189.32c0.425-107.476,176.443-59.84,153.211,28.71
	c95.587-101.79,282.689,46.896,153.35,130.307c81.264-2.971,183.145,93.587,65.881,125.026
	C1685.88-504.623,1591.955-576.892,1552.305-615.611"/>
<g>
	<path fill="#F5F5FF" d="M2455.498,764.908c86.323,159.271,177.727,512.088,88.376,560.514
		c-89.333,48.416-325.592-225.889-411.911-385.162c-86.322-159.271-34.969-237.428,54.354-285.836
		C2275.666,606,2369.175,605.635,2455.498,764.908z"/>
</g>
<g>
	<path fill="#F5F5FF" d="M2206.465,654.572c-57.574,19.755-140.789,101.85-204.212,74.236
		c-82.364-35.84,12.36-155.227,72.664-108.133c-46.562-107.014,129.407-201.521,150.702-74.67
		c24.568-63.359,132.354-109.672,117.747-9.264C2335.805,588.701,2249.291,636.926,2206.465,654.572"/>
</g>
<g>
	<path fill="#F5F5FF" d="M1271.294,521.925c-30.314,19.88-63.557,22.797-99.002-31.26c-35.446-54.058-81.68-174.679-51.36-194.56
		c30.326-19.885,125.725,68.498,161.17,122.558C1317.546,472.72,1301.619,502.039,1271.294,521.925z"/>
</g>
<g>
	<path fill="#F5F5FF" d="M1290.838,444.798c11.522-11.849,38.968-34.115,57.183-29.729c35.199,8.47,5.569,38.04-18.679,37.777
		c39.2,23.871-15.437,69.637-44.716,40.025c7.607,26.218-44.502,41.772-45.455,9.737
		C1238.432,477.936,1276.66,461.252,1290.838,444.798"/>
</g>
<g>
	<path fill="#F5F5FF" d="M1135.143,560.946c-46.755,30.659-98.021,35.157-152.688-48.212
		c-54.668-83.371-125.976-269.403-79.211-300.065c46.769-30.668,193.897,105.646,248.566,189.019
		C1206.478,485.058,1181.912,530.277,1135.143,560.946z"/>
</g>
<g>
	<path fill="#F5F5FF" d="M1162.025,494.752c17.771-18.273,60.099-52.614,88.189-45.855c54.288,13.065,8.588,58.668-28.808,58.266
		c60.457,36.814-23.81,107.398-68.964,61.729c11.73,40.441-68.635,64.43-70.104,15.021
		C1081.201,545.859,1140.158,520.129,1162.025,494.752"/>
</g>
<g>
	<path fill="#F5F5FF" d="M957.761,512.136c-29.382,19.266-61.599,22.093-95.953-30.298c-34.353-52.39-79.164-169.295-49.775-188.566
		c29.391-19.272,121.851,66.389,156.205,118.783C1002.59,464.445,987.153,492.861,957.761,512.136z"/>
</g>
<g>
	<path fill="#F5F5FF" d="M988.004,463.099c8.738-8.985,29.551-25.87,43.364-22.548c26.693,6.423,4.224,28.849-14.165,28.65
		c29.727,18.103-11.707,52.809-33.911,30.354c5.768,19.887-33.748,31.682-34.471,7.387
		C948.261,488.229,977.252,475.578,988.004,463.099"/>
</g>
<g>
	<path fill="#F5F5FF" d="M1569.222,463.358c-28.438,18.646-59.619,21.384-92.869-29.323
		c-33.25-50.709-76.619-163.859-48.178-182.508c28.447-18.651,117.934,64.258,151.184,114.966S1597.668,444.705,1569.222,463.358z"
		/>
</g>
<g>
	<path fill="#F5F5FF" d="M1620.571,385.146c8.701-8.945,29.426-25.76,43.179-22.453c26.58,6.396,4.206,28.724-14.104,28.527
		c29.601,18.027-11.656,52.583-33.766,30.226c5.744,19.799-33.604,31.544-34.322,7.352
		C1581,410.169,1609.866,397.572,1620.571,385.146"/>
</g>
<g>
	<path fill="#F5F5FF" d="M866.426,618.881c-56.987,37.366-119.472,42.846-186.101-58.765
		C613.69,458.5,526.782,231.762,583.78,194.388c57.004-37.379,236.33,128.763,302.961,230.384
		C953.37,526.383,923.429,581.497,866.426,618.881z"/>
</g>
<g>
	<path fill="#F5F5FF" d="M902.848,580.037c21.659-22.272,73.25-64.128,107.488-55.891c66.168,15.926,10.469,71.508-35.111,71.017
		c73.686,44.871-29.018,130.897-84.056,75.238c14.299,49.288-83.653,78.526-85.444,18.305
		C804.337,642.327,876.197,610.968,902.848,580.037"/>
</g>
<g>
	<path fill="#F5F5FF" d="M647.254,586.59c-44.466,29.155-93.223,33.432-145.213-45.854
		c-51.992-79.289-119.806-256.209-75.33-285.371C471.188,226.2,611.117,355.836,663.104,435.13
		C715.095,514.415,691.731,557.42,647.254,586.59z"/>
</g>
<g>
	<path fill="#F5F5FF" d="M665.173,562.884c11.393-11.716,38.533-33.735,56.544-29.398c34.808,8.377,5.508,37.614-18.47,37.356
		c38.761,23.604-15.266,68.859-44.219,39.579c7.521,25.929-44.006,41.31-44.948,9.63
		C613.35,595.655,651.152,579.155,665.173,562.884"/>
</g>
<g>
	<path fill="#F5F5FF" d="M505.661,721.383c-68.756,45.083-144.145,51.699-224.534-70.898
		c-80.397-122.604-185.253-396.17-116.484-441.26c68.775-45.098,285.139,155.355,365.53,277.961
		C610.563,609.783,574.438,676.28,505.661,721.383z"/>
</g>
<g>
	<path fill="#F5F5FF" d="M557.437,719.604c26.129-26.871,88.377-77.371,129.686-67.431c79.834,19.213,12.633,86.275-42.361,85.685
		c88.904,54.136-35.012,157.929-101.417,90.773c17.251,59.469-100.929,94.745-103.09,22.087
		C438.58,794.762,525.28,756.923,557.437,719.604"/>
</g>
<g>
	<path fill="#F5F5FF" d="M33.466,540.371c-53.252,34.918-111.64,40.043-173.902-54.911
		c-62.266-94.954-143.478-306.832-90.218-341.754c53.271-34.928,220.839,120.323,283.104,215.28
		C114.712,453.939,86.734,505.441,33.466,540.371z"/>
</g>
<g>
	<path fill="#F5F5FF" d="M-168.122,556.204c-27.877,23.174-60.578,29.824-101.896-19.887
		c-41.32-49.71-100.873-164.345-72.989-187.521c27.888-23.181,132.651,53.873,173.972,103.586
		C-127.717,502.093-140.233,533.021-168.122,556.204z"/>
</g>
<g>
	<path fill="#F5F5FF" d="M1901.161,450.219c63.729-76.672,225.302-195.509,268.312-159.758
		c43.007,35.744-48.842,212.54-112.568,289.208c-63.728,76.668-114.158,66.412-157.154,30.672
		C1856.74,574.59,1837.436,526.887,1901.161,450.219z"/>
</g>
<g>
	<path fill="#F5F5FF" d="M166.111,520.824c-36.553,23.968-76.632,27.484-119.365-37.69C4.008,417.958-51.736,272.527-15.177,248.559
		c36.56-23.976,151.581,82.59,194.317,147.767C221.876,461.499,202.672,496.85,166.111,520.824z"/>
</g>
<g>
	<path fill="#F5F5FF" d="M1663.905,404.39c-29.381,19.269-61.598,22.096-95.949-30.294
		c-34.352-52.393-79.161-169.292-49.775-188.561c29.391-19.271,121.844,66.387,156.198,118.777
		C1708.731,356.702,1693.294,385.118,1663.905,404.39z"/>
</g>
<g id="ZZFJ7j_1_">
	<g>
		<path fill-rule="evenodd" clip-rule="evenodd" fill="#F5F5FF" d="M1495.536,150.861c-4.312-1.312-16.437,1.517-19.166-1.213
			c-1.713-1.713-0.971-6.634-0.971-9.705c0-3.972-0.498-8.036,0-10.675c1.463-7.76,14.883-8.979,20.865-5.338
			c3.691,2.247,4.412,6.462,3.881,13.102c-2.973,0.078-6.889-0.104-9.704,0c-0.778,0.029-2.628-0.563-2.669,0.728
			c0.335,0.925,1.578,0.466,2.184,0.485c2.875,0.094,5.527,0,8.249,0c3.554,0,7.697-0.645,10.675,0.243
			c8.216,2.449,8.758,21.651,0,24.261c-3.158,0.942-5.623-0.183-9.947,0.243C1498.825,156.758,1499.937,152.2,1495.536,150.861z
			 M1493.595,128.541c-3.601-1.207-4.283,3.909-1.697,4.61c1.036,0.281,3.411,0.208,3.396-2.426
			C1495.29,130.019,1494.917,128.983,1493.595,128.541z"/>
		<path fill-rule="evenodd" clip-rule="evenodd" fill="#F5F5FF" d="M1474.187,138.973c0.401,4.185-0.644,7.533,0.242,9.947
			c2.342,6.384,19.186-0.119,22.563,4.125c1.257,1.578,0.728,6.67,0.728,8.977c0,3.933,0.411,8.453-0.242,10.675
			c-2.076,7.057-14.725,8.2-20.623,4.61c-3.808-2.318-4.336-6.497-3.881-13.101c2.973-0.078,6.89,0.104,9.704,0
			c0.778-0.029,2.628,0.563,2.669-0.728c-0.335-0.925-1.578-0.466-2.184-0.485c-2.875-0.094-5.527,0-8.249,0
			c-3.687,0-7.696,0.645-10.675-0.243c-8.308-2.476-8.665-21.679,0-24.261c3.088-0.92,5.523,0.17,9.705-0.243
			C1474.226,138.286,1474.207,138.628,1474.187,138.973z M1481.222,168.329c-1.893-0.662-3.407,0.252-3.396,2.184
			c0.018,3.031,5.365,3.682,5.096-0.242C1482.882,169.7,1482.442,168.756,1481.222,168.329z"/>
		<g>
		</g>
	</g>
</g>
<g id="ZZFJ7j_2_">
	<g>
		<path fill-rule="evenodd" clip-rule="evenodd" fill="#F5F5FF" d="M1457.499,118.23c-2.133-0.649-8.129,0.75-9.479-0.6
			c-0.848-0.847-0.48-3.28-0.48-4.799c0-1.964-0.245-3.974,0-5.279c0.725-3.837,7.36-4.44,10.318-2.64
			c1.826,1.111,2.183,3.196,1.92,6.479c-1.47,0.039-3.406-0.052-4.799,0c-0.385,0.014-1.3-0.279-1.32,0.36
			c0.166,0.457,0.781,0.23,1.08,0.24c1.422,0.046,2.734,0,4.08,0c1.758,0,3.807-0.319,5.279,0.12c4.062,1.211,4.33,10.708,0,11.998
			c-1.562,0.466-2.781-0.09-4.92,0.121C1459.126,121.146,1459.675,118.892,1457.499,118.23z M1456.539,107.191
			c-1.78-0.597-2.118,1.933-0.839,2.28c0.512,0.139,1.687,0.103,1.679-1.2C1457.378,107.923,1457.192,107.411,1456.539,107.191z"/>
		<path fill-rule="evenodd" clip-rule="evenodd" fill="#F5F5FF" d="M1446.94,112.351c0.199,2.07-0.318,3.725,0.12,4.919
			c1.158,3.157,9.488-0.059,11.159,2.04c0.621,0.78,0.359,3.298,0.359,4.439c0,1.945,0.203,4.181-0.12,5.279
			c-1.026,3.49-7.281,4.055-10.198,2.28c-1.883-1.146-2.145-3.213-1.92-6.479c1.471-0.039,3.407,0.052,4.799,0
			c0.386-0.015,1.301,0.278,1.32-0.36c-0.166-0.458-0.78-0.23-1.08-0.24c-1.422-0.047-2.733,0-4.079,0
			c-1.823,0-3.806,0.318-5.279-0.121c-4.108-1.224-4.285-10.721,0-11.998c1.527-0.455,2.731,0.084,4.8-0.12
			C1446.96,112.011,1446.951,112.181,1446.94,112.351z M1450.421,126.868c-0.937-0.327-1.686,0.125-1.681,1.08
			c0.009,1.499,2.653,1.821,2.521-0.12C1451.241,127.546,1451.023,127.08,1450.421,126.868z"/>
		<g>
		</g>
	</g>
</g>
<g id="ZZFJ7j_3_">
	<g>
		<path fill-rule="evenodd" clip-rule="evenodd" fill="#F5F5FF" d="M1435.306,98.273c-0.859-0.262-3.275,0.302-3.82-0.242
			c-0.342-0.341-0.193-1.322-0.193-1.934c0-0.792-0.099-1.602,0-2.127c0.292-1.547,2.967-1.79,4.159-1.064
			c0.735,0.448,0.88,1.288,0.774,2.611c-0.594,0.016-1.374-0.021-1.936,0c-0.154,0.006-0.523-0.112-0.531,0.146
			c0.066,0.184,0.314,0.093,0.436,0.097c0.572,0.019,1.102,0,1.644,0c0.708,0,1.534-0.129,2.128,0.048
			c1.638,0.488,1.746,4.316,0,4.836c-0.629,0.188-1.121-0.036-1.982,0.049C1435.962,99.449,1436.183,98.54,1435.306,98.273z
			 M1434.919,93.824c-0.718-0.24-0.854,0.779-0.338,0.919c0.206,0.056,0.68,0.042,0.677-0.483
			C1435.257,94.119,1435.183,93.913,1434.919,93.824z"/>
		<path fill-rule="evenodd" clip-rule="evenodd" fill="#F5F5FF" d="M1431.05,95.904c0.081,0.834-0.127,1.501,0.049,1.983
			c0.467,1.272,3.824-0.024,4.498,0.822c0.25,0.315,0.145,1.33,0.145,1.79c0,0.784,0.082,1.685-0.049,2.128
			c-0.413,1.406-2.934,1.634-4.109,0.919c-0.76-0.462-0.865-1.295-0.774-2.612c0.593-0.016,1.374,0.021,1.935,0
			c0.155-0.006,0.523,0.112,0.531-0.145c-0.066-0.185-0.314-0.093-0.435-0.097c-0.573-0.019-1.103,0-1.644,0
			c-0.735,0-1.535,0.128-2.129-0.049c-1.656-0.493-1.727-4.321,0-4.836c0.615-0.183,1.102,0.034,1.935-0.048
			C1431.059,95.767,1431.055,95.835,1431.05,95.904z M1432.453,101.755c-0.378-0.132-0.68,0.051-0.677,0.436
			c0.003,0.604,1.068,0.734,1.016-0.048C1432.784,102.028,1432.696,101.84,1432.453,101.755z"/>
		<g>
		</g>
	</g>
</g>
<g id="ZZFJ7j_6_">
	<g>
		<path fill-rule="evenodd" clip-rule="evenodd" fill="#F5F5FF" d="M1206.145,183.122c-5.759-1.753-21.95,2.025-25.596-1.62
			c-2.287-2.289-1.297-8.86-1.297-12.961c0-5.304-0.664-10.731,0-14.256c1.955-10.363,19.876-11.991,27.866-7.129
			c4.929,3.001,5.892,8.63,5.184,17.497c-3.97,0.104-9.201-0.14-12.96,0c-1.041,0.039-3.51-0.752-3.564,0.972
			c0.447,1.235,2.105,0.622,2.916,0.648c3.839,0.125,7.381,0,11.017,0c4.747,0,10.278-0.861,14.256,0.324
			c10.972,3.271,11.695,28.915,0,32.401c-4.218,1.259-7.509-0.244-13.284,0.325C1210.537,190.997,1212.021,184.91,1206.145,183.122z
			 M1203.554,153.312c-4.81-1.611-5.722,5.22-2.269,6.156c1.385,0.375,4.557,0.278,4.536-3.24
			C1205.816,155.287,1205.319,153.904,1203.554,153.312z"/>
		<path fill-rule="evenodd" clip-rule="evenodd" fill="#F5F5FF" d="M1177.633,167.245c0.536,5.589-0.859,10.06,0.323,13.284
			c3.128,8.525,25.622-0.159,30.134,5.509c1.678,2.107,0.972,8.908,0.972,11.988c0,5.252,0.549,11.289-0.324,14.256
			c-2.771,9.424-19.663,10.951-27.54,6.157c-5.086-3.097-5.792-8.677-5.186-17.497c3.971-0.104,9.202,0.14,12.961,0
			c1.04-0.039,3.51,0.751,3.564-0.972c-0.447-1.235-2.107-0.622-2.916-0.648c-3.839-0.125-7.382,0-11.017,0
			c-4.923,0-10.278,0.861-14.257-0.325c-11.094-3.306-11.571-28.952,0-32.401c4.126-1.229,7.377,0.229,12.961-0.324
			C1177.686,166.327,1177.66,166.785,1177.633,167.245z M1187.028,206.45c-2.527-0.882-4.55,0.338-4.536,2.916
			c0.023,4.048,7.165,4.917,6.805-0.323C1189.245,208.28,1188.658,207.02,1187.028,206.45z"/>
		<g>
		</g>
	</g>
</g>
<g id="ZZFJ7j_5_">
	<g>
		<path fill-rule="evenodd" clip-rule="evenodd" fill="#F5F5FF" d="M1155.348,139.543c-2.849-0.867-10.856,1.002-12.659-0.801
			c-1.131-1.131-0.642-4.381-0.642-6.409c0-2.624-0.327-5.308,0-7.05c0.967-5.125,9.83-5.93,13.78-3.526
			c2.438,1.484,2.915,4.269,2.563,8.653c-1.963,0.051-4.549-0.069-6.408,0c-0.515,0.019-1.735-0.373-1.763,0.48
			c0.221,0.611,1.042,0.308,1.442,0.321c1.897,0.062,3.65,0,5.448,0c2.348,0,5.082-0.427,7.049,0.16
			c5.427,1.617,5.784,14.3,0,16.023c-2.086,0.624-3.712-0.121-6.568,0.161C1157.52,143.438,1158.253,140.427,1155.348,139.543z
			 M1154.064,124.801c-2.377-0.796-2.829,2.582-1.121,3.046c0.685,0.185,2.254,0.136,2.243-1.603
			C1155.184,125.778,1154.938,125.094,1154.064,124.801z"/>
		<path fill-rule="evenodd" clip-rule="evenodd" fill="#F5F5FF" d="M1141.247,131.691c0.266,2.765-0.426,4.976,0.159,6.569
			c1.548,4.216,12.672-0.079,14.902,2.725c0.829,1.042,0.481,4.405,0.481,5.928c0,2.598,0.271,5.583-0.161,7.05
			c-1.371,4.661-9.724,5.416-13.62,3.044c-2.515-1.531-2.863-4.291-2.563-8.652c1.964-0.051,4.551,0.069,6.41,0
			c0.514-0.02,1.734,0.372,1.762-0.48c-0.221-0.611-1.042-0.308-1.442-0.32c-1.898-0.062-3.65,0-5.447,0
			c-2.435,0-5.083,0.425-7.051-0.161c-5.486-1.635-5.723-14.317,0-16.023c2.04-0.608,3.647,0.112,6.409-0.16
			C1141.272,131.238,1141.26,131.464,1141.247,131.691z M1145.894,151.08c-1.249-0.436-2.251,0.167-2.244,1.443
			c0.012,2.001,3.544,2.431,3.365-0.161C1146.989,151.985,1146.699,151.361,1145.894,151.08z"/>
		<g>
		</g>
	</g>
</g>
<g id="ZZFJ7j_4_">
	<g>
		<path fill-rule="evenodd" clip-rule="evenodd" fill="#F5F5FF" d="M1125.709,112.892c-1.148-0.35-4.376,0.403-5.103-0.323
			c-0.457-0.457-0.259-1.766-0.259-2.583c0-1.058-0.131-2.139,0-2.841c0.39-2.065,3.963-2.391,5.555-1.422
			c0.983,0.6,1.175,1.721,1.033,3.488c-0.791,0.021-1.834-0.027-2.583,0c-0.207,0.008-0.7-0.149-0.71,0.195
			c0.088,0.246,0.42,0.123,0.58,0.129c0.766,0.024,1.472,0,2.196,0c0.946,0,2.049-0.172,2.842,0.064
			c2.188,0.652,2.331,5.763,0,6.458c-0.841,0.251-1.497-0.049-2.647,0.065C1126.584,114.461,1126.88,113.247,1125.709,112.892z
			 M1125.191,106.949c-0.959-0.321-1.141,1.041-0.452,1.228c0.276,0.074,0.908,0.056,0.904-0.646
			C1125.643,107.344,1125.544,107.067,1125.191,106.949z"/>
		<path fill-rule="evenodd" clip-rule="evenodd" fill="#F5F5FF" d="M1120.024,109.727c0.108,1.114-0.171,2.005,0.064,2.648
			c0.623,1.699,5.108-0.033,6.007,1.098c0.335,0.42,0.194,1.775,0.194,2.39c0,1.046,0.109,2.25-0.064,2.842
			c-0.552,1.878-3.92,2.183-5.49,1.227c-1.014-0.617-1.154-1.73-1.032-3.487c0.791-0.021,1.833,0.028,2.583,0
			c0.207-0.008,0.699,0.149,0.71-0.194c-0.089-0.247-0.42-0.124-0.58-0.129c-0.767-0.025-1.473,0-2.196,0
			c-0.981,0-2.049,0.171-2.842-0.065c-2.213-0.659-2.308-5.771,0-6.458c0.821-0.245,1.47,0.046,2.583-0.064
			C1120.035,109.543,1120.03,109.635,1120.024,109.727z M1121.898,117.541c-0.504-0.176-0.908,0.067-0.904,0.581
			c0.005,0.807,1.428,0.98,1.356-0.064C1122.34,117.905,1122.224,117.655,1121.898,117.541z"/>
		<g>
		</g>
	</g>
</g>
<g id="ZZFJ7j_9_">
	<g>
		<path fill-rule="evenodd" clip-rule="evenodd" fill="#F5F5FF" d="M1415.337,234.459c-2.727-0.829-10.392,0.959-12.117-0.767
			c-1.084-1.084-0.614-4.194-0.614-6.137c0-2.511-0.314-5.08,0-6.748c0.925-4.906,9.409-5.677,13.192-3.375
			c2.334,1.42,2.789,4.086,2.454,8.283c-1.88,0.049-4.356-0.066-6.136,0c-0.492,0.018-1.662-0.356-1.688,0.46
			c0.212,0.585,0.997,0.294,1.381,0.307c1.816,0.06,3.494,0,5.215,0c2.248,0,4.867-0.408,6.749,0.153
			c5.194,1.549,5.537,13.689,0,15.339c-1.997,0.597-3.555-0.115-6.288,0.154C1417.417,238.187,1418.119,235.306,1415.337,234.459z
			 M1414.11,220.347c-2.277-0.763-2.709,2.471-1.074,2.914c0.656,0.178,2.157,0.132,2.147-1.533
			C1415.182,221.281,1414.946,220.627,1414.11,220.347z"/>
		<path fill-rule="evenodd" clip-rule="evenodd" fill="#F5F5FF" d="M1401.839,226.942c0.254,2.646-0.406,4.763,0.153,6.289
			c1.48,4.036,12.13-0.075,14.266,2.607c0.794,0.998,0.46,4.218,0.46,5.676c0,2.486,0.26,5.346-0.153,6.749
			c-1.312,4.462-9.31,5.185-13.038,2.915c-2.408-1.466-2.742-4.107-2.455-8.283c1.88-0.05,4.357,0.066,6.137,0
			c0.492-0.019,1.661,0.355,1.688-0.46c-0.213-0.585-0.998-0.294-1.381-0.307c-1.817-0.06-3.495,0-5.216,0
			c-2.331,0-4.866,0.407-6.749-0.154c-5.252-1.564-5.479-13.706,0-15.339c1.953-0.582,3.492,0.107,6.136-0.153
			C1401.864,226.509,1401.853,226.725,1401.839,226.942z M1406.287,245.503c-1.196-0.418-2.154,0.16-2.147,1.38
			c0.011,1.917,3.392,2.328,3.221-0.152C1407.336,246.369,1407.059,245.772,1406.287,245.503z"/>
		<g>
		</g>
	</g>
</g>
<g id="ZZFJ7j_8_">
	<g>
		<path fill-rule="evenodd" clip-rule="evenodd" fill="#F5F5FF" d="M1391.288,213.828c-1.348-0.41-5.139,0.474-5.992-0.38
			c-0.536-0.535-0.304-2.073-0.304-3.033c0-1.242-0.155-2.514,0-3.338c0.458-2.427,4.653-2.808,6.523-1.67
			c1.154,0.703,1.38,2.021,1.214,4.097c-0.93,0.024-2.154-0.032-3.034,0c-0.243,0.009-0.821-0.176-0.835,0.228
			c0.105,0.289,0.494,0.146,0.684,0.152c0.898,0.028,1.729,0,2.579,0c1.111,0,2.406-0.202,3.337,0.075
			c2.569,0.766,2.738,6.771,0,7.586c-0.987,0.295-1.758-0.058-3.109,0.076C1392.316,215.672,1392.664,214.246,1391.288,213.828z
			 M1390.681,206.849c-1.125-0.377-1.339,1.223-0.529,1.441c0.323,0.088,1.066,0.065,1.061-0.759
			C1391.212,207.312,1391.095,206.987,1390.681,206.849z"/>
		<path fill-rule="evenodd" clip-rule="evenodd" fill="#F5F5FF" d="M1384.613,210.11c0.126,1.309-0.202,2.355,0.075,3.11
			c0.732,1.996,5.999-0.037,7.055,1.29c0.393,0.493,0.229,2.085,0.229,2.807c0,1.229,0.128,2.644-0.076,3.338
			c-0.649,2.206-4.604,2.563-6.448,1.441c-1.19-0.726-1.356-2.031-1.214-4.097c0.93-0.024,2.154,0.033,3.035,0
			c0.242-0.009,0.821,0.176,0.834-0.228c-0.105-0.289-0.494-0.146-0.683-0.151c-0.899-0.03-1.729,0-2.579,0
			c-1.153,0-2.406,0.201-3.338-0.076c-2.598-0.774-2.709-6.778,0-7.586c0.965-0.288,1.727,0.054,3.034-0.075
			C1384.626,209.896,1384.62,210.003,1384.613,210.11z M1386.813,219.289c-0.592-0.206-1.066,0.079-1.062,0.684
			c0.006,0.947,1.678,1.15,1.593-0.076C1387.331,219.718,1387.194,219.423,1386.813,219.289z"/>
		<g>
		</g>
	</g>
</g>
<g id="ZZFJ7j_7_">
	<g>
		<path fill-rule="evenodd" clip-rule="evenodd" fill="#F5F5FF" d="M1377.257,201.21c-0.543-0.165-2.071,0.191-2.415-0.152
			c-0.216-0.216-0.123-0.836-0.123-1.223c0-0.501-0.062-1.014,0-1.346c0.185-0.978,1.876-1.132,2.63-0.673
			c0.465,0.283,0.557,0.814,0.489,1.651c-0.374,0.01-0.868-0.014-1.224,0c-0.098,0.004-0.33-0.071-0.336,0.092
			c0.043,0.116,0.199,0.059,0.275,0.061c0.362,0.012,0.696,0,1.039,0c0.448,0,0.971-0.081,1.346,0.031
			c1.035,0.309,1.104,2.729,0,3.057c-0.398,0.119-0.709-0.022-1.254,0.031C1377.671,201.954,1377.812,201.379,1377.257,201.21z
			 M1377.013,198.397c-0.455-0.152-0.541,0.492-0.215,0.581c0.131,0.035,0.43,0.026,0.429-0.306
			C1377.226,198.584,1377.179,198.453,1377.013,198.397z"/>
		<path fill-rule="evenodd" clip-rule="evenodd" fill="#F5F5FF" d="M1374.565,199.712c0.052,0.527-0.08,0.949,0.031,1.254
			c0.295,0.805,2.418-0.016,2.844,0.52c0.158,0.199,0.092,0.841,0.092,1.132c0,0.495,0.052,1.065-0.031,1.345
			c-0.262,0.89-1.855,1.033-2.598,0.581c-0.48-0.292-0.547-0.819-0.49-1.651c0.375-0.01,0.869,0.014,1.223,0
			c0.1-0.003,0.332,0.071,0.337-0.092c-0.042-0.116-0.198-0.059-0.274-0.061c-0.363-0.012-0.697,0-1.04,0
			c-0.465,0-0.97,0.081-1.345-0.031c-1.048-0.312-1.093-2.731,0-3.057c0.389-0.116,0.695,0.021,1.223-0.031
			C1374.571,199.626,1374.569,199.669,1374.565,199.712z M1375.453,203.411c-0.239-0.083-0.43,0.032-0.429,0.275
			c0.003,0.382,0.677,0.465,0.643-0.03C1375.662,203.585,1375.606,203.466,1375.453,203.411z"/>
		<g>
		</g>
	</g>
</g>
<g id="ZZFJ7j_12_">
	<g>
		<path fill-rule="evenodd" clip-rule="evenodd" fill="#F5F5FF" d="M1112.333,232.106c-9.956-3.028-37.947,3.503-44.248-2.8
			c-3.955-3.956-2.242-15.316-2.242-22.405c0-9.17-1.148-18.552,0-24.645c3.379-17.916,34.359-20.729,48.172-12.325
			c8.521,5.188,10.186,14.92,8.961,30.248c-6.862,0.181-15.905-0.242-22.404,0c-1.798,0.066-6.066-1.3-6.162,1.679
			c0.773,2.135,3.643,1.075,5.041,1.121c6.637,0.217,12.762,0,19.045,0c8.206,0,17.771-1.489,24.645,0.561
			c18.969,5.654,20.219,49.986,0,56.012c-7.291,2.176-12.98-0.422-22.963,0.562C1119.927,245.721,1122.493,235.198,1112.333,232.106
			z M1107.853,180.575c-8.314-2.785-9.891,9.024-3.92,10.643c2.393,0.648,7.875,0.48,7.84-5.602
			C1111.766,183.989,1110.905,181.598,1107.853,180.575z"/>
		<path fill-rule="evenodd" clip-rule="evenodd" fill="#F5F5FF" d="M1063.044,204.661c0.926,9.662-1.486,17.39,0.559,22.964
			c5.406,14.739,44.294-0.274,52.093,9.522c2.9,3.644,1.68,15.399,1.68,20.726c0,9.078,0.948,19.517-0.56,24.645
			c-4.792,16.291-33.993,18.932-47.611,10.645c-8.791-5.354-10.012-15-8.962-30.248c6.864-0.181,15.907,0.242,22.405,0
			c1.799-0.068,6.066,1.299,6.162-1.68c-0.773-2.135-3.643-1.075-5.042-1.12c-6.636-0.216-12.761,0-19.044,0
			c-8.512,0-17.77,1.487-24.646-0.562c-19.178-5.715-20.004-50.05,0-56.012c7.131-2.125,12.752,0.394,22.406-0.561
			C1063.135,203.075,1063.091,203.865,1063.044,204.661z M1079.287,272.435c-4.37-1.525-7.868,0.585-7.843,5.041
			c0.041,7,12.385,8.501,11.764-0.56C1083.116,275.599,1082.103,273.421,1079.287,272.435z"/>
		<g>
		</g>
	</g>
</g>
<g id="ZZFJ7j_11_">
	<g>
		<path fill-rule="evenodd" clip-rule="evenodd" fill="#F5F5FF" d="M1024.517,156.771c-4.924-1.498-18.766,1.732-21.881-1.385
			c-1.957-1.956-1.109-7.573-1.109-11.079c0-4.535-0.567-9.175,0-12.188c1.67-8.86,16.992-10.252,23.822-6.095
			c4.214,2.565,5.037,7.378,4.432,14.958c-3.395,0.089-7.866-0.119-11.08,0c-0.89,0.033-3.001-0.643-3.047,0.831
			c0.383,1.056,1.801,0.532,2.494,0.554c3.281,0.107,6.31,0,9.417,0c4.058,0,8.788-0.737,12.188,0.277
			c9.379,2.796,9.998,24.721,0,27.7c-3.607,1.077-6.42-0.208-11.357,0.279C1028.272,163.503,1029.542,158.299,1024.517,156.771z
			 M1022.301,131.287c-4.11-1.378-4.892,4.463-1.938,5.265c1.183,0.32,3.896,0.236,3.876-2.771
			C1024.236,132.975,1023.811,131.793,1022.301,131.287z"/>
		<path fill-rule="evenodd" clip-rule="evenodd" fill="#F5F5FF" d="M1000.142,143.199c0.459,4.778-0.734,8.601,0.276,11.356
			c2.674,7.289,21.905-0.136,25.762,4.71c1.435,1.801,0.831,7.615,0.831,10.249c0,4.49,0.469,9.652-0.277,12.188
			c-2.37,8.057-16.811,9.362-23.545,5.263c-4.348-2.647-4.951-7.417-4.433-14.958c3.396-0.089,7.867,0.12,11.081,0
			c0.889-0.033,3,0.643,3.047-0.831c-0.383-1.057-1.801-0.532-2.492-0.553c-3.283-0.109-6.312,0-9.42,0
			c-4.209,0-8.786,0.734-12.188-0.279c-9.484-2.826-9.893-24.75,0-27.7c3.526-1.05,6.307,0.194,11.08-0.277
			C1000.187,142.414,1000.165,142.805,1000.142,143.199z M1008.175,176.715c-2.16-0.754-3.892,0.289-3.879,2.494
			c0.02,3.46,6.125,4.203,5.818-0.277C1010.069,178.28,1009.567,177.202,1008.175,176.715z"/>
		<g>
		</g>
	</g>
</g>
<g id="ZZFJ7j_10_">
	<g>
		<path fill-rule="evenodd" clip-rule="evenodd" fill="#F5F5FF" d="M973.28,110.698c-1.984-0.604-7.564,0.697-8.82-0.559
			c-0.789-0.789-0.447-3.053-0.447-4.465c0-1.828-0.228-3.698,0-4.912c0.674-3.571,6.85-4.133,9.603-2.458
			c1.698,1.036,2.03,2.974,1.786,6.029c-1.367,0.036-3.17-0.047-4.466,0c-0.358,0.014-1.21-0.259-1.228,0.337
			c0.154,0.424,0.727,0.213,1.005,0.223c1.321,0.043,2.542,0,3.795,0c1.636,0,3.542-0.298,4.913,0.111
			c3.781,1.127,4.029,9.963,0,11.164c-1.453,0.436-2.588-0.083-4.576,0.113C974.794,113.411,975.306,111.312,973.28,110.698z
			 M972.387,100.425c-1.657-0.555-1.972,1.799-0.782,2.122c0.478,0.128,1.57,0.096,1.564-1.116
			C973.167,101.107,972.995,100.63,972.387,100.425z"/>
		<path fill-rule="evenodd" clip-rule="evenodd" fill="#F5F5FF" d="M963.454,105.227c0.188,1.926-0.295,3.466,0.112,4.578
			c1.077,2.937,8.829-0.057,10.384,1.898c0.578,0.727,0.335,3.068,0.335,4.13c0,1.81,0.188,3.89-0.112,4.914
			c-0.955,3.246-6.775,3.772-9.489,2.121c-1.753-1.067-1.996-2.991-1.786-6.029c1.368-0.037,3.171,0.049,4.466,0
			c0.358-0.014,1.21,0.258,1.228-0.335c-0.153-0.427-0.725-0.214-1.004-0.224c-1.324-0.042-2.545,0-3.795,0
			c-1.698,0-3.543,0.297-4.914-0.113c-3.824-1.138-3.988-9.975,0-11.164c1.421-0.423,2.541,0.079,4.465-0.111
			C963.474,104.91,963.466,105.068,963.454,105.227z M966.694,118.735c-0.872-0.305-1.57,0.117-1.564,1.005
			c0.008,1.395,2.469,1.695,2.346-0.111C967.457,119.366,967.254,118.933,966.694,118.735z"/>
		<g>
		</g>
	</g>
</g>
<g id="ZZFJ7j_15_">
	<g>
		<path fill-rule="evenodd" clip-rule="evenodd" fill="#F5F5FF" d="M894.726,192.222c-2.727-0.829-10.393,0.959-12.117-0.767
			c-1.084-1.084-0.615-4.194-0.615-6.137c0-2.511-0.314-5.08,0-6.748c0.926-4.906,9.41-5.677,13.192-3.375
			c2.334,1.42,2.79,4.086,2.454,8.283c-1.879,0.049-4.355-0.066-6.135,0c-0.493,0.018-1.662-0.356-1.688,0.46
			c0.211,0.585,0.996,0.294,1.38,0.307c1.817,0.06,3.495,0,5.216,0c2.247,0,4.866-0.408,6.748,0.153
			c5.195,1.549,5.537,13.689,0,15.339c-1.996,0.597-3.555-0.115-6.288,0.154C896.805,195.949,897.507,193.068,894.726,192.222z
			 M893.498,178.109c-2.276-0.763-2.708,2.471-1.073,2.914c0.655,0.178,2.156,0.132,2.146-1.533
			C894.569,179.044,894.335,178.39,893.498,178.109z"/>
		<path fill-rule="evenodd" clip-rule="evenodd" fill="#F5F5FF" d="M881.228,184.705c0.254,2.646-0.407,4.763,0.152,6.289
			c1.48,4.036,12.131-0.075,14.266,2.607c0.795,0.998,0.461,4.218,0.461,5.676c0,2.486,0.26,5.346-0.154,6.749
			c-1.312,4.462-9.309,5.185-13.038,2.915c-2.407-1.466-2.741-4.107-2.454-8.283c1.879-0.05,4.356,0.066,6.136,0
			c0.493-0.019,1.661,0.355,1.688-0.46c-0.212-0.585-0.997-0.294-1.381-0.307c-1.817-0.06-3.495,0-5.216,0
			c-2.33,0-4.865,0.407-6.749-0.154c-5.252-1.564-5.478-13.706,0-15.339c1.953-0.582,3.492,0.107,6.136-0.153
			C881.252,184.271,881.24,184.487,881.228,184.705z M885.675,203.266c-1.195-0.418-2.154,0.16-2.146,1.38
			c0.01,1.917,3.391,2.328,3.221-0.152C886.724,204.132,886.446,203.535,885.675,203.266z"/>
		<g>
		</g>
	</g>
</g>
<g id="ZZFJ7j_14_">
	<g>
		<path fill-rule="evenodd" clip-rule="evenodd" fill="#F5F5FF" d="M870.677,171.591c-1.349-0.41-5.139,0.474-5.992-0.38
			c-0.537-0.535-0.305-2.073-0.305-3.033c0-1.242-0.154-2.514,0-3.338c0.458-2.427,4.654-2.808,6.523-1.67
			c1.154,0.703,1.381,2.021,1.215,4.097c-0.93,0.024-2.154-0.032-3.035,0c-0.243,0.009-0.821-0.176-0.834,0.228
			c0.104,0.289,0.493,0.146,0.684,0.152c0.898,0.028,1.728,0,2.578,0c1.111,0,2.406-0.202,3.338,0.075
			c2.568,0.766,2.738,6.771,0,7.586c-0.988,0.295-1.758-0.058-3.109,0.076C871.704,173.435,872.052,172.009,870.677,171.591z
			 M870.069,164.611c-1.125-0.377-1.34,1.223-0.53,1.441c0.323,0.088,1.066,0.065,1.062-0.759
			C870.6,165.074,870.483,164.75,870.069,164.611z"/>
		<path fill-rule="evenodd" clip-rule="evenodd" fill="#F5F5FF" d="M864.001,167.873c0.126,1.309-0.201,2.355,0.076,3.11
			c0.732,1.996,5.998-0.037,7.055,1.29c0.393,0.493,0.228,2.085,0.228,2.807c0,1.229,0.128,2.644-0.075,3.338
			c-0.65,2.206-4.604,2.563-6.449,1.441c-1.189-0.726-1.355-2.031-1.213-4.097c0.93-0.024,2.154,0.033,3.034,0
			c0.243-0.009,0.821,0.176,0.835-0.228c-0.105-0.289-0.494-0.146-0.684-0.151c-0.898-0.03-1.729,0-2.579,0
			c-1.153,0-2.406,0.201-3.338-0.076c-2.597-0.774-2.709-6.778,0-7.586c0.966-0.288,1.728,0.054,3.034-0.075
			C864.014,167.658,864.008,167.766,864.001,167.873z M866.201,177.052c-0.592-0.206-1.065,0.079-1.062,0.684
			c0.006,0.947,1.678,1.15,1.593-0.076C866.72,177.48,866.583,177.186,866.201,177.052z"/>
		<g>
		</g>
	</g>
</g>
<g id="ZZFJ7j_13_">
	<g>
		<path fill-rule="evenodd" clip-rule="evenodd" fill="#F5F5FF" d="M856.646,158.973c-0.544-0.165-2.072,0.191-2.416-0.152
			c-0.216-0.216-0.123-0.836-0.123-1.223c0-0.501-0.062-1.014,0-1.346c0.186-0.978,1.877-1.132,2.631-0.673
			c0.465,0.283,0.556,0.814,0.488,1.651c-0.374,0.01-0.867-0.014-1.223,0c-0.098,0.004-0.331-0.071-0.336,0.092
			c0.042,0.116,0.199,0.059,0.275,0.061c0.361,0.012,0.695,0,1.039,0c0.447,0,0.971-0.081,1.346,0.031
			c1.035,0.309,1.104,2.729,0,3.057c-0.398,0.119-0.709-0.022-1.254,0.031C857.06,159.717,857.2,159.142,856.646,158.973z
			 M856.4,156.16c-0.454-0.152-0.54,0.492-0.214,0.581c0.131,0.035,0.43,0.026,0.428-0.306
			C856.614,156.347,856.567,156.216,856.4,156.16z"/>
		<path fill-rule="evenodd" clip-rule="evenodd" fill="#F5F5FF" d="M853.954,157.475c0.051,0.527-0.08,0.949,0.031,1.254
			c0.295,0.805,2.418-0.016,2.844,0.52c0.158,0.199,0.092,0.841,0.092,1.132c0,0.495,0.051,1.065-0.031,1.345
			c-0.262,0.89-1.855,1.033-2.599,0.581c-0.48-0.292-0.547-0.819-0.489-1.651c0.375-0.01,0.868,0.014,1.223,0
			c0.099-0.003,0.332,0.071,0.336-0.092c-0.041-0.116-0.198-0.059-0.274-0.061c-0.362-0.012-0.696,0-1.04,0
			c-0.465,0-0.969,0.081-1.345-0.031c-1.048-0.312-1.093-2.731,0-3.057c0.389-0.116,0.696,0.021,1.223-0.031
			C853.96,157.389,853.957,157.432,853.954,157.475z M854.841,161.174c-0.238-0.083-0.43,0.032-0.428,0.275
			c0.002,0.382,0.676,0.465,0.643-0.03C855.05,161.348,854.995,161.229,854.841,161.174z"/>
		<g>
		</g>
	</g>
</g>
<g id="ZZFJ7j_18_">
	<g>
		<path fill-rule="evenodd" clip-rule="evenodd" fill="#F5F5FF" d="M820.581,226.541c-9.751-2.967-37.167,3.431-43.338-2.743
			c-3.875-3.875-2.196-15-2.196-21.945c0-8.981-1.125-18.17,0-24.137c3.308-17.547,33.652-20.302,47.18-12.071
			c8.348,5.081,9.978,14.613,8.777,29.625c-6.722,0.177-15.579-0.237-21.943,0c-1.761,0.065-5.942-1.273-6.035,1.645
			c0.758,2.091,3.566,1.053,4.938,1.097c6.5,0.212,12.498,0,18.652,0c8.037,0,17.406-1.458,24.139,0.549
			c18.578,5.538,19.802,48.958,0,54.861c-7.143,2.13-12.715-0.413-22.491,0.55C828.018,239.874,830.53,229.568,820.581,226.541z
			 M816.192,176.069c-8.144-2.728-9.688,8.838-3.839,10.424c2.342,0.635,7.713,0.471,7.678-5.487
			C820.024,179.413,819.182,177.071,816.192,176.069z"/>
		<path fill-rule="evenodd" clip-rule="evenodd" fill="#F5F5FF" d="M772.305,199.66c0.907,9.463-1.455,17.033,0.548,22.491
			c5.295,14.437,43.383-0.269,51.021,9.327c2.84,3.569,1.645,15.083,1.645,20.3c0,8.891,0.93,19.115-0.549,24.138
			c-4.692,15.956-33.294,18.541-46.631,10.426c-8.61-5.244-9.807-14.692-8.777-29.626c6.722-0.178,15.58,0.236,21.943,0
			c1.762-0.066,5.942,1.271,6.035-1.645c-0.757-2.092-3.566-1.055-4.938-1.098c-6.499-0.212-12.499,0-18.652,0
			c-8.336,0-17.404,1.456-24.139-0.55c-18.784-5.598-19.592-49.021,0-54.861c6.985-2.081,12.489,0.386,21.945-0.549
			C772.395,198.105,772.351,198.88,772.305,199.66z M788.214,266.039c-4.28-1.494-7.706,0.573-7.682,4.937
			c0.04,6.856,12.131,8.327,11.521-0.547C791.965,269.138,790.972,267.005,788.214,266.039z"/>
		<g>
		</g>
	</g>
</g>
<g id="ZZFJ7j_17_">
	<g>
		<path fill-rule="evenodd" clip-rule="evenodd" fill="#F5F5FF" d="M734.571,152.755c-4.823-1.467-18.38,1.696-21.432-1.357
			c-1.917-1.916-1.086-7.417-1.086-10.851c0-4.442-0.555-8.986,0-11.938c1.637-8.678,16.643-10.042,23.332-5.969
			c4.127,2.513,4.934,7.227,4.341,14.65c-3.324,0.087-7.705-0.117-10.853,0c-0.871,0.032-2.939-0.631-2.984,0.813
			c0.374,1.034,1.764,0.521,2.443,0.543c3.213,0.104,6.18,0,9.223,0c3.975,0,8.607-0.722,11.938,0.271
			c9.187,2.739,9.792,24.212,0,27.13c-3.533,1.055-6.288-0.204-11.124,0.273C738.248,159.349,739.492,154.252,734.571,152.755z
			 M732.399,127.795c-4.025-1.35-4.79,4.371-1.897,5.156c1.159,0.313,3.814,0.231,3.796-2.715
			C734.296,129.448,733.878,128.291,732.399,127.795z"/>
		<path fill-rule="evenodd" clip-rule="evenodd" fill="#F5F5FF" d="M710.697,139.461c0.449,4.68-0.721,8.424,0.271,11.123
			c2.618,7.139,21.454-0.133,25.231,4.614c1.405,1.764,0.814,7.458,0.814,10.037c0,4.398,0.459,9.454-0.271,11.938
			c-2.321,7.892-16.464,9.169-23.061,5.154c-4.258-2.593-4.85-7.265-4.341-14.65c3.325-0.087,7.705,0.117,10.854,0
			c0.87-0.032,2.938,0.63,2.984-0.813c-0.375-1.035-1.764-0.521-2.441-0.542c-3.215-0.106-6.182,0-9.225,0
			c-4.123,0-8.607,0.72-11.938-0.273c-9.29-2.768-9.69-24.242,0-27.13c3.454-1.029,6.176,0.19,10.853-0.271
			C710.741,138.693,710.72,139.077,710.697,139.461z M718.564,172.288c-2.116-0.738-3.812,0.283-3.8,2.442
			c0.021,3.389,6,4.116,5.699-0.271C720.419,173.821,719.929,172.766,718.564,172.288z"/>
		<g>
		</g>
	</g>
</g>
<g id="ZZFJ7j_16_">
	<g>
		<path fill-rule="evenodd" clip-rule="evenodd" fill="#F5F5FF" d="M684.387,107.629c-1.944-0.592-7.409,0.683-8.637-0.547
			c-0.774-0.772-0.438-2.99-0.438-4.374c0-1.79-0.224-3.622,0-4.811c0.659-3.498,6.708-4.048,9.405-2.407
			c1.664,1.015,1.989,2.913,1.75,5.905c-1.34,0.035-3.106-0.046-4.375,0c-0.35,0.013-1.185-0.254-1.203,0.33
			c0.151,0.416,0.712,0.209,0.984,0.218c1.294,0.042,2.49,0,3.717,0c1.602,0,3.47-0.292,4.812,0.108
			c3.704,1.104,3.947,9.758,0,10.935c-1.423,0.426-2.534-0.082-4.482,0.11C685.87,110.287,686.371,108.231,684.387,107.629z
			 M683.513,97.568c-1.623-0.543-1.932,1.762-0.766,2.079c0.467,0.125,1.538,0.094,1.533-1.093
			C684.276,98.236,684.109,97.769,683.513,97.568z"/>
		<path fill-rule="evenodd" clip-rule="evenodd" fill="#F5F5FF" d="M674.764,102.271c0.183,1.887-0.289,3.396,0.11,4.484
			c1.055,2.876,8.648-0.056,10.169,1.858c0.567,0.711,0.329,3.006,0.329,4.046c0,1.772,0.185,3.81-0.11,4.812
			c-0.935,3.179-6.636,3.694-9.295,2.077c-1.716-1.045-1.955-2.93-1.75-5.905c1.341-0.036,3.106,0.047,4.374,0
			c0.353-0.014,1.186,0.253,1.203-0.329c-0.15-0.418-0.711-0.21-0.984-0.219c-1.297-0.042-2.492,0-3.717,0
			c-1.663,0-3.469,0.291-4.812-0.11c-3.745-1.115-3.906-9.771,0-10.935c1.392-0.414,2.49,0.078,4.374-0.108
			C674.784,101.961,674.774,102.115,674.764,102.271z M677.937,115.502c-0.854-0.299-1.537,0.114-1.531,0.984
			c0.007,1.365,2.418,1.66,2.296-0.109C678.684,116.12,678.486,115.695,677.937,115.502z"/>
		<g>
		</g>
	</g>
</g>
<g id="ZZFJ7j_21_">
	<g>
		<path fill-rule="evenodd" clip-rule="evenodd" fill="#F5F5FF" d="M565.111,163.781c-4.208-1.281-16.041,1.48-18.703-1.184
			c-1.673-1.673-0.948-6.475-0.948-9.471c0-3.876-0.484-7.842,0-10.418c1.428-7.572,14.523-8.762,20.361-5.208
			c3.604,2.193,4.308,6.307,3.789,12.785c-2.9,0.077-6.724-0.102-9.471,0c-0.76,0.029-2.563-0.549-2.604,0.71
			c0.326,0.903,1.539,0.455,2.132,0.474c2.805,0.092,5.392,0,8.049,0c3.47,0,7.513-0.63,10.418,0.236
			c8.018,2.391,8.547,21.131,0,23.678c-3.081,0.919-5.486-0.178-9.706,0.237C568.321,169.535,569.406,165.087,565.111,163.781z
			 M563.217,141.998c-3.514-1.178-4.181,3.814-1.655,4.499c1.011,0.274,3.327,0.202,3.314-2.369
			C564.872,143.44,564.509,142.43,563.217,141.998z"/>
		<path fill-rule="evenodd" clip-rule="evenodd" fill="#F5F5FF" d="M544.275,152.179c0.394,4.083-0.627,7.351,0.237,9.707
			c2.286,6.23,18.723-0.116,22.021,4.026c1.226,1.541,0.71,6.51,0.71,8.761c0,3.837,0.4,8.251-0.237,10.418
			c-2.025,6.887-14.369,8.002-20.126,4.5c-3.715-2.264-4.231-6.341-3.789-12.787c2.903-0.077,6.727,0.102,9.473,0
			c0.76-0.029,2.565,0.549,2.604-0.71c-0.328-0.903-1.54-0.455-2.131-0.475c-2.806-0.09-5.395,0-8.052,0
			c-3.598,0-7.511,0.629-10.418-0.237c-8.106-2.416-8.455-21.157,0-23.678c3.017-0.897,5.39,0.167,9.473-0.236
			C544.314,151.508,544.297,151.842,544.275,152.179z M551.144,180.828c-1.848-0.646-3.327,0.248-3.316,2.13
			c0.018,2.959,5.235,3.594,4.972-0.236C552.763,182.166,552.333,181.245,551.144,180.828z"/>
		<g>
		</g>
	</g>
</g>
<g id="ZZFJ7j_20_">
	<g>
		<path fill-rule="evenodd" clip-rule="evenodd" fill="#F5F5FF" d="M527.991,131.935c-2.082-0.633-7.935,0.732-9.25-0.585
			c-0.827-0.827-0.469-3.202-0.469-4.682c0-1.918-0.241-3.879,0-5.153c0.705-3.746,7.183-4.334,10.069-2.577
			c1.782,1.085,2.129,3.12,1.874,6.324c-1.437,0.037-3.325-0.051-4.686,0c-0.374,0.013-1.268-0.272-1.286,0.351
			c0.16,0.445,0.761,0.224,1.054,0.234c1.387,0.044,2.667,0,3.981,0c1.715,0,3.714-0.312,5.152,0.117
			c3.964,1.182,4.227,10.449,0,11.708c-1.525,0.456-2.715-0.088-4.802,0.118C529.577,134.78,530.114,132.581,527.991,131.935z
			 M527.053,121.162c-1.737-0.582-2.067,1.887-0.817,2.226c0.499,0.135,1.646,0.1,1.638-1.171
			C527.872,121.876,527.692,121.376,527.053,121.162z"/>
		<path fill-rule="evenodd" clip-rule="evenodd" fill="#F5F5FF" d="M517.686,126.198c0.194,2.019-0.309,3.636,0.118,4.8
			c1.129,3.082,9.26-0.058,10.89,1.991c0.606,0.761,0.351,3.219,0.351,4.332c0,1.898,0.199,4.081-0.116,5.152
			c-1.002,3.406-7.106,3.958-9.953,2.225c-1.838-1.119-2.094-3.135-1.873-6.323c1.435-0.038,3.325,0.05,4.684,0
			c0.376-0.014,1.268,0.271,1.288-0.351c-0.163-0.447-0.762-0.225-1.054-0.234c-1.389-0.046-2.667,0-3.982,0
			c-1.779,0-3.713,0.311-5.151-0.118c-4.009-1.195-4.182-10.462,0-11.708c1.49-0.444,2.666,0.083,4.685-0.117
			C517.705,125.865,517.696,126.031,517.686,126.198z M521.081,140.365c-0.911-0.318-1.644,0.122-1.639,1.053
			c0.01,1.463,2.59,1.777,2.459-0.116C521.883,141.027,521.671,140.571,521.081,140.365z"/>
		<g>
		</g>
	</g>
</g>
<g id="ZZFJ7j_19_">
	<g>
		<path fill-rule="evenodd" clip-rule="evenodd" fill="#F5F5FF" d="M506.332,112.459c-0.84-0.256-3.197,0.294-3.729-0.236
			c-0.334-0.334-0.188-1.291-0.188-1.888c0-0.773-0.097-1.563,0-2.076c0.284-1.509,2.896-1.747,4.059-1.039
			c0.718,0.438,0.858,1.258,0.755,2.548c-0.579,0.016-1.34-0.02-1.888,0c-0.151,0.007-0.511-0.108-0.519,0.143
			c0.063,0.18,0.308,0.09,0.426,0.094c0.558,0.019,1.074,0,1.604,0c0.691,0,1.497-0.125,2.076,0.047c1.599,0.476,1.703,4.21,0,4.719
			c-0.614,0.184-1.094-0.035-1.936,0.047C506.972,113.605,507.188,112.718,506.332,112.459z M505.955,108.117
			c-0.702-0.234-0.835,0.76-0.331,0.896c0.201,0.055,0.664,0.041,0.661-0.472C506.284,108.404,506.212,108.204,505.955,108.117z"/>
		<path fill-rule="evenodd" clip-rule="evenodd" fill="#F5F5FF" d="M502.178,110.146c0.08,0.815-0.124,1.465,0.049,1.935
			c0.454,1.241,3.731-0.023,4.389,0.802c0.244,0.308,0.142,1.297,0.142,1.746c0,0.765,0.08,1.645-0.047,2.077
			c-0.404,1.373-2.864,1.596-4.012,0.897c-0.741-0.452-0.844-1.264-0.755-2.549c0.578-0.015,1.339,0.021,1.887,0
			c0.152-0.005,0.513,0.11,0.519-0.142c-0.064-0.18-0.307-0.09-0.424-0.094c-0.559-0.019-1.075,0-1.604,0
			c-0.719,0-1.497,0.125-2.078-0.047c-1.617-0.482-1.685-4.217,0-4.719c0.603-0.18,1.075,0.033,1.889-0.047
			C502.188,110.013,502.182,110.078,502.178,110.146z M503.547,115.857c-0.368-0.13-0.663,0.048-0.66,0.424
			c0.003,0.589,1.043,0.716,0.99-0.047C503.869,116.123,503.785,115.94,503.547,115.857z"/>
		<g>
		</g>
	</g>
</g>
<g id="ZZFJ7j_24_">
	<g>
		<path fill-rule="evenodd" clip-rule="evenodd" fill="#F5F5FF" d="M401.825,216.716c-6.799-2.069-25.913,2.391-30.215-1.914
			c-2.702-2.7-1.531-10.457-1.531-15.298c0-6.263-0.783-12.668,0-16.829c2.306-12.234,23.462-14.155,32.894-8.416
			c5.819,3.542,6.955,10.188,6.12,20.655c-4.687,0.124-10.862-0.165-15.3,0c-1.228,0.044-4.143-0.889-4.208,1.146
			c0.529,1.458,2.487,0.734,3.443,0.765c4.531,0.149,8.713,0,13.004,0c5.604,0,12.136-1.017,16.829,0.383
			c12.951,3.861,13.805,34.133,0,38.247c-4.979,1.487-8.864-0.287-15.681,0.385C407.009,226.011,408.763,218.825,401.825,216.716z
			 M398.765,181.527c-5.678-1.902-6.753,6.161-2.675,7.268c1.632,0.442,5.377,0.327,5.353-3.826
			C401.438,183.858,400.85,182.225,398.765,181.527z"/>
		<path fill-rule="evenodd" clip-rule="evenodd" fill="#F5F5FF" d="M368.167,197.973c0.632,6.597-1.015,11.875,0.382,15.681
			c3.691,10.065,30.245-0.187,35.571,6.503c1.981,2.488,1.147,10.516,1.147,14.152c0,6.199,0.648,13.327-0.383,16.828
			c-3.271,11.125-23.212,12.927-32.51,7.268c-6.004-3.654-6.838-10.241-6.12-20.654c4.687-0.122,10.862,0.166,15.3,0
			c1.227-0.046,4.143,0.887,4.207-1.146c-0.528-1.458-2.486-0.733-3.442-0.765c-4.532-0.147-8.715,0-13.005,0
			c-5.812,0-12.134,1.016-16.83-0.385c-13.095-3.9-13.659-34.176,0-38.247c4.87-1.451,8.708,0.27,15.301-0.383
			C368.23,196.89,368.201,197.431,368.167,197.973z M379.259,244.252c-2.984-1.041-5.371,0.399-5.355,3.441
			c0.028,4.781,8.459,5.807,8.033-0.381C381.874,246.413,381.182,244.926,379.259,244.252z"/>
		<g>
		</g>
	</g>
</g>
<g id="ZZFJ7j_23_">
	<g>
		<path fill-rule="evenodd" clip-rule="evenodd" fill="#F5F5FF" d="M341.859,165.272c-3.362-1.022-12.814,1.182-14.942-0.946
			c-1.336-1.336-0.757-5.171-0.757-7.565c0-3.098-0.386-6.266,0-8.322c1.142-6.051,11.604-7.001,16.268-4.162
			c2.877,1.751,3.438,5.037,3.026,10.214c-2.317,0.061-5.372-0.083-7.566,0c-0.607,0.022-2.05-0.44-2.081,0.567
			c0.261,0.72,1.23,0.362,1.703,0.378c2.241,0.072,4.31,0,6.431,0c2.771,0,6.001-0.504,8.323,0.189
			c6.405,1.909,6.827,16.88,0,18.914c-2.464,0.736-4.385-0.142-7.756,0.191C344.423,169.869,345.292,166.316,341.859,165.272z
			 M340.346,147.871c-2.806-0.941-3.34,3.047-1.322,3.595c0.809,0.218,2.659,0.161,2.647-1.893
			C341.668,149.022,341.376,148.215,340.346,147.871z"/>
		<path fill-rule="evenodd" clip-rule="evenodd" fill="#F5F5FF" d="M325.214,156.004c0.314,3.263-0.5,5.873,0.19,7.754
			c1.825,4.977,14.958-0.093,17.591,3.217c0.979,1.229,0.567,5.199,0.567,6.998c0,3.066,0.321,6.59-0.188,8.322
			c-1.618,5.503-11.48,6.393-16.078,3.593c-2.969-1.808-3.381-5.065-3.027-10.214c2.318-0.061,5.371,0.081,7.566,0
			c0.607-0.022,2.05,0.439,2.08-0.567c-0.261-0.722-1.229-0.362-1.701-0.377c-2.241-0.075-4.31,0-6.431,0
			c-2.876,0-6.001,0.501-8.324-0.191c-6.477-1.929-6.755-16.9,0-18.914c2.409-0.718,4.307,0.132,7.566-0.189
			C325.245,155.468,325.232,155.736,325.214,156.004z M330.7,178.892c-1.476-0.516-2.657,0.196-2.648,1.701
			c0.014,2.363,4.183,2.87,3.974-0.188C331.993,179.959,331.651,179.223,330.7,178.892z"/>
		<g>
		</g>
	</g>
</g>
<g id="ZZFJ7j_22_">
	<g>
		<path fill-rule="evenodd" clip-rule="evenodd" fill="#F5F5FF" d="M306.872,133.812c-1.355-0.413-5.165,0.476-6.021-0.382
			c-0.541-0.539-0.307-2.084-0.307-3.05c0-1.248-0.156-2.525,0-3.353c0.46-2.439,4.678-2.823,6.558-1.679
			c1.159,0.707,1.386,2.031,1.22,4.118c-0.935,0.023-2.166-0.033-3.05,0c-0.244,0.009-0.826-0.177-0.84,0.229
			c0.106,0.291,0.498,0.146,0.687,0.152c0.903,0.03,1.737,0,2.592,0c1.116,0,2.419-0.203,3.354,0.075
			c2.582,0.771,2.752,6.804,0,7.624c-0.992,0.298-1.767-0.057-3.125,0.077C307.906,135.663,308.256,134.231,306.872,133.812z
			 M306.263,126.797c-1.132-0.38-1.347,1.229-0.533,1.448c0.325,0.088,1.072,0.066,1.067-0.762
			C306.794,127.263,306.678,126.936,306.263,126.797z"/>
		<path fill-rule="evenodd" clip-rule="evenodd" fill="#F5F5FF" d="M300.163,130.075c0.128,1.315-0.202,2.368,0.076,3.126
			c0.735,2.005,6.029-0.038,7.09,1.297c0.396,0.495,0.229,2.095,0.229,2.82c0,1.236,0.13,2.656-0.076,3.354
			c-0.651,2.217-4.626,2.577-6.479,1.45c-1.197-0.729-1.363-2.043-1.22-4.118c0.934-0.025,2.164,0.034,3.05,0
			c0.244-0.009,0.826,0.177,0.838-0.229c-0.104-0.292-0.496-0.147-0.687-0.153c-0.903-0.029-1.737,0-2.592,0
			c-1.157,0-2.417,0.203-3.354-0.077c-2.61-0.778-2.723-6.812,0-7.624c0.971-0.287,1.736,0.055,3.05-0.075
			C300.177,129.858,300.171,129.968,300.163,130.075z M302.374,139.299c-0.594-0.208-1.07,0.08-1.066,0.687
			c0.005,0.952,1.686,1.158,1.602-0.077C302.896,139.731,302.758,139.435,302.374,139.299z"/>
		<g>
		</g>
	</g>
</g>
<g id="ZZFJ7j_27_">
	<g>
		<path fill-rule="evenodd" clip-rule="evenodd" fill="#F5F5FF" d="M156.146,189.083c-2.48-0.755-9.454,0.873-11.023-0.697
			c-0.985-0.985-0.559-3.815-0.559-5.582c0-2.284-0.286-4.622,0-6.14c0.841-4.464,8.56-5.164,12.001-3.07
			c2.123,1.292,2.538,3.717,2.232,7.535c-1.71,0.045-3.963-0.06-5.582,0c-0.447,0.017-1.511-0.323-1.535,0.419
			c0.193,0.532,0.907,0.268,1.256,0.278c1.654,0.055,3.18,0,4.745,0c2.045,0,4.428-0.37,6.14,0.141
			c4.727,1.408,5.037,12.453,0,13.954c-1.816,0.542-3.233-0.104-5.721,0.14C158.038,192.475,158.678,189.854,156.146,189.083z
			 M155.03,176.245c-2.071-0.694-2.465,2.248-0.977,2.651c0.596,0.161,1.962,0.119,1.953-1.396
			C156.005,177.096,155.791,176.5,155.03,176.245z"/>
		<path fill-rule="evenodd" clip-rule="evenodd" fill="#F5F5FF" d="M143.866,182.246c0.231,2.406-0.37,4.332,0.14,5.721
			c1.347,3.672,11.035-0.068,12.979,2.372c0.723,0.908,0.418,3.837,0.418,5.164c0,2.262,0.237,4.862-0.14,6.14
			c-1.193,4.059-8.469,4.717-11.861,2.652c-2.19-1.334-2.494-3.737-2.232-7.536c1.71-0.045,3.963,0.06,5.582,0
			c0.448-0.017,1.511,0.323,1.535-0.419c-0.193-0.531-0.907-0.268-1.256-0.279c-1.653-0.053-3.18,0-4.745,0
			c-2.12,0-4.427,0.371-6.14-0.14c-4.778-1.423-4.984-12.47,0-13.954c1.776-0.529,3.177,0.098,5.582-0.141
			C143.89,181.851,143.879,182.047,143.866,182.246z M147.913,199.131c-1.088-0.381-1.96,0.146-1.953,1.256
			c0.01,1.743,3.085,2.117,2.93-0.14C148.868,199.919,148.615,199.376,147.913,199.131z"/>
		<g>
		</g>
	</g>
</g>
<g id="ZZFJ7j_26_">
	<g>
		<path fill-rule="evenodd" clip-rule="evenodd" fill="#F5F5FF" d="M134.269,170.314c-1.227-0.373-4.676,0.432-5.452-0.346
			c-0.487-0.486-0.276-1.887-0.276-2.76c0-1.13-0.141-2.285,0-3.036c0.417-2.208,4.233-2.555,5.936-1.519
			c1.05,0.639,1.255,1.838,1.104,3.727c-0.845,0.022-1.959-0.029-2.76,0c-0.222,0.008-0.748-0.16-0.76,0.207
			c0.096,0.263,0.449,0.133,0.622,0.138c0.817,0.026,1.571,0,2.346,0c1.011,0,2.189-0.184,3.037,0.069c2.337,0.696,2.49,6.158,0,6.9
			c-0.899,0.269-1.6-0.052-2.83,0.07C135.204,171.992,135.521,170.695,134.269,170.314z M133.716,163.965
			c-1.023-0.343-1.219,1.112-0.482,1.312c0.295,0.079,0.971,0.059,0.966-0.691C134.198,164.386,134.092,164.092,133.716,163.965z"/>
		<path fill-rule="evenodd" clip-rule="evenodd" fill="#F5F5FF" d="M128.195,166.933c0.114,1.19-0.183,2.144,0.069,2.829
			c0.666,1.816,5.457-0.033,6.418,1.174c0.357,0.449,0.207,1.897,0.207,2.554c0,1.118,0.117,2.404-0.069,3.036
			c-0.59,2.008-4.188,2.332-5.866,1.312c-1.083-0.659-1.233-1.849-1.104-3.727c0.846-0.022,1.96,0.029,2.761,0
			c0.221-0.009,0.747,0.16,0.759-0.207c-0.096-0.264-0.449-0.133-0.621-0.138c-0.817-0.027-1.572,0-2.347,0
			c-1.049,0-2.189,0.183-3.036-0.07c-2.363-0.703-2.465-6.166,0-6.9c0.878-0.262,1.57,0.049,2.76-0.069
			C128.207,166.737,128.201,166.835,128.195,166.933z M130.196,175.283c-0.538-0.188-0.969,0.072-0.966,0.621
			c0.005,0.862,1.526,1.047,1.449-0.068C130.669,175.673,130.544,175.404,130.196,175.283z"/>
		<g>
		</g>
	</g>
</g>
<g id="ZZFJ7j_25_">
	<g>
		<path fill-rule="evenodd" clip-rule="evenodd" fill="#F5F5FF" d="M121.503,158.836c-0.494-0.15-1.885,0.174-2.197-0.14
			c-0.196-0.196-0.111-0.761-0.111-1.112c0-0.455-0.057-0.921,0-1.224c0.168-0.89,1.707-1.029,2.393-0.612
			c0.423,0.258,0.506,0.741,0.445,1.502c-0.341,0.009-0.79-0.012-1.113,0c-0.089,0.004-0.301-0.064-0.306,0.084
			c0.038,0.105,0.181,0.053,0.25,0.056c0.329,0.011,0.634,0,0.946,0c0.407,0,0.882-0.074,1.224,0.027
			c0.942,0.28,1.004,2.482,0,2.781c-0.362,0.108-0.645-0.021-1.141,0.028C121.88,159.512,122.008,158.989,121.503,158.836z
			 M121.28,156.276c-0.412-0.138-0.491,0.448-0.194,0.529c0.119,0.031,0.392,0.023,0.39-0.278
			C121.475,156.446,121.433,156.327,121.28,156.276z"/>
		<path fill-rule="evenodd" clip-rule="evenodd" fill="#F5F5FF" d="M119.056,157.473c0.046,0.48-0.074,0.863,0.027,1.141
			c0.269,0.731,2.2-0.014,2.587,0.473c0.145,0.182,0.084,0.765,0.084,1.029c0,0.451,0.047,0.969-0.028,1.225
			c-0.237,0.809-1.688,0.939-2.364,0.528c-0.437-0.267-0.497-0.745-0.445-1.503c0.342-0.009,0.79,0.013,1.113,0
			c0.089-0.003,0.302,0.064,0.306-0.083c-0.038-0.106-0.181-0.054-0.25-0.056c-0.33-0.011-0.634,0-0.945,0
			c-0.423,0-0.883,0.074-1.225-0.028c-0.952-0.283-0.993-2.485,0-2.781c0.354-0.105,0.634,0.02,1.112-0.027
			C119.061,157.394,119.058,157.434,119.056,157.473z M119.862,160.838c-0.217-0.075-0.391,0.029-0.39,0.251
			c0.002,0.347,0.615,0.422,0.584-0.028C120.053,160.995,120.002,160.888,119.862,160.838z"/>
		<g>
		</g>
	</g>
</g>
<g id="ZZFJ7j_30_">
	<g>
		<path fill-rule="evenodd" clip-rule="evenodd" fill="#F5F5FF" d="M8.306,187.834c-7.344-2.235-27.994,2.583-32.642-2.066
			c-2.918-2.918-1.654-11.298-1.654-16.528c0-6.765-0.847-13.686,0-18.18c2.492-13.216,25.347-15.292,35.536-9.092
			c6.287,3.827,7.515,11.006,6.611,22.314c-5.062,0.133-11.734-0.179-16.528,0c-1.326,0.049-4.475-0.959-4.545,1.239
			c0.571,1.575,2.687,0.793,3.719,0.827c4.896,0.16,9.414,0,14.049,0c6.054,0,13.11-1.099,18.181,0.413
			c13.993,4.171,14.915,36.875,0,41.32c-5.379,1.604-9.576-0.311-16.939,0.414C13.907,197.876,15.8,190.114,8.306,187.834z
			 M5,149.819c-6.133-2.055-7.297,6.657-2.891,7.852c1.764,0.478,5.809,0.354,5.783-4.133C7.886,152.337,7.252,150.573,5,149.819z"
			/>
		<path fill-rule="evenodd" clip-rule="evenodd" fill="#F5F5FF" d="M-28.056,167.587c0.684,7.127-1.096,12.83,0.413,16.94
			c3.988,10.874,32.675-0.202,38.429,7.025c2.139,2.688,1.239,11.36,1.239,15.289c0,6.697,0.7,14.398-0.414,18.181
			c-3.534,12.018-25.077,13.965-35.122,7.852c-6.485-3.95-7.386-11.066-6.611-22.314c5.063-0.134,11.734,0.179,16.528,0
			c1.327-0.05,4.475,0.958,4.546-1.239c-0.571-1.575-2.687-0.793-3.719-0.827c-4.896-0.158-9.414,0-14.049,0
			c-6.279,0-13.109,1.097-18.182-0.414c-14.147-4.214-14.756-36.921,0-41.32c5.261-1.567,9.407,0.291,16.529-0.413
			C-27.988,166.417-28.021,167-28.056,167.587z M-16.073,217.583c-3.224-1.125-5.804,0.432-5.786,3.718
			c0.03,5.164,9.137,6.271,8.677-0.411C-13.248,219.917-13.996,218.311-16.073,217.583z"/>
		<g>
		</g>
	</g>
</g>
<g id="ZZFJ7j_29_">
	<g>
		<path fill-rule="evenodd" clip-rule="evenodd" fill="#F5F5FF" d="M-79.944,127.345c-5.243-1.595-19.983,1.844-23.301-1.475
			c-2.084-2.083-1.181-8.064-1.181-11.797c0-4.83-0.604-9.77,0-12.979c1.779-9.435,18.094-10.917,25.366-6.49
			c4.487,2.732,5.364,7.856,4.72,15.928c-3.614,0.095-8.377-0.127-11.799,0c-0.947,0.035-3.195-0.686-3.244,0.885
			c0.406,1.124,1.918,0.566,2.656,0.59c3.493,0.113,6.719,0,10.027,0c4.321,0,9.357-0.785,12.979,0.294
			c9.988,2.978,10.646,26.323,0,29.496c-3.841,1.147-6.836-0.222-12.094,0.297C-75.946,134.514-74.594,128.973-79.944,127.345z
			 M-82.305,100.208c-4.377-1.467-5.208,4.752-2.062,5.606c1.26,0.341,4.146,0.251,4.127-2.951
			C-80.243,102.006-80.697,100.748-82.305,100.208z"/>
		<path fill-rule="evenodd" clip-rule="evenodd" fill="#F5F5FF" d="M-105.9,112.893c0.488,5.088-0.783,9.159,0.295,12.092
			c2.846,7.761,23.325-0.145,27.432,5.016c1.527,1.918,0.885,8.108,0.885,10.913c0,4.781,0.5,10.278-0.295,12.979
			c-2.523,8.58-17.9,9.969-25.072,5.604c-4.629-2.818-5.272-7.898-4.72-15.928c3.615-0.095,8.377,0.127,11.8,0
			c0.946-0.035,3.194,0.685,3.244-0.884c-0.407-1.125-1.918-0.567-2.654-0.589c-3.495-0.116-6.721,0-10.029,0
			c-4.482,0-9.357,0.782-12.979-0.297c-10.1-3.009-10.535-26.355,0-29.496c3.755-1.119,6.715,0.207,11.799-0.294
			C-105.853,112.057-105.875,112.474-105.9,112.893z M-97.347,148.582c-2.301-0.803-4.144,0.308-4.131,2.655
			c0.022,3.685,6.523,4.475,6.196-0.294C-95.33,150.249-95.863,149.101-97.347,148.582z"/>
		<g>
		</g>
	</g>
</g>
<g id="ZZFJ7j_28_">
	<g>
		<path fill-rule="evenodd" clip-rule="evenodd" fill="#F5F5FF" d="M-134.504,78.285c-2.113-0.644-8.055,0.742-9.391-0.595
			c-0.842-0.84-0.477-3.251-0.477-4.755c0-1.946-0.243-3.938,0-5.23c0.717-3.803,7.293-4.401,10.225-2.617
			c1.809,1.103,2.162,3.167,1.902,6.42c-1.457,0.038-3.377-0.05-4.756,0c-0.381,0.015-1.288-0.276-1.308,0.358
			c0.164,0.452,0.774,0.228,1.07,0.237c1.407,0.045,2.707,0,4.041,0c1.741,0,3.772-0.317,5.231,0.118
			c4.026,1.2,4.291,10.609,0,11.888c-1.547,0.463-2.755-0.088-4.873,0.12C-132.893,81.174-132.348,78.939-134.504,78.285z
			 M-135.455,67.346c-1.765-0.591-2.1,1.916-0.832,2.26c0.508,0.137,1.672,0.102,1.666-1.188
			C-134.625,68.072-134.807,67.564-135.455,67.346z"/>
		<path fill-rule="evenodd" clip-rule="evenodd" fill="#F5F5FF" d="M-144.967,72.459c0.199,2.051-0.314,3.691,0.119,4.875
			c1.147,3.127,9.402-0.06,11.057,2.021c0.616,0.773,0.357,3.268,0.357,4.398c0,1.927,0.201,4.142-0.119,5.232
			c-1.017,3.457-7.215,4.017-10.105,2.259c-1.866-1.137-2.125-3.185-1.902-6.42c1.458-0.039,3.377,0.052,4.756,0
			c0.383-0.015,1.289,0.275,1.308-0.357c-0.163-0.454-0.772-0.228-1.069-0.238c-1.41-0.045-2.709,0-4.041,0
			c-1.808,0-3.771,0.316-5.232-0.12c-4.071-1.212-4.246-10.622,0-11.888c1.514-0.45,2.707,0.084,4.756-0.118
			C-144.945,72.122-144.955,72.29-144.967,72.459z M-141.518,86.844c-0.928-0.325-1.671,0.124-1.664,1.07
			c0.008,1.485,2.629,1.805,2.496-0.119C-140.705,87.515-140.92,87.053-141.518,86.844z"/>
		<g>
		</g>
	</g>
</g>
</svg>
