<?xml version="1.0" encoding="utf-8"?>
<!-- Generator: Adobe Illustrator 15.1.0, SVG Export Plug-In . SVG Version: 6.00 Build 0)  -->
<!DOCTYPE svg PUBLIC "-//W3C//DTD SVG 1.1//EN" "http://www.w3.org/Graphics/SVG/1.1/DTD/svg11.dtd">
<svg version="1.1" id="Layer_1" xmlns="http://www.w3.org/2000/svg" xmlns:xlink="http://www.w3.org/1999/xlink" x="0px" y="0px"
	 width="1567px" height="450px" viewBox="0 0 1567 450" enable-background="new 0 0 1567 450" xml:space="preserve">
<rect x="-10.37" y="-8.398" fill="#FFFFFF" width="1585.421" height="467.976"/>
<g>
	<path fill="#FF9900" d="M566.178-246.925c-42.035,11.027-105.611,65.084-149.312,42.079
		c-56.751-29.862,16.992-109.864,57.438-73.152c-27.502-78.648,102.771-136.647,111.237-45.21
		c20.836-43.816,100.021-71.098,84.322-0.382C661.74-286.998,597.6-257.229,566.178-246.925"/>
</g>
<path fill="#FFFFFF" d="M1552.305-615.611c-48.944-53.933-178.531-106.555-178.188-189.32
	c0.425-107.476,176.443-59.84,153.211,28.71c95.587-101.79,282.689,46.897,153.35,130.307
	c81.263-2.971,183.144,93.587,65.881,125.026C1685.88-504.623,1591.955-576.892,1552.305-615.611"/>
<g>
	<path fill="#F5F5FF" d="M2455.498,764.908c86.323,159.271,177.727,512.088,88.376,560.514
		c-89.333,48.416-325.592-225.889-411.911-385.162c-86.322-159.271-34.969-237.428,54.354-285.836
		C2275.666,606,2369.175,605.635,2455.498,764.908z"/>
</g>
<g>
	<path fill="#F5F5FF" d="M2206.465,654.572c-57.574,19.755-140.789,101.85-204.212,74.236
		c-82.364-35.839,12.36-155.226,72.664-108.132c-46.562-107.014,129.407-201.521,150.702-74.67
		c24.568-63.36,132.354-109.672,117.747-9.264C2335.805,588.701,2249.291,636.926,2206.465,654.572"/>
</g>
<g>
	<path fill="#F5F5FF" d="M-422.191,255.615c-38.36,45.406-135.258,115.486-160.73,93.968
		c-25.468-21.517,30.134-126.484,68.494-171.889c38.36-45.406,68.378-39.05,93.843-17.537
		C-395.112,181.679-383.831,210.209-422.191,255.615z"/>
</g>
<g opacity="0.5">
	<path fill="#F5F5FF" d="M288.396,96.314c33.361-1.777,99.364,10.912,100.36,29.626c0.998,18.712-63.389,36.364-96.749,38.141
		s-42.317-12.96-43.313-31.67C247.698,113.696,255.034,98.092,288.396,96.314z"/>
</g>
<g opacity="0.5">
	<path fill="#F5F5FF" d="M254.474,129.066c-1.264,11.155,5.827,31.51-3.79,39.892c-12.487,10.885-24.88-14.34-12.265-20.66
		c-21.509-0.712-23.328-37.501-0.513-31.012c-8.611-9.106-7.797-30.725,7.773-20.346
		C253.736,102.31,254.925,120.537,254.474,129.066"/>
</g>
<g>
	<path fill="#F5F5FF" d="M2235.993,242.197c-15.609,53.726-72.117,151.073-102.254,142.315
		c-30.135-8.756-22.492-120.297-6.883-174.025c15.611-53.725,43.857-59.749,73.988-50.992
		C2230.985,168.254,2251.604,188.47,2235.993,242.197z"/>
</g>
<g>
	<path fill="#F5F5FF" d="M2205.239,163.901c-16.938-8.157-53.037-8.187-60.979-28.019c-10.312-25.753,36.41-31.418,39.438-7.982
		c13.002-33.615,72.17-16.178,49.314,16.311c19.15-8.586,52.881,4.638,27.877,23.524
		C2247.948,177.508,2218.476,169.322,2205.239,163.901"/>
</g>
<g>
	<path fill="#F5F5FF" d="M2411.099,204.589c5.916,70.337-16.604,210.546-56.057,213.863
		c-39.455,3.319-80.906-131.506-86.822-201.845c-5.916-70.335,24.627-90.205,64.074-93.521
		C2371.753,119.769,2405.181,134.252,2411.099,204.589z"/>
</g>
<g>
	<path fill="#F5F5FF" d="M2339.462,126.288c-23.639-1.946-66.166,14.348-84.49-5.417c-23.793-25.666,28.672-53.473,42.836-27.24
		c0.107-45.47,77.684-51.696,65.459-3.095c18.67-18.775,64.377-18.457,43.471,15.096
		C2395.919,122.993,2357.505,126.686,2339.462,126.288"/>
</g>
<g>
	<path fill="#F5F5FF" d="M2508.128,246.179c4.072,31.916-3.441,96.213-21.344,98.496c-17.904,2.283-39.42-58.31-43.49-90.228
		s9.451-41.564,27.352-43.846C2488.552,208.317,2504.06,214.26,2508.128,246.179z"/>
</g>
<g>
	<path fill="#F5F5FF" d="M2473.972,211.919c-10.803-0.424-29.854,7.829-38.584-0.814c-11.338-11.224,12.012-24.913,18.975-13.244
		c-0.84-20.71,34.367-25.064,29.752-2.689c8.135-8.916,28.957-9.665,20.094,6.023
		C2499.62,209.314,2482.196,211.747,2473.972,211.919"/>
</g>
<g>
	<path fill="#F5F5FF" d="M-841.827,196.666c4.691,55.751-13.159,166.885-44.433,169.515
		c-31.271,2.632-64.127-104.236-68.816-159.988c-4.689-55.75,19.52-71.5,50.787-74.129
		C-873.013,129.435-846.516,140.914-841.827,196.666z"/>
</g>
<g>
	<path fill="#F5F5FF" d="M-898.607,134.602c-18.736-1.543-52.445,11.372-66.969-4.294c-18.86-20.344,22.726-42.384,33.953-21.591
		c0.085-36.041,61.574-40.977,51.884-2.453c14.799-14.882,51.028-14.631,34.457,11.965
		C-853.857,131.99-884.307,134.917-898.607,134.602"/>
</g>
<g>
	<path fill="#F5F5FF" d="M-699.682,263.005c-9.57,44.429-49.782,126.547-74.704,121.177c-24.921-5.367-25.117-96.188-15.546-140.619
		c9.571-44.428,32.114-50.927,57.031-45.559C-707.977,203.376-690.11,218.576-699.682,263.005z"/>
</g>
<g>
	<path fill="#F5F5FF" d="M-729.088,201.324c-14.192-5.64-43.444-3.596-51.015-19.211c-9.832-20.276,27.704-27.544,31.499-8.728
		c8.609-27.982,57.554-17.243,40.895,10.393c15.025-8.056,43.115,0.728,23.936,17.464
		C-693.7,209.902-718.051,204.958-729.088,201.324"/>
</g>
<g>
	<path fill="#F5F5FF" d="M-521.178,183.036c18.236,64.725,22.491,199.942-13.815,210.17
		c-36.305,10.229-99.425-108.401-117.661-173.126c-18.235-64.723,6.746-88.825,43.046-99.052
		C-573.298,110.801-539.415,118.312-521.178,183.036z"/>
</g>
<g>
	<path fill="#F5F5FF" d="M-602.327,122.73c-22.462,2.448-59.3,25.368-80.009,10.189c-26.892-19.711,17.163-55.194,35.149-33.216
		c-8.11-42.552,63.329-62.385,60.67-14.716c14.074-20.934,56.886-28.891,43.389,6.271
		C-550.112,109.453-585.378,119.844-602.327,122.73"/>
</g>
<g opacity="0.5">
	<path fill="#F5F5FF" d="M473.145,96.314c33.361-1.777,99.364,10.912,100.36,29.626c0.998,18.712-63.388,36.364-96.749,38.141
		s-42.317-12.96-43.313-31.67C432.447,113.696,439.784,98.092,473.145,96.314z"/>
</g>
<g opacity="0.5">
	<path fill="#F5F5FF" d="M435.062,129.066c-1.264,11.155,5.827,31.51-3.79,39.892c-12.487,10.885-24.88-14.34-12.265-20.66
		c-21.509-0.712-23.328-37.501-0.514-31.012c-8.61-9.106-7.796-30.725,7.773-20.346C434.324,102.31,435.512,120.537,435.062,129.066
		"/>
</g>
<g opacity="0.5">
	<path fill="#F5F5FF" d="M660.35,96.314c33.361-1.777,99.364,10.912,100.36,29.626c0.998,18.712-63.389,36.364-96.749,38.141
		s-42.317-12.96-43.313-31.67C619.652,113.696,626.988,98.092,660.35,96.314z"/>
</g>
<g opacity="0.5">
	<path fill="#F5F5FF" d="M622.267,129.066c-1.264,11.155,5.827,31.51-3.79,39.892c-12.487,10.885-24.88-14.34-12.265-20.66
		c-21.509-0.712-23.328-37.501-0.513-31.012c-8.611-9.106-7.797-30.725,7.773-20.346
		C621.528,102.31,622.717,120.537,622.267,129.066"/>
</g>
<g opacity="0.5">
	<path fill="#F5F5FF" d="M849.206,93.585c33.36-1.778,99.364,10.912,100.36,29.626c0.997,18.712-63.39,36.364-96.749,38.141
		c-33.36,1.777-42.317-12.96-43.314-31.67C808.508,110.967,815.845,95.363,849.206,93.585z"/>
</g>
<g opacity="0.5">
	<path fill="#F5F5FF" d="M815.284,126.337c-1.263,11.155,5.827,31.511-3.788,39.893c-12.489,10.884-24.881-14.341-12.266-20.661
		c-21.509-0.711-23.328-37.5-0.514-31.012c-8.611-9.105-7.797-30.724,7.773-20.346C814.547,99.581,815.734,117.809,815.284,126.337"
		/>
</g>
<g opacity="0.5">
	<path fill="#F5F5FF" d="M1033.956,93.585c33.361-1.778,99.363,10.912,100.359,29.626c0.998,18.712-63.389,36.364-96.748,38.141
		c-33.36,1.777-42.317-12.96-43.313-31.67C993.258,110.967,1000.595,95.363,1033.956,93.585z"/>
</g>
<g opacity="0.5">
	<path fill="#F5F5FF" d="M995.873,126.337c-1.264,11.155,5.826,31.511-3.79,39.893c-12.487,10.884-24.88-14.341-12.265-20.661
		c-21.51-0.711-23.328-37.5-0.514-31.012c-8.611-9.105-7.797-30.724,7.773-20.346C995.135,99.581,996.323,117.809,995.873,126.337"
		/>
</g>
<g opacity="0.5">
	<path fill="#F5F5FF" d="M1221.16,93.585c33.361-1.778,99.364,10.912,100.359,29.626c0.998,18.712-63.389,36.364-96.748,38.141
		c-33.36,1.777-42.317-12.96-43.313-31.67C1180.462,110.967,1187.799,95.363,1221.16,93.585z"/>
</g>
<g opacity="0.5">
	<path fill="#F5F5FF" d="M1183.076,126.337c-1.263,11.155,5.827,31.511-3.789,39.893c-12.487,10.884-24.88-14.341-12.265-20.661
		c-21.509-0.711-23.328-37.5-0.513-31.012c-8.611-9.105-7.797-30.724,7.773-20.346
		C1182.339,99.581,1183.527,117.809,1183.076,126.337"/>
</g>
<g>
	<path fill="#F5F5FF" d="M378.621,176.603c45.138-2.406,134.441,14.764,135.788,40.084c1.35,25.318-85.766,49.2-130.902,51.605
		c-45.137,2.404-57.256-17.534-58.604-42.85C323.556,200.12,333.483,179.008,378.621,176.603z"/>
</g>
<g>
	<path fill="#F5F5FF" d="M327.094,220.917c-1.71,15.092,7.883,42.633-5.128,53.974c-16.896,14.728-33.663-19.403-16.594-27.954
		c-29.103-0.963-31.563-50.738-0.695-41.959c-11.65-12.32-10.548-41.57,10.518-27.529
		C326.095,184.714,327.703,209.377,327.094,220.917"/>
</g>
<g>
	<path fill="#F5F5FF" d="M631.911,176.603c45.138-2.406,134.441,14.764,135.788,40.084c1.35,25.318-85.765,49.2-130.902,51.605
		c-45.137,2.404-57.256-17.534-58.604-42.85C576.846,200.12,586.773,179.008,631.911,176.603z"/>
</g>
<g>
	<path fill="#F5F5FF" d="M580.384,220.917c-1.709,15.092,7.884,42.633-5.127,53.974c-16.896,14.728-33.663-19.403-16.594-27.954
		c-29.102-0.963-31.563-50.738-0.694-41.959c-11.651-12.32-10.549-41.57,10.517-27.529
		C579.385,184.714,580.993,209.377,580.384,220.917"/>
</g>
<g>
	<path fill="#F5F5FF" d="M887.437,172.91c45.138-2.405,134.44,14.765,135.788,40.083c1.35,25.319-85.766,49.202-130.902,51.606
		c-45.137,2.405-57.256-17.535-58.604-42.851C832.371,196.428,842.299,175.316,887.437,172.91z"/>
</g>
<g>
	<path fill="#F5F5FF" d="M841.539,217.224c-1.708,15.093,7.885,42.635-5.125,53.975c-16.898,14.726-33.664-19.402-16.596-27.953
		c-29.102-0.963-31.562-50.739-0.693-41.96c-11.652-12.319-10.55-41.571,10.517-27.528
		C840.541,181.022,842.15,205.685,841.539,217.224"/>
</g>
<g>
	<path fill="#F5F5FF" d="M1137.406,172.91c45.138-2.405,134.439,14.765,135.787,40.083c1.35,25.319-85.766,49.202-130.901,51.606
		c-45.139,2.405-57.256-17.535-58.604-42.851C1082.341,196.428,1092.268,175.316,1137.406,172.91z"/>
</g>
<g>
	<path fill="#F5F5FF" d="M1085.878,217.224c-1.71,15.093,7.884,42.635-5.127,53.975c-16.896,14.726-33.664-19.402-16.595-27.953
		c-29.102-0.963-31.563-50.739-0.694-41.96c-11.651-12.319-10.55-41.571,10.517-27.528
		C1084.88,181.022,1086.488,205.685,1085.878,217.224"/>
</g>
<g opacity="0.5">
	<path fill="#F5F5FF" d="M296.366,283.21c33.361-1.777,99.364,10.912,100.36,29.626c0.998,18.713-63.389,36.364-96.749,38.141
		c-33.36,1.777-42.317-12.959-43.313-31.669C255.668,300.592,263.005,284.987,296.366,283.21z"/>
</g>
<g opacity="0.5">
	<path fill="#F5F5FF" d="M262.445,315.963c-1.264,11.154,5.826,31.51-3.79,39.892c-12.487,10.885-24.88-14.341-12.265-20.661
		c-21.509-0.712-23.328-37.5-0.513-31.012c-8.611-9.105-7.796-30.724,7.773-20.347C261.707,289.205,262.896,307.434,262.445,315.963
		"/>
</g>
<g opacity="0.5">
	<path fill="#F5F5FF" d="M481.116,283.21c33.361-1.777,99.364,10.912,100.359,29.626c0.998,18.713-63.388,36.364-96.749,38.141
		c-33.36,1.777-42.317-12.959-43.313-31.669C440.418,300.592,447.755,284.987,481.116,283.21z"/>
</g>
<g opacity="0.5">
	<path fill="#F5F5FF" d="M443.033,315.963c-1.264,11.154,5.827,31.51-3.79,39.892c-12.487,10.885-24.88-14.341-12.265-20.661
		c-21.509-0.712-23.328-37.5-0.513-31.012c-8.611-9.105-7.797-30.724,7.773-20.347C442.294,289.205,443.483,307.434,443.033,315.963
		"/>
</g>
<g opacity="0.5">
	<path fill="#F5F5FF" d="M668.32,283.21c33.361-1.777,99.364,10.912,100.36,29.626c0.998,18.713-63.388,36.364-96.749,38.141
		c-33.36,1.777-42.317-12.959-43.313-31.669C627.623,300.592,634.959,284.987,668.32,283.21z"/>
</g>
<g opacity="0.5">
	<path fill="#F5F5FF" d="M630.237,315.963c-1.264,11.154,5.827,31.51-3.79,39.892c-12.488,10.885-24.88-14.341-12.265-20.661
		c-21.509-0.712-23.328-37.5-0.513-31.012c-8.611-9.105-7.797-30.724,7.773-20.347C629.499,289.205,630.688,307.434,630.237,315.963
		"/>
</g>
<g opacity="0.5">
	<path fill="#F5F5FF" d="M857.177,280.48c33.36-1.776,99.364,10.913,100.36,29.626c0.997,18.713-63.389,36.365-96.749,38.142
		c-33.36,1.777-42.317-12.96-43.314-31.671C816.479,297.863,823.816,282.259,857.177,280.48z"/>
</g>
<g opacity="0.5">
	<path fill="#F5F5FF" d="M823.256,313.232c-1.264,11.155,5.826,31.512-3.789,39.893c-12.489,10.884-24.881-14.34-12.266-20.66
		c-21.509-0.712-23.328-37.501-0.514-31.012c-8.611-9.105-7.797-30.725,7.773-20.347
		C822.518,286.477,823.706,304.704,823.256,313.232"/>
</g>
<g opacity="0.5">
	<path fill="#F5F5FF" d="M1041.927,280.48c33.361-1.776,99.363,10.913,100.36,29.626s-63.39,36.365-96.749,38.142
		c-33.36,1.777-42.317-12.96-43.313-31.671C1001.229,297.863,1008.566,282.259,1041.927,280.48z"/>
</g>
<g opacity="0.5">
	<path fill="#F5F5FF" d="M1003.844,313.232c-1.264,11.155,5.826,31.512-3.79,39.893c-12.487,10.884-24.88-14.34-12.265-20.66
		c-21.51-0.712-23.328-37.501-0.514-31.012c-8.611-9.105-7.797-30.725,7.773-20.347
		C1003.105,286.477,1004.294,304.704,1003.844,313.232"/>
</g>
<g opacity="0.5">
	<path fill="#F5F5FF" d="M1229.131,280.48c33.361-1.776,99.364,10.913,100.359,29.626c0.998,18.713-63.389,36.365-96.748,38.142
		c-33.36,1.777-42.317-12.96-43.313-31.671C1188.433,297.863,1195.77,282.259,1229.131,280.48z"/>
</g>
<g opacity="0.5">
	<path fill="#F5F5FF" d="M1191.047,313.232c-1.263,11.155,5.828,31.512-3.788,39.893c-12.488,10.884-24.881-14.34-12.266-20.66
		c-21.509-0.712-23.328-37.501-0.513-31.012c-8.611-9.105-7.797-30.725,7.773-20.347
		C1190.31,286.477,1191.498,304.704,1191.047,313.232"/>
</g>
<g>
	<path fill-rule="evenodd" clip-rule="evenodd" fill="#F5F5FF" d="M210.552,221.065c-2.461-1.938-3.98-4.816-5.277-7.917
		c-1.356,2.687-0.156,7.699-3.88,7.761c-1.13,0.019-2.301-0.789-2.639-1.086c-3.667-3.225-4.801-12.078-3.104-18.625
		c0.216-0.835,1.13-3.462,1.086-4.19c-0.061-1.009-1.404-2.092-2.018-3.104c-1.925-3.176-2.859-7.508-4.346-11.02
		c-1.426-3.369-6.499-6.313-6.053-10.865c0.643-6.568,9.802-2.542,12.728-0.465c0.753,0.535,1.543,1.517,2.173,1.708
		c1.326,0.4,2.392,0,3.57,0.154c5.362,0.706,8.59,3.153,12.572,6.054c3.413,2.486,6.927,5.749,9.468,9.002
		c4.252,5.444,6.39,11.777,9.623,18.314c0.865,1.75,1.852,5.066,3.104,6.053c0.905,0.712,3.352,1.326,4.501,1.863
		c1.48,0.69,2.78,1.482,4.036,2.328c3.658,2.463,7.014,4.752,9.312,8.537c-3.166,1.231-7.421,1.374-10.864,2.328
		c2.633,3.833,8.017,4.918,10.398,9.001l-0.672,0.207l-0.414,0.569c-3.535-2.197-7.733-3.562-10.709-6.364
		c-0.364-0.342-3.143-3.168-2.794-4.499c0.389-1.484,6.921-2.386,8.847-2.484c1.464-0.075,3.891,0.674,2.018-1.087
		c-0.693-0.649-2.515-1.697-3.415-2.328c-1.407-0.984-2.927-2.262-4.656-3.104c-2.229-1.086-6.381-1.741-7.761-2.795
		c-1.428-1.089-2.316-3.83-3.104-5.586c-0.871-1.943-1.951-4.127-2.794-5.898c-1.737-3.649-3.621-8.245-5.897-11.486
		c-2.267-3.223-5.156-6.646-8.227-9.157c-3.091-2.529-7.76-5.925-12.262-6.674c-1.803-0.301-3.773,0.133-5.277-0.311
		c-0.681-0.202-1.407-1.21-2.328-1.863c-0.797-0.565-8.492-4.947-8.847-1.862c-0.274,2.383,2.105,4.311,3.26,5.898
		c1.494,2.054,2.533,3.845,3.259,5.897c1.255,3.547,1.903,7.104,4.036,9.778c0.836,1.049,1.892,1.641,2.018,2.483
		c0.275,1.854-1.039,3.809-1.552,5.587c-1.113,3.857-1.029,8.146,0.31,12.106c0.269,0.795,1.611,4.687,2.949,4.036
		c0.458-0.223,1.066-5.787,1.242-6.364c0.702-2.311,1.428-3.186,2.949-4.5c1.725,4.948,4.168,9.179,6.674,13.348l-0.698,0.155
		L210.552,221.065z"/>
	<path fill-rule="evenodd" clip-rule="evenodd" fill="#F5F5FF" d="M201.705,185.522c-0.472-1.856-1.614-3.043-2.639-4.346
		C201.805,179.203,204.589,184.188,201.705,185.522z"/>
	<path fill-rule="evenodd" clip-rule="evenodd" fill="#F5F5FF" d="M83.28,256.764c2.862-5.262,5.417-11.627,8.07-17.539
		c0.873-1.943,1.557-4.28,2.639-5.742c2.165-2.926,9.873-3.673,11.795,0c1.347,2.572,0.466,10.543,0.466,14.124
		c0,5.113,0.126,9.848-0.156,14.278c-2.121,0-4.243,0-6.364,0c0-8.484,0-16.97,0-25.454c-2.774,5.107-5.762,12.521-8.536,18.625
		c-1.203,2.646-2.193,5.918-4.656,6.829c-3.093,1.144-6.867-0.027-8.226-1.862c-1.126-1.521-1.732-3.905-2.638-5.897
		c-2.599-5.708-5.505-12.023-7.916-17.694c-0.465,8.124,0.155,17.33-0.311,25.454c-2.121,0-4.242,0-6.364,0
		c-0.279-4.222-0.155-9.067-0.155-14.591c0-4.117-0.78-12.149,0.776-14.278c1.907-2.606,8.333-2.647,10.709-0.465
		c1.359,1.247,2.079,3.866,2.949,5.897C77.89,244.348,80.949,250.875,83.28,256.764z"/>
	<path fill-rule="evenodd" clip-rule="evenodd" fill="#F5F5FF" d="M176.871,231.62c0,1.447,0,2.896,0,4.344
		c-3.755,0-7.286,0-11.486,0c-3.091,0-8.945-0.832-10.554,0.777c-1.525,1.527-0.655,5.909,0.155,6.83
		c2.046,2.32,8.612,0.83,12.417,1.086c3.548,0.238,8.035,1.51,9.002,4.5c0.668,2.069,0.366,6.002,0,7.45
		c-2.043,8.077-18.796,4.179-28.559,5.122c-0.255-1.061-0.255-3.13,0-4.191c3.971,0,7.721,0,12.106,0
		c3.34,0,8.991,0.784,10.088-1.862c0.452-1.088,0.324-4.226,0-5.121c-1.094-3.024-8.241-1.673-13.038-2.018
		c-3.5-0.25-8.026-1.677-9.002-4.656c-0.785-2.399-0.343-6.605,0.311-8.071c1.243-2.79,4.441-3.756,8.846-4.035
		C162.861,231.414,170.344,231.724,176.871,231.62z"/>
	<path fill-rule="evenodd" clip-rule="evenodd" fill="#F5F5FF" d="M217.536,231.62c2.07,0,4.139,0,6.208,0
		c0.282,5.619,0.155,11.875,0.155,18.004c0,4.681-0.581,7.453,3.881,7.914c5.37,0.559,12.66-0.42,18.47,0c0,1.398,0,2.796,0,4.191
		c-9.909-0.996-25.848,2.981-28.559-5.122c-0.99-2.958-0.31-7.629-0.31-12.104C217.381,239.85,217.255,235.2,217.536,231.62z"/>
	<path fill-rule="evenodd" clip-rule="evenodd" fill="#F5F5FF" d="M209.465,260.334c1.558,2.27,4.562,3.921,5.898,5.897
		c-2.938-0.364-4.75,0.501-6.829,0c-2.033-0.49-3.695-4.197-5.587-4.656c-1.691-0.413-4.232,0.31-6.364,0.31
		c-7.282,0-14.803,0.113-15.676-6.209c-0.358-2.594,0-5.601,0-9.001c0-3.992-0.596-8.135,0.465-10.554
		c1.989-4.537,8.61-4.347,15.521-4.347c7.34,0,15.346-0.389,16.297,5.897c0.363,2.401,0,5.87,0,9.158
		C213.19,253.04,214.277,259.146,209.465,260.334z M200.618,252.728c1.433,0.397,3.638,4.38,5.122,4.191
		c0.876-0.112,1.495-2.128,1.552-2.484c0.373-2.311,0-5.315,0-8.381c0-2.533,0.377-6.593-0.31-8.07
		c-1.25-2.686-11.099-2.426-15.056-2.02c-1.486,0.155-3.458,0.98-3.88,2.02c-0.799,1.966-0.155,5.961-0.155,8.691
		c0,3.191-0.601,6.561,0.155,8.691c1.087,3.067,6.228,2.306,10.399,2.172c-1.338-1.765-3.854-3.181-4.812-4.811
		C196.715,253.233,198.091,252.026,200.618,252.728z"/>
	<path fill-rule="evenodd" clip-rule="evenodd" fill="#F5F5FF" d="M134.499,270.888c-7.605,0-15.21,0-22.816,0
		c0.61-0.832-0.863-3.496,0.155-4.347c0.15-0.124,2.268,0,3.104,0c3.56,0,6.29,0,9.468,0c6.473,0,12.917,1.499,11.641-4.966
		c-5.066-0.355-10.849,0.468-15.831,0c-3.331-0.313-7.584-1.917-8.382-4.968c-1.156-4.425,0.541-10.392-0.155-15.83
		c0.955,0.516,5.766-0.749,6.52,0.155c0.511,0.612,0,7.416,0,7.914c0,2.646-0.549,6.193,0.31,7.605
		c1.018,1.672,5.525,1.243,8.227,1.243c3.436,0,6.432,0.128,9.468-0.157c0-2.485,0-5.373,0-8.536c0-1.387-0.54-7.8,0.155-8.381
		c0.31-0.258,2.397,0,3.259,0c0.728,0,2.693-0.335,3.104,0.156c0.411,0.49,0,4.838,0,6.364c0,2.606,0,4.366,0,6.361
		c0,4.093,0.777,9.51-0.31,12.573C141.357,269.052,137.799,270.093,134.499,270.888z"/>
	<g>
		<path fill-rule="evenodd" clip-rule="evenodd" fill="#F5F5FF" d="M257.425,240.233c-0.878-1.194-2.121-2.061-3.156-3.131"/>
		<path fill-rule="evenodd" clip-rule="evenodd" fill="#F5F5FF" d="M216.837,226.574c-2.034-1.853-4.021-3.807-5.743-5.975"/>
		<path fill-rule="evenodd" clip-rule="evenodd" fill="#F5F5FF" d="M249.975,258.432c1.261,4.63,7.568,3.869,8.37-0.203
			C259.619,251.755,248.729,251.293,249.975,258.432"/>
		<path fill-rule="evenodd" clip-rule="evenodd" fill="#F5F5FF" d="M254.553,257.399c0.083,0.899,0.788,1.6,1.242,2.338"/>
		<path fill-rule="evenodd" clip-rule="evenodd" fill="#F5F5FF" d="M254.553,257.399c-1.562,0.708-2.688-1.43-1.779-2.332
			C254.174,253.679,257.881,256.537,254.553,257.399"/>
	</g>
</g>
<g>
	<path fill-rule="evenodd" clip-rule="evenodd" fill="#F5F5FF" d="M1437.536,219.529c-2.461-1.938-3.98-4.816-5.277-7.917
		c-1.357,2.688-0.156,7.699-3.881,7.762c-1.131,0.019-2.301-0.789-2.639-1.087c-3.668-3.226-4.801-12.078-3.104-18.625
		c0.216-0.835,1.13-3.462,1.086-4.19c-0.061-1.009-1.404-2.092-2.018-3.104c-1.925-3.177-2.859-7.508-4.346-11.021
		c-1.427-3.369-6.499-6.313-6.054-10.865c0.644-6.568,9.802-2.542,12.728-0.466c0.754,0.535,1.543,1.518,2.173,1.708
		c1.325,0.4,2.392,0,3.569,0.154c5.362,0.706,8.59,3.153,12.572,6.054c3.412,2.486,6.927,5.748,9.468,9.002
		c4.252,5.444,6.39,11.777,9.623,18.314c0.865,1.75,1.853,5.066,3.104,6.054c0.904,0.712,3.352,1.326,4.5,1.862
		c1.48,0.69,2.781,1.482,4.037,2.328c3.658,2.464,7.014,4.753,9.312,8.537c-3.165,1.231-7.421,1.374-10.864,2.328
		c2.633,3.833,8.017,4.918,10.398,9.001l-0.672,0.207l-0.414,0.569c-3.535-2.197-7.732-3.562-10.709-6.364
		c-0.365-0.342-3.144-3.168-2.795-4.499c0.389-1.484,6.922-2.386,8.848-2.484c1.464-0.075,3.891,0.674,2.018-1.087
		c-0.693-0.649-2.515-1.697-3.414-2.327c-1.407-0.984-2.928-2.263-4.656-3.104c-2.229-1.087-6.381-1.741-7.762-2.795
		c-1.428-1.09-2.316-3.83-3.104-5.587c-0.871-1.943-1.951-4.128-2.794-5.898c-1.737-3.649-3.62-8.245-5.897-11.485
		c-2.267-3.224-5.156-6.646-8.227-9.157c-3.092-2.529-7.76-5.925-12.262-6.674c-1.803-0.301-3.773,0.134-5.277-0.311
		c-0.68-0.202-1.406-1.21-2.328-1.862c-0.797-0.566-8.492-4.947-8.847-1.863c-0.274,2.383,2.105,4.312,3.26,5.898
		c1.494,2.054,2.532,3.845,3.259,5.897c1.256,3.548,1.904,7.104,4.036,9.778c0.836,1.049,1.892,1.641,2.018,2.483
		c0.274,1.854-1.039,3.809-1.552,5.587c-1.113,3.857-1.029,8.146,0.31,12.107c0.269,0.795,1.61,4.687,2.949,4.035
		c0.458-0.223,1.066-5.787,1.241-6.363c0.703-2.312,1.428-3.186,2.949-4.501c1.726,4.948,4.169,9.179,6.674,13.348l-0.697,0.155
		L1437.536,219.529z"/>
	<path fill-rule="evenodd" clip-rule="evenodd" fill="#F5F5FF" d="M1428.688,183.986c-0.473-1.856-1.614-3.043-2.639-4.346
		C1428.789,177.667,1431.573,182.651,1428.688,183.986z"/>
	<path fill-rule="evenodd" clip-rule="evenodd" fill="#F5F5FF" d="M1310.264,255.228c2.862-5.262,5.417-11.627,8.07-17.539
		c0.873-1.943,1.557-4.28,2.64-5.742c2.164-2.926,9.873-3.673,11.795,0c1.348,2.572,0.467,10.543,0.467,14.124
		c0,5.113,0.126,9.848-0.156,14.278c-2.121,0-4.242,0-6.363,0c0-8.484,0-16.97,0-25.454c-2.775,5.107-5.762,12.521-8.537,18.625
		c-1.203,2.646-2.193,5.918-4.656,6.829c-3.092,1.144-6.867-0.027-8.226-1.862c-1.126-1.521-1.731-3.905-2.638-5.897
		c-2.6-5.708-5.506-12.023-7.916-17.694c-0.466,8.124,0.154,17.33-0.311,25.454c-2.121,0-4.242,0-6.364,0
		c-0.279-4.222-0.155-9.067-0.155-14.591c0-4.117-0.779-12.149,0.776-14.278c1.907-2.606,8.333-2.647,10.71-0.465
		c1.358,1.247,2.078,3.866,2.948,5.897C1304.874,242.812,1307.933,249.339,1310.264,255.228z"/>
	<path fill-rule="evenodd" clip-rule="evenodd" fill="#F5F5FF" d="M1403.854,230.084c0,1.447,0,2.896,0,4.344
		c-3.754,0-7.285,0-11.485,0c-3.091,0-8.945-0.832-10.554,0.777c-1.525,1.527-0.656,5.909,0.154,6.83
		c2.047,2.32,8.612,0.83,12.418,1.086c3.548,0.238,8.034,1.51,9.002,4.5c0.668,2.069,0.365,6.002,0,7.45
		c-2.043,8.077-18.796,4.179-28.559,5.122c-0.256-1.061-0.256-3.13,0-4.191c3.971,0,7.721,0,12.105,0
		c3.341,0,8.991,0.784,10.089-1.862c0.452-1.088,0.323-4.226,0-5.121c-1.095-3.024-8.241-1.673-13.038-2.018
		c-3.499-0.25-8.025-1.677-9.002-4.656c-0.785-2.399-0.342-6.605,0.312-8.071c1.243-2.79,4.44-3.756,8.847-4.035
		C1389.845,229.878,1397.328,230.188,1403.854,230.084z"/>
	<path fill-rule="evenodd" clip-rule="evenodd" fill="#F5F5FF" d="M1444.52,230.084c2.069,0,4.14,0,6.208,0
		c0.283,5.619,0.155,11.875,0.155,18.004c0,4.681-0.581,7.453,3.881,7.914c5.37,0.559,12.659-0.42,18.47,0c0,1.398,0,2.796,0,4.191
		c-9.909-0.996-25.848,2.981-28.559-5.122c-0.99-2.958-0.311-7.629-0.311-12.104C1444.364,238.313,1444.239,233.664,1444.52,230.084
		z"/>
	<path fill-rule="evenodd" clip-rule="evenodd" fill="#F5F5FF" d="M1436.448,258.798c1.559,2.27,4.562,3.921,5.898,5.897
		c-2.938-0.364-4.75,0.501-6.829,0c-2.032-0.49-3.694-4.197-5.587-4.656c-1.691-0.413-4.232,0.31-6.364,0.31
		c-7.282,0-14.804,0.113-15.676-6.209c-0.358-2.594,0-5.601,0-9.001c0-3.992-0.597-8.135,0.465-10.554
		c1.989-4.537,8.61-4.347,15.521-4.347c7.341,0,15.347-0.389,16.297,5.897c0.363,2.401,0,5.87,0,9.158
		C1440.174,251.504,1441.261,257.61,1436.448,258.798z M1427.603,251.191c1.432,0.397,3.638,4.38,5.121,4.191
		c0.877-0.112,1.494-2.128,1.553-2.484c0.373-2.311,0-5.315,0-8.381c0-2.533,0.377-6.593-0.311-8.07
		c-1.25-2.686-11.099-2.426-15.056-2.02c-1.486,0.155-3.458,0.98-3.88,2.02c-0.8,1.966-0.155,5.961-0.155,8.691
		c0,3.191-0.601,6.561,0.155,8.691c1.086,3.067,6.228,2.306,10.398,2.172c-1.338-1.765-3.854-3.181-4.812-4.811
		C1423.698,251.697,1425.075,250.49,1427.603,251.191z"/>
	<path fill-rule="evenodd" clip-rule="evenodd" fill="#F5F5FF" d="M1361.482,269.352c-7.604,0-15.21,0-22.815,0
		c0.609-0.832-0.863-3.496,0.154-4.347c0.15-0.124,2.269,0,3.105,0c3.56,0,6.289,0,9.467,0c6.473,0,12.918,1.499,11.641-4.966
		c-5.065-0.355-10.849,0.468-15.83,0c-3.331-0.313-7.584-1.917-8.383-4.968c-1.156-4.425,0.541-10.392-0.154-15.83
		c0.954,0.516,5.766-0.749,6.52,0.155c0.51,0.612,0,7.416,0,7.914c0,2.646-0.55,6.193,0.309,7.605
		c1.018,1.672,5.525,1.243,8.227,1.243c3.436,0,6.432,0.128,9.469-0.157c0-2.485,0-5.373,0-8.536c0-1.387-0.541-7.8,0.154-8.381
		c0.311-0.258,2.397,0,3.26,0c0.729,0,2.693-0.335,3.104,0.156c0.411,0.49,0,4.838,0,6.364c0,2.606,0,4.366,0,6.361
		c0,4.093,0.777,9.51-0.31,12.573C1368.341,267.516,1364.783,268.557,1361.482,269.352z"/>
	<g>
		<path fill-rule="evenodd" clip-rule="evenodd" fill="#F5F5FF" d="M1484.409,238.697c-0.879-1.194-2.121-2.061-3.156-3.131"/>
		<path fill-rule="evenodd" clip-rule="evenodd" fill="#F5F5FF" d="M1443.821,225.038c-2.033-1.853-4.021-3.807-5.742-5.975"/>
		<path fill-rule="evenodd" clip-rule="evenodd" fill="#F5F5FF" d="M1476.958,256.896c1.262,4.63,7.568,3.869,8.37-0.203
			C1486.603,250.219,1475.714,249.757,1476.958,256.896"/>
		<path fill-rule="evenodd" clip-rule="evenodd" fill="#F5F5FF" d="M1481.537,255.863c0.083,0.899,0.788,1.6,1.241,2.338"/>
		<path fill-rule="evenodd" clip-rule="evenodd" fill="#F5F5FF" d="M1481.537,255.863c-1.562,0.708-2.688-1.43-1.778-2.332
			C1481.157,252.143,1484.864,255.001,1481.537,255.863"/>
	</g>
</g>
</svg>
