<?xml version="1.0" encoding="utf-8"?>
<!-- Generator: Adobe Illustrator 15.1.0, SVG Export Plug-In . SVG Version: 6.00 Build 0)  -->
<!DOCTYPE svg PUBLIC "-//W3C//DTD SVG 1.1//EN" "http://www.w3.org/Graphics/SVG/1.1/DTD/svg11.dtd">
<svg version="1.1" id="Layer_1" xmlns="http://www.w3.org/2000/svg" xmlns:xlink="http://www.w3.org/1999/xlink" x="0px" y="0px"
	 width="1567px" height="450px" viewBox="0 0 1567 450" enable-background="new 0 0 1567 450" xml:space="preserve">
<rect x="-10.37" y="-8.398" fill="#FFFFFF" width="1585.421" height="467.976"/>
<g>
	<path fill="#FF9900" d="M566.178-246.925c-42.035,11.027-105.611,65.084-149.312,42.079
		c-56.751-29.862,16.992-109.864,57.438-73.152c-27.502-78.648,102.771-136.647,111.237-45.21
		c20.836-43.816,100.021-71.098,84.322-0.382C661.74-286.998,597.6-257.229,566.178-246.925"/>
</g>
<path fill="#FFFFFF" d="M1552.305-615.611c-48.944-53.933-178.531-106.555-178.188-189.32
	c0.425-107.476,176.443-59.84,153.211,28.71c95.587-101.79,282.689,46.897,153.35,130.307
	c81.263-2.971,183.144,93.587,65.881,125.026C1685.88-504.623,1591.955-576.892,1552.305-615.611"/>
<g>
	<path fill="#F5F5FF" d="M2455.498,764.908c86.323,159.271,177.727,512.088,88.376,560.514
		c-89.333,48.416-325.592-225.889-411.911-385.162c-86.322-159.271-34.969-237.428,54.354-285.836
		C2275.666,606,2369.175,605.635,2455.498,764.908z"/>
</g>
<g>
	<path fill="#F5F5FF" d="M2206.465,654.572c-57.574,19.755-140.789,101.85-204.212,74.236
		c-82.364-35.839,12.36-155.226,72.664-108.132c-46.562-107.014,129.407-201.521,150.702-74.67
		c24.568-63.36,132.354-109.672,117.747-9.264C2335.805,588.701,2249.291,636.926,2206.465,654.572"/>
</g>
<g>
	<path fill="#F5F5FF" d="M-422.191,255.615c-38.36,45.406-135.258,115.486-160.73,93.968
		c-25.468-21.517,30.134-126.484,68.494-171.889c38.36-45.406,68.378-39.05,93.843-17.537
		C-395.112,181.679-383.831,210.209-422.191,255.615z"/>
</g>
<g opacity="0.5">
	<path fill="#F5F5FF" d="M288.396,96.314c33.361-1.777,99.364,10.912,100.36,29.626c0.998,18.712-63.389,36.364-96.749,38.141
		s-42.317-12.96-43.313-31.67C247.698,113.696,255.034,98.092,288.396,96.314z"/>
</g>
<g opacity="0.5">
	<path fill="#F5F5FF" d="M254.474,129.066c-1.264,11.155,5.827,31.51-3.79,39.892c-12.487,10.885-24.88-14.34-12.265-20.66
		c-21.509-0.712-23.328-37.501-0.513-31.012c-8.611-9.106-7.797-30.725,7.773-20.346
		C253.736,102.31,254.925,120.537,254.474,129.066"/>
</g>
<g>
	<path fill="#F5F5FF" d="M2235.993,242.197c-15.609,53.726-72.117,151.073-102.254,142.315
		c-30.135-8.756-22.492-120.297-6.883-174.025c15.611-53.725,43.857-59.749,73.988-50.992
		C2230.985,168.254,2251.604,188.47,2235.993,242.197z"/>
</g>
<g>
	<path fill="#F5F5FF" d="M2205.239,163.901c-16.938-8.157-53.037-8.187-60.979-28.019c-10.312-25.753,36.41-31.418,39.438-7.982
		c13.002-33.615,72.17-16.178,49.314,16.311c19.15-8.586,52.881,4.638,27.877,23.524
		C2247.948,177.508,2218.476,169.322,2205.239,163.901"/>
</g>
<g>
	<path fill="#F5F5FF" d="M2411.099,204.589c5.916,70.337-16.604,210.546-56.057,213.863
		c-39.455,3.319-80.906-131.506-86.822-201.845c-5.916-70.335,24.627-90.205,64.074-93.521
		C2371.753,119.769,2405.181,134.252,2411.099,204.589z"/>
</g>
<g>
	<path fill="#F5F5FF" d="M2339.462,126.288c-23.639-1.946-66.166,14.348-84.49-5.417c-23.793-25.666,28.672-53.473,42.836-27.24
		c0.107-45.47,77.684-51.696,65.459-3.095c18.67-18.775,64.377-18.457,43.471,15.096
		C2395.919,122.993,2357.505,126.686,2339.462,126.288"/>
</g>
<g>
	<path fill="#F5F5FF" d="M2508.128,246.179c4.072,31.916-3.441,96.213-21.344,98.496c-17.904,2.283-39.42-58.31-43.49-90.228
		s9.451-41.564,27.352-43.846C2488.552,208.317,2504.06,214.26,2508.128,246.179z"/>
</g>
<g>
	<path fill="#F5F5FF" d="M2473.972,211.919c-10.803-0.424-29.854,7.829-38.584-0.814c-11.338-11.224,12.012-24.913,18.975-13.244
		c-0.84-20.71,34.367-25.064,29.752-2.689c8.135-8.916,28.957-9.665,20.094,6.023
		C2499.62,209.314,2482.196,211.747,2473.972,211.919"/>
</g>
<g>
	<path fill="#F5F5FF" d="M-841.827,196.666c4.691,55.751-13.159,166.885-44.433,169.515
		c-31.271,2.632-64.127-104.236-68.816-159.988c-4.689-55.75,19.52-71.5,50.787-74.129
		C-873.013,129.435-846.516,140.914-841.827,196.666z"/>
</g>
<g>
	<path fill="#F5F5FF" d="M-898.607,134.602c-18.736-1.543-52.445,11.372-66.969-4.294c-18.86-20.344,22.726-42.384,33.953-21.591
		c0.085-36.041,61.574-40.977,51.884-2.453c14.799-14.882,51.028-14.631,34.457,11.965
		C-853.857,131.99-884.307,134.917-898.607,134.602"/>
</g>
<g>
	<path fill="#F5F5FF" d="M-699.682,263.005c-9.57,44.429-49.782,126.547-74.704,121.177c-24.921-5.367-25.117-96.188-15.546-140.619
		c9.571-44.428,32.114-50.927,57.031-45.559C-707.977,203.376-690.11,218.576-699.682,263.005z"/>
</g>
<g>
	<path fill="#F5F5FF" d="M-729.088,201.324c-14.192-5.64-43.444-3.596-51.015-19.211c-9.832-20.276,27.704-27.544,31.499-8.728
		c8.609-27.982,57.554-17.243,40.895,10.393c15.025-8.056,43.115,0.728,23.936,17.464
		C-693.7,209.902-718.051,204.958-729.088,201.324"/>
</g>
<g>
	<path fill="#F5F5FF" d="M-521.178,183.036c18.236,64.725,22.491,199.942-13.815,210.17
		c-36.305,10.229-99.425-108.401-117.661-173.126c-18.235-64.723,6.746-88.825,43.046-99.052
		C-573.298,110.801-539.415,118.312-521.178,183.036z"/>
</g>
<g>
	<path fill="#F5F5FF" d="M-602.327,122.73c-22.462,2.448-59.3,25.368-80.009,10.189c-26.892-19.711,17.163-55.194,35.149-33.216
		c-8.11-42.552,63.329-62.385,60.67-14.716c14.074-20.934,56.886-28.891,43.389,6.271
		C-550.112,109.453-585.378,119.844-602.327,122.73"/>
</g>
<g opacity="0.5">
	<path fill="#F5F5FF" d="M473.145,96.314c33.361-1.777,99.364,10.912,100.36,29.626c0.998,18.712-63.388,36.364-96.749,38.141
		s-42.317-12.96-43.313-31.67C432.447,113.696,439.784,98.092,473.145,96.314z"/>
</g>
<g opacity="0.5">
	<path fill="#F5F5FF" d="M435.062,129.066c-1.264,11.155,5.827,31.51-3.79,39.892c-12.487,10.885-24.88-14.34-12.265-20.66
		c-21.509-0.712-23.328-37.501-0.514-31.012c-8.61-9.106-7.796-30.725,7.773-20.346C434.324,102.31,435.512,120.537,435.062,129.066
		"/>
</g>
<g opacity="0.5">
	<path fill="#F5F5FF" d="M660.35,96.314c33.361-1.777,99.364,10.912,100.36,29.626c0.998,18.712-63.389,36.364-96.749,38.141
		s-42.317-12.96-43.313-31.67C619.652,113.696,626.988,98.092,660.35,96.314z"/>
</g>
<g opacity="0.5">
	<path fill="#F5F5FF" d="M622.267,129.066c-1.264,11.155,5.827,31.51-3.79,39.892c-12.487,10.885-24.88-14.34-12.265-20.66
		c-21.509-0.712-23.328-37.501-0.513-31.012c-8.611-9.106-7.797-30.725,7.773-20.346
		C621.528,102.31,622.717,120.537,622.267,129.066"/>
</g>
<g opacity="0.5">
	<path fill="#F5F5FF" d="M849.206,93.585c33.36-1.778,99.364,10.912,100.36,29.626c0.997,18.712-63.39,36.364-96.749,38.141
		c-33.36,1.777-42.317-12.96-43.314-31.67C808.508,110.967,815.845,95.363,849.206,93.585z"/>
</g>
<g opacity="0.5">
	<path fill="#F5F5FF" d="M815.284,126.337c-1.263,11.155,5.827,31.511-3.788,39.893c-12.489,10.884-24.881-14.341-12.266-20.661
		c-21.509-0.711-23.328-37.5-0.514-31.012c-8.611-9.105-7.797-30.724,7.773-20.346C814.547,99.581,815.734,117.809,815.284,126.337"
		/>
</g>
<g opacity="0.5">
	<path fill="#F5F5FF" d="M1033.956,93.585c33.361-1.778,99.363,10.912,100.359,29.626c0.998,18.712-63.389,36.364-96.748,38.141
		c-33.36,1.777-42.317-12.96-43.313-31.67C993.258,110.967,1000.595,95.363,1033.956,93.585z"/>
</g>
<g opacity="0.5">
	<path fill="#F5F5FF" d="M995.873,126.337c-1.264,11.155,5.826,31.511-3.79,39.893c-12.487,10.884-24.88-14.341-12.265-20.661
		c-21.51-0.711-23.328-37.5-0.514-31.012c-8.611-9.105-7.797-30.724,7.773-20.346C995.135,99.581,996.323,117.809,995.873,126.337"
		/>
</g>
<g opacity="0.5">
	<path fill="#F5F5FF" d="M1221.16,93.585c33.361-1.778,99.364,10.912,100.359,29.626c0.998,18.712-63.389,36.364-96.748,38.141
		c-33.36,1.777-42.317-12.96-43.313-31.67C1180.462,110.967,1187.799,95.363,1221.16,93.585z"/>
</g>
<g opacity="0.5">
	<path fill="#F5F5FF" d="M1183.076,126.337c-1.263,11.155,5.827,31.511-3.789,39.893c-12.487,10.884-24.88-14.341-12.265-20.661
		c-21.509-0.711-23.328-37.5-0.513-31.012c-8.611-9.105-7.797-30.724,7.773-20.346
		C1182.339,99.581,1183.527,117.809,1183.076,126.337"/>
</g>
<g>
	<path fill="#F5F5FF" d="M128.652,176.603c45.138-2.406,134.44,14.764,135.788,40.084c1.35,25.318-85.766,49.2-130.902,51.605
		c-45.137,2.404-57.256-17.534-58.604-42.85C73.587,200.12,83.514,179.008,128.652,176.603z"/>
</g>
<g>
	<path fill="#F5F5FF" d="M82.756,220.917c-1.71,15.092,7.883,42.633-5.128,53.974c-16.896,14.728-33.663-19.403-16.594-27.954
		c-29.103-0.963-31.563-50.738-0.695-41.959c-11.65-12.32-10.549-41.57,10.517-27.529C81.757,184.714,83.366,209.377,82.756,220.917
		"/>
</g>
<g>
	<path fill="#F5F5FF" d="M378.621,176.603c45.138-2.406,134.441,14.764,135.788,40.084c1.35,25.318-85.766,49.2-130.902,51.605
		c-45.137,2.404-57.256-17.534-58.604-42.85C323.556,200.12,333.483,179.008,378.621,176.603z"/>
</g>
<g>
	<path fill="#F5F5FF" d="M327.094,220.917c-1.71,15.092,7.883,42.633-5.128,53.974c-16.896,14.728-33.663-19.403-16.594-27.954
		c-29.103-0.963-31.563-50.738-0.695-41.959c-11.65-12.32-10.548-41.57,10.518-27.529
		C326.095,184.714,327.703,209.377,327.094,220.917"/>
</g>
<g>
	<path fill="#F5F5FF" d="M631.911,176.603c45.138-2.406,134.441,14.764,135.788,40.084c1.35,25.318-85.765,49.2-130.902,51.605
		c-45.137,2.404-57.256-17.534-58.604-42.85C576.846,200.12,586.773,179.008,631.911,176.603z"/>
</g>
<g>
	<path fill="#F5F5FF" d="M580.384,220.917c-1.709,15.092,7.884,42.633-5.127,53.974c-16.896,14.728-33.663-19.403-16.594-27.954
		c-29.102-0.963-31.563-50.738-0.694-41.959c-11.651-12.32-10.549-41.57,10.517-27.529
		C579.385,184.714,580.993,209.377,580.384,220.917"/>
</g>
<g>
	<path fill="#F5F5FF" d="M887.437,172.91c45.138-2.405,134.44,14.765,135.788,40.083c1.35,25.319-85.766,49.202-130.902,51.606
		c-45.137,2.405-57.256-17.535-58.604-42.851C832.371,196.428,842.299,175.316,887.437,172.91z"/>
</g>
<g>
	<path fill="#F5F5FF" d="M841.539,217.224c-1.708,15.093,7.885,42.635-5.125,53.975c-16.898,14.726-33.664-19.402-16.596-27.953
		c-29.102-0.963-31.562-50.739-0.693-41.96c-11.652-12.319-10.55-41.571,10.517-27.528
		C840.541,181.022,842.15,205.685,841.539,217.224"/>
</g>
<g>
	<path fill="#F5F5FF" d="M1137.406,172.91c45.138-2.405,134.439,14.765,135.787,40.083c1.35,25.319-85.766,49.202-130.901,51.606
		c-45.139,2.405-57.256-17.535-58.604-42.851C1082.341,196.428,1092.268,175.316,1137.406,172.91z"/>
</g>
<g>
	<path fill="#F5F5FF" d="M1085.878,217.224c-1.71,15.093,7.884,42.635-5.127,53.975c-16.896,14.726-33.664-19.402-16.595-27.953
		c-29.102-0.963-31.563-50.739-0.694-41.96c-11.651-12.319-10.55-41.571,10.517-27.528
		C1084.88,181.022,1086.488,205.685,1085.878,217.224"/>
</g>
<g>
	<path fill="#F5F5FF" d="M1390.695,172.91c45.138-2.405,134.441,14.765,135.788,40.083c1.35,25.319-85.766,49.202-130.902,51.606
		c-45.137,2.405-57.256-17.535-58.604-42.851C1335.63,196.428,1345.558,175.316,1390.695,172.91z"/>
</g>
<g>
	<path fill="#F5F5FF" d="M1339.167,217.224c-1.708,15.093,7.885,42.635-5.126,53.975c-16.896,14.726-33.663-19.402-16.596-27.953
		c-29.102-0.963-31.562-50.739-0.693-41.96c-11.65-12.319-10.549-41.571,10.518-27.528
		C1338.169,181.022,1339.777,205.685,1339.167,217.224"/>
</g>
<g opacity="0.5">
	<path fill="#F5F5FF" d="M296.366,283.21c33.361-1.777,99.364,10.912,100.36,29.626c0.998,18.713-63.389,36.364-96.749,38.141
		c-33.36,1.777-42.317-12.959-43.313-31.669C255.668,300.592,263.005,284.987,296.366,283.21z"/>
</g>
<g opacity="0.5">
	<path fill="#F5F5FF" d="M262.445,315.963c-1.264,11.154,5.826,31.51-3.79,39.892c-12.487,10.885-24.88-14.341-12.265-20.661
		c-21.509-0.712-23.328-37.5-0.513-31.012c-8.611-9.105-7.796-30.724,7.773-20.347C261.707,289.205,262.896,307.434,262.445,315.963
		"/>
</g>
<g opacity="0.5">
	<path fill="#F5F5FF" d="M481.116,283.21c33.361-1.777,99.364,10.912,100.359,29.626c0.998,18.713-63.388,36.364-96.749,38.141
		c-33.36,1.777-42.317-12.959-43.313-31.669C440.418,300.592,447.755,284.987,481.116,283.21z"/>
</g>
<g opacity="0.5">
	<path fill="#F5F5FF" d="M443.033,315.963c-1.264,11.154,5.827,31.51-3.79,39.892c-12.487,10.885-24.88-14.341-12.265-20.661
		c-21.509-0.712-23.328-37.5-0.513-31.012c-8.611-9.105-7.797-30.724,7.773-20.347C442.294,289.205,443.483,307.434,443.033,315.963
		"/>
</g>
<g opacity="0.5">
	<path fill="#F5F5FF" d="M668.32,283.21c33.361-1.777,99.364,10.912,100.36,29.626c0.998,18.713-63.388,36.364-96.749,38.141
		c-33.36,1.777-42.317-12.959-43.313-31.669C627.623,300.592,634.959,284.987,668.32,283.21z"/>
</g>
<g opacity="0.5">
	<path fill="#F5F5FF" d="M630.237,315.963c-1.264,11.154,5.827,31.51-3.79,39.892c-12.488,10.885-24.88-14.341-12.265-20.661
		c-21.509-0.712-23.328-37.5-0.513-31.012c-8.611-9.105-7.797-30.724,7.773-20.347C629.499,289.205,630.688,307.434,630.237,315.963
		"/>
</g>
<g opacity="0.5">
	<path fill="#F5F5FF" d="M857.177,280.48c33.36-1.776,99.364,10.913,100.36,29.626c0.997,18.713-63.389,36.365-96.749,38.142
		c-33.36,1.777-42.317-12.96-43.314-31.671C816.479,297.863,823.816,282.259,857.177,280.48z"/>
</g>
<g opacity="0.5">
	<path fill="#F5F5FF" d="M823.256,313.232c-1.264,11.155,5.826,31.512-3.789,39.893c-12.489,10.884-24.881-14.34-12.266-20.66
		c-21.509-0.712-23.328-37.501-0.514-31.012c-8.611-9.105-7.797-30.725,7.773-20.347
		C822.518,286.477,823.706,304.704,823.256,313.232"/>
</g>
<g opacity="0.5">
	<path fill="#F5F5FF" d="M1041.927,280.48c33.361-1.776,99.363,10.913,100.36,29.626s-63.39,36.365-96.749,38.142
		c-33.36,1.777-42.317-12.96-43.313-31.671C1001.229,297.863,1008.566,282.259,1041.927,280.48z"/>
</g>
<g opacity="0.5">
	<path fill="#F5F5FF" d="M1003.844,313.232c-1.264,11.155,5.826,31.512-3.79,39.893c-12.487,10.884-24.88-14.34-12.265-20.66
		c-21.51-0.712-23.328-37.501-0.514-31.012c-8.611-9.105-7.797-30.725,7.773-20.347
		C1003.105,286.477,1004.294,304.704,1003.844,313.232"/>
</g>
<g opacity="0.5">
	<path fill="#F5F5FF" d="M1229.131,280.48c33.361-1.776,99.364,10.913,100.359,29.626c0.998,18.713-63.389,36.365-96.748,38.142
		c-33.36,1.777-42.317-12.96-43.313-31.671C1188.433,297.863,1195.77,282.259,1229.131,280.48z"/>
</g>
<g opacity="0.5">
	<path fill="#F5F5FF" d="M1191.047,313.232c-1.263,11.155,5.828,31.512-3.788,39.893c-12.488,10.884-24.881-14.34-12.266-20.66
		c-21.509-0.712-23.328-37.501-0.513-31.012c-8.611-9.105-7.797-30.725,7.773-20.347
		C1190.31,286.477,1191.498,304.704,1191.047,313.232"/>
</g>
<g>
	<path fill-rule="evenodd" clip-rule="evenodd" fill="#F5F5FF" d="M275.055,510.899c-3.943-3.104-6.377-7.718-8.457-12.685
		c-2.173,4.305-0.25,12.336-6.218,12.436c-1.811,0.03-3.687-1.264-4.228-1.74c-5.877-5.169-7.694-19.355-4.974-29.846
		c0.347-1.338,1.811-5.548,1.741-6.716c-0.097-1.616-2.25-3.352-3.233-4.974c-3.084-5.09-4.581-12.03-6.964-17.659
		c-2.285-5.398-10.414-10.117-9.7-17.41c1.03-10.526,15.707-4.073,20.395-0.746c1.208,0.857,2.473,2.431,3.482,2.736
		c2.125,0.642,3.833,0,5.721,0.248c8.592,1.131,13.764,5.052,20.146,9.7c5.469,3.983,11.1,9.212,15.171,14.426
		c6.813,8.724,10.24,18.871,15.42,29.348c1.386,2.804,2.967,8.119,4.974,9.7c1.45,1.142,5.37,2.124,7.213,2.984
		c2.371,1.106,4.455,2.376,6.467,3.73c5.862,3.948,11.24,7.616,14.922,13.68c-5.073,1.974-11.891,2.202-17.41,3.73
		c4.219,6.144,12.846,7.88,16.664,14.425l-1.078,0.332l-0.663,0.912c-5.665-3.522-12.392-5.706-17.161-10.197
		c-0.584-0.55-5.036-5.079-4.477-7.213c0.623-2.376,11.09-3.821,14.177-3.979c2.346-0.12,6.235,1.079,3.233-1.741
		c-1.11-1.042-4.03-2.721-5.472-3.73c-2.254-1.577-4.691-3.625-7.461-4.974c-3.572-1.74-10.225-2.79-12.436-4.478
		c-2.289-1.746-3.712-6.138-4.974-8.953c-1.396-3.113-3.126-6.613-4.477-9.451c-2.784-5.848-5.802-13.213-9.451-18.405
		c-3.631-5.166-8.262-10.65-13.182-14.674c-4.954-4.052-12.435-9.494-19.648-10.694c-2.89-0.481-6.046,0.214-8.456-0.498
		c-1.09-0.322-2.255-1.938-3.731-2.984c-1.277-0.906-13.608-7.928-14.176-2.984c-0.439,3.819,3.374,6.909,5.223,9.451
		c2.395,3.291,4.059,6.161,5.223,9.451c2.011,5.684,3.05,11.383,6.467,15.669c1.34,1.681,3.033,2.629,3.233,3.979
		c0.441,2.971-1.665,6.103-2.487,8.953c-1.783,6.181-1.648,13.053,0.497,19.4c0.431,1.273,2.581,7.51,4.726,6.466
		c0.733-0.356,1.708-9.271,1.99-10.197c1.125-3.703,2.288-5.104,4.726-7.212c2.764,7.93,6.68,14.709,10.695,21.389l-1.119,0.249
		L275.055,510.899z"/>
	<path fill-rule="evenodd" clip-rule="evenodd" fill="#F5F5FF" d="M260.878,453.944c-0.757-2.975-2.586-4.876-4.228-6.964
		C261.04,443.818,265.501,451.806,260.878,453.944z"/>
	<path fill-rule="evenodd" clip-rule="evenodd" fill="#F5F5FF" d="M71.11,568.104c4.585-8.431,8.68-18.631,12.933-28.104
		c1.398-3.114,2.494-6.859,4.229-9.202c3.47-4.687,15.821-5.887,18.902,0c2.159,4.123,0.747,16.895,0.747,22.633
		c0,8.193,0.203,15.78-0.249,22.881c-3.399,0-6.798,0-10.197,0c0-13.596,0-27.192,0-40.789c-4.446,8.183-9.233,20.064-13.679,29.846
		c-1.928,4.242-3.515,9.483-7.461,10.943c-4.956,1.834-11.004-0.044-13.182-2.984c-1.805-2.437-2.775-6.259-4.228-9.451
		c-4.164-9.146-8.821-19.266-12.685-28.354c-0.746,13.018,0.248,27.772-0.498,40.789c-3.399,0-6.798,0-10.197,0
		c-0.448-6.766-0.249-14.531-0.249-23.379c0-6.6-1.25-19.472,1.244-22.881c3.056-4.178,13.352-4.243,17.161-0.747
		c2.177,1.999,3.332,6.196,4.726,9.451C62.474,548.209,67.375,558.67,71.11,568.104z"/>
	<path fill-rule="evenodd" clip-rule="evenodd" fill="#F5F5FF" d="M221.084,527.812c0,2.321,0,4.643,0,6.964
		c-6.018,0-11.675,0-18.405,0c-4.954,0-14.335-1.333-16.913,1.244c-2.445,2.445-1.05,9.471,0.249,10.943
		c3.279,3.719,13.8,1.332,19.897,1.741c5.687,0.381,12.875,2.418,14.426,7.212c1.071,3.314,0.587,9.617,0,11.938
		c-3.274,12.942-30.119,6.695-45.764,8.208c-0.408-1.699-0.408-5.017,0-6.716c6.364,0,12.373,0,19.4,0
		c5.353,0,14.407,1.253,16.167-2.984c0.724-1.744,0.518-6.774,0-8.207c-1.754-4.847-13.206-2.683-20.892-3.233
		c-5.608-0.402-12.862-2.687-14.425-7.462c-1.259-3.845-0.549-10.583,0.498-12.933c1.992-4.474,7.117-6.021,14.176-6.467
		C198.635,527.482,210.626,527.979,221.084,527.812z"/>
	<path fill-rule="evenodd" clip-rule="evenodd" fill="#F5F5FF" d="M286.247,527.812c3.316,0,6.633,0,9.949,0
		c0.453,9.008,0.249,19.032,0.249,28.851c0,7.502-0.932,11.943,6.218,12.685c8.606,0.893,20.287-0.674,29.597,0
		c0,2.239,0,4.478,0,6.716c-15.879-1.598-41.419,4.776-45.763-8.208c-1.586-4.741-0.498-12.225-0.498-19.399
		C285.999,541,285.797,533.552,286.247,527.812z"/>
	<path fill-rule="evenodd" clip-rule="evenodd" fill="#F5F5FF" d="M273.314,573.824c2.497,3.638,7.311,6.284,9.451,9.451
		c-4.709-0.583-7.611,0.803-10.943,0c-3.257-0.785-5.92-6.725-8.954-7.462c-2.71-0.659-6.782,0.497-10.197,0.497
		c-11.668,0-23.721,0.183-25.12-9.948c-0.574-4.157,0-8.976,0-14.425c0-6.396-0.954-13.035,0.746-16.913
		c3.187-7.269,13.796-6.964,24.872-6.964c11.762,0,24.592-0.622,26.115,9.451c0.582,3.847,0,9.407,0,14.674
		C279.283,562.139,281.024,571.923,273.314,573.824z M259.138,561.637c2.296,0.638,5.83,7.018,8.208,6.716
		c1.404-0.179,2.395-3.41,2.487-3.979c0.598-3.704,0-8.519,0-13.431c0-4.061,0.604-10.565-0.497-12.934
		c-2.003-4.304-17.784-3.888-24.125-3.233c-2.382,0.246-5.542,1.57-6.218,3.233c-1.281,3.15-0.249,9.554-0.249,13.929
		c0,5.115-0.962,10.513,0.249,13.928c1.742,4.914,9.98,3.694,16.664,3.481c-2.145-2.83-6.176-5.098-7.71-7.71
		C252.883,562.447,255.088,560.513,259.138,561.637z"/>
	<path fill-rule="evenodd" clip-rule="evenodd" fill="#F5F5FF" d="M153.186,590.736c-12.187,0-24.374,0-36.561,0
		c0.977-1.332-1.383-5.603,0.249-6.964c0.24-0.2,3.634,0,4.974,0c5.705,0,10.078,0,15.171,0c10.372,0,20.7,2.402,18.654-7.959
		c-8.118-0.567-17.385,0.75-25.369,0c-5.336-0.501-12.152-3.069-13.43-7.959c-1.854-7.091,0.867-16.652-0.249-25.368
		c1.529,0.827,9.239-1.2,10.446,0.248c0.818,0.982,0,11.886,0,12.685c0,4.238-0.88,9.924,0.497,12.187
		c1.63,2.679,8.853,1.99,13.182,1.99c5.505,0,10.306,0.206,15.171-0.249c0-3.984,0-8.61,0-13.679c0-2.224-0.866-12.501,0.249-13.431
		c0.498-0.415,3.841,0,5.223,0c1.166,0,4.315-0.539,4.974,0.249c0.658,0.786,0,7.754,0,10.197c0,4.178,0,6.999,0,10.197
		c0,6.556,1.246,15.237-0.497,20.146C164.176,587.797,158.474,589.465,153.186,590.736z"/>
	<g>
		<path fill-rule="evenodd" clip-rule="evenodd" fill="#F5F5FF" d="M350.167,541.615c-1.406-1.913-3.399-3.303-5.057-5.016"/>
		<path fill-rule="evenodd" clip-rule="evenodd" fill="#F5F5FF" d="M285.128,519.729c-3.259-2.969-6.444-6.101-9.202-9.575"/>
		<path fill-rule="evenodd" clip-rule="evenodd" fill="#F5F5FF" d="M338.229,570.777c2.021,7.419,12.127,6.199,13.412-0.326
			C353.682,560.078,336.233,559.337,338.229,570.777"/>
		<path fill-rule="evenodd" clip-rule="evenodd" fill="#F5F5FF" d="M345.565,569.123c0.133,1.439,1.263,2.564,1.99,3.747"/>
		<path fill-rule="evenodd" clip-rule="evenodd" fill="#F5F5FF" d="M345.565,569.123c-2.502,1.135-4.307-2.292-2.851-3.737
			C344.957,563.161,350.898,567.741,345.565,569.123"/>
	</g>
</g>
</svg>
