<?xml version="1.0" encoding="utf-8"?>
<!-- Generator: Adobe Illustrator 15.1.0, SVG Export Plug-In . SVG Version: 6.00 Build 0)  -->
<!DOCTYPE svg PUBLIC "-//W3C//DTD SVG 1.1//EN" "http://www.w3.org/Graphics/SVG/1.1/DTD/svg11.dtd">
<svg version="1.1" id="Layer_1" xmlns="http://www.w3.org/2000/svg" xmlns:xlink="http://www.w3.org/1999/xlink" x="0px" y="0px"
	 width="1567px" height="450px" viewBox="0 0 1567 450" enable-background="new 0 0 1567 450" xml:space="preserve">
<rect x="-9.21" y="0.51" fill="#FFFFFF" width="1585.421" height="467.976"/>
<g>
	<path fill="#FF9900" d="M566.178-246.925c-42.035,11.027-105.611,65.084-149.312,42.079
		c-56.751-29.862,16.992-109.864,57.438-73.152c-27.502-78.648,102.771-136.647,111.237-45.21
		c20.836-43.816,100.021-71.098,84.322-0.382C661.74-286.998,597.6-257.229,566.178-246.925"/>
</g>
<path fill="#FFFFFF" d="M1552.305-615.611c-48.944-53.933-178.531-106.555-178.188-189.32
	c0.425-107.476,176.443-59.84,153.211,28.71c95.587-101.79,282.689,46.897,153.35,130.307
	c81.263-2.971,183.144,93.587,65.881,125.026C1685.88-504.623,1591.955-576.892,1552.305-615.611"/>
<g>
	<path fill="#F5F5FF" d="M2455.498,764.908c86.323,159.271,177.727,512.088,88.376,560.514
		c-89.333,48.416-325.592-225.889-411.911-385.162c-86.322-159.271-34.969-237.428,54.354-285.836
		C2275.666,606,2369.175,605.635,2455.498,764.908z"/>
</g>
<g>
	<path fill="#F5F5FF" d="M2206.465,654.572c-57.574,19.755-140.789,101.85-204.212,74.236
		c-82.364-35.839,12.36-155.226,72.664-108.132c-46.562-107.014,129.407-201.521,150.702-74.67
		c24.568-63.36,132.354-109.672,117.747-9.264C2335.805,588.701,2249.291,636.926,2206.465,654.572"/>
</g>
<g>
	<path fill="#F5F5FF" d="M-422.191,255.615c-38.36,45.406-135.258,115.486-160.73,93.968
		c-25.468-21.517,30.134-126.484,68.494-171.889c38.36-45.406,68.378-39.05,93.843-17.537
		C-395.112,181.679-383.831,210.209-422.191,255.615z"/>
</g>
<g>
	<path fill="#F5F5FF" d="M2235.993,242.197c-15.609,53.726-72.117,151.073-102.254,142.315
		c-30.135-8.756-22.492-120.297-6.883-174.025c15.611-53.725,43.857-59.749,73.988-50.992
		C2230.985,168.254,2251.604,188.47,2235.993,242.197z"/>
</g>
<g>
	<path fill="#F5F5FF" d="M2205.239,163.901c-16.938-8.157-53.037-8.187-60.979-28.019c-10.312-25.753,36.41-31.418,39.438-7.982
		c13.002-33.615,72.17-16.178,49.314,16.311c19.15-8.586,52.881,4.638,27.877,23.524
		C2247.948,177.508,2218.476,169.322,2205.239,163.901"/>
</g>
<g>
	<path fill="#F5F5FF" d="M2411.099,204.589c5.916,70.337-16.604,210.546-56.057,213.863
		c-39.455,3.319-80.906-131.506-86.822-201.845c-5.916-70.335,24.627-90.205,64.074-93.521
		C2371.753,119.769,2405.181,134.252,2411.099,204.589z"/>
</g>
<g>
	<path fill="#F5F5FF" d="M2339.462,126.288c-23.639-1.946-66.166,14.348-84.49-5.417c-23.793-25.666,28.672-53.473,42.836-27.24
		c0.107-45.47,77.684-51.696,65.459-3.095c18.67-18.775,64.377-18.457,43.471,15.096
		C2395.919,122.993,2357.505,126.686,2339.462,126.288"/>
</g>
<g>
	<path fill="#F5F5FF" d="M2508.128,246.179c4.072,31.916-3.441,96.213-21.344,98.496c-17.904,2.283-39.42-58.31-43.49-90.228
		s9.451-41.564,27.352-43.846C2488.552,208.317,2504.06,214.26,2508.128,246.179z"/>
</g>
<g>
	<path fill="#F5F5FF" d="M2473.972,211.919c-10.803-0.424-29.854,7.829-38.584-0.814c-11.338-11.224,12.012-24.913,18.975-13.244
		c-0.84-20.71,34.367-25.064,29.752-2.689c8.135-8.916,28.957-9.665,20.094,6.023
		C2499.62,209.314,2482.196,211.747,2473.972,211.919"/>
</g>
<g>
	<path fill="#F5F5FF" d="M-841.827,196.666c4.691,55.751-13.159,166.885-44.433,169.515
		c-31.271,2.632-64.127-104.236-68.816-159.988c-4.689-55.75,19.52-71.5,50.787-74.129
		C-873.013,129.435-846.516,140.914-841.827,196.666z"/>
</g>
<g>
	<path fill="#F5F5FF" d="M-898.607,134.602c-18.736-1.543-52.445,11.372-66.969-4.294c-18.86-20.344,22.726-42.384,33.953-21.591
		c0.085-36.041,61.574-40.977,51.884-2.453c14.799-14.882,51.028-14.631,34.457,11.965
		C-853.857,131.99-884.307,134.917-898.607,134.602"/>
</g>
<g>
	<path fill="#F5F5FF" d="M-699.682,263.005c-9.57,44.429-49.782,126.547-74.704,121.177c-24.921-5.367-25.117-96.188-15.546-140.619
		c9.571-44.428,32.114-50.927,57.031-45.559C-707.977,203.376-690.11,218.576-699.682,263.005z"/>
</g>
<g>
	<path fill="#F5F5FF" d="M-729.088,201.324c-14.192-5.64-43.444-3.596-51.015-19.211c-9.832-20.276,27.704-27.544,31.499-8.728
		c8.609-27.982,57.554-17.243,40.895,10.393c15.025-8.056,43.115,0.728,23.936,17.464
		C-693.7,209.902-718.051,204.958-729.088,201.324"/>
</g>
<g>
	<path fill="#F5F5FF" d="M-521.178,183.036c18.236,64.725,22.491,199.942-13.815,210.17
		c-36.305,10.229-99.425-108.401-117.661-173.126c-18.235-64.723,6.746-88.825,43.046-99.052
		C-573.298,110.801-539.415,118.312-521.178,183.036z"/>
</g>
<g>
	<path fill="#F5F5FF" d="M-602.327,122.73c-22.462,2.448-59.3,25.368-80.009,10.189c-26.892-19.711,17.163-55.194,35.149-33.216
		c-8.11-42.552,63.329-62.385,60.67-14.716c14.074-20.934,56.886-28.891,43.389,6.271
		C-550.112,109.453-585.378,119.844-602.327,122.73"/>
</g>
<g>
	<path fill="#F5F5FF" d="M1153.578,257.914c-45.138,2.405-134.44-14.764-135.788-40.084c-1.35-25.318,85.766-49.2,130.902-51.605
		c45.137-2.404,57.256,17.534,58.604,42.85C1208.643,234.396,1198.716,255.509,1153.578,257.914z"/>
</g>
<g>
	<path fill="#F5F5FF" d="M1199.474,213.6c1.71-15.092-7.883-42.633,5.128-53.974c16.896-14.728,33.663,19.403,16.595,27.954
		c29.103,0.963,31.563,50.738,0.694,41.959c11.65,12.32,10.549,41.57-10.517,27.528
		C1200.474,249.803,1198.864,225.14,1199.474,213.6"/>
</g>
<g>
	<path fill="#F5F5FF" d="M796.092,257.914c-45.139,2.405-134.441-14.764-135.788-40.084c-1.35-25.318,85.766-49.2,130.902-51.605
		c45.137-2.404,57.256,17.534,58.604,42.85C851.156,234.396,841.229,255.509,796.092,257.914z"/>
</g>
<g>
	<path fill="#F5F5FF" d="M847.619,213.6c1.709-15.092-7.884-42.633,5.127-53.974c16.896-14.728,33.663,19.403,16.595,27.954
		c29.102,0.963,31.562,50.738,0.694,41.959c11.65,12.32,10.549,41.57-10.517,27.528C848.618,249.803,847.01,225.14,847.619,213.6"/>
</g>
<g>
	<path fill="#F5F5FF" d="M426.523,261.606c-45.138,2.405-134.439-14.765-135.787-40.083c-1.35-25.319,85.766-49.202,130.901-51.606
		c45.139-2.405,57.256,17.535,58.604,42.851C481.589,238.089,471.662,259.2,426.523,261.606z"/>
</g>
<g>
	<path fill="#F5F5FF" d="M478.052,217.293c1.71-15.093-7.884-42.635,5.127-53.975c16.896-14.726,33.664,19.402,16.595,27.953
		c29.102,0.963,31.563,50.739,0.694,41.96c11.651,12.319,10.55,41.57-10.517,27.528C479.05,253.494,477.441,228.832,478.052,217.293
		"/>
</g>
<g opacity="0.5">
	<path fill="#F5F5FF" d="M517.455,117.938c0.996-18.71,9.953-33.446,43.313-31.669c33.36,1.776,97.746,19.428,96.749,38.141
		c-0.996,18.714-66.999,31.403-100.36,29.626C523.797,152.259,516.46,136.654,517.455,117.938z"/>
</g>
<g opacity="0.5">
	<path fill="#F5F5FF" d="M523.236,121.283c0.45,8.529-0.738,26.758-8.795,32.128c-15.569,10.377-16.384-11.241-7.773-20.347
		c-22.814,6.488-20.996-30.3,0.514-31.012c-12.615-6.32-0.223-31.546,12.265-20.661C529.062,89.773,521.973,110.129,523.236,121.283
		"/>
</g>
<g opacity="0.5">
	<path fill="#F5F5FF" d="M889.409,117.938c0.996-18.71,9.953-33.446,43.313-31.669c33.36,1.776,97.746,19.428,96.749,38.141
		c-0.996,18.714-66.999,31.403-100.36,29.626C895.751,152.259,888.414,136.654,889.409,117.938z"/>
</g>
<g opacity="0.5">
	<path fill="#F5F5FF" d="M891.028,121.283c0.45,8.529-0.738,26.758-8.795,32.128c-15.569,10.377-16.384-11.241-7.772-20.347
		c-22.814,6.488-20.996-30.3,0.513-31.012c-12.614-6.32-0.223-31.546,12.266-20.661C896.855,89.773,889.765,110.129,891.028,121.283
		"/>
</g>
<g opacity="0.5">
	<path fill="#F5F5FF" d="M1263.016,120.669c0.996-18.711,9.953-33.448,43.313-31.671c33.359,1.776,97.746,19.429,96.749,38.142
		s-66.999,31.402-100.36,29.626C1269.357,154.987,1262.02,139.383,1263.016,120.669z"/>
</g>
<g opacity="0.5">
	<path fill="#F5F5FF" d="M1264.635,124.014c0.45,8.528-0.738,26.756-8.795,32.126c-15.57,10.378-16.385-11.241-7.773-20.347
		c-22.814,6.489-20.996-30.3,0.514-31.012c-12.615-6.32-0.223-31.544,12.265-20.66
		C1270.461,92.502,1263.371,112.858,1264.635,124.014"/>
</g>
<g opacity="0.5">
	<path fill="#F5F5FF" d="M162.188,120.668c0.996-18.71,9.953-33.446,43.313-31.669c33.36,1.776,97.746,19.428,96.749,38.141
		c-0.996,18.714-66.999,31.403-100.36,29.626C168.529,154.988,161.192,139.384,162.188,120.668z"/>
</g>
<g opacity="0.5">
	<path fill="#F5F5FF" d="M167.969,124.013c0.45,8.529-0.738,26.758-8.795,32.128c-15.569,10.377-16.384-11.241-7.773-20.347
		c-22.814,6.488-20.996-30.3,0.514-31.012c-12.615-6.32-0.223-31.546,12.265-20.661C173.795,92.503,166.705,112.858,167.969,124.013
		"/>
</g>
<g opacity="0.5">
	<path fill="#F5F5FF" d="M525.408,303.729c0.996-18.71,9.953-33.446,43.313-31.669c33.36,1.776,97.746,19.428,96.749,38.141
		c-0.996,18.714-66.999,31.403-100.36,29.626C531.75,338.049,524.413,322.444,525.408,303.729z"/>
</g>
<g opacity="0.5">
	<path fill="#F5F5FF" d="M531.189,307.073c0.45,8.529-0.738,26.758-8.795,32.128c-15.569,10.377-16.384-11.241-7.773-20.347
		c-22.814,6.488-20.996-30.3,0.514-31.012c-12.615-6.32-0.223-31.546,12.265-20.661
		C537.016,275.563,529.926,295.919,531.189,307.073"/>
</g>
<g opacity="0.5">
	<path fill="#F5F5FF" d="M897.362,303.729c0.996-18.71,9.953-33.446,43.313-31.669c33.36,1.776,97.746,19.428,96.749,38.141
		c-0.996,18.714-66.999,31.403-100.36,29.626C903.704,338.049,896.367,322.444,897.362,303.729z"/>
</g>
<g opacity="0.5">
	<path fill="#F5F5FF" d="M898.981,307.073c0.45,8.529-0.738,26.758-8.795,32.128c-15.569,10.377-16.384-11.241-7.772-20.347
		c-22.814,6.488-20.996-30.3,0.513-31.012c-12.614-6.32-0.223-31.546,12.266-20.661
		C904.809,275.563,897.718,295.919,898.981,307.073"/>
</g>
<g opacity="0.5">
	<path fill="#F5F5FF" d="M1270.969,306.459c0.996-18.711,9.953-33.448,43.313-31.671c33.359,1.776,97.746,19.429,96.749,38.142
		s-66.999,31.402-100.36,29.626C1277.311,340.777,1269.973,325.173,1270.969,306.459z"/>
</g>
<g opacity="0.5">
	<path fill="#F5F5FF" d="M1272.588,309.804c0.45,8.528-0.738,26.756-8.795,32.126c-15.57,10.378-16.385-11.241-7.773-20.347
		c-22.814,6.489-20.996-30.3,0.514-31.012c-12.615-6.32-0.223-31.544,12.265-20.66
		C1278.414,278.292,1271.324,298.648,1272.588,309.804"/>
</g>
<g opacity="0.5">
	<path fill="#F5F5FF" d="M170.141,306.458c0.996-18.71,9.953-33.446,43.313-31.669c33.36,1.776,97.746,19.428,96.749,38.141
		c-0.996,18.714-66.999,31.403-100.36,29.626C176.482,340.778,169.146,325.174,170.141,306.458z"/>
</g>
<g opacity="0.5">
	<path fill="#F5F5FF" d="M175.922,309.803c0.45,8.529-0.738,26.758-8.795,32.128c-15.569,10.377-16.384-11.241-7.773-20.347
		c-22.814,6.488-20.996-30.3,0.514-31.012c-12.615-6.32-0.223-31.546,12.265-20.661
		C181.748,278.293,174.658,298.648,175.922,309.803"/>
</g>
<g>
	<path fill-rule="evenodd" clip-rule="evenodd" fill="#F5F5FF" d="M194.852,204.153c-0.489-12.668,12.62-9.988,26.452-9.988
		c9.979,0,20.524-1.836,24.293,3.239c0.882,1.188,2.269,5.266,1.62,6.479c-0.481,0.899-2.269,0.568-3.239,1.08
		c-0.517,0.272-1.83,1.447-2.159,2.159c-0.744,1.61,0.195,7.263-2.97,8.908c-3.18,1.652-13.872,0.54-18.084,0.54
		c-5.766,0-16.987,1.304-19.165-2.159c-1.375-2.187-0.612-5.337-1.35-7.019C199.343,205.322,198.388,204.982,194.852,204.153z"/>
	<path fill-rule="evenodd" clip-rule="evenodd" fill="#F5F5FF" d="M193.772,206.582c6.925-0.988,5.128,8.745,5.128,16.196
		c0,7.359,1.521,16.929-5.938,14.035c-2.513-0.973-3.967-4.336-4.318-8.906C187.908,218.349,187.368,207.495,193.772,206.582z"/>
	<path fill-rule="evenodd" clip-rule="evenodd" fill="#F5F5FF" d="M246.137,206.582c3.881-0.96,6.714,1.688,7.288,5.668
		c1.297,8.997,0.514,24.901-5.938,25.104c-5.855,0.184-4.319-7.656-4.319-14.846C243.168,215.584,241.506,207.727,246.137,206.582z"
		/>
	<path fill-rule="evenodd" clip-rule="evenodd" fill="#F5F5FF" d="M203.76,218.998c4.682-1.209,11.864-0.27,19.164-0.27
		c2.524,0,15.739-0.969,17.545,1.08c0.774,0.877,1.187,4.214,0.27,5.668c-1.922,3.047-14.05,1.62-19.435,1.62
		c-3.476,0-7.147,0-10.527,0c-3.399,0-7.926,0.314-9.177-1.08C199.453,223.623,200.845,219.75,203.76,218.998z"/>
	<path fill-rule="evenodd" clip-rule="evenodd" fill="#F5F5FF" d="M204.029,229.254c4.833-1.102,11.222-0.27,18.895-0.27
		c3.084,0,15.622-1.025,17.545,1.08c1.422,1.559,0.877,5.48-0.27,6.479c-2.318,2.016-15.274,0.811-19.435,0.811
		c-2.693,0-6.917,0-10.257,0c-3.016,0-7.627,0.367-8.907-1.082C199.325,233.701,200.924,229.963,204.029,229.254z"/>
	<g>
	</g>
</g>
<g>
	<path fill-rule="evenodd" clip-rule="evenodd" fill="#F5F5FF" d="M561.217,206.757c-0.489-12.668,12.62-9.988,26.452-9.988
		c9.979,0,20.524-1.836,24.293,3.24c0.882,1.188,2.269,5.266,1.62,6.479c-0.481,0.898-2.269,0.567-3.239,1.079
		c-0.517,0.272-1.83,1.446-2.159,2.159c-0.744,1.609,0.195,7.264-2.97,8.908c-3.18,1.652-13.872,0.539-18.084,0.539
		c-5.766,0-16.987,1.305-19.165-2.158c-1.375-2.188-0.612-5.338-1.35-7.02C565.708,207.927,564.752,207.587,561.217,206.757z"/>
	<path fill-rule="evenodd" clip-rule="evenodd" fill="#F5F5FF" d="M560.137,209.187c6.925-0.988,5.128,8.744,5.128,16.195
		c0,7.359,1.521,16.93-5.938,14.035c-2.513-0.973-3.967-4.336-4.318-8.906C554.272,220.954,553.733,210.1,560.137,209.187z"/>
	<path fill-rule="evenodd" clip-rule="evenodd" fill="#F5F5FF" d="M612.502,209.187c3.881-0.961,6.714,1.688,7.288,5.668
		c1.297,8.996,0.514,24.9-5.938,25.104c-5.855,0.184-4.319-7.656-4.319-14.846C609.533,218.188,607.871,210.331,612.502,209.187z"/>
	<path fill-rule="evenodd" clip-rule="evenodd" fill="#F5F5FF" d="M570.125,221.603c4.682-1.209,11.864-0.27,19.164-0.27
		c2.524,0,15.739-0.969,17.545,1.08c0.774,0.877,1.187,4.213,0.27,5.668c-1.922,3.047-14.05,1.619-19.435,1.619
		c-3.476,0-7.147,0-10.527,0c-3.399,0-7.926,0.314-9.177-1.08C565.818,226.228,567.21,222.354,570.125,221.603z"/>
	<path fill-rule="evenodd" clip-rule="evenodd" fill="#F5F5FF" d="M570.394,231.858c4.833-1.102,11.222-0.27,18.895-0.27
		c3.084,0,15.622-1.025,17.545,1.08c1.422,1.559,0.877,5.48-0.27,6.479c-2.318,2.016-15.274,0.811-19.435,0.811
		c-2.693,0-6.917,0-10.257,0c-3.016,0-7.627,0.367-8.907-1.082C565.69,236.306,567.289,232.567,570.394,231.858z"/>
	<g>
	</g>
</g>
<g>
	<path fill-rule="evenodd" clip-rule="evenodd" fill="#F5F5FF" d="M927.397,202.85c-0.488-12.668,12.619-9.988,26.452-9.988
		c9.979,0,20.524-1.836,24.293,3.24c0.882,1.188,2.269,5.266,1.62,6.479c-0.482,0.898-2.27,0.567-3.239,1.079
		c-0.517,0.272-1.83,1.446-2.159,2.159c-0.744,1.609,0.195,7.264-2.97,8.908c-3.18,1.652-13.872,0.539-18.085,0.539
		c-5.766,0-16.986,1.305-19.164-2.158c-1.375-2.188-0.612-5.338-1.35-7.02C931.889,204.02,930.933,203.68,927.397,202.85z"/>
	<path fill-rule="evenodd" clip-rule="evenodd" fill="#F5F5FF" d="M926.317,205.279c6.926-0.988,5.129,8.744,5.129,16.195
		c0,7.359,1.521,16.93-5.938,14.035c-2.513-0.973-3.967-4.336-4.318-8.906C920.453,217.047,919.913,206.192,926.317,205.279z"/>
	<path fill-rule="evenodd" clip-rule="evenodd" fill="#F5F5FF" d="M978.683,205.279c3.881-0.961,6.714,1.688,7.288,5.668
		c1.297,8.996,0.514,24.9-5.938,25.104c-5.855,0.184-4.318-7.656-4.318-14.846C975.714,214.281,974.052,206.424,978.683,205.279z"/>
	<path fill-rule="evenodd" clip-rule="evenodd" fill="#F5F5FF" d="M936.306,217.695c4.682-1.209,11.863-0.27,19.164-0.27
		c2.523,0,15.738-0.969,17.545,1.08c0.773,0.877,1.187,4.213,0.27,5.668c-1.922,3.047-14.051,1.619-19.435,1.619
		c-3.476,0-7.147,0-10.526,0c-3.4,0-7.926,0.314-9.178-1.08C931.999,222.32,933.391,218.447,936.306,217.695z"/>
	<path fill-rule="evenodd" clip-rule="evenodd" fill="#F5F5FF" d="M936.575,227.951c4.832-1.102,11.222-0.27,18.895-0.27
		c3.084,0,15.621-1.025,17.545,1.08c1.422,1.559,0.877,5.48-0.27,6.479c-2.318,2.016-15.274,0.811-19.436,0.811
		c-2.693,0-6.916,0-10.257,0c-3.016,0-7.628,0.367-8.907-1.082C931.87,232.398,933.47,228.66,936.575,227.951z"/>
	<g>
	</g>
</g>
<g>
	<path fill-rule="evenodd" clip-rule="evenodd" fill="#F5F5FF" d="M1293.763,205.454c-0.489-12.668,12.619-9.988,26.451-9.988
		c9.979,0,20.525-1.836,24.293,3.24c0.883,1.188,2.27,5.266,1.62,6.479c-0.481,0.898-2.269,0.567-3.239,1.079
		c-0.516,0.272-1.83,1.446-2.158,2.159c-0.744,1.609,0.195,7.264-2.971,8.908c-3.18,1.652-13.871,0.539-18.084,0.539
		c-5.766,0-16.986,1.305-19.164-2.158c-1.375-2.188-0.613-5.338-1.35-7.02C1298.253,206.624,1297.298,206.284,1293.763,205.454z"/>
	<path fill-rule="evenodd" clip-rule="evenodd" fill="#F5F5FF" d="M1292.683,207.884c6.925-0.988,5.129,8.744,5.129,16.195
		c0,7.359,1.521,16.93-5.939,14.035c-2.512-0.973-3.967-4.336-4.318-8.906C1286.817,219.651,1286.278,208.797,1292.683,207.884z"/>
	<path fill-rule="evenodd" clip-rule="evenodd" fill="#F5F5FF" d="M1345.048,207.884c3.881-0.961,6.713,1.688,7.287,5.668
		c1.297,8.996,0.514,24.9-5.938,25.104c-5.855,0.184-4.319-7.656-4.319-14.846C1342.078,216.886,1340.417,209.028,1345.048,207.884z
		"/>
	<path fill-rule="evenodd" clip-rule="evenodd" fill="#F5F5FF" d="M1302.67,220.3c4.682-1.209,11.864-0.27,19.164-0.27
		c2.524,0,15.739-0.969,17.545,1.08c0.774,0.877,1.187,4.213,0.271,5.668c-1.922,3.047-14.051,1.619-19.436,1.619
		c-3.476,0-7.146,0-10.526,0c-3.399,0-7.926,0.314-9.177-1.08C1298.363,224.925,1299.755,221.052,1302.67,220.3z"/>
	<path fill-rule="evenodd" clip-rule="evenodd" fill="#F5F5FF" d="M1302.939,230.556c4.833-1.102,11.222-0.27,18.895-0.27
		c3.084,0,15.622-1.025,17.545,1.08c1.423,1.559,0.878,5.48-0.27,6.479c-2.317,2.016-15.274,0.811-19.435,0.811
		c-2.693,0-6.916,0-10.258,0c-3.016,0-7.627,0.367-8.906-1.082C1298.235,235.003,1299.835,231.265,1302.939,230.556z"/>
	<g>
	</g>
</g>
<g opacity="0.5">
	<path fill-rule="evenodd" clip-rule="evenodd" fill="#F5F5FF" d="M390.236,114.207c-0.346-8.965,8.931-7.069,18.72-7.069
		c7.062,0,14.524-1.299,17.191,2.294c0.624,0.841,1.605,3.727,1.146,4.584c-0.34,0.636-1.605,0.402-2.292,0.764
		c-0.365,0.193-1.295,1.024-1.527,1.529c-0.527,1.138,0.138,5.14-2.102,6.303c-2.25,1.169-9.817,0.383-12.798,0.383
		c-4.081,0-12.021,0.923-13.562-1.528c-0.973-1.548-0.433-3.777-0.955-4.968C393.414,115.035,392.738,114.793,390.236,114.207z"/>
	<path fill-rule="evenodd" clip-rule="evenodd" fill="#F5F5FF" d="M389.471,115.925c4.901-0.699,3.63,6.188,3.63,11.462
		c0,5.208,1.076,11.98-4.203,9.933c-1.778-0.688-2.807-3.069-3.056-6.304C385.321,124.252,384.939,116.572,389.471,115.925z"/>
	<path fill-rule="evenodd" clip-rule="evenodd" fill="#F5F5FF" d="M426.529,115.925c2.747-0.68,4.751,1.195,5.157,4.012
		c0.918,6.366,0.364,17.621-4.202,17.765c-4.144,0.131-3.057-5.418-3.057-10.506C424.428,122.296,423.252,116.735,426.529,115.925z"
		/>
	<path fill-rule="evenodd" clip-rule="evenodd" fill="#F5F5FF" d="M396.54,124.712c3.313-0.855,8.396-0.191,13.562-0.191
		c1.786,0,11.138-0.685,12.416,0.765c0.548,0.621,0.84,2.981,0.191,4.012c-1.36,2.156-9.943,1.146-13.753,1.146
		c-2.46,0-5.058,0-7.45,0c-2.405,0-5.608,0.223-6.494-0.764C393.491,127.986,394.477,125.245,396.54,124.712z"/>
	<path fill-rule="evenodd" clip-rule="evenodd" fill="#F5F5FF" d="M396.73,131.97c3.42-0.779,7.942-0.191,13.372-0.191
		c2.183,0,11.056-0.725,12.416,0.766c1.006,1.103,0.621,3.878-0.19,4.584c-1.64,1.427-10.809,0.573-13.753,0.573
		c-1.906,0-4.895,0-7.259,0c-2.134,0-5.398,0.261-6.304-0.765C393.401,135.117,394.533,132.472,396.73,131.97z"/>
	<g>
	</g>
</g>
<g opacity="0.5">
	<path fill-rule="evenodd" clip-rule="evenodd" fill="#F5F5FF" d="M736.057,116.049c-0.346-8.965,8.931-7.068,18.719-7.068
		c7.062,0,14.525-1.3,17.192,2.293c0.624,0.841,1.605,3.727,1.146,4.584c-0.341,0.637-1.605,0.402-2.293,0.764
		c-0.365,0.193-1.294,1.023-1.528,1.528c-0.526,1.14,0.138,5.141-2.102,6.306c-2.25,1.169-9.817,0.381-12.798,0.381
		c-4.08,0-12.021,0.924-13.562-1.527c-0.973-1.549-0.434-3.778-0.955-4.968C739.235,116.877,738.559,116.636,736.057,116.049z"/>
	<path fill-rule="evenodd" clip-rule="evenodd" fill="#F5F5FF" d="M735.292,117.77c4.901-0.701,3.63,6.187,3.63,11.461
		c0,5.207,1.076,11.979-4.203,9.932c-1.778-0.688-2.807-3.068-3.056-6.303C731.142,126.097,730.76,118.416,735.292,117.77z"/>
	<path fill-rule="evenodd" clip-rule="evenodd" fill="#F5F5FF" d="M772.35,117.77c2.747-0.682,4.751,1.193,5.157,4.01
		c0.918,6.366,0.364,17.621-4.201,17.766c-4.144,0.13-3.057-5.418-3.057-10.506C770.25,124.139,769.073,118.579,772.35,117.77z"/>
	<path fill-rule="evenodd" clip-rule="evenodd" fill="#F5F5FF" d="M742.36,126.555c3.313-0.855,8.396-0.189,13.562-0.189
		c1.787,0,11.138-0.687,12.417,0.764c0.548,0.62,0.84,2.98,0.191,4.012c-1.36,2.156-9.943,1.145-13.753,1.145
		c-2.46,0-5.059,0-7.45,0c-2.406,0-5.609,0.223-6.494-0.764C739.312,129.829,740.297,127.087,742.36,126.555z"/>
	<path fill-rule="evenodd" clip-rule="evenodd" fill="#F5F5FF" d="M742.551,133.813c3.42-0.779,7.941-0.19,13.371-0.19
		c2.183,0,11.056-0.726,12.417,0.765c1.006,1.103,0.621,3.878-0.19,4.584c-1.641,1.427-10.81,0.574-13.754,0.574
		c-1.906,0-4.895,0-7.259,0c-2.134,0-5.398,0.259-6.303-0.766C739.222,136.961,740.354,134.315,742.551,133.813z"/>
	<g>
	</g>
</g>
<g opacity="0.5">
	<path fill-rule="evenodd" clip-rule="evenodd" fill="#F5F5FF" d="M1111.272,113.284c-0.346-8.965,8.931-7.067,18.721-7.067
		c7.062,0,14.524-1.3,17.191,2.292c0.623,0.841,1.605,3.727,1.146,4.586c-0.342,0.636-1.606,0.4-2.293,0.763
		c-0.365,0.193-1.295,1.024-1.527,1.528c-0.526,1.14,0.139,5.14-2.102,6.305c-2.25,1.169-9.818,0.381-12.799,0.381
		c-4.08,0-12.021,0.924-13.562-1.527c-0.972-1.549-0.433-3.777-0.955-4.968C1114.451,114.113,1113.774,113.872,1111.272,113.284z"/>
	<path fill-rule="evenodd" clip-rule="evenodd" fill="#F5F5FF" d="M1110.509,115.004c4.9-0.699,3.629,6.188,3.629,11.461
		c0,5.208,1.077,11.98-4.203,9.932c-1.777-0.688-2.807-3.068-3.055-6.303C1106.358,123.332,1105.976,115.65,1110.509,115.004z"/>
	<path fill-rule="evenodd" clip-rule="evenodd" fill="#F5F5FF" d="M1147.566,115.004c2.746-0.68,4.751,1.193,5.157,4.01
		c0.918,6.367,0.364,17.622-4.202,17.766c-4.144,0.131-3.056-5.417-3.056-10.506C1145.466,121.375,1144.29,115.813,1147.566,115.004
		z"/>
	<path fill-rule="evenodd" clip-rule="evenodd" fill="#F5F5FF" d="M1117.577,123.79c3.313-0.854,8.396-0.189,13.562-0.189
		c1.785,0,11.138-0.686,12.416,0.764c0.547,0.621,0.839,2.98,0.19,4.012c-1.36,2.156-9.944,1.145-13.753,1.145
		c-2.46,0-5.059,0-7.449,0c-2.407,0-5.609,0.224-6.496-0.764C1114.529,127.063,1115.515,124.323,1117.577,123.79z"/>
	<path fill-rule="evenodd" clip-rule="evenodd" fill="#F5F5FF" d="M1117.769,131.048c3.419-0.78,7.941-0.19,13.371-0.19
		c2.182,0,11.054-0.726,12.416,0.764c1.006,1.103,0.621,3.879-0.19,4.584c-1.641,1.428-10.811,0.574-13.755,0.574
		c-1.906,0-4.895,0-7.258,0c-2.135,0-5.399,0.261-6.305-0.765C1114.438,134.196,1115.57,131.55,1117.769,131.048z"/>
	<g>
	</g>
</g>
<g opacity="0.5">
	<path fill-rule="evenodd" clip-rule="evenodd" fill="#F5F5FF" d="M1483.189,115.127c-0.347-8.965,8.931-7.068,18.719-7.068
		c7.062,0,14.524-1.3,17.191,2.293c0.625,0.841,1.606,3.727,1.146,4.585c-0.34,0.635-1.605,0.401-2.293,0.764
		c-0.364,0.192-1.295,1.023-1.526,1.528c-0.527,1.139,0.138,5.14-2.103,6.304c-2.25,1.17-9.816,0.382-12.797,0.382
		c-4.081,0-12.021,0.923-13.562-1.528c-0.974-1.548-0.434-3.777-0.955-4.968C1486.366,115.956,1485.69,115.714,1483.189,115.127z"/>
	<path fill-rule="evenodd" clip-rule="evenodd" fill="#F5F5FF" d="M1482.424,116.847c4.901-0.7,3.631,6.188,3.631,11.461
		c0,5.208,1.076,11.981-4.203,9.933c-1.778-0.688-2.808-3.069-3.057-6.304C1478.273,125.175,1477.893,117.493,1482.424,116.847z"/>
	<path fill-rule="evenodd" clip-rule="evenodd" fill="#F5F5FF" d="M1519.482,116.847c2.747-0.681,4.751,1.194,5.157,4.011
		c0.918,6.366,0.363,17.621-4.202,17.765c-4.144,0.131-3.057-5.417-3.057-10.506
		C1517.381,123.217,1516.205,117.658,1519.482,116.847z"/>
	<path fill-rule="evenodd" clip-rule="evenodd" fill="#F5F5FF" d="M1489.492,125.633c3.313-0.855,8.396-0.19,13.562-0.19
		c1.786,0,11.138-0.686,12.416,0.764c0.548,0.622,0.839,2.982,0.191,4.012c-1.359,2.156-9.943,1.146-13.754,1.146
		c-2.46,0-5.058,0-7.449,0c-2.406,0-5.609,0.222-6.494-0.765C1486.444,128.907,1487.43,126.166,1489.492,125.633z"/>
	<path fill-rule="evenodd" clip-rule="evenodd" fill="#F5F5FF" d="M1489.684,132.891c3.419-0.779,7.941-0.189,13.371-0.189
		c2.183,0,11.055-0.727,12.416,0.764c1.008,1.104,0.621,3.879-0.19,4.585c-1.641,1.426-10.811,0.572-13.753,0.572
		c-1.907,0-4.896,0-7.26,0c-2.135,0-5.398,0.261-6.303-0.765C1486.354,136.04,1487.485,133.393,1489.684,132.891z"/>
	<g>
	</g>
</g>
<g opacity="0.5">
	<path fill-rule="evenodd" clip-rule="evenodd" fill="#F5F5FF" d="M45.878,117.041c-0.346-8.965,8.931-7.07,18.72-7.07
		c7.062,0,14.524-1.299,17.191,2.295c0.624,0.84,1.605,3.727,1.146,4.584c-0.34,0.635-1.605,0.402-2.292,0.764
		c-0.365,0.193-1.295,1.023-1.527,1.529c-0.527,1.137,0.138,5.139-2.102,6.303c-2.25,1.168-9.817,0.383-12.798,0.383
		c-4.081,0-12.021,0.922-13.562-1.529c-0.973-1.547-0.433-3.777-0.955-4.967C49.057,117.869,48.38,117.627,45.878,117.041z"/>
	<path fill-rule="evenodd" clip-rule="evenodd" fill="#F5F5FF" d="M45.114,118.76c4.901-0.699,3.63,6.188,3.63,11.461
		c0,5.209,1.076,11.98-4.203,9.934c-1.778-0.689-2.807-3.07-3.056-6.305C40.963,127.086,40.582,119.406,45.114,118.76z"/>
	<path fill-rule="evenodd" clip-rule="evenodd" fill="#F5F5FF" d="M82.172,118.76c2.747-0.68,4.751,1.195,5.157,4.012
		c0.918,6.365,0.364,17.621-4.202,17.764c-4.144,0.131-3.057-5.418-3.057-10.506C80.07,125.131,78.895,119.568,82.172,118.76z"/>
	<path fill-rule="evenodd" clip-rule="evenodd" fill="#F5F5FF" d="M52.182,127.547c3.313-0.855,8.396-0.191,13.562-0.191
		c1.786,0,11.138-0.686,12.416,0.764c0.548,0.621,0.84,2.982,0.191,4.012c-1.36,2.156-9.943,1.146-13.753,1.146
		c-2.46,0-5.058,0-7.45,0c-2.405,0-5.608,0.223-6.494-0.764C49.134,130.82,50.12,128.078,52.182,127.547z"/>
	<path fill-rule="evenodd" clip-rule="evenodd" fill="#F5F5FF" d="M52.373,134.805c3.42-0.779,7.942-0.191,13.372-0.191
		c2.183,0,11.056-0.725,12.416,0.766c1.006,1.102,0.621,3.877-0.19,4.584c-1.64,1.426-10.809,0.572-13.753,0.572
		c-1.906,0-4.895,0-7.259,0c-2.134,0-5.398,0.262-6.304-0.764C49.044,137.951,50.176,135.307,52.373,134.805z"/>
	<g>
	</g>
</g>
<g opacity="0.5">
	<path fill-rule="evenodd" clip-rule="evenodd" fill="#F5F5FF" d="M413.373,299.501c-0.346-8.965,8.931-7.07,18.72-7.07
		c7.062,0,14.524-1.299,17.191,2.295c0.624,0.84,1.605,3.727,1.146,4.584c-0.34,0.635-1.605,0.402-2.292,0.764
		c-0.365,0.193-1.295,1.023-1.527,1.529c-0.527,1.137,0.138,5.139-2.102,6.303c-2.25,1.168-9.817,0.383-12.798,0.383
		c-4.081,0-12.021,0.922-13.562-1.529c-0.973-1.547-0.433-3.777-0.955-4.967C416.551,300.329,415.875,300.087,413.373,299.501z"/>
	<path fill-rule="evenodd" clip-rule="evenodd" fill="#F5F5FF" d="M412.608,301.22c4.901-0.699,3.63,6.188,3.63,11.461
		c0,5.209,1.076,11.98-4.203,9.934c-1.778-0.689-2.807-3.07-3.056-6.305C408.458,309.546,408.077,301.866,412.608,301.22z"/>
	<path fill-rule="evenodd" clip-rule="evenodd" fill="#F5F5FF" d="M449.667,301.22c2.747-0.68,4.751,1.195,5.157,4.012
		c0.918,6.365,0.364,17.621-4.202,17.764c-4.144,0.131-3.057-5.418-3.057-10.506C447.565,307.591,446.39,302.028,449.667,301.22z"/>
	<path fill-rule="evenodd" clip-rule="evenodd" fill="#F5F5FF" d="M419.677,310.007c3.313-0.855,8.396-0.191,13.562-0.191
		c1.786,0,11.138-0.686,12.416,0.764c0.548,0.621,0.84,2.982,0.191,4.012c-1.36,2.156-9.943,1.146-13.753,1.146
		c-2.46,0-5.058,0-7.45,0c-2.405,0-5.608,0.223-6.494-0.764C416.628,313.28,417.614,310.538,419.677,310.007z"/>
	<path fill-rule="evenodd" clip-rule="evenodd" fill="#F5F5FF" d="M419.867,317.265c3.42-0.779,7.942-0.191,13.372-0.191
		c2.183,0,11.056-0.725,12.416,0.766c1.006,1.102,0.621,3.877-0.19,4.584c-1.64,1.426-10.809,0.572-13.753,0.572
		c-1.906,0-4.895,0-7.259,0c-2.134,0-5.398,0.262-6.304-0.764C416.539,320.411,417.67,317.767,419.867,317.265z"/>
	<g>
	</g>
</g>
<g opacity="0.5">
	<path fill-rule="evenodd" clip-rule="evenodd" fill="#F5F5FF" d="M759.194,301.343c-0.346-8.965,8.931-7.068,18.719-7.068
		c7.063,0,14.525-1.299,17.192,2.293c0.624,0.842,1.605,3.727,1.146,4.584c-0.341,0.637-1.605,0.402-2.293,0.764
		c-0.365,0.193-1.295,1.023-1.527,1.529c-0.527,1.139,0.138,5.141-2.102,6.305c-2.25,1.17-9.817,0.381-12.798,0.381
		c-4.08,0-12.021,0.924-13.562-1.527c-0.973-1.549-0.434-3.777-0.955-4.967C762.373,302.171,761.696,301.931,759.194,301.343z"/>
	<path fill-rule="evenodd" clip-rule="evenodd" fill="#F5F5FF" d="M758.43,303.063c4.901-0.701,3.63,6.188,3.63,11.461
		c0,5.207,1.076,11.98-4.203,9.932c-1.778-0.688-2.807-3.068-3.056-6.303C754.279,311.392,753.897,303.71,758.43,303.063z"/>
	<path fill-rule="evenodd" clip-rule="evenodd" fill="#F5F5FF" d="M795.487,303.063c2.747-0.682,4.751,1.193,5.157,4.01
		c0.918,6.367,0.364,17.621-4.201,17.766c-4.145,0.131-3.057-5.418-3.057-10.506C793.387,309.433,792.21,303.872,795.487,303.063z"
		/>
	<path fill-rule="evenodd" clip-rule="evenodd" fill="#F5F5FF" d="M765.498,311.849c3.313-0.855,8.396-0.189,13.562-0.189
		c1.787,0,11.138-0.686,12.417,0.764c0.547,0.621,0.84,2.98,0.19,4.012c-1.36,2.156-9.943,1.145-13.753,1.145
		c-2.46,0-5.059,0-7.45,0c-2.406,0-5.609,0.223-6.494-0.764C762.45,315.122,763.435,312.382,765.498,311.849z"/>
	<path fill-rule="evenodd" clip-rule="evenodd" fill="#F5F5FF" d="M765.688,319.106c3.42-0.779,7.941-0.189,13.371-0.189
		c2.183,0,11.056-0.727,12.417,0.764c1.006,1.104,0.62,3.879-0.191,4.584c-1.641,1.428-10.809,0.574-13.753,0.574
		c-1.906,0-4.895,0-7.259,0c-2.134,0-5.398,0.26-6.303-0.766C762.359,322.255,763.491,319.608,765.688,319.106z"/>
	<g>
	</g>
</g>
<g opacity="0.5">
	<path fill-rule="evenodd" clip-rule="evenodd" fill="#F5F5FF" d="M1134.41,298.577c-0.346-8.965,8.93-7.066,18.721-7.066
		c7.061,0,14.523-1.301,17.191,2.291c0.623,0.842,1.605,3.727,1.146,4.586c-0.342,0.637-1.607,0.4-2.293,0.764
		c-0.365,0.193-1.295,1.023-1.527,1.527c-0.527,1.141,0.139,5.141-2.102,6.305c-2.25,1.17-9.818,0.381-12.799,0.381
		c-4.08,0-12.021,0.924-13.562-1.527c-0.973-1.549-0.434-3.777-0.955-4.967C1137.588,299.407,1136.912,299.165,1134.41,298.577z"/>
	<path fill-rule="evenodd" clip-rule="evenodd" fill="#F5F5FF" d="M1133.646,300.298c4.9-0.699,3.629,6.188,3.629,11.461
		c0,5.209,1.076,11.98-4.203,9.932c-1.777-0.688-2.807-3.068-3.055-6.303C1129.496,308.626,1129.113,300.944,1133.646,300.298z"/>
	<path fill-rule="evenodd" clip-rule="evenodd" fill="#F5F5FF" d="M1170.703,300.298c2.746-0.68,4.752,1.193,5.158,4.01
		c0.918,6.367,0.363,17.623-4.203,17.766c-4.143,0.131-3.055-5.416-3.055-10.506
		C1168.604,306.669,1167.428,301.106,1170.703,300.298z"/>
	<path fill-rule="evenodd" clip-rule="evenodd" fill="#F5F5FF" d="M1140.715,309.083c3.312-0.854,8.395-0.189,13.562-0.189
		c1.785,0,11.137-0.686,12.416,0.764c0.547,0.621,0.838,2.98,0.189,4.012c-1.359,2.156-9.943,1.145-13.752,1.145
		c-2.461,0-5.059,0-7.449,0c-2.408,0-5.609,0.225-6.496-0.764C1137.666,312.356,1138.652,309.616,1140.715,309.083z"/>
	<path fill-rule="evenodd" clip-rule="evenodd" fill="#F5F5FF" d="M1140.906,316.343c3.418-0.781,7.941-0.191,13.371-0.191
		c2.182,0,11.053-0.725,12.416,0.764c1.006,1.104,0.621,3.879-0.191,4.584c-1.641,1.428-10.811,0.574-13.754,0.574
		c-1.906,0-4.895,0-7.258,0c-2.135,0-5.4,0.262-6.305-0.764C1137.574,319.489,1138.707,316.845,1140.906,316.343z"/>
	<g>
	</g>
</g>
<g opacity="0.5">
	<path fill-rule="evenodd" clip-rule="evenodd" fill="#F5F5FF" d="M1506.326,300.421c-0.346-8.965,8.932-7.068,18.719-7.068
		c7.062,0,14.525-1.299,17.191,2.293c0.625,0.842,1.607,3.727,1.146,4.586c-0.34,0.635-1.605,0.4-2.293,0.764
		c-0.363,0.191-1.295,1.023-1.525,1.527c-0.527,1.139,0.137,5.141-2.104,6.305c-2.25,1.17-9.816,0.381-12.797,0.381
		c-4.08,0-12.021,0.924-13.562-1.527c-0.973-1.549-0.434-3.777-0.955-4.969C1509.504,301.249,1508.828,301.009,1506.326,300.421z"/>
	<path fill-rule="evenodd" clip-rule="evenodd" fill="#F5F5FF" d="M1505.561,302.142c4.902-0.701,3.631,6.188,3.631,11.461
		c0,5.207,1.076,11.98-4.203,9.932c-1.777-0.688-2.807-3.068-3.057-6.303C1501.41,310.47,1501.029,302.786,1505.561,302.142z"/>
	<path fill-rule="evenodd" clip-rule="evenodd" fill="#F5F5FF" d="M1542.619,302.142c2.748-0.682,4.752,1.193,5.158,4.01
		c0.918,6.367,0.363,17.621-4.203,17.766c-4.143,0.131-3.057-5.418-3.057-10.506
		C1540.518,308.511,1539.342,302.952,1542.619,302.142z"/>
	<path fill-rule="evenodd" clip-rule="evenodd" fill="#F5F5FF" d="M1512.629,310.927c3.314-0.855,8.396-0.189,13.562-0.189
		c1.787,0,11.139-0.686,12.416,0.764c0.549,0.621,0.84,2.982,0.191,4.012c-1.359,2.156-9.943,1.146-13.754,1.146
		c-2.459,0-5.057,0-7.449,0c-2.406,0-5.609,0.221-6.494-0.766C1509.582,314.2,1510.566,311.46,1512.629,310.927z"/>
	<path fill-rule="evenodd" clip-rule="evenodd" fill="#F5F5FF" d="M1512.82,318.185c3.42-0.779,7.941-0.189,13.371-0.189
		c2.184,0,11.055-0.727,12.416,0.764c1.008,1.104,0.621,3.879-0.189,4.586c-1.641,1.426-10.811,0.572-13.754,0.572
		c-1.906,0-4.895,0-7.26,0c-2.135,0-5.398,0.26-6.303-0.766C1509.49,321.333,1510.623,318.687,1512.82,318.185z"/>
	<g>
	</g>
</g>
<g opacity="0.5">
	<path fill-rule="evenodd" clip-rule="evenodd" fill="#F5F5FF" d="M69.016,302.335c-0.346-8.965,8.931-7.07,18.72-7.07
		c7.062,0,14.524-1.299,17.191,2.295c0.624,0.84,1.605,3.727,1.146,4.584c-0.34,0.635-1.605,0.402-2.292,0.764
		c-0.365,0.193-1.295,1.023-1.527,1.529c-0.527,1.137,0.138,5.139-2.102,6.303c-2.25,1.168-9.817,0.383-12.798,0.383
		c-4.081,0-12.021,0.922-13.562-1.529c-0.973-1.547-0.433-3.777-0.955-4.967C72.194,303.163,71.518,302.921,69.016,302.335z"/>
	<path fill-rule="evenodd" clip-rule="evenodd" fill="#F5F5FF" d="M68.251,304.054c4.901-0.699,3.63,6.188,3.63,11.461
		c0,5.209,1.076,11.98-4.203,9.934c-1.778-0.689-2.807-3.07-3.056-6.305C64.101,312.38,63.719,304.7,68.251,304.054z"/>
	<path fill-rule="evenodd" clip-rule="evenodd" fill="#F5F5FF" d="M105.309,304.054c2.747-0.68,4.751,1.195,5.157,4.012
		c0.918,6.365,0.364,17.621-4.202,17.764c-4.144,0.131-3.057-5.418-3.057-10.506C103.208,310.425,102.032,304.862,105.309,304.054z"
		/>
	<path fill-rule="evenodd" clip-rule="evenodd" fill="#F5F5FF" d="M75.319,312.841c3.313-0.855,8.396-0.191,13.562-0.191
		c1.786,0,11.138-0.686,12.416,0.764c0.548,0.621,0.84,2.982,0.191,4.012c-1.36,2.156-9.943,1.146-13.753,1.146
		c-2.46,0-5.058,0-7.45,0c-2.405,0-5.608,0.223-6.494-0.764C72.271,316.114,73.257,313.372,75.319,312.841z"/>
	<path fill-rule="evenodd" clip-rule="evenodd" fill="#F5F5FF" d="M75.51,320.099c3.42-0.779,7.942-0.191,13.372-0.191
		c2.183,0,11.056-0.725,12.416,0.766c1.006,1.102,0.621,3.877-0.19,4.584c-1.64,1.426-10.809,0.572-13.753,0.572
		c-1.906,0-4.895,0-7.259,0c-2.134,0-5.398,0.262-6.304-0.764C72.181,323.245,73.313,320.601,75.51,320.099z"/>
	<g>
	</g>
</g>
</svg>
