<?xml version="1.0" encoding="utf-8"?>
<!-- Generator: Adobe Illustrator 15.1.0, SVG Export Plug-In . SVG Version: 6.00 Build 0)  -->
<!DOCTYPE svg PUBLIC "-//W3C//DTD SVG 1.1//EN" "http://www.w3.org/Graphics/SVG/1.1/DTD/svg11.dtd">
<svg version="1.1" id="Layer_1" xmlns="http://www.w3.org/2000/svg" xmlns:xlink="http://www.w3.org/1999/xlink" x="0px" y="0px"
	 width="1899px" height="590px" viewBox="0 0 1899 590" enable-background="new 0 0 1899 590" xml:space="preserve">
<g>
	<path fill="#F5F5FF" d="M324.354,592.74C238.723,752.184-5.721,1022.036-95.172,974c-89.426-48.033,10.006-395.766,95.644-555.206
		c85.633-159.443,179.058-159.438,268.474-111.413C358.389,355.422,409.988,433.299,324.354,592.74z"/>
</g>
<g>
	<path fill="#F5F5FF" d="M279.872,324.287c-48.076-37.237-162.267-61.684-174.001-129.784
		c-15.261-88.432,136.383-74.83,130.139,1.356c63.813-97.579,239.248-2.497,145.015,84.868
		c66.383-14.243,164.175,50.35,72.325,93.236C405.821,396.146,318.102,350.362,279.872,324.287"/>
</g>
<g>
	<path fill="#F5F5FF" d="M1955.753,363.236c50.955,173.662,66.326,537.442-31.1,566.033
		c-97.403,28.574-270.718-288.863-321.666-462.528c-50.953-173.663,15.583-239.247,112.974-267.82
		C1813.383,170.339,1904.803,189.574,1955.753,363.236z"/>
</g>
<g>
	<path fill="#F5F5FF" d="M1735.61,203.289c-60.378,7.234-158.859,69.991-215.025,29.731
		c-72.951-52.262,44.589-149.035,93.628-90.396c-23.06-114.29,168.626-169.741,162.852-41.37
		c37.274-56.746,152.263-79.401,116.961,15.622C1875.753,166.041,1781.141,195.02,1735.61,203.289"/>
</g>
</svg>
