<?xml version="1.0" encoding="utf-8"?>
<!-- Generator: Adobe Illustrator 15.1.0, SVG Export Plug-In . SVG Version: 6.00 Build 0)  -->
<!DOCTYPE svg PUBLIC "-//W3C//DTD SVG 1.1//EN" "http://www.w3.org/Graphics/SVG/1.1/DTD/svg11.dtd">
<svg version="1.1" id="Layer_1" xmlns="http://www.w3.org/2000/svg" xmlns:xlink="http://www.w3.org/1999/xlink" x="0px" y="0px"
	 width="1152px" height="2993px" viewBox="0 0 1152 2993" enable-background="new 0 0 1152 2993" xml:space="preserve">
<symbol  id="New_Symbol" viewBox="-21.037 -38.699 42.075 77.399">
	<g>
		<path fill="#FAAF42" d="M17.937,9.755c4.165-14.889,5.083-45.978-3.269-48.314C6.316-40.895-8.145-13.593-12.308,1.295
			c-4.165,14.89,1.591,20.42,9.94,22.755C5.984,26.387,13.772,24.644,17.937,9.755z"/>
	</g>
	<g>
		<path fill="#E8A126" d="M15.449,10.468c-1.404-1.909-3.117-3.588-5.072-4.984C8.43,4.073,6.203,3.008,3.869,2.329
			C1.525,1.678-0.895,1.41-3.269,1.457c-2.377,0.034-4.714,0.316-7.028,0.831c2.34,0.384,4.664,0.575,6.938,0.853
			c2.272,0.292,4.5,0.634,6.637,1.266c2.15,0.585,4.205,1.464,6.215,2.507C11.5,7.966,13.438,9.215,15.449,10.468z"/>
	</g>
	<g>
		<path fill="#E8A126" d="M16.409-6.081c-0.958-1.489-2.192-2.794-3.629-3.866c-1.427-1.088-3.09-1.918-4.842-2.413
			c-1.753-0.499-3.57-0.672-5.335-0.594c-1.768,0.066-3.496,0.337-5.2,0.834c1.731,0.401,3.445,0.604,5.11,0.85
			c1.666,0.259,3.278,0.543,4.834,0.987c1.559,0.434,3.056,1.042,4.55,1.765C13.388-7.785,14.839-6.918,16.409-6.081z"/>
	</g>
	<g>
		<path fill="#E8A126" d="M17.904-20.691c-0.642-1.197-1.54-2.23-2.61-3.076c-1.062-0.861-2.329-1.512-3.666-1.891
			c-1.339-0.381-2.727-0.496-4.062-0.395c-1.338,0.088-2.635,0.35-3.909,0.836c1.301,0.412,2.583,0.623,3.819,0.848
			c1.236,0.236,2.419,0.463,3.561,0.789c1.145,0.316,2.246,0.744,3.374,1.24C15.536-21.832,16.65-21.236,17.904-20.691z"/>
	</g>
	<path fill="#E8A126" d="M17.791,9.714C13.625,24.603,5.819,25.91-2.513,24.009c10.237,0.958,17.929-1.295,21.407-25.858
		C22.797-29.418,14.522-38.6,14.522-38.6C22.874-36.264,21.955-5.173,17.791,9.714"/>
	<g>
		<path fill="#8CC541" d="M-0.694,23.655c-5.166-0.551-13.646-5.806-18.4-2.307c-6.174,4.543,3.97,12.682,8.096,7.62
			c-1.845,9.788,14.588,14.316,13.955,3.357c3.246,4.806,13.092,6.617,9.974-1.461C11.316,26.686,3.204,24.312-0.694,23.655"/>
	</g>
	<path fill="#86B640" d="M13.124,30.919c3.119,8.077-6.728,6.268-9.973,1.461c0,0,8.792,6.048,9.349,0.93s-13-9.601-13-9.601
		C3.398,24.367,11.511,26.74,13.124,30.919"/>
</symbol>
<g>
	
		<use xlink:href="#New_Symbol"  width="42.075" height="77.399" x="-21.037" y="-38.699" transform="matrix(1 0 0 -1 1168.6113 27.5078)" overflow="visible"/>
	
		<use xlink:href="#New_Symbol"  width="42.075" height="77.399" x="-21.037" y="-38.699" transform="matrix(1 0 0 -1 858.8213 23.4155)" overflow="visible"/>
	
		<use xlink:href="#New_Symbol"  width="42.075" height="77.399" x="-21.037" y="-38.699" transform="matrix(1 0 0 -1 616.5801 29.3301)" overflow="visible"/>
	
		<use xlink:href="#New_Symbol"  width="42.075" height="77.399" x="-21.037" y="-38.699" transform="matrix(1 0 0 -1 338.0767 41.1079)" overflow="visible"/>
	
		<use xlink:href="#New_Symbol"  width="42.075" height="77.399" x="-21.037" y="-38.699" transform="matrix(1 0 0 -1 80.7061 30.0679)" overflow="visible"/>
	
		<use xlink:href="#New_Symbol"  width="42.075" height="77.399" x="-21.037" y="-38.699" transform="matrix(1 0 0 -1 -39.6479 28.6865)" overflow="visible"/>
	
		<use xlink:href="#New_Symbol"  width="42.075" height="77.399" x="-21.037" y="-38.699" transform="matrix(1 0 0 -1 -119.8774 28.8008)" overflow="visible"/>
	
		<use xlink:href="#New_Symbol"  width="42.075" height="77.399" x="-21.037" y="-38.699" transform="matrix(1 0 0 -1 -186.916 36.8589)" overflow="visible"/>
	
		<use xlink:href="#New_Symbol"  width="42.075" height="77.399" x="-21.037" y="-38.699" transform="matrix(1 0 0 -1 -80.7607 92.8672)" overflow="visible"/>
	
		<use xlink:href="#New_Symbol"  width="42.075" height="77.399" x="-21.037" y="-38.699" transform="matrix(1 0 0 -1 188.6074 106.0356)" overflow="visible"/>
	
		<use xlink:href="#New_Symbol"  width="42.075" height="77.399" x="-21.037" y="-38.699" transform="matrix(1 0 0 -1 452.1196 117.145)" overflow="visible"/>
	
		<use xlink:href="#New_Symbol"  width="42.075" height="77.399" x="-21.037" y="-38.699" transform="matrix(1 0 0 -1 796.1211 138.8262)" overflow="visible"/>
	
		<use xlink:href="#New_Symbol"  width="42.075" height="77.399" x="-21.037" y="-38.699" transform="matrix(1 0 0 -1 978.9551 138.0215)" overflow="visible"/>
	
		<use xlink:href="#New_Symbol"  width="42.075" height="77.399" x="-21.037" y="-38.699" transform="matrix(1 0 0 -1 1075.4453 141.8496)" overflow="visible"/>
	
		<use xlink:href="#New_Symbol"  width="42.075" height="77.399" x="-21.037" y="-38.699" transform="matrix(1 0 0 -1 1221.7725 151.6689)" overflow="visible"/>
	
		<use xlink:href="#New_Symbol"  width="42.075" height="77.399" x="-21.037" y="-38.699" transform="matrix(1 0 0 -1 1360.8496 163.0591)" overflow="visible"/>
	
		<use xlink:href="#New_Symbol"  width="42.075" height="77.399" x="-21.037" y="-38.699" transform="matrix(1 0 0 -1 1339.4209 207.4429)" overflow="visible"/>
	
		<use xlink:href="#New_Symbol"  width="42.075" height="77.399" x="-21.037" y="-38.699" transform="matrix(1 0 0 -1 1074.7314 251.3809)" overflow="visible"/>
	
		<use xlink:href="#New_Symbol"  width="42.075" height="77.399" x="-21.037" y="-38.699" transform="matrix(1 0 0 -1 858.1348 230.5312)" overflow="visible"/>
	
		<use xlink:href="#New_Symbol"  width="42.075" height="77.399" x="-21.037" y="-38.699" transform="matrix(1 0 0 -1 640.2158 220.52)" overflow="visible"/>
	
		<use xlink:href="#New_Symbol"  width="42.075" height="77.399" x="-21.037" y="-38.699" transform="matrix(1 0 0 -1 464.5059 230.5)" overflow="visible"/>
	
		<use xlink:href="#New_Symbol"  width="42.075" height="77.399" x="-21.037" y="-38.699" transform="matrix(1 0 0 -1 309.2817 230.1133)" overflow="visible"/>
	
		<use xlink:href="#New_Symbol"  width="42.075" height="77.399" x="-21.037" y="-38.699" transform="matrix(1 0 0 -1 165.6553 231.0498)" overflow="visible"/>
	
		<use xlink:href="#New_Symbol"  width="42.075" height="77.399" x="-21.037" y="-38.699" transform="matrix(1 0 0 -1 -38.9341 229.625)" overflow="visible"/>
	
		<use xlink:href="#New_Symbol"  width="42.075" height="77.399" x="-21.037" y="-38.699" transform="matrix(1 0 0 -1 -167.6084 239.4805)" overflow="visible"/>
	
		<use xlink:href="#New_Symbol"  width="42.075" height="77.399" x="-21.037" y="-38.699" transform="matrix(1 0 0 -1 -238.5928 298.6548)" overflow="visible"/>
	
		<use xlink:href="#New_Symbol"  width="42.075" height="77.399" x="-21.037" y="-38.699" transform="matrix(1 0 0 -1 186.3828 346.6914)" overflow="visible"/>
	
		<use xlink:href="#New_Symbol"  width="42.075" height="77.399" x="-21.037" y="-38.699" transform="matrix(1 0 0 -1 402.5728 346.2119)" overflow="visible"/>
	
		<use xlink:href="#New_Symbol"  width="42.075" height="77.399" x="-21.037" y="-38.699" transform="matrix(1 0 0 -1 684.3789 357.0928)" overflow="visible"/>
	
		<use xlink:href="#New_Symbol"  width="42.075" height="77.399" x="-21.037" y="-38.699" transform="matrix(1 0 0 -1 914.1582 381.689)" overflow="visible"/>
	
		<use xlink:href="#New_Symbol"  width="42.075" height="77.399" x="-21.037" y="-38.699" transform="matrix(1 0 0 -1 1074.1787 385.7642)" overflow="visible"/>
	
		<use xlink:href="#New_Symbol"  width="42.075" height="77.399" x="-21.037" y="-38.699" transform="matrix(1 0 0 -1 1268.915 391.5781)" overflow="visible"/>
	
		<use xlink:href="#New_Symbol"  width="42.075" height="77.399" x="-21.037" y="-38.699" transform="matrix(1 0 0 -1 1417.1387 393.4253)" overflow="visible"/>
</g>
<g>
	
		<use xlink:href="#New_Symbol"  width="42.075" height="77.399" x="-21.037" y="-38.699" transform="matrix(1 0 0 -1 1113.4746 456.9458)" overflow="visible"/>
	
		<use xlink:href="#New_Symbol"  width="42.075" height="77.399" x="-21.037" y="-38.699" transform="matrix(1 0 0 -1 803.6846 452.8535)" overflow="visible"/>
	
		<use xlink:href="#New_Symbol"  width="42.075" height="77.399" x="-21.037" y="-38.699" transform="matrix(1 0 0 -1 561.4434 458.7676)" overflow="visible"/>
	
		<use xlink:href="#New_Symbol"  width="42.075" height="77.399" x="-21.037" y="-38.699" transform="matrix(1 0 0 -1 282.9399 470.5459)" overflow="visible"/>
	
		<use xlink:href="#New_Symbol"  width="42.075" height="77.399" x="-21.037" y="-38.699" transform="matrix(1 0 0 -1 25.5693 459.5054)" overflow="visible"/>
	
		<use xlink:href="#New_Symbol"  width="42.075" height="77.399" x="-21.037" y="-38.699" transform="matrix(1 0 0 -1 -94.7847 458.124)" overflow="visible"/>
	
		<use xlink:href="#New_Symbol"  width="42.075" height="77.399" x="-21.037" y="-38.699" transform="matrix(1 0 0 -1 -175.0142 458.2383)" overflow="visible"/>
	
		<use xlink:href="#New_Symbol"  width="42.075" height="77.399" x="-21.037" y="-38.699" transform="matrix(1 0 0 -1 -242.0527 466.2969)" overflow="visible"/>
	
		<use xlink:href="#New_Symbol"  width="42.075" height="77.399" x="-21.037" y="-38.699" transform="matrix(1 0 0 -1 -135.8975 522.3052)" overflow="visible"/>
	
		<use xlink:href="#New_Symbol"  width="42.075" height="77.399" x="-21.037" y="-38.699" transform="matrix(1 0 0 -1 133.4707 535.4731)" overflow="visible"/>
	
		<use xlink:href="#New_Symbol"  width="42.075" height="77.399" x="-21.037" y="-38.699" transform="matrix(1 0 0 -1 396.9829 546.583)" overflow="visible"/>
	
		<use xlink:href="#New_Symbol"  width="42.075" height="77.399" x="-21.037" y="-38.699" transform="matrix(1 0 0 -1 740.9844 568.2642)" overflow="visible"/>
	
		<use xlink:href="#New_Symbol"  width="42.075" height="77.399" x="-21.037" y="-38.699" transform="matrix(1 0 0 -1 923.8184 567.459)" overflow="visible"/>
	
		<use xlink:href="#New_Symbol"  width="42.075" height="77.399" x="-21.037" y="-38.699" transform="matrix(1 0 0 -1 1020.3086 571.2876)" overflow="visible"/>
	
		<use xlink:href="#New_Symbol"  width="42.075" height="77.399" x="-21.037" y="-38.699" transform="matrix(1 0 0 -1 1166.6357 581.1069)" overflow="visible"/>
	
		<use xlink:href="#New_Symbol"  width="42.075" height="77.399" x="-21.037" y="-38.699" transform="matrix(1 0 0 -1 1305.7129 592.4971)" overflow="visible"/>
	
		<use xlink:href="#New_Symbol"  width="42.075" height="77.399" x="-21.037" y="-38.699" transform="matrix(1 0 0 -1 1284.2842 636.8809)" overflow="visible"/>
	
		<use xlink:href="#New_Symbol"  width="42.075" height="77.399" x="-21.037" y="-38.699" transform="matrix(1 0 0 -1 1019.5947 680.8184)" overflow="visible"/>
	
		<use xlink:href="#New_Symbol"  width="42.075" height="77.399" x="-21.037" y="-38.699" transform="matrix(1 0 0 -1 802.998 659.9688)" overflow="visible"/>
	
		<use xlink:href="#New_Symbol"  width="42.075" height="77.399" x="-21.037" y="-38.699" transform="matrix(1 0 0 -1 585.0791 649.958)" overflow="visible"/>
	
		<use xlink:href="#New_Symbol"  width="42.075" height="77.399" x="-21.037" y="-38.699" transform="matrix(1 0 0 -1 409.3691 659.9375)" overflow="visible"/>
	
		<use xlink:href="#New_Symbol"  width="42.075" height="77.399" x="-21.037" y="-38.699" transform="matrix(1 0 0 -1 254.145 659.5508)" overflow="visible"/>
	
		<use xlink:href="#New_Symbol"  width="42.075" height="77.399" x="-21.037" y="-38.699" transform="matrix(1 0 0 -1 110.5186 660.4878)" overflow="visible"/>
	
		<use xlink:href="#New_Symbol"  width="42.075" height="77.399" x="-21.037" y="-38.699" transform="matrix(1 0 0 -1 -94.0708 659.063)" overflow="visible"/>
	
		<use xlink:href="#New_Symbol"  width="42.075" height="77.399" x="-21.037" y="-38.699" transform="matrix(1 0 0 -1 -222.7451 668.9185)" overflow="visible"/>
	
		<use xlink:href="#New_Symbol"  width="42.075" height="77.399" x="-21.037" y="-38.699" transform="matrix(1 0 0 -1 -293.7295 728.0928)" overflow="visible"/>
	
		<use xlink:href="#New_Symbol"  width="42.075" height="77.399" x="-21.037" y="-38.699" transform="matrix(1 0 0 -1 131.2461 776.1294)" overflow="visible"/>
	
		<use xlink:href="#New_Symbol"  width="42.075" height="77.399" x="-21.037" y="-38.699" transform="matrix(1 0 0 -1 347.436 775.6494)" overflow="visible"/>
	
		<use xlink:href="#New_Symbol"  width="42.075" height="77.399" x="-21.037" y="-38.699" transform="matrix(1 0 0 -1 629.2422 786.5308)" overflow="visible"/>
	
		<use xlink:href="#New_Symbol"  width="42.075" height="77.399" x="-21.037" y="-38.699" transform="matrix(1 0 0 -1 859.0215 811.127)" overflow="visible"/>
	
		<use xlink:href="#New_Symbol"  width="42.075" height="77.399" x="-21.037" y="-38.699" transform="matrix(1 0 0 -1 1019.042 815.2021)" overflow="visible"/>
	
		<use xlink:href="#New_Symbol"  width="42.075" height="77.399" x="-21.037" y="-38.699" transform="matrix(1 0 0 -1 1213.7783 821.0156)" overflow="visible"/>
	
		<use xlink:href="#New_Symbol"  width="42.075" height="77.399" x="-21.037" y="-38.699" transform="matrix(1 0 0 -1 1362.002 822.8633)" overflow="visible"/>
</g>
<g>
	
		<use xlink:href="#New_Symbol"  width="42.075" height="77.399" x="-21.037" y="-38.699" transform="matrix(1 0 0 -1 1082.4102 895.3687)" overflow="visible"/>
	
		<use xlink:href="#New_Symbol"  width="42.075" height="77.399" x="-21.037" y="-38.699" transform="matrix(1 0 0 -1 772.6201 891.2764)" overflow="visible"/>
	
		<use xlink:href="#New_Symbol"  width="42.075" height="77.399" x="-21.037" y="-38.699" transform="matrix(1 0 0 -1 530.3789 897.1909)" overflow="visible"/>
	
		<use xlink:href="#New_Symbol"  width="42.075" height="77.399" x="-21.037" y="-38.699" transform="matrix(1 0 0 -1 251.8755 908.9688)" overflow="visible"/>
	
		<use xlink:href="#New_Symbol"  width="42.075" height="77.399" x="-21.037" y="-38.699" transform="matrix(1 0 0 -1 -5.4951 897.9287)" overflow="visible"/>
	
		<use xlink:href="#New_Symbol"  width="42.075" height="77.399" x="-21.037" y="-38.699" transform="matrix(1 0 0 -1 -125.8491 896.5474)" overflow="visible"/>
	
		<use xlink:href="#New_Symbol"  width="42.075" height="77.399" x="-21.037" y="-38.699" transform="matrix(1 0 0 -1 -206.0786 896.6616)" overflow="visible"/>
	
		<use xlink:href="#New_Symbol"  width="42.075" height="77.399" x="-21.037" y="-38.699" transform="matrix(1 0 0 -1 -273.1172 904.7197)" overflow="visible"/>
	
		<use xlink:href="#New_Symbol"  width="42.075" height="77.399" x="-21.037" y="-38.699" transform="matrix(1 0 0 -1 -166.9619 960.728)" overflow="visible"/>
	
		<use xlink:href="#New_Symbol"  width="42.075" height="77.399" x="-21.037" y="-38.699" transform="matrix(1 0 0 -1 102.4062 973.8965)" overflow="visible"/>
	
		<use xlink:href="#New_Symbol"  width="42.075" height="77.399" x="-21.037" y="-38.699" transform="matrix(1 0 0 -1 365.9185 985.0059)" overflow="visible"/>
	
		<use xlink:href="#New_Symbol"  width="42.075" height="77.399" x="-21.037" y="-38.699" transform="matrix(1 0 0 -1 709.9199 1006.6875)" overflow="visible"/>
	
		<use xlink:href="#New_Symbol"  width="42.075" height="77.399" x="-21.037" y="-38.699" transform="matrix(1 0 0 -1 892.7539 1005.8823)" overflow="visible"/>
	
		<use xlink:href="#New_Symbol"  width="42.075" height="77.399" x="-21.037" y="-38.699" transform="matrix(1 0 0 -1 989.2441 1009.7104)" overflow="visible"/>
	
		<use xlink:href="#New_Symbol"  width="42.075" height="77.399" x="-21.037" y="-38.699" transform="matrix(1 0 0 -1 1135.5713 1019.5298)" overflow="visible"/>
	
		<use xlink:href="#New_Symbol"  width="42.075" height="77.399" x="-21.037" y="-38.699" transform="matrix(1 0 0 -1 1274.6484 1030.9199)" overflow="visible"/>
	
		<use xlink:href="#New_Symbol"  width="42.075" height="77.399" x="-21.037" y="-38.699" transform="matrix(1 0 0 -1 1253.2197 1075.3037)" overflow="visible"/>
	
		<use xlink:href="#New_Symbol"  width="42.075" height="77.399" x="-21.037" y="-38.699" transform="matrix(1 0 0 -1 988.5303 1119.2412)" overflow="visible"/>
	
		<use xlink:href="#New_Symbol"  width="42.075" height="77.399" x="-21.037" y="-38.699" transform="matrix(1 0 0 -1 771.9336 1098.3916)" overflow="visible"/>
	
		<use xlink:href="#New_Symbol"  width="42.075" height="77.399" x="-21.037" y="-38.699" transform="matrix(1 0 0 -1 554.0146 1088.3809)" overflow="visible"/>
	
		<use xlink:href="#New_Symbol"  width="42.075" height="77.399" x="-21.037" y="-38.699" transform="matrix(1 0 0 -1 378.3047 1098.3608)" overflow="visible"/>
	
		<use xlink:href="#New_Symbol"  width="42.075" height="77.399" x="-21.037" y="-38.699" transform="matrix(1 0 0 -1 223.0806 1097.9741)" overflow="visible"/>
	
		<use xlink:href="#New_Symbol"  width="42.075" height="77.399" x="-21.037" y="-38.699" transform="matrix(1 0 0 -1 79.4541 1098.9111)" overflow="visible"/>
	
		<use xlink:href="#New_Symbol"  width="42.075" height="77.399" x="-21.037" y="-38.699" transform="matrix(1 0 0 -1 -125.1353 1097.4863)" overflow="visible"/>
	
		<use xlink:href="#New_Symbol"  width="42.075" height="77.399" x="-21.037" y="-38.699" transform="matrix(1 0 0 -1 -253.8096 1107.3413)" overflow="visible"/>
	
		<use xlink:href="#New_Symbol"  width="42.075" height="77.399" x="-21.037" y="-38.699" transform="matrix(1 0 0 -1 -324.7939 1166.5156)" overflow="visible"/>
	
		<use xlink:href="#New_Symbol"  width="42.075" height="77.399" x="-21.037" y="-38.699" transform="matrix(1 0 0 -1 100.1816 1214.5522)" overflow="visible"/>
	
		<use xlink:href="#New_Symbol"  width="42.075" height="77.399" x="-21.037" y="-38.699" transform="matrix(1 0 0 -1 316.3716 1214.0728)" overflow="visible"/>
	
		<use xlink:href="#New_Symbol"  width="42.075" height="77.399" x="-21.037" y="-38.699" transform="matrix(1 0 0 -1 598.1777 1224.9536)" overflow="visible"/>
	
		<use xlink:href="#New_Symbol"  width="42.075" height="77.399" x="-21.037" y="-38.699" transform="matrix(1 0 0 -1 827.957 1249.5498)" overflow="visible"/>
	
		<use xlink:href="#New_Symbol"  width="42.075" height="77.399" x="-21.037" y="-38.699" transform="matrix(1 0 0 -1 987.9775 1253.625)" overflow="visible"/>
	
		<use xlink:href="#New_Symbol"  width="42.075" height="77.399" x="-21.037" y="-38.699" transform="matrix(1 0 0 -1 1182.7139 1259.439)" overflow="visible"/>
	
		<use xlink:href="#New_Symbol"  width="42.075" height="77.399" x="-21.037" y="-38.699" transform="matrix(1 0 0 -1 1330.9375 1261.2861)" overflow="visible"/>
</g>
<g>
	
		<use xlink:href="#New_Symbol"  width="42.075" height="77.399" x="-21.037" y="-38.699" transform="matrix(1 0 0 -1 1027.2734 1324.8062)" overflow="visible"/>
	
		<use xlink:href="#New_Symbol"  width="42.075" height="77.399" x="-21.037" y="-38.699" transform="matrix(1 0 0 -1 717.4834 1320.7139)" overflow="visible"/>
	
		<use xlink:href="#New_Symbol"  width="42.075" height="77.399" x="-21.037" y="-38.699" transform="matrix(1 0 0 -1 475.2422 1326.6279)" overflow="visible"/>
	
		<use xlink:href="#New_Symbol"  width="42.075" height="77.399" x="-21.037" y="-38.699" transform="matrix(1 0 0 -1 196.7388 1338.4062)" overflow="visible"/>
	
		<use xlink:href="#New_Symbol"  width="42.075" height="77.399" x="-21.037" y="-38.699" transform="matrix(1 0 0 -1 -60.6318 1327.3657)" overflow="visible"/>
	
		<use xlink:href="#New_Symbol"  width="42.075" height="77.399" x="-21.037" y="-38.699" transform="matrix(1 0 0 -1 -180.9858 1325.9844)" overflow="visible"/>
	
		<use xlink:href="#New_Symbol"  width="42.075" height="77.399" x="-21.037" y="-38.699" transform="matrix(1 0 0 -1 -261.2153 1326.0986)" overflow="visible"/>
	
		<use xlink:href="#New_Symbol"  width="42.075" height="77.399" x="-21.037" y="-38.699" transform="matrix(1 0 0 -1 -328.2539 1334.1572)" overflow="visible"/>
	
		<use xlink:href="#New_Symbol"  width="42.075" height="77.399" x="-21.037" y="-38.699" transform="matrix(1 0 0 -1 -222.0986 1390.1655)" overflow="visible"/>
	
		<use xlink:href="#New_Symbol"  width="42.075" height="77.399" x="-21.037" y="-38.699" transform="matrix(1 0 0 -1 47.2695 1403.334)" overflow="visible"/>
	
		<use xlink:href="#New_Symbol"  width="42.075" height="77.399" x="-21.037" y="-38.699" transform="matrix(1 0 0 -1 310.7817 1414.4434)" overflow="visible"/>
	
		<use xlink:href="#New_Symbol"  width="42.075" height="77.399" x="-21.037" y="-38.699" transform="matrix(1 0 0 -1 654.7832 1436.1245)" overflow="visible"/>
	
		<use xlink:href="#New_Symbol"  width="42.075" height="77.399" x="-21.037" y="-38.699" transform="matrix(1 0 0 -1 837.6172 1435.3193)" overflow="visible"/>
	
		<use xlink:href="#New_Symbol"  width="42.075" height="77.399" x="-21.037" y="-38.699" transform="matrix(1 0 0 -1 934.1074 1439.1479)" overflow="visible"/>
	
		<use xlink:href="#New_Symbol"  width="42.075" height="77.399" x="-21.037" y="-38.699" transform="matrix(1 0 0 -1 1080.4346 1448.9673)" overflow="visible"/>
	
		<use xlink:href="#New_Symbol"  width="42.075" height="77.399" x="-21.037" y="-38.699" transform="matrix(1 0 0 -1 1219.5117 1460.3574)" overflow="visible"/>
	
		<use xlink:href="#New_Symbol"  width="42.075" height="77.399" x="-21.037" y="-38.699" transform="matrix(1 0 0 -1 1198.083 1504.7412)" overflow="visible"/>
	
		<use xlink:href="#New_Symbol"  width="42.075" height="77.399" x="-21.037" y="-38.699" transform="matrix(1 0 0 -1 933.3936 1548.6787)" overflow="visible"/>
	
		<use xlink:href="#New_Symbol"  width="42.075" height="77.399" x="-21.037" y="-38.699" transform="matrix(1 0 0 -1 716.7969 1527.8291)" overflow="visible"/>
	
		<use xlink:href="#New_Symbol"  width="42.075" height="77.399" x="-21.037" y="-38.699" transform="matrix(1 0 0 -1 498.8779 1517.8184)" overflow="visible"/>
	
		<use xlink:href="#New_Symbol"  width="42.075" height="77.399" x="-21.037" y="-38.699" transform="matrix(1 0 0 -1 323.168 1527.7979)" overflow="visible"/>
	
		<use xlink:href="#New_Symbol"  width="42.075" height="77.399" x="-21.037" y="-38.699" transform="matrix(1 0 0 -1 167.9438 1527.4111)" overflow="visible"/>
	
		<use xlink:href="#New_Symbol"  width="42.075" height="77.399" x="-21.037" y="-38.699" transform="matrix(1 0 0 -1 24.3174 1528.3486)" overflow="visible"/>
	
		<use xlink:href="#New_Symbol"  width="42.075" height="77.399" x="-21.037" y="-38.699" transform="matrix(1 0 0 -1 -180.272 1526.9238)" overflow="visible"/>
	
		<use xlink:href="#New_Symbol"  width="42.075" height="77.399" x="-21.037" y="-38.699" transform="matrix(1 0 0 -1 -308.9463 1536.7793)" overflow="visible"/>
	
		<use xlink:href="#New_Symbol"  width="42.075" height="77.399" x="-21.037" y="-38.699" transform="matrix(1 0 0 -1 -379.9307 1595.9531)" overflow="visible"/>
	
		<use xlink:href="#New_Symbol"  width="42.075" height="77.399" x="-21.037" y="-38.699" transform="matrix(1 0 0 -1 45.0449 1643.9902)" overflow="visible"/>
	
		<use xlink:href="#New_Symbol"  width="42.075" height="77.399" x="-21.037" y="-38.699" transform="matrix(1 0 0 -1 261.2349 1643.5098)" overflow="visible"/>
	
		<use xlink:href="#New_Symbol"  width="42.075" height="77.399" x="-21.037" y="-38.699" transform="matrix(1 0 0 -1 543.041 1654.3906)" overflow="visible"/>
	
		<use xlink:href="#New_Symbol"  width="42.075" height="77.399" x="-21.037" y="-38.699" transform="matrix(1 0 0 -1 772.8203 1678.9873)" overflow="visible"/>
	
		<use xlink:href="#New_Symbol"  width="42.075" height="77.399" x="-21.037" y="-38.699" transform="matrix(1 0 0 -1 932.8408 1683.0625)" overflow="visible"/>
	
		<use xlink:href="#New_Symbol"  width="42.075" height="77.399" x="-21.037" y="-38.699" transform="matrix(1 0 0 -1 1127.5771 1688.876)" overflow="visible"/>
	
		<use xlink:href="#New_Symbol"  width="42.075" height="77.399" x="-21.037" y="-38.699" transform="matrix(1 0 0 -1 1275.8008 1690.7236)" overflow="visible"/>
</g>
<g>
	
		<use xlink:href="#New_Symbol"  width="42.075" height="77.399" x="-21.037" y="-38.699" transform="matrix(1 0 0 -1 1011.7412 1781.2031)" overflow="visible"/>
	
		<use xlink:href="#New_Symbol"  width="42.075" height="77.399" x="-21.037" y="-38.699" transform="matrix(1 0 0 -1 701.9512 1777.1104)" overflow="visible"/>
	
		<use xlink:href="#New_Symbol"  width="42.075" height="77.399" x="-21.037" y="-38.699" transform="matrix(1 0 0 -1 459.71 1783.0254)" overflow="visible"/>
	
		<use xlink:href="#New_Symbol"  width="42.075" height="77.399" x="-21.037" y="-38.699" transform="matrix(1 0 0 -1 181.2065 1794.8027)" overflow="visible"/>
	
		<use xlink:href="#New_Symbol"  width="42.075" height="77.399" x="-21.037" y="-38.699" transform="matrix(1 0 0 -1 -76.1641 1783.7627)" overflow="visible"/>
	
		<use xlink:href="#New_Symbol"  width="42.075" height="77.399" x="-21.037" y="-38.699" transform="matrix(1 0 0 -1 -196.5181 1782.3818)" overflow="visible"/>
	
		<use xlink:href="#New_Symbol"  width="42.075" height="77.399" x="-21.037" y="-38.699" transform="matrix(1 0 0 -1 -276.7476 1782.4961)" overflow="visible"/>
	
		<use xlink:href="#New_Symbol"  width="42.075" height="77.399" x="-21.037" y="-38.699" transform="matrix(1 0 0 -1 -343.7861 1790.5537)" overflow="visible"/>
	
		<use xlink:href="#New_Symbol"  width="42.075" height="77.399" x="-21.037" y="-38.699" transform="matrix(1 0 0 -1 -237.6309 1846.5625)" overflow="visible"/>
	
		<use xlink:href="#New_Symbol"  width="42.075" height="77.399" x="-21.037" y="-38.699" transform="matrix(1 0 0 -1 31.7373 1859.7305)" overflow="visible"/>
	
		<use xlink:href="#New_Symbol"  width="42.075" height="77.399" x="-21.037" y="-38.699" transform="matrix(1 0 0 -1 295.2495 1870.8398)" overflow="visible"/>
	
		<use xlink:href="#New_Symbol"  width="42.075" height="77.399" x="-21.037" y="-38.699" transform="matrix(1 0 0 -1 639.251 1892.5215)" overflow="visible"/>
	
		<use xlink:href="#New_Symbol"  width="42.075" height="77.399" x="-21.037" y="-38.699" transform="matrix(1 0 0 -1 822.085 1891.7168)" overflow="visible"/>
	
		<use xlink:href="#New_Symbol"  width="42.075" height="77.399" x="-21.037" y="-38.699" transform="matrix(1 0 0 -1 918.5762 1895.5449)" overflow="visible"/>
	
		<use xlink:href="#New_Symbol"  width="42.075" height="77.399" x="-21.037" y="-38.699" transform="matrix(1 0 0 -1 1064.9023 1905.3643)" overflow="visible"/>
	
		<use xlink:href="#New_Symbol"  width="42.075" height="77.399" x="-21.037" y="-38.699" transform="matrix(1 0 0 -1 1203.9795 1916.7539)" overflow="visible"/>
	
		<use xlink:href="#New_Symbol"  width="42.075" height="77.399" x="-21.037" y="-38.699" transform="matrix(1 0 0 -1 1182.5508 1961.1387)" overflow="visible"/>
	
		<use xlink:href="#New_Symbol"  width="42.075" height="77.399" x="-21.037" y="-38.699" transform="matrix(1 0 0 -1 917.8613 2005.0762)" overflow="visible"/>
	
		<use xlink:href="#New_Symbol"  width="42.075" height="77.399" x="-21.037" y="-38.699" transform="matrix(1 0 0 -1 701.2646 1984.2266)" overflow="visible"/>
	
		<use xlink:href="#New_Symbol"  width="42.075" height="77.399" x="-21.037" y="-38.699" transform="matrix(1 0 0 -1 483.3457 1974.2148)" overflow="visible"/>
	
		<use xlink:href="#New_Symbol"  width="42.075" height="77.399" x="-21.037" y="-38.699" transform="matrix(1 0 0 -1 307.6357 1984.1953)" overflow="visible"/>
	
		<use xlink:href="#New_Symbol"  width="42.075" height="77.399" x="-21.037" y="-38.699" transform="matrix(1 0 0 -1 152.4116 1983.8086)" overflow="visible"/>
	
		<use xlink:href="#New_Symbol"  width="42.075" height="77.399" x="-21.037" y="-38.699" transform="matrix(1 0 0 -1 8.7852 1984.7451)" overflow="visible"/>
	
		<use xlink:href="#New_Symbol"  width="42.075" height="77.399" x="-21.037" y="-38.699" transform="matrix(1 0 0 -1 -195.8042 1983.3203)" overflow="visible"/>
	
		<use xlink:href="#New_Symbol"  width="42.075" height="77.399" x="-21.037" y="-38.699" transform="matrix(1 0 0 -1 -324.4785 1993.1758)" overflow="visible"/>
	
		<use xlink:href="#New_Symbol"  width="42.075" height="77.399" x="-21.037" y="-38.699" transform="matrix(1 0 0 -1 -395.4629 2052.3496)" overflow="visible"/>
	
		<use xlink:href="#New_Symbol"  width="42.075" height="77.399" x="-21.037" y="-38.699" transform="matrix(1 0 0 -1 29.5127 2100.3867)" overflow="visible"/>
	
		<use xlink:href="#New_Symbol"  width="42.075" height="77.399" x="-21.037" y="-38.699" transform="matrix(1 0 0 -1 245.7026 2099.9072)" overflow="visible"/>
	
		<use xlink:href="#New_Symbol"  width="42.075" height="77.399" x="-21.037" y="-38.699" transform="matrix(1 0 0 -1 527.5088 2110.7881)" overflow="visible"/>
	
		<use xlink:href="#New_Symbol"  width="42.075" height="77.399" x="-21.037" y="-38.699" transform="matrix(1 0 0 -1 757.2881 2135.3848)" overflow="visible"/>
	
		<use xlink:href="#New_Symbol"  width="42.075" height="77.399" x="-21.037" y="-38.699" transform="matrix(1 0 0 -1 917.3086 2139.459)" overflow="visible"/>
	
		<use xlink:href="#New_Symbol"  width="42.075" height="77.399" x="-21.037" y="-38.699" transform="matrix(1 0 0 -1 1112.0449 2145.2734)" overflow="visible"/>
	
		<use xlink:href="#New_Symbol"  width="42.075" height="77.399" x="-21.037" y="-38.699" transform="matrix(1 0 0 -1 1260.2695 2147.1211)" overflow="visible"/>
</g>
<g>
	
		<use xlink:href="#New_Symbol"  width="42.075" height="77.399" x="-21.037" y="-38.699" transform="matrix(1 0 0 -1 956.6045 2210.6426)" overflow="visible"/>
	
		<use xlink:href="#New_Symbol"  width="42.075" height="77.399" x="-21.037" y="-38.699" transform="matrix(1 0 0 -1 646.8145 2206.5508)" overflow="visible"/>
	
		<use xlink:href="#New_Symbol"  width="42.075" height="77.399" x="-21.037" y="-38.699" transform="matrix(1 0 0 -1 404.5732 2212.4648)" overflow="visible"/>
	
		<use xlink:href="#New_Symbol"  width="42.075" height="77.399" x="-21.037" y="-38.699" transform="matrix(1 0 0 -1 126.0698 2224.2422)" overflow="visible"/>
	
		<use xlink:href="#New_Symbol"  width="42.075" height="77.399" x="-21.037" y="-38.699" transform="matrix(1 0 0 -1 -131.3008 2213.2021)" overflow="visible"/>
	
		<use xlink:href="#New_Symbol"  width="42.075" height="77.399" x="-21.037" y="-38.699" transform="matrix(1 0 0 -1 -251.6548 2211.8213)" overflow="visible"/>
	
		<use xlink:href="#New_Symbol"  width="42.075" height="77.399" x="-21.037" y="-38.699" transform="matrix(1 0 0 -1 -331.8843 2211.9355)" overflow="visible"/>
	
		<use xlink:href="#New_Symbol"  width="42.075" height="77.399" x="-21.037" y="-38.699" transform="matrix(1 0 0 -1 -398.9229 2219.9941)" overflow="visible"/>
	
		<use xlink:href="#New_Symbol"  width="42.075" height="77.399" x="-21.037" y="-38.699" transform="matrix(1 0 0 -1 -292.7676 2276.002)" overflow="visible"/>
	
		<use xlink:href="#New_Symbol"  width="42.075" height="77.399" x="-21.037" y="-38.699" transform="matrix(1 0 0 -1 -23.3994 2289.1699)" overflow="visible"/>
	
		<use xlink:href="#New_Symbol"  width="42.075" height="77.399" x="-21.037" y="-38.699" transform="matrix(1 0 0 -1 240.1128 2300.2803)" overflow="visible"/>
	
		<use xlink:href="#New_Symbol"  width="42.075" height="77.399" x="-21.037" y="-38.699" transform="matrix(1 0 0 -1 584.1143 2321.9609)" overflow="visible"/>
	
		<use xlink:href="#New_Symbol"  width="42.075" height="77.399" x="-21.037" y="-38.699" transform="matrix(1 0 0 -1 766.9482 2321.1562)" overflow="visible"/>
	
		<use xlink:href="#New_Symbol"  width="42.075" height="77.399" x="-21.037" y="-38.699" transform="matrix(1 0 0 -1 863.4395 2324.9844)" overflow="visible"/>
	
		<use xlink:href="#New_Symbol"  width="42.075" height="77.399" x="-21.037" y="-38.699" transform="matrix(1 0 0 -1 1009.7656 2334.8037)" overflow="visible"/>
	
		<use xlink:href="#New_Symbol"  width="42.075" height="77.399" x="-21.037" y="-38.699" transform="matrix(1 0 0 -1 1148.8428 2346.1934)" overflow="visible"/>
	
		<use xlink:href="#New_Symbol"  width="42.075" height="77.399" x="-21.037" y="-38.699" transform="matrix(1 0 0 -1 1127.4141 2390.5781)" overflow="visible"/>
	
		<use xlink:href="#New_Symbol"  width="42.075" height="77.399" x="-21.037" y="-38.699" transform="matrix(1 0 0 -1 862.7246 2434.5156)" overflow="visible"/>
	
		<use xlink:href="#New_Symbol"  width="42.075" height="77.399" x="-21.037" y="-38.699" transform="matrix(1 0 0 -1 646.1279 2413.666)" overflow="visible"/>
	
		<use xlink:href="#New_Symbol"  width="42.075" height="77.399" x="-21.037" y="-38.699" transform="matrix(1 0 0 -1 428.209 2403.6543)" overflow="visible"/>
	
		<use xlink:href="#New_Symbol"  width="42.075" height="77.399" x="-21.037" y="-38.699" transform="matrix(1 0 0 -1 252.499 2413.6348)" overflow="visible"/>
	
		<use xlink:href="#New_Symbol"  width="42.075" height="77.399" x="-21.037" y="-38.699" transform="matrix(1 0 0 -1 97.2749 2413.248)" overflow="visible"/>
	
		<use xlink:href="#New_Symbol"  width="42.075" height="77.399" x="-21.037" y="-38.699" transform="matrix(1 0 0 -1 -46.3516 2414.1846)" overflow="visible"/>
	
		<use xlink:href="#New_Symbol"  width="42.075" height="77.399" x="-21.037" y="-38.699" transform="matrix(1 0 0 -1 -250.9409 2412.7598)" overflow="visible"/>
	
		<use xlink:href="#New_Symbol"  width="42.075" height="77.399" x="-21.037" y="-38.699" transform="matrix(1 0 0 -1 -379.6152 2422.6152)" overflow="visible"/>
	
		<use xlink:href="#New_Symbol"  width="42.075" height="77.399" x="-21.037" y="-38.699" transform="matrix(1 0 0 -1 -450.5996 2481.79)" overflow="visible"/>
	
		<use xlink:href="#New_Symbol"  width="42.075" height="77.399" x="-21.037" y="-38.699" transform="matrix(1 0 0 -1 -25.624 2529.8262)" overflow="visible"/>
	
		<use xlink:href="#New_Symbol"  width="42.075" height="77.399" x="-21.037" y="-38.699" transform="matrix(1 0 0 -1 190.5659 2529.3467)" overflow="visible"/>
	
		<use xlink:href="#New_Symbol"  width="42.075" height="77.399" x="-21.037" y="-38.699" transform="matrix(1 0 0 -1 472.3721 2540.2275)" overflow="visible"/>
	
		<use xlink:href="#New_Symbol"  width="42.075" height="77.399" x="-21.037" y="-38.699" transform="matrix(1 0 0 -1 702.1514 2564.8242)" overflow="visible"/>
	
		<use xlink:href="#New_Symbol"  width="42.075" height="77.399" x="-21.037" y="-38.699" transform="matrix(1 0 0 -1 862.1719 2568.8984)" overflow="visible"/>
	
		<use xlink:href="#New_Symbol"  width="42.075" height="77.399" x="-21.037" y="-38.699" transform="matrix(1 0 0 -1 1056.9082 2574.7129)" overflow="visible"/>
	
		<use xlink:href="#New_Symbol"  width="42.075" height="77.399" x="-21.037" y="-38.699" transform="matrix(1 0 0 -1 1205.1328 2576.5605)" overflow="visible"/>
</g>
<g>
	
		<use xlink:href="#New_Symbol"  width="42.075" height="77.399" x="-21.037" y="-38.699" transform="matrix(1 0 0 -1 925.54 2649.0645)" overflow="visible"/>
	
		<use xlink:href="#New_Symbol"  width="42.075" height="77.399" x="-21.037" y="-38.699" transform="matrix(1 0 0 -1 615.75 2644.9727)" overflow="visible"/>
	
		<use xlink:href="#New_Symbol"  width="42.075" height="77.399" x="-21.037" y="-38.699" transform="matrix(1 0 0 -1 373.5088 2650.8867)" overflow="visible"/>
	
		<use xlink:href="#New_Symbol"  width="42.075" height="77.399" x="-21.037" y="-38.699" transform="matrix(1 0 0 -1 95.0054 2662.6641)" overflow="visible"/>
	
		<use xlink:href="#New_Symbol"  width="42.075" height="77.399" x="-21.037" y="-38.699" transform="matrix(1 0 0 -1 -162.3652 2651.624)" overflow="visible"/>
	
		<use xlink:href="#New_Symbol"  width="42.075" height="77.399" x="-21.037" y="-38.699" transform="matrix(1 0 0 -1 -282.7192 2650.2432)" overflow="visible"/>
	
		<use xlink:href="#New_Symbol"  width="42.075" height="77.399" x="-21.037" y="-38.699" transform="matrix(1 0 0 -1 -362.9487 2650.3574)" overflow="visible"/>
	
		<use xlink:href="#New_Symbol"  width="42.075" height="77.399" x="-21.037" y="-38.699" transform="matrix(1 0 0 -1 -429.9873 2658.416)" overflow="visible"/>
	
		<use xlink:href="#New_Symbol"  width="42.075" height="77.399" x="-21.037" y="-38.699" transform="matrix(1 0 0 -1 -323.832 2714.4238)" overflow="visible"/>
	
		<use xlink:href="#New_Symbol"  width="42.075" height="77.399" x="-21.037" y="-38.699" transform="matrix(1 0 0 -1 -54.4639 2727.5918)" overflow="visible"/>
	
		<use xlink:href="#New_Symbol"  width="42.075" height="77.399" x="-21.037" y="-38.699" transform="matrix(1 0 0 -1 209.0483 2738.7021)" overflow="visible"/>
	
		<use xlink:href="#New_Symbol"  width="42.075" height="77.399" x="-21.037" y="-38.699" transform="matrix(1 0 0 -1 553.0498 2760.3828)" overflow="visible"/>
	
		<use xlink:href="#New_Symbol"  width="42.075" height="77.399" x="-21.037" y="-38.699" transform="matrix(1 0 0 -1 735.8838 2759.5781)" overflow="visible"/>
	
		<use xlink:href="#New_Symbol"  width="42.075" height="77.399" x="-21.037" y="-38.699" transform="matrix(1 0 0 -1 832.375 2763.4062)" overflow="visible"/>
	
		<use xlink:href="#New_Symbol"  width="42.075" height="77.399" x="-21.037" y="-38.699" transform="matrix(1 0 0 -1 978.7012 2773.2256)" overflow="visible"/>
	
		<use xlink:href="#New_Symbol"  width="42.075" height="77.399" x="-21.037" y="-38.699" transform="matrix(1 0 0 -1 1117.7783 2784.6152)" overflow="visible"/>
	
		<use xlink:href="#New_Symbol"  width="42.075" height="77.399" x="-21.037" y="-38.699" transform="matrix(1 0 0 -1 1096.3496 2829)" overflow="visible"/>
	
		<use xlink:href="#New_Symbol"  width="42.075" height="77.399" x="-21.037" y="-38.699" transform="matrix(1 0 0 -1 831.6602 2872.9375)" overflow="visible"/>
	
		<use xlink:href="#New_Symbol"  width="42.075" height="77.399" x="-21.037" y="-38.699" transform="matrix(1 0 0 -1 615.0635 2852.0879)" overflow="visible"/>
	
		<use xlink:href="#New_Symbol"  width="42.075" height="77.399" x="-21.037" y="-38.699" transform="matrix(1 0 0 -1 397.1445 2842.0762)" overflow="visible"/>
	
		<use xlink:href="#New_Symbol"  width="42.075" height="77.399" x="-21.037" y="-38.699" transform="matrix(1 0 0 -1 221.4346 2852.0566)" overflow="visible"/>
	
		<use xlink:href="#New_Symbol"  width="42.075" height="77.399" x="-21.037" y="-38.699" transform="matrix(1 0 0 -1 66.2104 2851.6699)" overflow="visible"/>
	
		<use xlink:href="#New_Symbol"  width="42.075" height="77.399" x="-21.037" y="-38.699" transform="matrix(1 0 0 -1 -77.416 2852.6064)" overflow="visible"/>
	
		<use xlink:href="#New_Symbol"  width="42.075" height="77.399" x="-21.037" y="-38.699" transform="matrix(1 0 0 -1 -282.0054 2851.1816)" overflow="visible"/>
	
		<use xlink:href="#New_Symbol"  width="42.075" height="77.399" x="-21.037" y="-38.699" transform="matrix(1 0 0 -1 -410.6797 2861.0371)" overflow="visible"/>
	
		<use xlink:href="#New_Symbol"  width="42.075" height="77.399" x="-21.037" y="-38.699" transform="matrix(1 0 0 -1 -481.6641 2920.2119)" overflow="visible"/>
	
		<use xlink:href="#New_Symbol"  width="42.075" height="77.399" x="-21.037" y="-38.699" transform="matrix(1 0 0 -1 -56.6885 2968.248)" overflow="visible"/>
	
		<use xlink:href="#New_Symbol"  width="42.075" height="77.399" x="-21.037" y="-38.699" transform="matrix(1 0 0 -1 159.5015 2967.7686)" overflow="visible"/>
	
		<use xlink:href="#New_Symbol"  width="42.075" height="77.399" x="-21.037" y="-38.699" transform="matrix(1 0 0 -1 441.3081 2978.6494)" overflow="visible"/>
	
		<use xlink:href="#New_Symbol"  width="42.075" height="77.399" x="-21.037" y="-38.699" transform="matrix(1 0 0 -1 671.0869 3003.2461)" overflow="visible"/>
	
		<use xlink:href="#New_Symbol"  width="42.075" height="77.399" x="-21.037" y="-38.699" transform="matrix(1 0 0 -1 831.1074 3007.3203)" overflow="visible"/>
	
		<use xlink:href="#New_Symbol"  width="42.075" height="77.399" x="-21.037" y="-38.699" transform="matrix(1 0 0 -1 1025.8438 3013.1348)" overflow="visible"/>
	
		<use xlink:href="#New_Symbol"  width="42.075" height="77.399" x="-21.037" y="-38.699" transform="matrix(1 0 0 -1 1174.0684 3014.9824)" overflow="visible"/>
</g>
<g>
	
		<use xlink:href="#New_Symbol"  width="42.075" height="77.399" x="-21.037" y="-38.699" transform="matrix(1 0 0 -1 870.4033 3078.5029)" overflow="visible"/>
	
		<use xlink:href="#New_Symbol"  width="42.075" height="77.399" x="-21.037" y="-38.699" transform="matrix(1 0 0 -1 560.6133 3074.4102)" overflow="visible"/>
	
		<use xlink:href="#New_Symbol"  width="42.075" height="77.399" x="-21.037" y="-38.699" transform="matrix(1 0 0 -1 318.3721 3080.3242)" overflow="visible"/>
	
		<use xlink:href="#New_Symbol"  width="42.075" height="77.399" x="-21.037" y="-38.699" transform="matrix(1 0 0 -1 39.8687 3092.1025)" overflow="visible"/>
	
		<use xlink:href="#New_Symbol"  width="42.075" height="77.399" x="-21.037" y="-38.699" transform="matrix(1 0 0 -1 -217.502 3081.0625)" overflow="visible"/>
	
		<use xlink:href="#New_Symbol"  width="42.075" height="77.399" x="-21.037" y="-38.699" transform="matrix(1 0 0 -1 -337.856 3079.6807)" overflow="visible"/>
	
		<use xlink:href="#New_Symbol"  width="42.075" height="77.399" x="-21.037" y="-38.699" transform="matrix(1 0 0 -1 -418.0854 3079.7949)" overflow="visible"/>
	
		<use xlink:href="#New_Symbol"  width="42.075" height="77.399" x="-21.037" y="-38.699" transform="matrix(1 0 0 -1 -485.124 3087.8535)" overflow="visible"/>
	
		<use xlink:href="#New_Symbol"  width="42.075" height="77.399" x="-21.037" y="-38.699" transform="matrix(1 0 0 -1 -378.9688 3143.8623)" overflow="visible"/>
	
		<use xlink:href="#New_Symbol"  width="42.075" height="77.399" x="-21.037" y="-38.699" transform="matrix(1 0 0 -1 -109.6006 3157.0303)" overflow="visible"/>
	
		<use xlink:href="#New_Symbol"  width="42.075" height="77.399" x="-21.037" y="-38.699" transform="matrix(1 0 0 -1 153.9116 3168.1396)" overflow="visible"/>
	
		<use xlink:href="#New_Symbol"  width="42.075" height="77.399" x="-21.037" y="-38.699" transform="matrix(1 0 0 -1 497.9131 3189.8213)" overflow="visible"/>
	
		<use xlink:href="#New_Symbol"  width="42.075" height="77.399" x="-21.037" y="-38.699" transform="matrix(1 0 0 -1 680.7471 3189.0156)" overflow="visible"/>
	
		<use xlink:href="#New_Symbol"  width="42.075" height="77.399" x="-21.037" y="-38.699" transform="matrix(1 0 0 -1 777.2383 3192.8438)" overflow="visible"/>
	
		<use xlink:href="#New_Symbol"  width="42.075" height="77.399" x="-21.037" y="-38.699" transform="matrix(1 0 0 -1 923.5645 3202.6641)" overflow="visible"/>
	
		<use xlink:href="#New_Symbol"  width="42.075" height="77.399" x="-21.037" y="-38.699" transform="matrix(1 0 0 -1 1062.6416 3214.0537)" overflow="visible"/>
	
		<use xlink:href="#New_Symbol"  width="42.075" height="77.399" x="-21.037" y="-38.699" transform="matrix(1 0 0 -1 1041.2129 3258.4375)" overflow="visible"/>
	
		<use xlink:href="#New_Symbol"  width="42.075" height="77.399" x="-21.037" y="-38.699" transform="matrix(1 0 0 -1 776.5234 3302.375)" overflow="visible"/>
	
		<use xlink:href="#New_Symbol"  width="42.075" height="77.399" x="-21.037" y="-38.699" transform="matrix(1 0 0 -1 559.9263 3281.5254)" overflow="visible"/>
	
		<use xlink:href="#New_Symbol"  width="42.075" height="77.399" x="-21.037" y="-38.699" transform="matrix(1 0 0 -1 342.0078 3271.5146)" overflow="visible"/>
	
		<use xlink:href="#New_Symbol"  width="42.075" height="77.399" x="-21.037" y="-38.699" transform="matrix(1 0 0 -1 166.2979 3281.4941)" overflow="visible"/>
	
		<use xlink:href="#New_Symbol"  width="42.075" height="77.399" x="-21.037" y="-38.699" transform="matrix(1 0 0 -1 11.0737 3281.1074)" overflow="visible"/>
	
		<use xlink:href="#New_Symbol"  width="42.075" height="77.399" x="-21.037" y="-38.699" transform="matrix(1 0 0 -1 -132.5527 3282.0449)" overflow="visible"/>
	
		<use xlink:href="#New_Symbol"  width="42.075" height="77.399" x="-21.037" y="-38.699" transform="matrix(1 0 0 -1 -337.1421 3280.6201)" overflow="visible"/>
	
		<use xlink:href="#New_Symbol"  width="42.075" height="77.399" x="-21.037" y="-38.699" transform="matrix(1 0 0 -1 -465.8164 3290.4746)" overflow="visible"/>
	
		<use xlink:href="#New_Symbol"  width="42.075" height="77.399" x="-21.037" y="-38.699" transform="matrix(1 0 0 -1 -536.8008 3349.6494)" overflow="visible"/>
	
		<use xlink:href="#New_Symbol"  width="42.075" height="77.399" x="-21.037" y="-38.699" transform="matrix(1 0 0 -1 -111.8252 3397.6855)" overflow="visible"/>
	
		<use xlink:href="#New_Symbol"  width="42.075" height="77.399" x="-21.037" y="-38.699" transform="matrix(1 0 0 -1 104.3647 3397.207)" overflow="visible"/>
	
		<use xlink:href="#New_Symbol"  width="42.075" height="77.399" x="-21.037" y="-38.699" transform="matrix(1 0 0 -1 386.1709 3408.0879)" overflow="visible"/>
	
		<use xlink:href="#New_Symbol"  width="42.075" height="77.399" x="-21.037" y="-38.699" transform="matrix(1 0 0 -1 615.9502 3432.6836)" overflow="visible"/>
	
		<use xlink:href="#New_Symbol"  width="42.075" height="77.399" x="-21.037" y="-38.699" transform="matrix(1 0 0 -1 775.9707 3436.7588)" overflow="visible"/>
	
		<use xlink:href="#New_Symbol"  width="42.075" height="77.399" x="-21.037" y="-38.699" transform="matrix(1 0 0 -1 970.707 3442.5723)" overflow="visible"/>
	
		<use xlink:href="#New_Symbol"  width="42.075" height="77.399" x="-21.037" y="-38.699" transform="matrix(1 0 0 -1 1118.9316 3444.4199)" overflow="visible"/>
</g>
</svg>
